G04 Layer_Physical_Order=1*
G04 Layer_Color=255*
%FSLAX25Y25*%
%MOIN*%
G70*
G01*
G75*
%ADD10C,0.01968*%
%ADD11C,0.01000*%
%ADD12C,0.00787*%
%ADD13C,0.00394*%
%ADD14C,0.06000*%
%ADD15R,0.06000X0.06000*%
%ADD16C,0.05905*%
%ADD17R,0.05905X0.05905*%
%ADD18C,0.06555*%
%ADD19C,0.15000*%
%ADD20R,0.05905X0.05905*%
D10*
X77500Y152500D02*
X99000D01*
X100500Y151000D01*
X79500Y96000D02*
X85500D01*
X100500Y81000D01*
X77500Y122500D02*
X91500Y108500D01*
Y95568D02*
Y108500D01*
Y95568D02*
X96068Y91000D01*
X100500D01*
X79606Y48000D02*
X107500D01*
X140500Y81000D01*
X79606Y43500D02*
Y48000D01*
Y53500D01*
Y33500D02*
X163000D01*
X210500Y81000D01*
X193000Y53500D02*
X244961D01*
X149500Y10000D02*
X193000Y53500D01*
Y43500D02*
X244961D01*
X159500Y10000D02*
X193000Y43500D01*
X210500Y221000D02*
X211138Y220362D01*
X212500Y223000D02*
X226000D01*
X210500Y221000D02*
X212500Y223000D01*
X218500Y209000D02*
X226000Y213000D01*
X218500Y199000D02*
Y209000D01*
X210500Y191000D02*
X218500Y199000D01*
X226000Y182000D02*
Y192500D01*
X235000Y201500D01*
Y214000D01*
X226000Y223000D02*
X235000Y214000D01*
X219500Y162000D02*
X226000D01*
X210500Y171000D02*
X219500Y162000D01*
Y152000D02*
X226000D01*
X210500Y161000D02*
X219500Y152000D01*
X226000Y182000D02*
X235000D01*
X244961Y172039D01*
Y63500D02*
Y172039D01*
D11*
X250465Y18965D02*
G03*
X254000Y27500I-8535J8535D01*
G01*
X228500Y2000D02*
G03*
X237035Y5536I0J12071D01*
G01*
X19964D02*
G03*
X28500Y2000I8535J8535D01*
G01*
X2000Y28500D02*
G03*
X5536Y19964I12071J0D01*
G01*
Y228035D02*
G03*
X2000Y219500I8535J-8535D01*
G01*
X30000Y247500D02*
G03*
X21464Y243965I0J-12071D01*
G01*
X241535D02*
G03*
X233000Y247500I-8535J-8535D01*
G01*
X254000Y226500D02*
G03*
X250465Y235035I-12071J0D01*
G01*
X254000Y27500D02*
Y121500D01*
X237035Y5536D02*
X250465Y18965D01*
X28500Y2000D02*
X228500D01*
X5536Y19964D02*
X19964Y5536D01*
X2000Y28500D02*
Y219500D01*
X5536Y228035D02*
X21464Y243965D01*
X30000Y247500D02*
X233000D01*
X241535Y243965D02*
X250465Y235035D01*
X254000Y120500D02*
Y226500D01*
D12*
X7500Y117500D02*
Y197500D01*
X87500D01*
Y117500D02*
Y197500D01*
X7500Y117500D02*
X87500D01*
D13*
X3563Y113563D02*
Y201437D01*
X91437D01*
Y113563D02*
Y201437D01*
X3563Y113563D02*
X91437D01*
D14*
X79606Y33500D02*
D03*
Y43500D02*
D03*
Y53500D02*
D03*
X244961Y63500D02*
D03*
Y53500D02*
D03*
Y43500D02*
D03*
Y33500D02*
D03*
X210500Y231000D02*
D03*
Y221000D02*
D03*
Y211000D02*
D03*
Y201000D02*
D03*
Y191000D02*
D03*
Y181000D02*
D03*
Y171000D02*
D03*
Y161000D02*
D03*
Y151000D02*
D03*
Y141000D02*
D03*
Y131000D02*
D03*
Y121000D02*
D03*
Y111000D02*
D03*
Y101000D02*
D03*
Y91000D02*
D03*
Y81000D02*
D03*
X200500D02*
D03*
X190500D02*
D03*
X180500D02*
D03*
X170500D02*
D03*
X160500D02*
D03*
X150500D02*
D03*
X140500D02*
D03*
X130500D02*
D03*
X120500D02*
D03*
X110500D02*
D03*
X100500Y231000D02*
D03*
Y221000D02*
D03*
Y211000D02*
D03*
Y201000D02*
D03*
Y191000D02*
D03*
Y181000D02*
D03*
Y171000D02*
D03*
Y161000D02*
D03*
Y151000D02*
D03*
Y141000D02*
D03*
Y131000D02*
D03*
Y121000D02*
D03*
Y111000D02*
D03*
Y101000D02*
D03*
Y91000D02*
D03*
Y81000D02*
D03*
X236221Y236221D02*
D03*
X27559D02*
D03*
Y19685D02*
D03*
X236221D02*
D03*
D15*
X79606Y63500D02*
D03*
D16*
X79500Y96000D02*
D03*
X226000Y182000D02*
D03*
Y172000D02*
D03*
Y162000D02*
D03*
Y152000D02*
D03*
Y142000D02*
D03*
X159500Y10000D02*
D03*
X226000Y203000D02*
D03*
Y213000D02*
D03*
D17*
X79500Y86000D02*
D03*
X226000Y132000D02*
D03*
Y223000D02*
D03*
D18*
X77500Y122500D02*
D03*
Y132500D02*
D03*
Y142500D02*
D03*
Y152500D02*
D03*
Y162500D02*
D03*
Y172500D02*
D03*
Y182500D02*
D03*
Y192500D02*
D03*
D19*
X17500Y127500D02*
D03*
Y187500D02*
D03*
D20*
X149500Y10000D02*
D03*
M02*
