G04 Layer_Color=255*
%FSLAX25Y25*%
%MOIN*%
G70*
G01*
G75*
%ADD11R,0.06299X0.04724*%
%ADD12R,0.05512X0.04331*%
G04:AMPARAMS|DCode=13|XSize=141.73mil|YSize=62.99mil|CornerRadius=7.87mil|HoleSize=0mil|Usage=FLASHONLY|Rotation=270.000|XOffset=0mil|YOffset=0mil|HoleType=Round|Shape=RoundedRectangle|*
%AMROUNDEDRECTD13*
21,1,0.14173,0.04724,0,0,270.0*
21,1,0.12598,0.06299,0,0,270.0*
1,1,0.01575,-0.02362,-0.06299*
1,1,0.01575,-0.02362,0.06299*
1,1,0.01575,0.02362,0.06299*
1,1,0.01575,0.02362,-0.06299*
%
%ADD13ROUNDEDRECTD13*%
%ADD14C,0.01000*%
%ADD15C,0.00787*%
%ADD16C,0.00394*%
%ADD17C,0.06000*%
%ADD18R,0.05905X0.05905*%
%ADD19C,0.05905*%
%ADD20R,0.05905X0.05905*%
%ADD21C,0.15000*%
%ADD22C,0.06555*%
%ADD23R,0.06000X0.06000*%
D11*
X220602Y155000D02*
D03*
X208004D02*
D03*
D12*
X228000Y197374D02*
D03*
Y189500D02*
D03*
D13*
X204000Y194114D02*
D03*
Y170886D02*
D03*
D14*
X190500Y365500D02*
G03*
X181965Y361965I0J-12071D01*
G01*
X178035Y358035D02*
G03*
X174500Y349500I8535J-8535D01*
G01*
Y124485D02*
G03*
X176964Y118535I8414J0D01*
G01*
D02*
G03*
X185500Y115000I8535J8535D01*
G01*
X426500D02*
G03*
X435036Y118535I0J12071D01*
G01*
X437465Y120965D02*
G03*
X441000Y129500I-8535J8535D01*
G01*
Y352000D02*
G03*
X437465Y360536I-12071J0D01*
G01*
X435500Y362500D02*
G03*
X428257Y365500I-7243J-7243D01*
G01*
X190500D02*
X346500D01*
X178035Y358035D02*
X181965Y361965D01*
X174500Y124485D02*
Y349500D01*
X185500Y115000D02*
X426500D01*
X435036Y118535D02*
X437465Y120965D01*
X441000Y129500D02*
Y352000D01*
X435500Y362500D02*
X437465Y360536D01*
X346500Y365500D02*
X428257D01*
D15*
X201500Y213222D02*
X281500D01*
Y293222D01*
X201500D02*
X281500D01*
X201500Y213222D02*
Y293222D01*
D16*
X197563Y209285D02*
X285437D01*
Y297160D01*
X197563D02*
X285437D01*
X197563Y209285D02*
Y297160D01*
D17*
X196850Y125984D02*
D03*
X425197D02*
D03*
Y354331D02*
D03*
X196850D02*
D03*
X294500Y198500D02*
D03*
Y208500D02*
D03*
Y218500D02*
D03*
Y228500D02*
D03*
Y238500D02*
D03*
Y248500D02*
D03*
Y258500D02*
D03*
Y268500D02*
D03*
Y278500D02*
D03*
Y288500D02*
D03*
Y298500D02*
D03*
Y308500D02*
D03*
Y318500D02*
D03*
Y328500D02*
D03*
Y338500D02*
D03*
Y348500D02*
D03*
X304500Y198500D02*
D03*
X314500D02*
D03*
X324500D02*
D03*
X334500D02*
D03*
X344500D02*
D03*
X354500D02*
D03*
X364500D02*
D03*
X374500D02*
D03*
X384500D02*
D03*
X394500D02*
D03*
X404500D02*
D03*
Y208500D02*
D03*
Y218500D02*
D03*
Y228500D02*
D03*
Y238500D02*
D03*
Y248500D02*
D03*
Y258500D02*
D03*
Y268500D02*
D03*
Y278500D02*
D03*
Y288500D02*
D03*
Y298500D02*
D03*
Y308500D02*
D03*
Y318500D02*
D03*
Y328500D02*
D03*
Y338500D02*
D03*
Y348500D02*
D03*
Y149500D02*
D03*
Y159500D02*
D03*
Y169500D02*
D03*
Y179500D02*
D03*
X239146Y169500D02*
D03*
Y159500D02*
D03*
Y149500D02*
D03*
D18*
X185500Y154409D02*
D03*
X315000Y128500D02*
D03*
D19*
X195500Y154409D02*
D03*
X325000Y128500D02*
D03*
X418000Y248453D02*
D03*
Y258453D02*
D03*
Y268453D02*
D03*
Y278453D02*
D03*
Y288453D02*
D03*
Y328547D02*
D03*
Y318547D02*
D03*
D20*
Y238453D02*
D03*
Y338547D02*
D03*
D21*
X211500Y283222D02*
D03*
Y223222D02*
D03*
D22*
X271500Y288222D02*
D03*
Y278222D02*
D03*
Y268222D02*
D03*
Y258222D02*
D03*
Y248222D02*
D03*
Y238222D02*
D03*
Y228222D02*
D03*
Y218222D02*
D03*
D23*
X239146Y179500D02*
D03*
M02*
