G04 Layer_Color=16711935*
%FSLAX25Y25*%
%MOIN*%
G70*
G01*
G75*
%ADD14C,0.01000*%
%ADD15C,0.00787*%
%ADD16C,0.00394*%
%ADD29C,0.06800*%
%ADD30R,0.06706X0.06706*%
%ADD31C,0.06706*%
%ADD32R,0.06706X0.06706*%
%ADD33C,0.15800*%
%ADD34C,0.07355*%
%ADD35R,0.06800X0.06800*%
%ADD36C,0.05800*%
D14*
X190500Y365500D02*
G03*
X181965Y361965I0J-12071D01*
G01*
X178035Y358035D02*
G03*
X174500Y349500I8535J-8535D01*
G01*
Y124485D02*
G03*
X176964Y118535I8414J0D01*
G01*
D02*
G03*
X185500Y115000I8535J8535D01*
G01*
X426500D02*
G03*
X435036Y118535I0J12071D01*
G01*
X437465Y120965D02*
G03*
X441000Y129500I-8535J8535D01*
G01*
Y352000D02*
G03*
X437465Y360536I-12071J0D01*
G01*
X435500Y362500D02*
G03*
X428257Y365500I-7243J-7243D01*
G01*
X190500D02*
X346500D01*
X178035Y358035D02*
X181965Y361965D01*
X174500Y124485D02*
Y349500D01*
X185500Y115000D02*
X426500D01*
X435036Y118535D02*
X437465Y120965D01*
X441000Y129500D02*
Y352000D01*
X435500Y362500D02*
X437465Y360536D01*
X346500Y365500D02*
X428257D01*
D15*
X201500Y213222D02*
X281500D01*
Y293222D01*
X201500D02*
X281500D01*
X201500Y213222D02*
Y293222D01*
D16*
X197563Y209285D02*
X285437D01*
Y297160D01*
X197563D02*
X285437D01*
X197563Y209285D02*
Y297160D01*
D29*
X196850Y125984D02*
D03*
X425197D02*
D03*
Y354331D02*
D03*
X196850D02*
D03*
X294500Y198500D02*
D03*
Y208500D02*
D03*
Y218500D02*
D03*
Y228500D02*
D03*
Y238500D02*
D03*
Y248500D02*
D03*
Y258500D02*
D03*
Y268500D02*
D03*
Y278500D02*
D03*
Y288500D02*
D03*
Y298500D02*
D03*
Y308500D02*
D03*
Y318500D02*
D03*
Y328500D02*
D03*
Y338500D02*
D03*
Y348500D02*
D03*
X304500Y198500D02*
D03*
X314500D02*
D03*
X324500D02*
D03*
X334500D02*
D03*
X344500D02*
D03*
X354500D02*
D03*
X364500D02*
D03*
X374500D02*
D03*
X384500D02*
D03*
X394500D02*
D03*
X404500D02*
D03*
Y208500D02*
D03*
Y218500D02*
D03*
Y228500D02*
D03*
Y238500D02*
D03*
Y248500D02*
D03*
Y258500D02*
D03*
Y268500D02*
D03*
Y278500D02*
D03*
Y288500D02*
D03*
Y298500D02*
D03*
Y308500D02*
D03*
Y318500D02*
D03*
Y328500D02*
D03*
Y338500D02*
D03*
Y348500D02*
D03*
Y149500D02*
D03*
Y159500D02*
D03*
Y169500D02*
D03*
Y179500D02*
D03*
X239146Y169500D02*
D03*
Y159500D02*
D03*
Y149500D02*
D03*
D30*
X185500Y154409D02*
D03*
X315000Y128500D02*
D03*
D31*
X195500Y154409D02*
D03*
X325000Y128500D02*
D03*
X418000Y248453D02*
D03*
Y258453D02*
D03*
Y268453D02*
D03*
Y278453D02*
D03*
Y288453D02*
D03*
Y328547D02*
D03*
Y318547D02*
D03*
D32*
Y238453D02*
D03*
Y338547D02*
D03*
D33*
X211500Y283222D02*
D03*
Y223222D02*
D03*
D34*
X271500Y288222D02*
D03*
Y278222D02*
D03*
Y268222D02*
D03*
Y258222D02*
D03*
Y248222D02*
D03*
Y238222D02*
D03*
Y228222D02*
D03*
Y218222D02*
D03*
D35*
X239146Y179500D02*
D03*
D36*
X204000Y206500D02*
D03*
X228000Y205000D02*
D03*
M02*
