G04 Layer_Color=65535*
%FSLAX25Y25*%
%MOIN*%
G70*
G01*
G75*
%ADD14C,0.01000*%
%ADD15C,0.00787*%
%ADD16C,0.00394*%
%ADD25C,0.00600*%
D14*
X299500Y343500D02*
Y351000D01*
Y343500D02*
X307000Y351000D01*
X299500D02*
X307000D01*
X289500Y196500D02*
X291500Y194500D01*
X407000D01*
X409500Y197000D01*
Y351000D01*
X407000Y353500D02*
X409500Y351000D01*
X292500Y353500D02*
X407000D01*
X289500Y350500D02*
X292500Y353500D01*
X289500Y196500D02*
Y350500D01*
Y273500D02*
X301500D01*
X397000D02*
X409500D01*
X234146Y144500D02*
Y184500D01*
Y144500D02*
X409146D01*
Y184500D01*
X234146D02*
X409146D01*
X244146Y177000D02*
Y182000D01*
Y177000D02*
X249146Y182000D01*
X244146D02*
X249146D01*
X181000Y161500D02*
Y167498D01*
X183999D01*
X184999Y166498D01*
Y164499D01*
X183999Y163499D01*
X181000D01*
X190997Y161500D02*
X186998D01*
X190997Y165499D01*
Y166498D01*
X189997Y167498D01*
X187998D01*
X186998Y166498D01*
X426500Y338000D02*
X425500D01*
Y339000D01*
X426500D01*
Y338000D01*
X425502Y246500D02*
X431500D01*
Y249499D01*
X430500Y250499D01*
X426502D01*
X425502Y249499D01*
Y246500D01*
X426502Y256497D02*
X425502Y255497D01*
Y253498D01*
X426502Y252498D01*
X427501D01*
X428501Y253498D01*
Y255497D01*
X429501Y256497D01*
X430500D01*
X431500Y255497D01*
Y253498D01*
X430500Y252498D01*
X426502Y258496D02*
X425502Y259496D01*
Y261495D01*
X426502Y262495D01*
X427501D01*
X428501Y261495D01*
Y260495D01*
Y261495D01*
X429501Y262495D01*
X430500D01*
X431500Y261495D01*
Y259496D01*
X430500Y258496D01*
X431500Y268493D02*
Y264494D01*
X427501Y268493D01*
X426502D01*
X425502Y267493D01*
Y265494D01*
X426502Y264494D01*
Y270492D02*
X425502Y271492D01*
Y273491D01*
X426502Y274491D01*
X427501D01*
X428501Y273491D01*
Y272492D01*
Y273491D01*
X429501Y274491D01*
X430500D01*
X431500Y273491D01*
Y271492D01*
X430500Y270492D01*
X431500Y276490D02*
Y278490D01*
Y277490D01*
X425502D01*
X426502Y276490D01*
X431500Y281489D02*
X425502D01*
X427501Y283488D01*
X425502Y285487D01*
X431500D01*
X182000Y144499D02*
X185999D01*
X193996D02*
X197995D01*
X195995Y146498D02*
Y142500D01*
X215000Y147998D02*
Y142000D01*
X217999D01*
X218999Y143000D01*
Y146998D01*
X217999Y147998D01*
X215000D01*
X220998Y142000D02*
X222997D01*
X221998D01*
Y147998D01*
X220998Y146998D01*
X238499Y204498D02*
X237499Y205498D01*
X235500D01*
X234500Y204498D01*
Y200500D01*
X235500Y199500D01*
X237499D01*
X238499Y200500D01*
X244497Y199500D02*
X240498D01*
X244497Y203499D01*
Y204498D01*
X243497Y205498D01*
X241498D01*
X240498Y204498D01*
X312000Y141498D02*
Y135500D01*
X314999D01*
X315999Y136500D01*
Y137499D01*
X314999Y138499D01*
X312000D01*
X314999D01*
X315999Y139499D01*
Y140498D01*
X314999Y141498D01*
X312000D01*
X323996Y135500D02*
Y139499D01*
X325995Y141498D01*
X327995Y139499D01*
Y135500D01*
Y138499D01*
X323996D01*
X335000Y125000D02*
Y130998D01*
X337999D01*
X338999Y129998D01*
Y127999D01*
X337999Y126999D01*
X335000D01*
X340998Y129998D02*
X341998Y130998D01*
X343997D01*
X344997Y129998D01*
Y128999D01*
X343997Y127999D01*
X342997D01*
X343997D01*
X344997Y126999D01*
Y126000D01*
X343997Y125000D01*
X341998D01*
X340998Y126000D01*
X414000Y224953D02*
Y230951D01*
X416999D01*
X417999Y229951D01*
Y227952D01*
X416999Y226952D01*
X414000D01*
X419998Y224953D02*
X421997D01*
X420998D01*
Y230951D01*
X419998Y229951D01*
X414000Y304500D02*
Y310498D01*
X416999D01*
X417999Y309498D01*
Y307499D01*
X416999Y306499D01*
X414000D01*
X422997Y304500D02*
Y310498D01*
X419998Y307499D01*
X423997D01*
X293949Y357950D02*
Y361948D01*
X292949Y362948D01*
X290950D01*
X289950Y361948D01*
Y357950D01*
X290950Y356950D01*
X292949D01*
X291949Y358949D02*
X293949Y356950D01*
X292949D02*
X293949Y357950D01*
X295948Y356950D02*
X297947D01*
X296948D01*
Y362948D01*
X295948Y361948D01*
X198400Y300322D02*
Y304321D01*
X200399Y306321D01*
X202399Y304321D01*
Y300322D01*
Y303322D01*
X198400D01*
X208397Y305321D02*
X207397Y306321D01*
X205398D01*
X204398Y305321D01*
Y301322D01*
X205398Y300322D01*
X207397D01*
X208397Y301322D01*
X210396Y300322D02*
X212396D01*
X211396D01*
Y306321D01*
X210396Y305321D01*
X192299Y209598D02*
X191299Y210598D01*
X189300D01*
X188300Y209598D01*
Y205600D01*
X189300Y204600D01*
X191299D01*
X192299Y205600D01*
X194298Y204600D02*
X196297D01*
X195298D01*
Y210598D01*
X194298Y209598D01*
X238644Y189000D02*
Y192998D01*
X237645Y193998D01*
X235645D01*
X234646Y192998D01*
Y189000D01*
X235645Y188000D01*
X237645D01*
X236645Y189999D02*
X238644Y188000D01*
X237645D02*
X238644Y189000D01*
X244642Y188000D02*
X240644D01*
X244642Y191999D01*
Y192998D01*
X243643Y193998D01*
X241643D01*
X240644Y192998D01*
X190500Y365500D02*
G03*
X181965Y361965I0J-12071D01*
G01*
X178035Y358035D02*
G03*
X174500Y349500I8535J-8535D01*
G01*
Y124485D02*
G03*
X176964Y118535I8414J0D01*
G01*
D02*
G03*
X185500Y115000I8535J8535D01*
G01*
X426500D02*
G03*
X435036Y118535I0J12071D01*
G01*
X437465Y120965D02*
G03*
X441000Y129500I-8535J8535D01*
G01*
Y352000D02*
G03*
X437465Y360536I-12071J0D01*
G01*
X435500Y362500D02*
G03*
X428257Y365500I-7243J-7243D01*
G01*
X190500D02*
X346500D01*
X178035Y358035D02*
X181965Y361965D01*
X174500Y124485D02*
Y349500D01*
X185500Y115000D02*
X426500D01*
X435036Y118535D02*
X437465Y120965D01*
X441000Y129500D02*
Y352000D01*
X435500Y362500D02*
X437465Y360536D01*
X346500Y365500D02*
X428257D01*
D15*
X271894Y210742D02*
G03*
X271106Y210742I-394J0D01*
G01*
D02*
G03*
X271894Y210742I394J0D01*
G01*
X200500Y149409D02*
Y159409D01*
X180500Y149409D02*
X200500D01*
X180500D02*
Y159409D01*
X200500D01*
X330000Y123500D02*
Y133500D01*
X310000Y123500D02*
X330000D01*
X310000D02*
Y133500D01*
X330000D01*
X413000Y293453D02*
X423000D01*
X413000Y233453D02*
X423000D01*
X413000D02*
Y293453D01*
X423000Y233453D02*
Y293453D01*
X413000Y313547D02*
Y343547D01*
Y313547D02*
X423000D01*
Y343547D01*
X413000D02*
X423000D01*
X209906Y166161D02*
X214827D01*
X193173D02*
X198094D01*
X209906Y198839D02*
X220339D01*
X187661D02*
X198094D01*
X187661Y171673D02*
Y198839D01*
Y171673D02*
X193173Y166161D01*
X220339Y171673D02*
Y198839D01*
X214827Y166161D02*
X220339Y171673D01*
X430000Y236000D02*
Y237312D01*
Y236656D01*
X426064D01*
X426720Y236000D01*
X201500Y213222D02*
X281500D01*
Y293222D01*
X201500D02*
X281500D01*
X201500Y213222D02*
Y293222D01*
D16*
X208594Y158937D02*
X220406D01*
Y158150D02*
Y158937D01*
X208594Y158150D02*
Y158937D01*
Y151063D02*
Y151850D01*
Y151063D02*
X220406D01*
Y151850D01*
X216469Y151063D02*
Y158937D01*
X224457Y186350D02*
X231543D01*
Y200524D01*
X224457D02*
X231543D01*
X224457Y186350D02*
Y200524D01*
X201500Y213222D02*
X281500D01*
Y293222D01*
X201500D02*
X281500D01*
X201500Y213222D02*
Y293222D01*
X197563Y209285D02*
X285437D01*
Y297160D01*
X197563D02*
X285437D01*
X197563Y209285D02*
Y297160D01*
D25*
X218567Y165177D02*
Y167146D01*
X204000Y183287D02*
Y184468D01*
Y180532D02*
Y181713D01*
X196126D02*
X211874D01*
X196126Y183287D02*
X211874D01*
X216598Y165177D02*
X220535D01*
X218567Y163209D02*
Y165177D01*
M02*
