M48
;Layer_Color=9474304
;FILE_FORMAT=2:5
INCH,LZ
;TYPE=PLATED
T1F00S00C0.02800
T2F00S00C0.03000
T3F00S00C0.03543
T4F00S00C0.04370
T5F00S00C0.10000
T6F00S00C0.13780
%
T01
X0204Y02065
X0228Y0205
T02
X0239146Y01495
X04045
Y01595
Y01695
Y01795
Y01985
Y02085
Y02185
Y02285
Y02385
Y02485
Y02585
Y02685
Y02785
Y02885
Y02985
Y03085
X03945Y01985
X03845
X03745
X03645
X03545
X03445
X03345
X03245
X03145
X03045
X02945
Y02085
Y02185
Y02285
Y02385
Y02485
Y02585
Y02685
Y02785
Y02885
Y02985
Y03085
X0239146Y01795
Y01695
Y01595
X02945Y03185
Y03285
Y03385
Y03485
X04045
Y03385
Y03285
Y03185
T03
X01855Y0154409
X01955
X0315Y01285
X0325
X0418Y0238453
Y0248453
Y0258453
Y0268453
Y0278453
Y0288453
Y0318547
Y0328547
Y0338547
T04
X02715Y0218222
Y0228222
Y0238222
Y0248222
Y0258222
Y0268222
Y0278222
Y0288222
T05
X02115Y0223222
Y0283222
T06
X019685Y0125984
X0425197
X019685Y0354331
X0425197
M30
