G04 Layer_Physical_Order=2*
G04 Layer_Color=16711680*
%FSLAX25Y25*%
%MOIN*%
G70*
G01*
G75*
%ADD10C,0.01968*%
%ADD14C,0.01000*%
%ADD15C,0.00787*%
%ADD16C,0.00394*%
%ADD17C,0.06000*%
%ADD18R,0.05905X0.05905*%
%ADD19C,0.05905*%
%ADD20R,0.05905X0.05905*%
%ADD21C,0.15000*%
%ADD22C,0.06555*%
%ADD23R,0.06000X0.06000*%
%ADD24C,0.05000*%
G36*
X419909Y361500D02*
X419028Y360778D01*
X418903Y360625D01*
X418750Y360499D01*
X417889Y359450D01*
X417796Y359276D01*
X417670Y359123D01*
X417031Y357926D01*
X416973Y357737D01*
X416880Y357563D01*
X416486Y356264D01*
X416467Y356067D01*
X416409Y355878D01*
X416276Y354527D01*
X416296Y354331D01*
X416276Y354134D01*
X416409Y352783D01*
X416467Y352594D01*
X416486Y352397D01*
X416880Y351099D01*
X416973Y350924D01*
X417031Y350735D01*
X417670Y349538D01*
X417796Y349385D01*
X417889Y349211D01*
X418750Y348162D01*
X418903Y348037D01*
X419028Y347884D01*
X420077Y347023D01*
X420252Y346930D01*
X420404Y346804D01*
X421601Y346164D01*
X421791Y346107D01*
X421965Y346014D01*
X423264Y345620D01*
X423460Y345601D01*
X423650Y345543D01*
X425000Y345410D01*
X425099Y345420D01*
X425197Y345401D01*
X425294Y345420D01*
X425394Y345410D01*
X426744Y345543D01*
X426933Y345601D01*
X427130Y345620D01*
X428429Y346014D01*
X428603Y346107D01*
X428792Y346164D01*
X429989Y346804D01*
X430142Y346930D01*
X430316Y347023D01*
X431365Y347884D01*
X431491Y348037D01*
X431644Y348162D01*
X432505Y349211D01*
X432598Y349385D01*
X432723Y349538D01*
X433363Y350735D01*
X433420Y350924D01*
X433514Y351099D01*
X433908Y352397D01*
X433927Y352594D01*
X433984Y352783D01*
X434117Y354134D01*
X434098Y354331D01*
X434117Y354527D01*
X433984Y355878D01*
X433927Y356067D01*
X433908Y356264D01*
X433514Y357563D01*
X433420Y357737D01*
X433363Y357926D01*
X432723Y359123D01*
X432598Y359276D01*
X432505Y359450D01*
X431644Y360499D01*
X431491Y360625D01*
X431365Y360778D01*
X430627Y361384D01*
X430848Y361849D01*
X431250Y361769D01*
X432342Y361317D01*
X433325Y360661D01*
X434161Y359825D01*
X434817Y358842D01*
X435269Y357750D01*
X435500Y356591D01*
Y356000D01*
Y126500D01*
Y125811D01*
X435231Y124458D01*
X434703Y123184D01*
X433937Y122038D01*
X433519Y121619D01*
X433113Y121920D01*
X433363Y122389D01*
X433420Y122578D01*
X433514Y122752D01*
X433908Y124051D01*
X433927Y124248D01*
X433984Y124437D01*
X434117Y125787D01*
X434098Y125984D01*
X434117Y126181D01*
X433984Y127532D01*
X433927Y127721D01*
X433908Y127918D01*
X433514Y129216D01*
X433420Y129391D01*
X433363Y129580D01*
X432723Y130777D01*
X432598Y130929D01*
X432505Y131104D01*
X431644Y132153D01*
X431491Y132278D01*
X431365Y132431D01*
X430316Y133292D01*
X430142Y133385D01*
X429989Y133511D01*
X428792Y134150D01*
X428603Y134208D01*
X428429Y134301D01*
X427130Y134695D01*
X426933Y134714D01*
X426744Y134772D01*
X425394Y134905D01*
X425294Y134895D01*
X425197Y134914D01*
X425099Y134895D01*
X425000Y134905D01*
X423650Y134772D01*
X423460Y134714D01*
X423264Y134695D01*
X421965Y134301D01*
X421791Y134208D01*
X421601Y134150D01*
X420404Y133511D01*
X420252Y133385D01*
X420077Y133292D01*
X419028Y132431D01*
X418903Y132278D01*
X418750Y132153D01*
X417889Y131104D01*
X417796Y130929D01*
X417670Y130777D01*
X417031Y129580D01*
X416973Y129391D01*
X416880Y129216D01*
X416486Y127918D01*
X416467Y127721D01*
X416409Y127532D01*
X416276Y126181D01*
X416296Y125984D01*
X416276Y125787D01*
X416409Y124437D01*
X416467Y124248D01*
X416486Y124051D01*
X416880Y122752D01*
X416973Y122578D01*
X417031Y122389D01*
X417670Y121192D01*
X417796Y121039D01*
X417889Y120865D01*
X418599Y120000D01*
X418362Y119500D01*
X203685D01*
X203449Y120000D01*
X204158Y120865D01*
X204251Y121039D01*
X204377Y121192D01*
X205017Y122389D01*
X205074Y122578D01*
X205167Y122752D01*
X205561Y124051D01*
X205580Y124248D01*
X205638Y124437D01*
X205771Y125787D01*
X205751Y125984D01*
X205771Y126181D01*
X205638Y127532D01*
X205580Y127721D01*
X205561Y127918D01*
X205167Y129216D01*
X205074Y129391D01*
X205017Y129580D01*
X204377Y130777D01*
X204251Y130929D01*
X204158Y131104D01*
X203297Y132153D01*
X203144Y132278D01*
X203019Y132431D01*
X201970Y133292D01*
X201796Y133385D01*
X201643Y133511D01*
X200446Y134150D01*
X200257Y134208D01*
X200082Y134301D01*
X198784Y134695D01*
X198587Y134714D01*
X198398Y134772D01*
X197047Y134905D01*
X196948Y134895D01*
X196850Y134914D01*
X196753Y134895D01*
X196654Y134905D01*
X195303Y134772D01*
X195114Y134714D01*
X194917Y134695D01*
X193618Y134301D01*
X193444Y134208D01*
X193255Y134150D01*
X192058Y133511D01*
X191905Y133385D01*
X191731Y133292D01*
X190682Y132431D01*
X190556Y132278D01*
X190403Y132153D01*
X189543Y131104D01*
X189449Y130929D01*
X189324Y130777D01*
X188684Y129580D01*
X188627Y129391D01*
X188534Y129216D01*
X188140Y127918D01*
X188120Y127721D01*
X188063Y127532D01*
X187930Y126181D01*
X187949Y125984D01*
X187930Y125787D01*
X188063Y124437D01*
X188120Y124248D01*
X188140Y124051D01*
X188534Y122752D01*
X188627Y122578D01*
X188684Y122389D01*
X189324Y121192D01*
X189449Y121039D01*
X189543Y120865D01*
X190252Y120000D01*
X190016Y119500D01*
X187515D01*
X185583Y119884D01*
X183763Y120638D01*
X182125Y121732D01*
X180733Y123125D01*
X179638Y124763D01*
X178884Y126583D01*
X178500Y128515D01*
Y129500D01*
Y352000D01*
Y352985D01*
X178884Y354917D01*
X179638Y356737D01*
X180733Y358375D01*
X182125Y359768D01*
X183763Y360862D01*
X185583Y361616D01*
X187515Y362000D01*
X191383D01*
X191562Y361500D01*
X190682Y360778D01*
X190556Y360625D01*
X190403Y360499D01*
X189543Y359450D01*
X189449Y359276D01*
X189324Y359123D01*
X188684Y357926D01*
X188627Y357737D01*
X188534Y357563D01*
X188140Y356264D01*
X188120Y356067D01*
X188063Y355878D01*
X187930Y354527D01*
X187949Y354331D01*
X187930Y354134D01*
X188063Y352783D01*
X188120Y352594D01*
X188140Y352397D01*
X188534Y351099D01*
X188627Y350924D01*
X188684Y350735D01*
X189324Y349538D01*
X189449Y349385D01*
X189543Y349211D01*
X190403Y348162D01*
X190556Y348037D01*
X190682Y347884D01*
X191731Y347023D01*
X191905Y346930D01*
X192058Y346804D01*
X193255Y346164D01*
X193444Y346107D01*
X193618Y346014D01*
X194917Y345620D01*
X195114Y345601D01*
X195303Y345543D01*
X196654Y345410D01*
X196753Y345420D01*
X196850Y345401D01*
X196948Y345420D01*
X197047Y345410D01*
X198398Y345543D01*
X198587Y345601D01*
X198784Y345620D01*
X200082Y346014D01*
X200257Y346107D01*
X200446Y346164D01*
X201643Y346804D01*
X201796Y346930D01*
X201970Y347023D01*
X203019Y347884D01*
X203144Y348037D01*
X203297Y348162D01*
X204158Y349211D01*
X204251Y349385D01*
X204377Y349538D01*
X205017Y350735D01*
X205074Y350924D01*
X205167Y351099D01*
X205561Y352397D01*
X205580Y352594D01*
X205638Y352783D01*
X205771Y354134D01*
X205751Y354331D01*
X205771Y354527D01*
X205638Y355878D01*
X205580Y356067D01*
X205561Y356264D01*
X205167Y357563D01*
X205074Y357737D01*
X205017Y357926D01*
X204377Y359123D01*
X204251Y359276D01*
X204158Y359450D01*
X203297Y360499D01*
X203144Y360625D01*
X203019Y360778D01*
X202139Y361500D01*
X202318Y362000D01*
X419730D01*
X419909Y361500D01*
D02*
G37*
%LPC*%
G36*
X232378Y204016D02*
X228984D01*
Y200623D01*
X229167Y200646D01*
X230254Y201097D01*
X231187Y201813D01*
X231903Y202747D01*
X232353Y203834D01*
X232378Y204016D01*
D02*
G37*
G36*
X227016D02*
X223622D01*
X223646Y203834D01*
X224097Y202747D01*
X224813Y201813D01*
X225746Y201097D01*
X226834Y200646D01*
X227016Y200623D01*
Y204016D01*
D02*
G37*
G36*
X409382Y327516D02*
X399618D01*
X399659Y327203D01*
X400160Y325994D01*
X400956Y324956D01*
X401994Y324160D01*
X402935Y323771D01*
Y323229D01*
X401994Y322840D01*
X400956Y322044D01*
X400160Y321006D01*
X399659Y319797D01*
X399489Y318500D01*
X399659Y317203D01*
X400160Y315994D01*
X400956Y314956D01*
X401994Y314160D01*
X402935Y313771D01*
Y313229D01*
X401994Y312840D01*
X400956Y312044D01*
X400160Y311006D01*
X399659Y309797D01*
X399489Y308500D01*
X399659Y307203D01*
X400160Y305994D01*
X400956Y304956D01*
X401994Y304160D01*
X402935Y303771D01*
Y303229D01*
X401994Y302840D01*
X400956Y302044D01*
X400160Y301006D01*
X399659Y299797D01*
X399489Y298500D01*
X399659Y297203D01*
X400160Y295994D01*
X400956Y294956D01*
X401994Y294160D01*
X402935Y293771D01*
Y293229D01*
X401994Y292840D01*
X400956Y292044D01*
X400160Y291006D01*
X399659Y289797D01*
X399489Y288500D01*
X399659Y287203D01*
X400160Y285994D01*
X400956Y284956D01*
X401994Y284160D01*
X402935Y283771D01*
Y283229D01*
X401994Y282840D01*
X400956Y282044D01*
X400160Y281006D01*
X399659Y279797D01*
X399489Y278500D01*
X399659Y277203D01*
X400160Y275994D01*
X400956Y274956D01*
X401994Y274160D01*
X402935Y273771D01*
Y273229D01*
X401994Y272840D01*
X400956Y272044D01*
X400160Y271006D01*
X399659Y269797D01*
X399489Y268500D01*
X399659Y267203D01*
X400160Y265994D01*
X400956Y264956D01*
X401994Y264160D01*
X402935Y263771D01*
Y263229D01*
X401994Y262840D01*
X400956Y262044D01*
X400160Y261006D01*
X399659Y259797D01*
X399489Y258500D01*
X399659Y257203D01*
X400160Y255994D01*
X400956Y254956D01*
X401994Y254160D01*
X402935Y253771D01*
Y253229D01*
X401994Y252840D01*
X400956Y252044D01*
X400160Y251006D01*
X399659Y249797D01*
X399489Y248500D01*
X399659Y247203D01*
X400160Y245994D01*
X400956Y244956D01*
X401994Y244160D01*
X402935Y243771D01*
Y243229D01*
X401994Y242840D01*
X400956Y242044D01*
X400160Y241006D01*
X399659Y239797D01*
X399489Y238500D01*
X399659Y237203D01*
X400160Y235994D01*
X400956Y234956D01*
X401994Y234160D01*
X402935Y233771D01*
Y233229D01*
X401994Y232840D01*
X400956Y232044D01*
X400160Y231006D01*
X399659Y229797D01*
X399489Y228500D01*
X399659Y227203D01*
X400160Y225994D01*
X400956Y224956D01*
X401994Y224160D01*
X402935Y223771D01*
Y223229D01*
X401994Y222840D01*
X400956Y222044D01*
X400160Y221006D01*
X399659Y219797D01*
X399489Y218500D01*
X399659Y217203D01*
X400160Y215994D01*
X400956Y214956D01*
X401994Y214160D01*
X402935Y213771D01*
Y213229D01*
X401994Y212840D01*
X400956Y212044D01*
X400160Y211006D01*
X399659Y209797D01*
X399489Y208500D01*
X399659Y207203D01*
X400160Y205994D01*
X400956Y204956D01*
X401994Y204160D01*
X402935Y203771D01*
Y203229D01*
X401994Y202840D01*
X400956Y202044D01*
X400160Y201006D01*
X399771Y200065D01*
X399229D01*
X398840Y201006D01*
X398044Y202044D01*
X397006Y202840D01*
X395797Y203341D01*
X394500Y203511D01*
X393203Y203341D01*
X391994Y202840D01*
X390956Y202044D01*
X390160Y201006D01*
X389771Y200065D01*
X389229D01*
X388840Y201006D01*
X388044Y202044D01*
X387006Y202840D01*
X385797Y203341D01*
X384500Y203511D01*
X383203Y203341D01*
X381994Y202840D01*
X380956Y202044D01*
X380160Y201006D01*
X379771Y200065D01*
X379229D01*
X378840Y201006D01*
X378044Y202044D01*
X377006Y202840D01*
X375797Y203341D01*
X374500Y203511D01*
X373203Y203341D01*
X371994Y202840D01*
X370956Y202044D01*
X370160Y201006D01*
X369771Y200065D01*
X369229D01*
X368840Y201006D01*
X368044Y202044D01*
X367006Y202840D01*
X365797Y203341D01*
X364500Y203511D01*
X363203Y203341D01*
X361994Y202840D01*
X360956Y202044D01*
X360160Y201006D01*
X359771Y200065D01*
X359229D01*
X358840Y201006D01*
X358044Y202044D01*
X357006Y202840D01*
X355797Y203341D01*
X354500Y203511D01*
X353203Y203341D01*
X351994Y202840D01*
X350956Y202044D01*
X350160Y201006D01*
X349771Y200065D01*
X349229D01*
X348840Y201006D01*
X348044Y202044D01*
X347006Y202840D01*
X345797Y203341D01*
X344500Y203511D01*
X343203Y203341D01*
X341994Y202840D01*
X340956Y202044D01*
X340160Y201006D01*
X339771Y200065D01*
X339229D01*
X338840Y201006D01*
X338044Y202044D01*
X337006Y202840D01*
X335797Y203341D01*
X334500Y203511D01*
X333203Y203341D01*
X331994Y202840D01*
X330956Y202044D01*
X330160Y201006D01*
X329771Y200065D01*
X329229D01*
X328840Y201006D01*
X328044Y202044D01*
X327006Y202840D01*
X325797Y203341D01*
X324500Y203511D01*
X323203Y203341D01*
X321994Y202840D01*
X320956Y202044D01*
X320160Y201006D01*
X319771Y200065D01*
X319229D01*
X318840Y201006D01*
X318044Y202044D01*
X317006Y202840D01*
X315797Y203341D01*
X314500Y203511D01*
X313203Y203341D01*
X311994Y202840D01*
X310956Y202044D01*
X310160Y201006D01*
X309771Y200065D01*
X309229D01*
X308840Y201006D01*
X308044Y202044D01*
X307006Y202840D01*
X305797Y203341D01*
X304500Y203511D01*
X303203Y203341D01*
X301994Y202840D01*
X300956Y202044D01*
X300160Y201006D01*
X299771Y200065D01*
X299229D01*
X298840Y201006D01*
X298044Y202044D01*
X297006Y202840D01*
X296065Y203229D01*
Y203771D01*
X297006Y204160D01*
X298044Y204956D01*
X298840Y205994D01*
X299341Y207203D01*
X299511Y208500D01*
X299341Y209797D01*
X298840Y211006D01*
X298044Y212044D01*
X297006Y212840D01*
X296065Y213229D01*
Y213771D01*
X297006Y214160D01*
X298044Y214956D01*
X298840Y215994D01*
X299341Y217203D01*
X299382Y217516D01*
X289618D01*
X289659Y217203D01*
X290160Y215994D01*
X290956Y214956D01*
X291994Y214160D01*
X292934Y213771D01*
Y213229D01*
X291994Y212840D01*
X290956Y212044D01*
X290160Y211006D01*
X289659Y209797D01*
X289489Y208500D01*
X289659Y207203D01*
X290160Y205994D01*
X290956Y204956D01*
X291994Y204160D01*
X292934Y203771D01*
Y203229D01*
X291994Y202840D01*
X290956Y202044D01*
X290160Y201006D01*
X289659Y199797D01*
X289489Y198500D01*
X289659Y197203D01*
X290160Y195994D01*
X290956Y194956D01*
X291994Y194160D01*
X293203Y193659D01*
X294500Y193489D01*
X295797Y193659D01*
X297006Y194160D01*
X298044Y194956D01*
X298840Y195994D01*
X299229Y196934D01*
X299771D01*
X300160Y195994D01*
X300956Y194956D01*
X301994Y194160D01*
X303203Y193659D01*
X304500Y193489D01*
X305797Y193659D01*
X307006Y194160D01*
X308044Y194956D01*
X308840Y195994D01*
X309229Y196934D01*
X309771D01*
X310160Y195994D01*
X310956Y194956D01*
X311994Y194160D01*
X313203Y193659D01*
X314500Y193489D01*
X315797Y193659D01*
X317006Y194160D01*
X318044Y194956D01*
X318840Y195994D01*
X319229Y196934D01*
X319771D01*
X320160Y195994D01*
X320956Y194956D01*
X321994Y194160D01*
X323203Y193659D01*
X324500Y193489D01*
X325797Y193659D01*
X327006Y194160D01*
X328044Y194956D01*
X328840Y195994D01*
X329229Y196934D01*
X329771D01*
X330160Y195994D01*
X330956Y194956D01*
X331994Y194160D01*
X333203Y193659D01*
X334500Y193489D01*
X335797Y193659D01*
X337006Y194160D01*
X338044Y194956D01*
X338840Y195994D01*
X339229Y196934D01*
X339771D01*
X340160Y195994D01*
X340956Y194956D01*
X341994Y194160D01*
X343203Y193659D01*
X344500Y193489D01*
X345797Y193659D01*
X347006Y194160D01*
X348044Y194956D01*
X348840Y195994D01*
X349229Y196934D01*
X349771D01*
X350160Y195994D01*
X350956Y194956D01*
X351994Y194160D01*
X353203Y193659D01*
X354500Y193489D01*
X355797Y193659D01*
X357006Y194160D01*
X358044Y194956D01*
X358840Y195994D01*
X359229Y196934D01*
X359771D01*
X360160Y195994D01*
X360956Y194956D01*
X361994Y194160D01*
X363203Y193659D01*
X364500Y193489D01*
X365797Y193659D01*
X367006Y194160D01*
X368044Y194956D01*
X368840Y195994D01*
X369229Y196934D01*
X369771D01*
X370160Y195994D01*
X370956Y194956D01*
X371994Y194160D01*
X373203Y193659D01*
X374500Y193489D01*
X375797Y193659D01*
X377006Y194160D01*
X378044Y194956D01*
X378840Y195994D01*
X379229Y196934D01*
X379771D01*
X380160Y195994D01*
X380956Y194956D01*
X381994Y194160D01*
X383203Y193659D01*
X384500Y193489D01*
X385797Y193659D01*
X387006Y194160D01*
X388044Y194956D01*
X388840Y195994D01*
X389229Y196934D01*
X389771D01*
X390160Y195994D01*
X390956Y194956D01*
X391994Y194160D01*
X393203Y193659D01*
X394500Y193489D01*
X395797Y193659D01*
X397006Y194160D01*
X398044Y194956D01*
X398840Y195994D01*
X399229Y196934D01*
X399771D01*
X400160Y195994D01*
X400956Y194956D01*
X401994Y194160D01*
X403203Y193659D01*
X404500Y193489D01*
X404623Y193505D01*
X404845Y193056D01*
X394266Y182478D01*
X244153D01*
Y182500D01*
X244000Y183268D01*
X243565Y183919D01*
X242914Y184354D01*
X242146Y184507D01*
X236146D01*
X235378Y184354D01*
X234727Y183919D01*
X234291Y183268D01*
X234139Y182500D01*
Y176500D01*
X234291Y175732D01*
X234727Y175081D01*
X235378Y174646D01*
X236146Y174493D01*
X236910D01*
X237009Y173993D01*
X236640Y173840D01*
X235602Y173044D01*
X234806Y172006D01*
X234305Y170797D01*
X234134Y169500D01*
X234305Y168203D01*
X234806Y166994D01*
X235602Y165956D01*
X236640Y165160D01*
X237580Y164771D01*
Y164229D01*
X236640Y163840D01*
X235602Y163044D01*
X234806Y162006D01*
X234305Y160797D01*
X234134Y159500D01*
X234305Y158203D01*
X234806Y156994D01*
X235602Y155956D01*
X236640Y155160D01*
X237580Y154771D01*
Y154229D01*
X236640Y153840D01*
X235602Y153044D01*
X234806Y152006D01*
X234305Y150797D01*
X234134Y149500D01*
X234305Y148203D01*
X234806Y146994D01*
X235602Y145956D01*
X236640Y145160D01*
X237849Y144659D01*
X239146Y144489D01*
X240443Y144659D01*
X241651Y145160D01*
X242689Y145956D01*
X243486Y146994D01*
X243986Y148203D01*
X244157Y149500D01*
X243986Y150797D01*
X243486Y152006D01*
X242689Y153044D01*
X241651Y153840D01*
X240711Y154229D01*
Y154771D01*
X241651Y155160D01*
X242689Y155956D01*
X243486Y156994D01*
X243986Y158203D01*
X244157Y159500D01*
X243986Y160797D01*
X243486Y162006D01*
X242689Y163044D01*
X241651Y163840D01*
X240711Y164229D01*
Y164771D01*
X241651Y165160D01*
X242689Y165956D01*
X243486Y166994D01*
X243986Y168203D01*
X244157Y169500D01*
X243986Y170797D01*
X243486Y172006D01*
X242689Y173044D01*
X241651Y173840D01*
X241282Y173993D01*
X241382Y174493D01*
X242146D01*
X242914Y174646D01*
X243565Y175081D01*
X244000Y175732D01*
X244153Y176500D01*
Y176522D01*
X395500D01*
X396271Y176623D01*
X396989Y176921D01*
X397606Y177394D01*
X399115Y178903D01*
X399588Y178742D01*
X399659Y178203D01*
X400160Y176994D01*
X400956Y175956D01*
X401994Y175160D01*
X402935Y174771D01*
Y174229D01*
X401994Y173840D01*
X400956Y173044D01*
X400160Y172006D01*
X399659Y170797D01*
X399489Y169500D01*
X399659Y168203D01*
X400160Y166994D01*
X400956Y165956D01*
X401994Y165160D01*
X402935Y164771D01*
Y164229D01*
X401994Y163840D01*
X400956Y163044D01*
X400160Y162006D01*
X399659Y160797D01*
X399489Y159500D01*
X399659Y158203D01*
X400160Y156994D01*
X400956Y155956D01*
X401994Y155160D01*
X402935Y154771D01*
Y154229D01*
X401994Y153840D01*
X400956Y153044D01*
X400160Y152006D01*
X399659Y150797D01*
X399618Y150484D01*
X409382D01*
X409341Y150797D01*
X408840Y152006D01*
X408044Y153044D01*
X407006Y153840D01*
X406066Y154229D01*
Y154771D01*
X407006Y155160D01*
X408044Y155956D01*
X408840Y156994D01*
X409341Y158203D01*
X409511Y159500D01*
X409341Y160797D01*
X408840Y162006D01*
X408044Y163044D01*
X407006Y163840D01*
X406066Y164229D01*
Y164771D01*
X407006Y165160D01*
X408044Y165956D01*
X408840Y166994D01*
X409341Y168203D01*
X409511Y169500D01*
X409341Y170797D01*
X408840Y172006D01*
X408044Y173044D01*
X407006Y173840D01*
X406066Y174229D01*
Y174771D01*
X407006Y175160D01*
X408044Y175956D01*
X408840Y176994D01*
X409341Y178203D01*
X409511Y179500D01*
X409341Y180797D01*
X408840Y182006D01*
X408044Y183044D01*
X407006Y183840D01*
X405797Y184341D01*
X405258Y184412D01*
X405097Y184885D01*
X414606Y194394D01*
X415079Y195011D01*
X415377Y195729D01*
X415478Y196500D01*
Y200500D01*
X415478Y200500D01*
X415427Y200885D01*
X415377Y201271D01*
X415079Y201989D01*
X414606Y202606D01*
X409418Y207793D01*
X409511Y208500D01*
X409341Y209797D01*
X408840Y211006D01*
X408044Y212044D01*
X407006Y212840D01*
X406066Y213229D01*
Y213771D01*
X407006Y214160D01*
X408044Y214956D01*
X408840Y215994D01*
X409341Y217203D01*
X409511Y218500D01*
X409341Y219797D01*
X408840Y221006D01*
X408044Y222044D01*
X407006Y222840D01*
X406066Y223229D01*
Y223771D01*
X407006Y224160D01*
X408044Y224956D01*
X408840Y225994D01*
X409341Y227203D01*
X409511Y228500D01*
X409341Y229797D01*
X408840Y231006D01*
X408044Y232044D01*
X407006Y232840D01*
X406066Y233229D01*
Y233771D01*
X407006Y234160D01*
X408044Y234956D01*
X408840Y235994D01*
X409341Y237203D01*
X409511Y238500D01*
X409341Y239797D01*
X408840Y241006D01*
X408044Y242044D01*
X407006Y242840D01*
X406066Y243229D01*
Y243771D01*
X407006Y244160D01*
X408044Y244956D01*
X408840Y245994D01*
X409341Y247203D01*
X409511Y248500D01*
X409341Y249797D01*
X408840Y251006D01*
X408044Y252044D01*
X407006Y252840D01*
X406066Y253229D01*
Y253771D01*
X407006Y254160D01*
X408044Y254956D01*
X408840Y255994D01*
X409341Y257203D01*
X409511Y258500D01*
X409341Y259797D01*
X408840Y261006D01*
X408044Y262044D01*
X407006Y262840D01*
X406066Y263229D01*
Y263771D01*
X407006Y264160D01*
X408044Y264956D01*
X408840Y265994D01*
X409341Y267203D01*
X409511Y268500D01*
X409341Y269797D01*
X408840Y271006D01*
X408044Y272044D01*
X407006Y272840D01*
X406066Y273229D01*
Y273771D01*
X407006Y274160D01*
X408044Y274956D01*
X408840Y275994D01*
X409341Y277203D01*
X409511Y278500D01*
X409341Y279797D01*
X408840Y281006D01*
X408044Y282044D01*
X407006Y282840D01*
X406066Y283229D01*
Y283771D01*
X407006Y284160D01*
X408044Y284956D01*
X408840Y285994D01*
X409341Y287203D01*
X409511Y288500D01*
X409341Y289797D01*
X408840Y291006D01*
X408044Y292044D01*
X407006Y292840D01*
X406066Y293229D01*
Y293771D01*
X407006Y294160D01*
X408044Y294956D01*
X408840Y295994D01*
X409341Y297203D01*
X409511Y298500D01*
X409341Y299797D01*
X408840Y301006D01*
X408044Y302044D01*
X407006Y302840D01*
X406066Y303229D01*
Y303771D01*
X407006Y304160D01*
X408044Y304956D01*
X408840Y305994D01*
X409341Y307203D01*
X409511Y308500D01*
X409341Y309797D01*
X408840Y311006D01*
X408044Y312044D01*
X407006Y312840D01*
X406066Y313229D01*
Y313771D01*
X407006Y314160D01*
X408044Y314956D01*
X408840Y315994D01*
X409341Y317203D01*
X409511Y318500D01*
X409341Y319797D01*
X408840Y321006D01*
X408044Y322044D01*
X407006Y322840D01*
X406066Y323229D01*
Y323771D01*
X407006Y324160D01*
X408044Y324956D01*
X408840Y325994D01*
X409341Y327203D01*
X409382Y327516D01*
D02*
G37*
G36*
X227016Y209378D02*
X226834Y209353D01*
X225746Y208903D01*
X224813Y208187D01*
X224097Y207254D01*
X223646Y206167D01*
X223622Y205984D01*
X227016D01*
Y209378D01*
D02*
G37*
G36*
X208378Y205516D02*
X204984D01*
Y202122D01*
X205167Y202147D01*
X206254Y202597D01*
X207187Y203313D01*
X207903Y204246D01*
X208353Y205333D01*
X208378Y205516D01*
D02*
G37*
G36*
X203016D02*
X199622D01*
X199646Y205333D01*
X200097Y204246D01*
X200813Y203313D01*
X201747Y202597D01*
X202834Y202147D01*
X203016Y202122D01*
Y205516D01*
D02*
G37*
G36*
X409382Y148516D02*
X405484D01*
Y144618D01*
X405797Y144659D01*
X407006Y145160D01*
X408044Y145956D01*
X408840Y146994D01*
X409341Y148203D01*
X409382Y148516D01*
D02*
G37*
G36*
X403516D02*
X399618D01*
X399659Y148203D01*
X400160Y146994D01*
X400956Y145956D01*
X401994Y145160D01*
X403203Y144659D01*
X403516Y144618D01*
Y148516D01*
D02*
G37*
G36*
X325000Y133464D02*
X323715Y133295D01*
X322518Y132799D01*
X321490Y132010D01*
X320701Y130982D01*
X320460Y130399D01*
X319960Y130498D01*
Y131453D01*
X319807Y132221D01*
X319372Y132872D01*
X318721Y133307D01*
X317953Y133460D01*
X312047D01*
X311279Y133307D01*
X310628Y132872D01*
X310193Y132221D01*
X310040Y131453D01*
Y125547D01*
X310193Y124779D01*
X310628Y124128D01*
X311279Y123693D01*
X312047Y123540D01*
X317953D01*
X318721Y123693D01*
X319372Y124128D01*
X319807Y124779D01*
X319960Y125547D01*
Y126502D01*
X320460Y126601D01*
X320701Y126018D01*
X321490Y124990D01*
X322518Y124201D01*
X323715Y123705D01*
X325000Y123536D01*
X326285Y123705D01*
X327482Y124201D01*
X328510Y124990D01*
X329299Y126018D01*
X329795Y127215D01*
X329964Y128500D01*
X329795Y129785D01*
X329299Y130982D01*
X328510Y132010D01*
X327482Y132799D01*
X326285Y133295D01*
X325000Y133464D01*
D02*
G37*
G36*
X195500Y159373D02*
X194215Y159204D01*
X193018Y158708D01*
X191990Y157919D01*
X191201Y156891D01*
X190960Y156308D01*
X190460Y156408D01*
Y157362D01*
X190307Y158130D01*
X189872Y158781D01*
X189221Y159216D01*
X188453Y159369D01*
X186484D01*
Y154409D01*
Y149450D01*
X188453D01*
X189221Y149602D01*
X189872Y150038D01*
X190307Y150689D01*
X190460Y151457D01*
Y152411D01*
X190960Y152510D01*
X191201Y151928D01*
X191990Y150900D01*
X193018Y150111D01*
X194215Y149615D01*
X195500Y149446D01*
X196785Y149615D01*
X197982Y150111D01*
X199010Y150900D01*
X199799Y151928D01*
X200295Y153125D01*
X200464Y154409D01*
X200295Y155694D01*
X199799Y156891D01*
X199010Y157919D01*
X197982Y158708D01*
X196785Y159204D01*
X195500Y159373D01*
D02*
G37*
G36*
X184516Y159369D02*
X182547D01*
X181779Y159216D01*
X181128Y158781D01*
X180693Y158130D01*
X180540Y157362D01*
Y155394D01*
X184516D01*
Y159369D01*
D02*
G37*
G36*
Y153425D02*
X180540D01*
Y151457D01*
X180693Y150689D01*
X181128Y150038D01*
X181779Y149602D01*
X182547Y149450D01*
X184516D01*
Y153425D01*
D02*
G37*
G36*
X228984Y209378D02*
Y205984D01*
X232378D01*
X232353Y206167D01*
X231903Y207254D01*
X231187Y208187D01*
X230254Y208903D01*
X229167Y209353D01*
X228984Y209378D01*
D02*
G37*
G36*
X417016Y317563D02*
X413166D01*
X413205Y317263D01*
X413701Y316065D01*
X414490Y315037D01*
X415518Y314248D01*
X416715Y313753D01*
X417016Y313713D01*
Y317563D01*
D02*
G37*
G36*
X418000Y293417D02*
X416715Y293247D01*
X415518Y292752D01*
X414490Y291963D01*
X413701Y290935D01*
X413205Y289738D01*
X413036Y288453D01*
X413205Y287168D01*
X413701Y285971D01*
X414490Y284943D01*
X415518Y284154D01*
X416592Y283709D01*
X416592Y283709D01*
Y283197D01*
X416592Y283196D01*
X415518Y282751D01*
X414490Y281963D01*
X413701Y280935D01*
X413205Y279737D01*
X413166Y279437D01*
X418000D01*
X422834D01*
X422795Y279737D01*
X422299Y280935D01*
X421510Y281963D01*
X420482Y282751D01*
X419408Y283196D01*
X419408Y283197D01*
Y283709D01*
X419408Y283709D01*
X420482Y284154D01*
X421510Y284943D01*
X422299Y285971D01*
X422795Y287168D01*
X422964Y288453D01*
X422795Y289738D01*
X422299Y290935D01*
X421510Y291963D01*
X420482Y292752D01*
X419285Y293247D01*
X418000Y293417D01*
D02*
G37*
G36*
X211500Y292737D02*
X209644Y292554D01*
X207859Y292013D01*
X206214Y291133D01*
X204772Y289950D01*
X203589Y288508D01*
X202710Y286863D01*
X202168Y285079D01*
X201986Y283222D01*
X202168Y281366D01*
X202710Y279581D01*
X203589Y277937D01*
X204772Y276495D01*
X206214Y275312D01*
X207859Y274432D01*
X209644Y273891D01*
X211500Y273708D01*
X213356Y273891D01*
X215141Y274432D01*
X216786Y275312D01*
X218228Y276495D01*
X219411Y277937D01*
X220290Y279581D01*
X220831Y281366D01*
X221014Y283222D01*
X220831Y285079D01*
X220290Y286863D01*
X219411Y288508D01*
X218228Y289950D01*
X216786Y291133D01*
X215141Y292013D01*
X213356Y292554D01*
X211500Y292737D01*
D02*
G37*
G36*
X404500Y353511D02*
X403203Y353341D01*
X401994Y352840D01*
X400956Y352044D01*
X400160Y351006D01*
X399659Y349797D01*
X399489Y348500D01*
X399659Y347203D01*
X400160Y345994D01*
X400956Y344956D01*
X401994Y344160D01*
X402935Y343771D01*
Y343229D01*
X401994Y342840D01*
X400956Y342044D01*
X400160Y341006D01*
X399659Y339797D01*
X399489Y338500D01*
X399659Y337203D01*
X400160Y335994D01*
X400956Y334956D01*
X401994Y334160D01*
X402935Y333771D01*
Y333229D01*
X401994Y332840D01*
X400956Y332044D01*
X400160Y331006D01*
X399659Y329797D01*
X399618Y329484D01*
X409382D01*
X409341Y329797D01*
X408840Y331006D01*
X408044Y332044D01*
X407006Y332840D01*
X406066Y333229D01*
Y333771D01*
X407006Y334160D01*
X408044Y334956D01*
X408840Y335994D01*
X409341Y337203D01*
X409511Y338500D01*
X409341Y339797D01*
X408840Y341006D01*
X408044Y342044D01*
X407006Y342840D01*
X406066Y343229D01*
Y343771D01*
X407006Y344160D01*
X408044Y344956D01*
X408840Y345994D01*
X409341Y347203D01*
X409511Y348500D01*
X409341Y349797D01*
X408840Y351006D01*
X408044Y352044D01*
X407006Y352840D01*
X405797Y353341D01*
X404500Y353511D01*
D02*
G37*
G36*
X420953Y343507D02*
X415047D01*
X414279Y343354D01*
X413628Y342919D01*
X413193Y342268D01*
X413040Y341500D01*
Y335595D01*
X413193Y334826D01*
X413628Y334175D01*
X414279Y333740D01*
X415047Y333587D01*
X416002D01*
X416101Y333087D01*
X415518Y332846D01*
X414490Y332057D01*
X413701Y331029D01*
X413205Y329832D01*
X413036Y328547D01*
X413205Y327262D01*
X413701Y326065D01*
X414490Y325037D01*
X415518Y324249D01*
X416592Y323804D01*
X416592Y323803D01*
Y323291D01*
X416592Y323291D01*
X415518Y322846D01*
X414490Y322057D01*
X413701Y321029D01*
X413205Y319832D01*
X413166Y319531D01*
X418000D01*
X422834D01*
X422795Y319832D01*
X422299Y321029D01*
X421510Y322057D01*
X420482Y322846D01*
X419408Y323291D01*
X419408Y323291D01*
Y323803D01*
X419408Y323804D01*
X420482Y324249D01*
X421510Y325037D01*
X422299Y326065D01*
X422795Y327262D01*
X422964Y328547D01*
X422795Y329832D01*
X422299Y331029D01*
X421510Y332057D01*
X420482Y332846D01*
X419899Y333087D01*
X419998Y333587D01*
X420953D01*
X421721Y333740D01*
X422372Y334175D01*
X422807Y334826D01*
X422960Y335595D01*
Y341500D01*
X422807Y342268D01*
X422372Y342919D01*
X421721Y343354D01*
X420953Y343507D01*
D02*
G37*
G36*
X422834Y317563D02*
X418984D01*
Y313713D01*
X419285Y313753D01*
X420482Y314248D01*
X421510Y315037D01*
X422299Y316065D01*
X422795Y317263D01*
X422834Y317563D01*
D02*
G37*
G36*
X276662Y237238D02*
X271500D01*
X266338D01*
X266389Y236853D01*
X266918Y235577D01*
X267758Y234481D01*
X268854Y233640D01*
X269259Y233472D01*
Y232972D01*
X268854Y232805D01*
X267758Y231964D01*
X266918Y230868D01*
X266389Y229592D01*
X266209Y228222D01*
X266389Y226853D01*
X266918Y225577D01*
X267758Y224481D01*
X268854Y223640D01*
X269259Y223472D01*
Y222972D01*
X268854Y222805D01*
X267758Y221964D01*
X266918Y220868D01*
X266389Y219592D01*
X266209Y218222D01*
X266389Y216853D01*
X266918Y215577D01*
X267758Y214481D01*
X268854Y213640D01*
X270130Y213111D01*
X271500Y212931D01*
X272869Y213111D01*
X274146Y213640D01*
X275241Y214481D01*
X276082Y215577D01*
X276611Y216853D01*
X276791Y218222D01*
X276611Y219592D01*
X276082Y220868D01*
X275241Y221964D01*
X274146Y222805D01*
X273741Y222972D01*
Y223472D01*
X274146Y223640D01*
X275241Y224481D01*
X276082Y225577D01*
X276611Y226853D01*
X276791Y228222D01*
X276611Y229592D01*
X276082Y230868D01*
X275241Y231964D01*
X274146Y232805D01*
X273741Y232972D01*
Y233472D01*
X274146Y233640D01*
X275241Y234481D01*
X276082Y235577D01*
X276611Y236853D01*
X276662Y237238D01*
D02*
G37*
G36*
X204984Y210877D02*
Y207484D01*
X208378D01*
X208353Y207666D01*
X207903Y208753D01*
X207187Y209687D01*
X206254Y210403D01*
X205167Y210854D01*
X204984Y210877D01*
D02*
G37*
G36*
X203016D02*
X202834Y210854D01*
X201747Y210403D01*
X200813Y209687D01*
X200097Y208753D01*
X199646Y207666D01*
X199622Y207484D01*
X203016D01*
Y210877D01*
D02*
G37*
G36*
X294500Y353511D02*
X293203Y353341D01*
X291994Y352840D01*
X290956Y352044D01*
X290160Y351006D01*
X289659Y349797D01*
X289489Y348500D01*
X289659Y347203D01*
X290160Y345994D01*
X290956Y344956D01*
X291994Y344160D01*
X292934Y343771D01*
Y343229D01*
X291994Y342840D01*
X290956Y342044D01*
X290160Y341006D01*
X289659Y339797D01*
X289489Y338500D01*
X289659Y337203D01*
X290160Y335994D01*
X290956Y334956D01*
X291994Y334160D01*
X292934Y333771D01*
Y333229D01*
X291994Y332840D01*
X290956Y332044D01*
X290160Y331006D01*
X289659Y329797D01*
X289489Y328500D01*
X289659Y327203D01*
X290160Y325994D01*
X290956Y324956D01*
X291994Y324160D01*
X292934Y323771D01*
Y323229D01*
X291994Y322840D01*
X290956Y322044D01*
X290160Y321006D01*
X289659Y319797D01*
X289489Y318500D01*
X289659Y317203D01*
X290160Y315994D01*
X290956Y314956D01*
X291994Y314160D01*
X292934Y313771D01*
Y313229D01*
X291994Y312840D01*
X290956Y312044D01*
X290160Y311006D01*
X289659Y309797D01*
X289489Y308500D01*
X289659Y307203D01*
X290160Y305994D01*
X290956Y304956D01*
X291994Y304160D01*
X292934Y303771D01*
Y303229D01*
X291994Y302840D01*
X290956Y302044D01*
X290160Y301006D01*
X289659Y299797D01*
X289489Y298500D01*
X289659Y297203D01*
X290160Y295994D01*
X290956Y294956D01*
X291994Y294160D01*
X292934Y293771D01*
Y293229D01*
X291994Y292840D01*
X290956Y292044D01*
X290160Y291006D01*
X289659Y289797D01*
X289489Y288500D01*
X289659Y287203D01*
X290160Y285994D01*
X290956Y284956D01*
X291994Y284160D01*
X292934Y283771D01*
Y283229D01*
X291994Y282840D01*
X290956Y282044D01*
X290160Y281006D01*
X289659Y279797D01*
X289489Y278500D01*
X289659Y277203D01*
X290160Y275994D01*
X290956Y274956D01*
X291994Y274160D01*
X292934Y273771D01*
Y273229D01*
X291994Y272840D01*
X290956Y272044D01*
X290160Y271006D01*
X290145Y270969D01*
X289672Y270606D01*
X277263Y258197D01*
X276767Y258408D01*
X276611Y259592D01*
X276082Y260868D01*
X275241Y261964D01*
X274146Y262805D01*
X273741Y262972D01*
Y263472D01*
X274146Y263640D01*
X275241Y264481D01*
X276082Y265577D01*
X276611Y266853D01*
X276791Y268222D01*
X276611Y269592D01*
X276082Y270868D01*
X275241Y271964D01*
X274146Y272805D01*
X273741Y272972D01*
Y273472D01*
X274146Y273640D01*
X275241Y274481D01*
X276082Y275577D01*
X276611Y276853D01*
X276791Y278222D01*
X276611Y279592D01*
X276082Y280868D01*
X275241Y281964D01*
X274146Y282805D01*
X273741Y282972D01*
Y283472D01*
X274146Y283640D01*
X275241Y284481D01*
X276082Y285577D01*
X276611Y286853D01*
X276791Y288222D01*
X276611Y289592D01*
X276082Y290868D01*
X275241Y291964D01*
X274146Y292805D01*
X272869Y293334D01*
X271500Y293514D01*
X270130Y293334D01*
X268854Y292805D01*
X267758Y291964D01*
X266918Y290868D01*
X266389Y289592D01*
X266209Y288222D01*
X266389Y286853D01*
X266918Y285577D01*
X267758Y284481D01*
X268854Y283640D01*
X269259Y283472D01*
Y282972D01*
X268854Y282805D01*
X267758Y281964D01*
X266918Y280868D01*
X266389Y279592D01*
X266209Y278222D01*
X266389Y276853D01*
X266918Y275577D01*
X267758Y274481D01*
X268854Y273640D01*
X269259Y273472D01*
Y272972D01*
X268854Y272805D01*
X267758Y271964D01*
X266918Y270868D01*
X266389Y269592D01*
X266209Y268222D01*
X266389Y266853D01*
X266918Y265577D01*
X267758Y264481D01*
X268854Y263640D01*
X269259Y263472D01*
Y262972D01*
X268854Y262805D01*
X267758Y261964D01*
X266918Y260868D01*
X266389Y259592D01*
X266209Y258222D01*
X266389Y256853D01*
X266918Y255577D01*
X267758Y254481D01*
X268854Y253640D01*
X269259Y253472D01*
Y252972D01*
X268854Y252805D01*
X267758Y251964D01*
X266918Y250868D01*
X266389Y249592D01*
X266209Y248222D01*
X266389Y246853D01*
X266918Y245577D01*
X267758Y244481D01*
X268854Y243640D01*
X269259Y243472D01*
Y242972D01*
X268854Y242805D01*
X267758Y241964D01*
X266918Y240868D01*
X266389Y239592D01*
X266338Y239207D01*
X271500D01*
X276662D01*
X276611Y239592D01*
X276082Y240868D01*
X275241Y241964D01*
X274146Y242805D01*
X273741Y242972D01*
Y243472D01*
X274146Y243640D01*
X275241Y244481D01*
X276082Y245577D01*
X276611Y246853D01*
X276791Y248222D01*
X276666Y249176D01*
X291799Y264310D01*
X291994Y264160D01*
X292934Y263771D01*
Y263229D01*
X291994Y262840D01*
X290956Y262044D01*
X290160Y261006D01*
X289659Y259797D01*
X289489Y258500D01*
X289659Y257203D01*
X290160Y255994D01*
X290956Y254956D01*
X291994Y254160D01*
X292934Y253771D01*
Y253229D01*
X291994Y252840D01*
X290956Y252044D01*
X290160Y251006D01*
X289659Y249797D01*
X289489Y248500D01*
X289659Y247203D01*
X290160Y245994D01*
X290956Y244956D01*
X291994Y244160D01*
X292934Y243771D01*
Y243229D01*
X291994Y242840D01*
X290956Y242044D01*
X290160Y241006D01*
X289659Y239797D01*
X289489Y238500D01*
X289659Y237203D01*
X290160Y235994D01*
X290956Y234956D01*
X291994Y234160D01*
X292934Y233771D01*
Y233229D01*
X291994Y232840D01*
X290956Y232044D01*
X290160Y231006D01*
X289659Y229797D01*
X289489Y228500D01*
X289659Y227203D01*
X290160Y225994D01*
X290956Y224956D01*
X291994Y224160D01*
X292934Y223771D01*
Y223229D01*
X291994Y222840D01*
X290956Y222044D01*
X290160Y221006D01*
X289659Y219797D01*
X289618Y219484D01*
X299382D01*
X299341Y219797D01*
X298840Y221006D01*
X298044Y222044D01*
X297006Y222840D01*
X296065Y223229D01*
Y223771D01*
X297006Y224160D01*
X298044Y224956D01*
X298840Y225994D01*
X299341Y227203D01*
X299511Y228500D01*
X299341Y229797D01*
X298840Y231006D01*
X298044Y232044D01*
X297006Y232840D01*
X296065Y233229D01*
Y233771D01*
X297006Y234160D01*
X298044Y234956D01*
X298840Y235994D01*
X299341Y237203D01*
X299511Y238500D01*
X299341Y239797D01*
X298840Y241006D01*
X298044Y242044D01*
X297006Y242840D01*
X296065Y243229D01*
Y243771D01*
X297006Y244160D01*
X298044Y244956D01*
X298840Y245994D01*
X299341Y247203D01*
X299511Y248500D01*
X299341Y249797D01*
X298840Y251006D01*
X298044Y252044D01*
X297006Y252840D01*
X296065Y253229D01*
Y253771D01*
X297006Y254160D01*
X298044Y254956D01*
X298840Y255994D01*
X299341Y257203D01*
X299511Y258500D01*
X299341Y259797D01*
X298840Y261006D01*
X298044Y262044D01*
X297006Y262840D01*
X296065Y263229D01*
Y263771D01*
X297006Y264160D01*
X298044Y264956D01*
X298840Y265994D01*
X299341Y267203D01*
X299511Y268500D01*
X299341Y269797D01*
X298840Y271006D01*
X298044Y272044D01*
X297006Y272840D01*
X296065Y273229D01*
Y273771D01*
X297006Y274160D01*
X298044Y274956D01*
X298840Y275994D01*
X299341Y277203D01*
X299511Y278500D01*
X299341Y279797D01*
X298840Y281006D01*
X298044Y282044D01*
X297006Y282840D01*
X296065Y283229D01*
Y283771D01*
X297006Y284160D01*
X298044Y284956D01*
X298840Y285994D01*
X299341Y287203D01*
X299511Y288500D01*
X299341Y289797D01*
X298840Y291006D01*
X298044Y292044D01*
X297006Y292840D01*
X296065Y293229D01*
Y293771D01*
X297006Y294160D01*
X298044Y294956D01*
X298840Y295994D01*
X299341Y297203D01*
X299511Y298500D01*
X299341Y299797D01*
X298840Y301006D01*
X298044Y302044D01*
X297006Y302840D01*
X296065Y303229D01*
Y303771D01*
X297006Y304160D01*
X298044Y304956D01*
X298840Y305994D01*
X299341Y307203D01*
X299511Y308500D01*
X299341Y309797D01*
X298840Y311006D01*
X298044Y312044D01*
X297006Y312840D01*
X296065Y313229D01*
Y313771D01*
X297006Y314160D01*
X298044Y314956D01*
X298840Y315994D01*
X299341Y317203D01*
X299511Y318500D01*
X299341Y319797D01*
X298840Y321006D01*
X298044Y322044D01*
X297006Y322840D01*
X296065Y323229D01*
Y323771D01*
X297006Y324160D01*
X298044Y324956D01*
X298840Y325994D01*
X299341Y327203D01*
X299511Y328500D01*
X299341Y329797D01*
X298840Y331006D01*
X298044Y332044D01*
X297006Y332840D01*
X296065Y333229D01*
Y333771D01*
X297006Y334160D01*
X298044Y334956D01*
X298840Y335994D01*
X299341Y337203D01*
X299511Y338500D01*
X299341Y339797D01*
X298840Y341006D01*
X298044Y342044D01*
X297006Y342840D01*
X296065Y343229D01*
Y343771D01*
X297006Y344160D01*
X298044Y344956D01*
X298840Y345994D01*
X299341Y347203D01*
X299511Y348500D01*
X299341Y349797D01*
X298840Y351006D01*
X298044Y352044D01*
X297006Y352840D01*
X295797Y353341D01*
X294500Y353511D01*
D02*
G37*
G36*
X422834Y277468D02*
X418000D01*
X413166D01*
X413205Y277168D01*
X413701Y275971D01*
X414490Y274943D01*
X415518Y274154D01*
X416592Y273709D01*
X416592Y273709D01*
Y273197D01*
X416592Y273196D01*
X415518Y272751D01*
X414490Y271963D01*
X413701Y270935D01*
X413205Y269738D01*
X413036Y268453D01*
X413205Y267168D01*
X413701Y265971D01*
X414490Y264943D01*
X415518Y264154D01*
X416592Y263709D01*
X416592Y263709D01*
Y263197D01*
X416592Y263196D01*
X415518Y262752D01*
X414490Y261963D01*
X413701Y260935D01*
X413205Y259737D01*
X413036Y258453D01*
X413205Y257168D01*
X413701Y255971D01*
X414490Y254943D01*
X415518Y254154D01*
X416592Y253709D01*
X416592Y253709D01*
Y253197D01*
X416592Y253196D01*
X415518Y252751D01*
X414490Y251963D01*
X413701Y250935D01*
X413205Y249738D01*
X413036Y248453D01*
X413205Y247168D01*
X413701Y245971D01*
X414490Y244943D01*
X415518Y244154D01*
X416101Y243913D01*
X416002Y243413D01*
X415047D01*
X414279Y243260D01*
X413628Y242825D01*
X413193Y242174D01*
X413040Y241406D01*
Y235500D01*
X413193Y234732D01*
X413628Y234081D01*
X414279Y233646D01*
X415047Y233493D01*
X420953D01*
X421721Y233646D01*
X422372Y234081D01*
X422807Y234732D01*
X422960Y235500D01*
Y241406D01*
X422807Y242174D01*
X422372Y242825D01*
X421721Y243260D01*
X420953Y243413D01*
X419998D01*
X419899Y243913D01*
X420482Y244154D01*
X421510Y244943D01*
X422299Y245971D01*
X422795Y247168D01*
X422964Y248453D01*
X422795Y249738D01*
X422299Y250935D01*
X421510Y251963D01*
X420482Y252751D01*
X419408Y253196D01*
X419408Y253197D01*
Y253709D01*
X419408Y253709D01*
X420482Y254154D01*
X421510Y254943D01*
X422299Y255971D01*
X422795Y257168D01*
X422964Y258453D01*
X422795Y259737D01*
X422299Y260935D01*
X421510Y261963D01*
X420482Y262752D01*
X419408Y263196D01*
X419408Y263197D01*
Y263709D01*
X419408Y263709D01*
X420482Y264154D01*
X421510Y264943D01*
X422299Y265971D01*
X422795Y267168D01*
X422964Y268453D01*
X422795Y269738D01*
X422299Y270935D01*
X421510Y271963D01*
X420482Y272751D01*
X419408Y273196D01*
X419408Y273197D01*
Y273709D01*
X419408Y273709D01*
X420482Y274154D01*
X421510Y274943D01*
X422299Y275971D01*
X422795Y277168D01*
X422834Y277468D01*
D02*
G37*
G36*
X211500Y232737D02*
X209644Y232554D01*
X207859Y232013D01*
X206214Y231133D01*
X204772Y229950D01*
X203589Y228508D01*
X202710Y226863D01*
X202168Y225079D01*
X201986Y223222D01*
X202168Y221366D01*
X202710Y219582D01*
X203589Y217937D01*
X204772Y216495D01*
X206214Y215312D01*
X207859Y214432D01*
X209644Y213891D01*
X211500Y213708D01*
X213356Y213891D01*
X215141Y214432D01*
X216786Y215312D01*
X218228Y216495D01*
X219411Y217937D01*
X220290Y219582D01*
X220831Y221366D01*
X221014Y223222D01*
X220831Y225079D01*
X220290Y226863D01*
X219411Y228508D01*
X218228Y229950D01*
X216786Y231133D01*
X215141Y232013D01*
X213356Y232554D01*
X211500Y232737D01*
D02*
G37*
%LPD*%
D10*
X404500Y208500D02*
X412500Y200500D01*
Y196500D02*
Y200500D01*
X395500Y179500D02*
X412500Y196500D01*
X239146Y179500D02*
X395500D01*
X271500Y248222D02*
X291778Y268500D01*
X294500D01*
D14*
X190500Y365500D02*
G03*
X181965Y361965I0J-12071D01*
G01*
X178035Y358035D02*
G03*
X174500Y349500I8535J-8535D01*
G01*
Y124485D02*
G03*
X176964Y118535I8414J0D01*
G01*
D02*
G03*
X185500Y115000I8535J8535D01*
G01*
X426500D02*
G03*
X435036Y118535I0J12071D01*
G01*
X437465Y120965D02*
G03*
X441000Y129500I-8535J8535D01*
G01*
Y352000D02*
G03*
X437465Y360536I-12071J0D01*
G01*
X435500Y362500D02*
G03*
X428257Y365500I-7243J-7243D01*
G01*
X190500D02*
X346500D01*
X178035Y358035D02*
X181965Y361965D01*
X174500Y124485D02*
Y349500D01*
X185500Y115000D02*
X426500D01*
X435036Y118535D02*
X437465Y120965D01*
X441000Y129500D02*
Y352000D01*
X435500Y362500D02*
X437465Y360536D01*
X346500Y365500D02*
X428257D01*
D15*
X201500Y213222D02*
X281500D01*
Y293222D01*
X201500D02*
X281500D01*
X201500Y213222D02*
Y293222D01*
D16*
X197563Y209285D02*
X285437D01*
Y297160D01*
X197563D02*
X285437D01*
X197563Y209285D02*
Y297160D01*
D17*
X196850Y125984D02*
D03*
X425197D02*
D03*
Y354331D02*
D03*
X196850D02*
D03*
X294500Y198500D02*
D03*
Y208500D02*
D03*
Y218500D02*
D03*
Y228500D02*
D03*
Y238500D02*
D03*
Y248500D02*
D03*
Y258500D02*
D03*
Y268500D02*
D03*
Y278500D02*
D03*
Y288500D02*
D03*
Y298500D02*
D03*
Y308500D02*
D03*
Y318500D02*
D03*
Y328500D02*
D03*
Y338500D02*
D03*
Y348500D02*
D03*
X304500Y198500D02*
D03*
X314500D02*
D03*
X324500D02*
D03*
X334500D02*
D03*
X344500D02*
D03*
X354500D02*
D03*
X364500D02*
D03*
X374500D02*
D03*
X384500D02*
D03*
X394500D02*
D03*
X404500D02*
D03*
Y208500D02*
D03*
Y218500D02*
D03*
Y228500D02*
D03*
Y238500D02*
D03*
Y248500D02*
D03*
Y258500D02*
D03*
Y268500D02*
D03*
Y278500D02*
D03*
Y288500D02*
D03*
Y298500D02*
D03*
Y308500D02*
D03*
Y318500D02*
D03*
Y328500D02*
D03*
Y338500D02*
D03*
Y348500D02*
D03*
Y149500D02*
D03*
Y159500D02*
D03*
Y169500D02*
D03*
Y179500D02*
D03*
X239146Y169500D02*
D03*
Y159500D02*
D03*
Y149500D02*
D03*
D18*
X185500Y154409D02*
D03*
X315000Y128500D02*
D03*
D19*
X195500Y154409D02*
D03*
X325000Y128500D02*
D03*
X418000Y248453D02*
D03*
Y258453D02*
D03*
Y268453D02*
D03*
Y278453D02*
D03*
Y288453D02*
D03*
Y328547D02*
D03*
Y318547D02*
D03*
D20*
Y238453D02*
D03*
Y338547D02*
D03*
D21*
X211500Y283222D02*
D03*
Y223222D02*
D03*
D22*
X271500Y288222D02*
D03*
Y278222D02*
D03*
Y268222D02*
D03*
Y258222D02*
D03*
Y248222D02*
D03*
Y238222D02*
D03*
Y228222D02*
D03*
Y218222D02*
D03*
D23*
X239146Y179500D02*
D03*
D24*
X204000Y206500D02*
D03*
X228000Y205000D02*
D03*
M02*
