G04 Layer_Color=32896*
%FSLAX25Y25*%
%MOIN*%
G70*
G01*
G75*
%ADD14C,0.01000*%
%ADD15C,0.00787*%
%ADD16C,0.00394*%
%ADD37C,0.00100*%
D14*
X368002Y345694D02*
X369001Y346693D01*
X371001D01*
X372000Y345694D01*
Y341695D01*
X371001Y340695D01*
X369001D01*
X368002Y341695D01*
X365003Y344694D02*
X363003D01*
X362004Y343694D01*
Y340695D01*
X365003D01*
X366002Y341695D01*
X365003Y342695D01*
X362004D01*
X360004Y344694D02*
Y341695D01*
X359004Y340695D01*
X358005Y341695D01*
X357005Y340695D01*
X356006Y341695D01*
Y344694D01*
X353007Y345694D02*
Y344694D01*
X354006D01*
X352007D01*
X353007D01*
Y341695D01*
X352007Y340695D01*
X349008Y346693D02*
Y340695D01*
Y343694D01*
X348008Y344694D01*
X346009D01*
X345009Y343694D01*
Y340695D01*
X343010Y344694D02*
Y340695D01*
Y342695D01*
X342010Y343694D01*
X341010Y344694D01*
X340011D01*
X336012Y340695D02*
X334013D01*
X333013Y341695D01*
Y343694D01*
X334013Y344694D01*
X336012D01*
X337012Y343694D01*
Y341695D01*
X336012Y340695D01*
X331014D02*
Y344694D01*
X328015D01*
X327015Y343694D01*
Y340695D01*
X373000Y337096D02*
X371001D01*
X372000D01*
Y331098D01*
X373000D01*
X371001D01*
X368002D02*
Y335096D01*
X365003D01*
X364003Y334097D01*
Y331098D01*
X362004D02*
X359004D01*
X358005Y332097D01*
X359004Y333097D01*
X361004D01*
X362004Y334097D01*
X361004Y335096D01*
X358005D01*
X355006Y336096D02*
Y335096D01*
X356006D01*
X354006D01*
X355006D01*
Y332097D01*
X354006Y331098D01*
X351007D02*
X349008D01*
X350007D01*
Y335096D01*
X351007D01*
X345009Y336096D02*
Y335096D01*
X346009D01*
X344009D01*
X345009D01*
Y332097D01*
X344009Y331098D01*
X341010Y335096D02*
Y332097D01*
X340011Y331098D01*
X337012D01*
Y335096D01*
X334013Y336096D02*
Y335096D01*
X335012D01*
X333013D01*
X334013D01*
Y332097D01*
X333013Y331098D01*
X327015D02*
X329014D01*
X330014Y332097D01*
Y334097D01*
X329014Y335096D01*
X327015D01*
X326015Y334097D01*
Y333097D01*
X330014D01*
X371500Y321500D02*
Y327498D01*
X368501D01*
X367502Y326498D01*
Y324499D01*
X368501Y323499D01*
X371500D01*
X369501D02*
X367502Y321500D01*
X362503D02*
X364503D01*
X365502Y322500D01*
Y324499D01*
X364503Y325499D01*
X362503D01*
X361504Y324499D01*
Y323499D01*
X365502D01*
X355506Y325499D02*
X358505D01*
X359504Y324499D01*
Y322500D01*
X358505Y321500D01*
X355506D01*
X350507D02*
X352507D01*
X353506Y322500D01*
Y324499D01*
X352507Y325499D01*
X350507D01*
X349508Y324499D01*
Y323499D01*
X353506D01*
X347508Y321500D02*
X345509D01*
X346509D01*
Y325499D01*
X347508D01*
X342510D02*
X340511Y321500D01*
X338511Y325499D01*
X333513Y321500D02*
X335512D01*
X336512Y322500D01*
Y324499D01*
X335512Y325499D01*
X333513D01*
X332513Y324499D01*
Y323499D01*
X336512D01*
X330514Y325499D02*
Y321500D01*
Y323499D01*
X329514Y324499D01*
X328514Y325499D01*
X327515D01*
X254000Y130999D02*
Y125000D01*
X250001Y130999D02*
X254000Y127000D01*
X252572Y128428D02*
X250001Y125000D01*
X248658Y127285D02*
X245231D01*
Y127857D01*
X245516Y128428D01*
X245802Y128714D01*
X246373Y128999D01*
X247230D01*
X247801Y128714D01*
X248373Y128142D01*
X248658Y127285D01*
Y126714D01*
X248373Y125857D01*
X247801Y125286D01*
X247230Y125000D01*
X246373D01*
X245802Y125286D01*
X245231Y125857D01*
X243945Y128999D02*
X242231Y125000D01*
X240517Y128999D02*
X242231Y125000D01*
X238975Y130999D02*
X238689Y130713D01*
X238403Y130999D01*
X238689Y131284D01*
X238975Y130999D01*
X238689Y128999D02*
Y125000D01*
X237346Y128999D02*
Y125000D01*
Y127857D02*
X236490Y128714D01*
X235918Y128999D01*
X235061D01*
X234490Y128714D01*
X234204Y127857D01*
Y125000D01*
X225920Y130999D02*
Y125000D01*
X227920Y130999D02*
X223921D01*
X219779Y128999D02*
Y125000D01*
Y128142D02*
X220350Y128714D01*
X220921Y128999D01*
X221778D01*
X222350Y128714D01*
X222921Y128142D01*
X223207Y127285D01*
Y126714D01*
X222921Y125857D01*
X222350Y125286D01*
X221778Y125000D01*
X220921D01*
X220350Y125286D01*
X219779Y125857D01*
X218179Y128999D02*
Y125000D01*
Y127857D02*
X217322Y128714D01*
X216751Y128999D01*
X215894D01*
X215323Y128714D01*
X215037Y127857D01*
Y125000D01*
X210038Y128999D02*
Y124429D01*
X210324Y123572D01*
X210609Y123286D01*
X211181Y123000D01*
X212037D01*
X212609Y123286D01*
X210038Y128142D02*
X210609Y128714D01*
X211181Y128999D01*
X212037D01*
X212609Y128714D01*
X213180Y128142D01*
X213466Y127285D01*
Y126714D01*
X213180Y125857D01*
X212609Y125286D01*
X212037Y125000D01*
X211181D01*
X210609Y125286D01*
X210038Y125857D01*
X190500Y365500D02*
G03*
X181965Y361965I0J-12071D01*
G01*
X178035Y358035D02*
G03*
X174500Y349500I8535J-8535D01*
G01*
Y124485D02*
G03*
X176964Y118535I8414J0D01*
G01*
D02*
G03*
X185500Y115000I8535J8535D01*
G01*
X426500D02*
G03*
X435036Y118535I0J12071D01*
G01*
X437465Y120965D02*
G03*
X441000Y129500I-8535J8535D01*
G01*
Y352000D02*
G03*
X437465Y360536I-12071J0D01*
G01*
X435500Y362500D02*
G03*
X428257Y365500I-7243J-7243D01*
G01*
X190500D02*
X346500D01*
X178035Y358035D02*
X181965Y361965D01*
X174500Y124485D02*
Y349500D01*
X185500Y115000D02*
X426500D01*
X435036Y118535D02*
X437465Y120965D01*
X441000Y129500D02*
Y352000D01*
X435500Y362500D02*
X437465Y360536D01*
X346500Y365500D02*
X428257D01*
D15*
X201500Y213222D02*
X281500D01*
Y293222D01*
X201500D02*
X281500D01*
X201500Y213222D02*
Y293222D01*
D16*
X197563Y209285D02*
X285437D01*
Y297160D01*
X197563D02*
X285437D01*
X197563Y209285D02*
Y297160D01*
D37*
X374800Y309700D02*
X374900D01*
X375000Y309600D02*
X388200D01*
X374900Y309500D02*
X388200D01*
X374900Y309400D02*
X388200D01*
X374900Y309300D02*
X388200D01*
X374900Y309200D02*
X388200D01*
X374900Y309100D02*
X388200D01*
X374900Y309000D02*
X388200D01*
X374900Y308900D02*
X388200D01*
X374900Y308800D02*
X388200D01*
X374900Y308700D02*
X388200D01*
X374900Y308600D02*
X388200D01*
X374900Y308500D02*
X388200D01*
X374900Y308400D02*
X388200D01*
X374900Y308300D02*
X388200D01*
X374900Y308200D02*
X388200D01*
X374900Y308100D02*
X388200D01*
X374900Y308000D02*
X388200D01*
X374900Y307900D02*
X388200D01*
X374900Y307800D02*
X388200D01*
X374900Y307700D02*
X388200D01*
X374900Y307600D02*
X388200D01*
X374900Y307500D02*
X388200D01*
X374900Y307400D02*
X388200D01*
X374900Y307300D02*
X388200D01*
X374900Y307200D02*
X388200D01*
X374900Y307100D02*
X388200D01*
X374900Y307000D02*
X388200D01*
X374900Y306900D02*
X388200D01*
X374900Y306800D02*
X388200D01*
X374900Y306700D02*
X388200D01*
X374900Y306600D02*
X388200D01*
X374900Y306500D02*
X388200D01*
X374900Y306400D02*
X388200D01*
X374900Y306300D02*
X388200D01*
X374900Y306200D02*
X388200D01*
X374900Y306100D02*
X388200D01*
X374900Y306000D02*
X388200D01*
X374900Y305900D02*
X388200D01*
X374900Y305800D02*
X388200D01*
X374900Y305700D02*
X388200D01*
X374900Y305600D02*
X388200D01*
X374900Y305500D02*
X388200D01*
X374900Y305400D02*
X388200D01*
X374900Y305300D02*
X388200D01*
X374900Y305200D02*
X388200D01*
X374900Y305100D02*
X388200D01*
X374900Y305000D02*
X388200D01*
X374900Y304900D02*
X388200D01*
X374900Y304800D02*
X388200D01*
X374900Y304700D02*
X388200D01*
X374900Y304600D02*
X388200D01*
X374900Y304500D02*
X388200D01*
X374900Y304400D02*
X388200D01*
X374900Y304300D02*
X388200D01*
X374900Y304200D02*
X388200D01*
X374900Y304100D02*
X388200D01*
X374900Y304000D02*
X388200D01*
X374900Y303900D02*
X388200D01*
X374900Y303800D02*
X388200D01*
X374900Y303700D02*
X388200D01*
X378500Y303600D02*
X388200D01*
X374900D02*
X378400D01*
X379400Y303500D02*
X388200D01*
X374900D02*
X378500D01*
X380000Y303400D02*
X388200D01*
X374900D02*
X378400D01*
X380400Y303300D02*
X388200D01*
X374900D02*
X378400D01*
X380800Y303200D02*
X388200D01*
X374900D02*
X378400D01*
X381200Y303100D02*
X388200D01*
X374900D02*
X378400D01*
X381500Y303000D02*
X388200D01*
X374900D02*
X378400D01*
X366700D02*
X366800D01*
X353800D02*
X353900D01*
X353100D02*
X353200D01*
X342100D02*
X342200D01*
X334900D02*
X335100D01*
X333000D02*
X333100D01*
X322600D02*
X322700D01*
X381800Y302900D02*
X388200D01*
X374900D02*
X378400D01*
X368900D02*
X369000D01*
X367700D02*
X368400D01*
X366900D02*
X367000D01*
X354100D02*
X354200D01*
X347700D02*
X347800D01*
X323500D02*
X324200D01*
X322700D02*
X322800D01*
X382100Y302800D02*
X388200D01*
X374900D02*
X378400D01*
X367100D02*
X369100D01*
X361900D02*
X362000D01*
X361000D02*
X361800D01*
X357800D02*
X358800D01*
X353100D02*
X354100D01*
X348300D02*
X349300D01*
X341800D02*
X347700D01*
X339700D02*
X340700D01*
X336000D02*
X336100D01*
X334900D02*
X335900D01*
X331000D02*
X333200D01*
X322900D02*
X324900D01*
X322500D02*
X322600D01*
X318000D02*
X318800D01*
X313500D02*
X313600D01*
X312400D02*
X313400D01*
X382300Y302700D02*
X388200D01*
X382000D02*
X382100D01*
X374900D02*
X378400D01*
X366600D02*
X369400D01*
X361000D02*
X361900D01*
X357800D02*
X358800D01*
X353000D02*
X354100D01*
X348300D02*
X349400D01*
X341900D02*
X347800D01*
X339700D02*
X340800D01*
X334900D02*
X336000D01*
X330600D02*
X333200D01*
X322500D02*
X325200D01*
X317900D02*
X318900D01*
X312400D02*
X313400D01*
X382600Y302600D02*
X388200D01*
X374900D02*
X378400D01*
X369800D02*
X369900D01*
X366400D02*
X369700D01*
X361000D02*
X361900D01*
X357700D02*
X358800D01*
X353000D02*
X354200D01*
X348400D02*
X349600D01*
X341900D02*
X347700D01*
X339700D02*
X340800D01*
X334900D02*
X336000D01*
X330300D02*
X333200D01*
X322300D02*
X325500D01*
X317800D02*
X318900D01*
X312400D02*
X313400D01*
X382800Y302500D02*
X388200D01*
X374900D02*
X378400D01*
X366100D02*
X369900D01*
X360900D02*
X362000D01*
X357700D02*
X358800D01*
X357500D02*
X357600D01*
X352900D02*
X354200D01*
X348400D02*
X349500D01*
X341900D02*
X347700D01*
X339700D02*
X340800D01*
X334900D02*
X336000D01*
X330100D02*
X333200D01*
X322100D02*
X325700D01*
X317700D02*
X318800D01*
X312400D02*
X313400D01*
X383100Y302400D02*
X388200D01*
X382600D02*
X382700D01*
X374900D02*
X378400D01*
X365800D02*
X370100D01*
X360900D02*
X362000D01*
X357600D02*
X358700D01*
X352900D02*
X354200D01*
X348500D02*
X349500D01*
X341900D02*
X347700D01*
X339700D02*
X340800D01*
X334900D02*
X336000D01*
X329900D02*
X333200D01*
X329700D02*
X329800D01*
X321900D02*
X325800D01*
X317600D02*
X318800D01*
X312400D02*
X313400D01*
X383300Y302300D02*
X388200D01*
X374900D02*
X378400D01*
X365700D02*
X370200D01*
X365500D02*
X365600D01*
X360800D02*
X362100D01*
X357600D02*
X358700D01*
X352900D02*
X354300D01*
X348500D02*
X349600D01*
X341900D02*
X347700D01*
X339700D02*
X340800D01*
X334900D02*
X336000D01*
X329800D02*
X333200D01*
X321700D02*
X326000D01*
X317500D02*
X318800D01*
X312400D02*
X313400D01*
X383500Y302200D02*
X388200D01*
X383300D02*
X383400D01*
X383100D02*
X383200D01*
X374900D02*
X378400D01*
X365700D02*
X370400D01*
X360800D02*
X362100D01*
X357600D02*
X358600D01*
X352700D02*
X354300D01*
X348500D02*
X349600D01*
X341900D02*
X347700D01*
X339700D02*
X340800D01*
X334900D02*
X336000D01*
X329700D02*
X333200D01*
X321600D02*
X326200D01*
X321400D02*
X321500D01*
X317500D02*
X318800D01*
X312400D02*
X313400D01*
X383700Y302100D02*
X388200D01*
X374900D02*
X378400D01*
X365700D02*
X370500D01*
X360700D02*
X362100D01*
X357400D02*
X358600D01*
X352800D02*
X354400D01*
X348600D02*
X349700D01*
X341900D02*
X347700D01*
X339700D02*
X340800D01*
X334900D02*
X336000D01*
X329600D02*
X333200D01*
X321400D02*
X326300D01*
X317400D02*
X318800D01*
X312400D02*
X313400D01*
X383900Y302000D02*
X388200D01*
X374900D02*
X378400D01*
X365700D02*
X370700D01*
X360700D02*
X362200D01*
X357500D02*
X358600D01*
X352700D02*
X354400D01*
X348600D02*
X349700D01*
X341900D02*
X347800D01*
X339700D02*
X340800D01*
X334900D02*
X336000D01*
X329500D02*
X333200D01*
X321300D02*
X326400D01*
X317300D02*
X318800D01*
X312400D02*
X313400D01*
X384100Y301900D02*
X388200D01*
X374900D02*
X378400D01*
X368200D02*
X370800D01*
X365700D02*
X367800D01*
X360600D02*
X362200D01*
X357400D02*
X358500D01*
X352700D02*
X354400D01*
X348700D02*
X349700D01*
X341900D02*
X347700D01*
X339700D02*
X340800D01*
X334900D02*
X336000D01*
X329500D02*
X333200D01*
X324000D02*
X326500D01*
X321200D02*
X323700D01*
X317200D02*
X318800D01*
X312400D02*
X313400D01*
X384200Y301800D02*
X388200D01*
X383300D02*
X383400D01*
X374900D02*
X378400D01*
X368900D02*
X370900D01*
X365700D02*
X367200D01*
X360600D02*
X362300D01*
X357400D02*
X358500D01*
X352700D02*
X354500D01*
X348700D02*
X349800D01*
X344300D02*
X345400D01*
X342100D02*
X342200D01*
X341800D02*
X341900D01*
X339700D02*
X340800D01*
X334900D02*
X336000D01*
X332200D02*
X333200D01*
X329400D02*
X330900D01*
X324700D02*
X326600D01*
X321100D02*
X323100D01*
X317100D02*
X318800D01*
X312400D02*
X313400D01*
X384400Y301700D02*
X388200D01*
X374900D02*
X378400D01*
X369200D02*
X371000D01*
X365700D02*
X366800D01*
X360600D02*
X362300D01*
X357300D02*
X358400D01*
X352600D02*
X354500D01*
X348700D02*
X349800D01*
X344300D02*
X345400D01*
X339700D02*
X340800D01*
X334900D02*
X336000D01*
X332200D02*
X333200D01*
X329300D02*
X330700D01*
X325000D02*
X326700D01*
X321000D02*
X322800D01*
X317000D02*
X318800D01*
X312400D02*
X313400D01*
X384600Y301600D02*
X388200D01*
X374900D02*
X378400D01*
X369400D02*
X371000D01*
X365700D02*
X366500D01*
X360500D02*
X362400D01*
X357300D02*
X358400D01*
X352600D02*
X354600D01*
X348800D02*
X349800D01*
X344300D02*
X345400D01*
X339700D02*
X340800D01*
X334900D02*
X336000D01*
X332200D02*
X333200D01*
X329300D02*
X330600D01*
X326900D02*
X327000D01*
X325200D02*
X326800D01*
X320900D02*
X322700D01*
X316900D02*
X318800D01*
X316700D02*
X316800D01*
X312400D02*
X313400D01*
X384700Y301500D02*
X388200D01*
X374900D02*
X378400D01*
X369600D02*
X371100D01*
X365700D02*
X366300D01*
X360500D02*
X362400D01*
X357300D02*
X358400D01*
X352500D02*
X354600D01*
X348800D02*
X349900D01*
X344300D02*
X345400D01*
X339700D02*
X340800D01*
X334900D02*
X336000D01*
X332200D02*
X333200D01*
X329300D02*
X330700D01*
X325400D02*
X326900D01*
X320900D02*
X322400D01*
X320600D02*
X320700D01*
X316800D02*
X318800D01*
X312400D02*
X313400D01*
X384900Y301400D02*
X388200D01*
X374900D02*
X378400D01*
X369700D02*
X371200D01*
X366200D02*
X366300D01*
X365700D02*
X366100D01*
X360300D02*
X362400D01*
X357200D02*
X358300D01*
X352500D02*
X354600D01*
X348800D02*
X349900D01*
X344300D02*
X345400D01*
X339700D02*
X340800D01*
X334900D02*
X336000D01*
X332200D02*
X333200D01*
X329200D02*
X330400D01*
X325500D02*
X327000D01*
X320800D02*
X322300D01*
X320600D02*
X320700D01*
X316800D02*
X318800D01*
X312400D02*
X313400D01*
X385000Y301300D02*
X388200D01*
X374900D02*
X378400D01*
X369900D02*
X371300D01*
X365700D02*
X365900D01*
X360400D02*
X362500D01*
X357200D02*
X358300D01*
X352500D02*
X354700D01*
X348900D02*
X350100D01*
X344300D02*
X345400D01*
X339700D02*
X340800D01*
X334900D02*
X336000D01*
X332200D02*
X333200D01*
X329200D02*
X330300D01*
X325600D02*
X327000D01*
X320600D02*
X322100D01*
X316700D02*
X318800D01*
X312400D02*
X313400D01*
X385100Y301200D02*
X388200D01*
X374900D02*
X378400D01*
X370000D02*
X371300D01*
X360300D02*
X362500D01*
X357200D02*
X358200D01*
X354800D02*
X354900D01*
X353600D02*
X354700D01*
X352400D02*
X353500D01*
X348900D02*
X350000D01*
X344300D02*
X345400D01*
X339700D02*
X340800D01*
X334900D02*
X336000D01*
X332200D02*
X333200D01*
X329200D02*
X330300D01*
X325700D02*
X327100D01*
X320700D02*
X322000D01*
X316600D02*
X318800D01*
X312400D02*
X313400D01*
X385300Y301100D02*
X388200D01*
X385000D02*
X385200D01*
X374900D02*
X378400D01*
X370100D02*
X371400D01*
X361500D02*
X362700D01*
X360300D02*
X361400D01*
X360100D02*
X360200D01*
X357100D02*
X358200D01*
X353700D02*
X354900D01*
X352400D02*
X353500D01*
X349000D02*
X350000D01*
X344300D02*
X345400D01*
X339700D02*
X340800D01*
X334900D02*
X336000D01*
X332200D02*
X333200D01*
X329200D02*
X330300D01*
X325900D02*
X327100D01*
X320600D02*
X321900D01*
X316500D02*
X318800D01*
X312400D02*
X313400D01*
X385400Y301000D02*
X388200D01*
X374900D02*
X378400D01*
X370200D02*
X371400D01*
X361500D02*
X362600D01*
X360200D02*
X361400D01*
X357100D02*
X358200D01*
X353600D02*
X354800D01*
X352300D02*
X353400D01*
X349000D02*
X350100D01*
X344300D02*
X345400D01*
X339700D02*
X340800D01*
X334900D02*
X336000D01*
X332200D02*
X333200D01*
X329200D02*
X330300D01*
X325900D02*
X327200D01*
X320500D02*
X321800D01*
X316400D02*
X318800D01*
X312400D02*
X313400D01*
X385500Y300900D02*
X388200D01*
X374900D02*
X378400D01*
X370300D02*
X371500D01*
X361600D02*
X362700D01*
X360200D02*
X361300D01*
X356900D02*
X358100D01*
X353800D02*
X354800D01*
X352300D02*
X353400D01*
X349100D02*
X350100D01*
X344300D02*
X345400D01*
X339700D02*
X340800D01*
X334900D02*
X336000D01*
X332200D02*
X333200D01*
X329200D02*
X330300D01*
X326000D02*
X327400D01*
X320500D02*
X321800D01*
X317800D02*
X318800D01*
X316300D02*
X317700D01*
X312400D02*
X313400D01*
X385600Y300800D02*
X388200D01*
X374900D02*
X378400D01*
X370300D02*
X371500D01*
X361600D02*
X362700D01*
X360000D02*
X361300D01*
X357000D02*
X358100D01*
X355000D02*
X355100D01*
X353800D02*
X354900D01*
X352300D02*
X353400D01*
X349100D02*
X350200D01*
X344300D02*
X345400D01*
X339700D02*
X340800D01*
X334900D02*
X336000D01*
X332200D02*
X333200D01*
X329200D02*
X330300D01*
X326100D02*
X327300D01*
X320500D02*
X321700D01*
X317800D02*
X318800D01*
X316200D02*
X317600D01*
X312400D02*
X313400D01*
X385700Y300700D02*
X388200D01*
X374900D02*
X378400D01*
X370400D02*
X371600D01*
X361700D02*
X362900D01*
X360000D02*
X361200D01*
X357000D02*
X358000D01*
X353800D02*
X354900D01*
X352200D02*
X353300D01*
X349100D02*
X350200D01*
X344300D02*
X345400D01*
X339700D02*
X340800D01*
X334900D02*
X336000D01*
X332200D02*
X333200D01*
X329200D02*
X330300D01*
X326100D02*
X327400D01*
X320400D02*
X321600D01*
X317800D02*
X318800D01*
X316100D02*
X317500D01*
X315900D02*
X316000D01*
X312400D02*
X313400D01*
X385800Y300600D02*
X388200D01*
X374900D02*
X378400D01*
X370400D02*
X371600D01*
X361700D02*
X362800D01*
X360100D02*
X361200D01*
X356900D02*
X358000D01*
X353900D02*
X355000D01*
X352200D02*
X353300D01*
X349200D02*
X350200D01*
X344300D02*
X345400D01*
X339700D02*
X340800D01*
X334900D02*
X336000D01*
X332200D02*
X333200D01*
X329200D02*
X330300D01*
X326200D02*
X327400D01*
X320400D02*
X321700D01*
X317800D02*
X318800D01*
X317600D02*
X317700D01*
X316100D02*
X317400D01*
X312400D02*
X313400D01*
X385900Y300500D02*
X388200D01*
X374900D02*
X378400D01*
X370500D02*
X371700D01*
X361600D02*
X362800D01*
X360000D02*
X361200D01*
X356900D02*
X358000D01*
X353900D02*
X355000D01*
X352100D02*
X353200D01*
X349200D02*
X350300D01*
X344300D02*
X345400D01*
X339700D02*
X340800D01*
X334900D02*
X336000D01*
X332200D02*
X333200D01*
X329200D02*
X330300D01*
X326200D02*
X327400D01*
X320200D02*
X321500D01*
X317800D02*
X318800D01*
X317400D02*
X317500D01*
X316000D02*
X317300D01*
X312400D02*
X313400D01*
X386000Y300400D02*
X388200D01*
X374900D02*
X378400D01*
X370500D02*
X371700D01*
X361800D02*
X362900D01*
X360000D02*
X361100D01*
X356700D02*
X358000D01*
X354000D02*
X355000D01*
X352100D02*
X353200D01*
X349300D02*
X350300D01*
X344300D02*
X345400D01*
X339700D02*
X340800D01*
X334900D02*
X336000D01*
X332200D02*
X333200D01*
X329200D02*
X330400D01*
X326300D02*
X327500D01*
X320300D02*
X321500D01*
X317800D02*
X318800D01*
X315900D02*
X317200D01*
X312400D02*
X313400D01*
X386100Y300300D02*
X388200D01*
X380700D02*
X380800D01*
X374900D02*
X378400D01*
X370600D02*
X371700D01*
X361800D02*
X362900D01*
X359900D02*
X361100D01*
X356800D02*
X357900D01*
X354000D02*
X355100D01*
X352100D02*
X353200D01*
X349300D02*
X350400D01*
X344300D02*
X345400D01*
X339700D02*
X340800D01*
X334900D02*
X336000D01*
X332200D02*
X333200D01*
X329200D02*
X330400D01*
X326300D02*
X327500D01*
X320300D02*
X321400D01*
X317800D02*
X318800D01*
X315800D02*
X317200D01*
X312400D02*
X313400D01*
X386200Y300200D02*
X388200D01*
X386000D02*
X386100D01*
X378600D02*
X380000D01*
X374900D02*
X378400D01*
X370600D02*
X371800D01*
X361900D02*
X363000D01*
X359900D02*
X361000D01*
X356800D02*
X357800D01*
X354000D02*
X355100D01*
X352000D02*
X353100D01*
X349300D02*
X350400D01*
X344300D02*
X345400D01*
X339700D02*
X340800D01*
X334900D02*
X336000D01*
X332200D02*
X333200D01*
X329300D02*
X330500D01*
X326400D02*
X327500D01*
X320200D02*
X321400D01*
X317800D02*
X318800D01*
X317200D02*
X317300D01*
X315700D02*
X317100D01*
X312400D02*
X313400D01*
X386200Y300100D02*
X388200D01*
X374900D02*
X381300D01*
X370700D02*
X371800D01*
X361900D02*
X363000D01*
X361700D02*
X361800D01*
X359800D02*
X361000D01*
X359600D02*
X359700D01*
X356700D02*
X357800D01*
X354100D02*
X355200D01*
X352000D02*
X353200D01*
X349400D02*
X350400D01*
X344300D02*
X345400D01*
X339700D02*
X340800D01*
X334900D02*
X336000D01*
X332200D02*
X333200D01*
X329300D02*
X330600D01*
X326400D02*
X327500D01*
X320200D02*
X321400D01*
X317800D02*
X318800D01*
X315600D02*
X317000D01*
X312400D02*
X313400D01*
X386300Y300000D02*
X388200D01*
X374900D02*
X381800D01*
X370700D02*
X371800D01*
X361900D02*
X363000D01*
X359800D02*
X360900D01*
X356700D02*
X357700D01*
X354100D02*
X355200D01*
X351900D02*
X353000D01*
X349400D02*
X350500D01*
X349200D02*
X349300D01*
X344300D02*
X345400D01*
X339700D02*
X340800D01*
X334900D02*
X336000D01*
X332200D02*
X333200D01*
X329400D02*
X330800D01*
X326400D02*
X327600D01*
X320200D02*
X321300D01*
X317800D02*
X318800D01*
X315500D02*
X316900D01*
X312400D02*
X313400D01*
X386400Y299900D02*
X388200D01*
X382700D02*
X382900D01*
X374900D02*
X382300D01*
X370700D02*
X371800D01*
X362000D02*
X363100D01*
X359800D02*
X361000D01*
X356600D02*
X357700D01*
X354200D02*
X355200D01*
X351900D02*
X353000D01*
X349500D02*
X350500D01*
X344300D02*
X345400D01*
X339700D02*
X340800D01*
X339500D02*
X339600D01*
X334900D02*
X336100D01*
X332200D02*
X333200D01*
X329400D02*
X331000D01*
X326400D02*
X327600D01*
X320200D02*
X321300D01*
X317800D02*
X318800D01*
X315400D02*
X316800D01*
X312400D02*
X313400D01*
X386400Y299800D02*
X388200D01*
X374900D02*
X382800D01*
X370700D02*
X371800D01*
X361900D02*
X363100D01*
X359700D02*
X361000D01*
X356600D02*
X357700D01*
X354200D02*
X355300D01*
X351900D02*
X353000D01*
X349500D02*
X350600D01*
X344300D02*
X345400D01*
X334900D02*
X340800D01*
X329500D02*
X333200D01*
X326500D02*
X327600D01*
X320200D02*
X321300D01*
X317800D02*
X318800D01*
X315400D02*
X316700D01*
X312400D02*
X313400D01*
X386500Y299700D02*
X388200D01*
X374900D02*
X383100D01*
X370700D02*
X371900D01*
X362100D02*
X363200D01*
X359700D02*
X360800D01*
X356600D02*
X357600D01*
X354300D02*
X355300D01*
X351800D02*
X352900D01*
X349500D02*
X350600D01*
X344300D02*
X345400D01*
X334900D02*
X340800D01*
X329600D02*
X333200D01*
X326500D02*
X327600D01*
X320200D02*
X321300D01*
X317800D02*
X318800D01*
X315300D02*
X316600D01*
X312400D02*
X313400D01*
X386600Y299600D02*
X388200D01*
X374900D02*
X383500D01*
X370800D02*
X371900D01*
X362100D02*
X363200D01*
X359600D02*
X360800D01*
X356500D02*
X357600D01*
X354300D02*
X355400D01*
X351800D02*
X353000D01*
X349600D02*
X350600D01*
X344300D02*
X345400D01*
X334900D02*
X340800D01*
X329600D02*
X333200D01*
X326500D02*
X327600D01*
X320200D02*
X321300D01*
X317800D02*
X318800D01*
X316600D02*
X316700D01*
X315200D02*
X316500D01*
X312400D02*
X313400D01*
X386600Y299500D02*
X388200D01*
X374900D02*
X383700D01*
X370800D02*
X371900D01*
X362200D02*
X363300D01*
X359600D02*
X360700D01*
X356500D02*
X357600D01*
X354300D02*
X355400D01*
X351700D02*
X352900D01*
X349600D02*
X350700D01*
X344300D02*
X345400D01*
X334900D02*
X340800D01*
X329700D02*
X333200D01*
X326500D02*
X327600D01*
X320100D02*
X321300D01*
X317800D02*
X318800D01*
X315100D02*
X316500D01*
X312400D02*
X313400D01*
X386700Y299400D02*
X388200D01*
X384100D02*
X384200D01*
X374900D02*
X384000D01*
X370800D02*
X371900D01*
X362200D02*
X363300D01*
X359500D02*
X360700D01*
X356400D02*
X357500D01*
X354400D02*
X355500D01*
X351700D02*
X352800D01*
X349700D02*
X350700D01*
X344300D02*
X345400D01*
X334900D02*
X340800D01*
X329900D02*
X333200D01*
X326500D02*
X327600D01*
X320100D02*
X321300D01*
X317800D02*
X318800D01*
X315000D02*
X316400D01*
X312400D02*
X313400D01*
X386700Y299300D02*
X388200D01*
X384400D02*
X384500D01*
X374900D02*
X384200D01*
X370800D02*
X371900D01*
X362300D02*
X363400D01*
X359500D02*
X360600D01*
X356400D02*
X357500D01*
X354400D02*
X355500D01*
X351700D02*
X352800D01*
X349700D02*
X350800D01*
X344300D02*
X345400D01*
X334900D02*
X340800D01*
X330000D02*
X333200D01*
X326500D02*
X327600D01*
X320100D02*
X321300D01*
X317800D02*
X318800D01*
X314900D02*
X316300D01*
X312400D02*
X313400D01*
X386700Y299200D02*
X388200D01*
X386500D02*
X386600D01*
X374900D02*
X384500D01*
X370800D02*
X371900D01*
X362300D02*
X363400D01*
X359500D02*
X360600D01*
X356400D02*
X357400D01*
X354500D02*
X355500D01*
X354300D02*
X354400D01*
X352800D02*
X352900D01*
X351600D02*
X352700D01*
X349700D02*
X350800D01*
X344300D02*
X345400D01*
X334900D02*
X340800D01*
X330200D02*
X333200D01*
X326500D02*
X327600D01*
X320100D02*
X321300D01*
X317800D02*
X318800D01*
X314800D02*
X316200D01*
X312400D02*
X313400D01*
X386800Y299100D02*
X388200D01*
X374900D02*
X384700D01*
X370800D02*
X371900D01*
X362200D02*
X363400D01*
X359400D02*
X360500D01*
X357500D02*
X357600D01*
X356300D02*
X357400D01*
X354500D02*
X355600D01*
X351600D02*
X352800D01*
X349800D02*
X350800D01*
X344300D02*
X345400D01*
X334900D02*
X340800D01*
X330200D02*
X333200D01*
X329900D02*
X330000D01*
X326500D02*
X327600D01*
X320200D02*
X321400D01*
X317800D02*
X318800D01*
X314700D02*
X316100D01*
X312400D02*
X313400D01*
X386800Y299000D02*
X388200D01*
X374900D02*
X384800D01*
X370700D02*
X371900D01*
X362400D02*
X363600D01*
X359300D02*
X360500D01*
X356300D02*
X357300D01*
X355700D02*
X355800D01*
X354500D02*
X355600D01*
X352700D02*
X352800D01*
X351500D02*
X352600D01*
X349800D02*
X350900D01*
X344300D02*
X345400D01*
X334900D02*
X340800D01*
X330000D02*
X333200D01*
X326500D02*
X327600D01*
X320200D02*
X321300D01*
X317800D02*
X318800D01*
X314700D02*
X316000D01*
X312400D02*
X313400D01*
X386800Y298900D02*
X388200D01*
X374900D02*
X385000D01*
X370700D02*
X371900D01*
X362400D02*
X363500D01*
X359300D02*
X360400D01*
X356200D02*
X357300D01*
X354600D02*
X355800D01*
X351500D02*
X352600D01*
X349900D02*
X350900D01*
X344300D02*
X345400D01*
X334900D02*
X340800D01*
X329900D02*
X333200D01*
X326500D02*
X327600D01*
X320200D02*
X321300D01*
X317800D02*
X318800D01*
X316000D02*
X316100D01*
X314600D02*
X315900D01*
X312400D02*
X313400D01*
X386900Y298800D02*
X388200D01*
X374900D02*
X385200D01*
X370700D02*
X371800D01*
X359300D02*
X363600D01*
X356200D02*
X357300D01*
X354600D02*
X355700D01*
X351400D02*
X352600D01*
X349900D02*
X351000D01*
X344300D02*
X345400D01*
X339700D02*
X340800D01*
X334900D02*
X336000D01*
X332200D02*
X333200D01*
X329800D02*
X331400D01*
X326400D02*
X327600D01*
X320200D02*
X321300D01*
X317800D02*
X318800D01*
X314500D02*
X315800D01*
X312400D02*
X313400D01*
X386900Y298700D02*
X388200D01*
X374900D02*
X385400D01*
X370700D02*
X371800D01*
X359200D02*
X363600D01*
X356000D02*
X357200D01*
X355800D02*
X355900D01*
X354700D02*
X355700D01*
X351400D02*
X352500D01*
X350000D02*
X351100D01*
X344300D02*
X345400D01*
X339700D02*
X340800D01*
X334900D02*
X336000D01*
X332200D02*
X333200D01*
X329600D02*
X331200D01*
X326400D02*
X327600D01*
X320200D02*
X321300D01*
X317800D02*
X318800D01*
X314400D02*
X315800D01*
X312400D02*
X313400D01*
X386900Y298600D02*
X388200D01*
X385700D02*
X385800D01*
X374900D02*
X385500D01*
X370700D02*
X371800D01*
X359200D02*
X363600D01*
X356100D02*
X357200D01*
X354700D02*
X355900D01*
X351400D02*
X352500D01*
X350000D02*
X351000D01*
X344300D02*
X345400D01*
X339700D02*
X340800D01*
X334900D02*
X336000D01*
X332200D02*
X333200D01*
X329700D02*
X331100D01*
X326400D02*
X327500D01*
X320200D02*
X321400D01*
X317800D02*
X318800D01*
X314300D02*
X315700D01*
X312400D02*
X313400D01*
X387000Y298500D02*
X388200D01*
X374900D02*
X385600D01*
X370600D02*
X371800D01*
X359100D02*
X363700D01*
X356100D02*
X357100D01*
X354700D02*
X355800D01*
X351300D02*
X352400D01*
X350000D02*
X351100D01*
X344300D02*
X345400D01*
X339700D02*
X340800D01*
X334900D02*
X336000D01*
X332200D02*
X333200D01*
X329600D02*
X330900D01*
X326400D02*
X327500D01*
X320300D02*
X321400D01*
X317800D02*
X318800D01*
X314200D02*
X315600D01*
X312400D02*
X313400D01*
X387000Y298400D02*
X388100D01*
X374900D02*
X385800D01*
X370600D02*
X371800D01*
X359100D02*
X363700D01*
X356000D02*
X357100D01*
X354800D02*
X355800D01*
X351300D02*
X352400D01*
X350100D02*
X351100D01*
X344300D02*
X345400D01*
X339700D02*
X340800D01*
X334900D02*
X336000D01*
X332200D02*
X333200D01*
X329500D02*
X330800D01*
X326300D02*
X327500D01*
X320300D02*
X321400D01*
X317800D02*
X318800D01*
X314100D02*
X315500D01*
X312400D02*
X313400D01*
X387000Y298300D02*
X388100D01*
X374900D02*
X385900D01*
X370600D02*
X371700D01*
X359000D02*
X363800D01*
X356000D02*
X357100D01*
X354700D02*
X355900D01*
X351300D02*
X352400D01*
X350000D02*
X351200D01*
X344300D02*
X345400D01*
X339700D02*
X340800D01*
X334900D02*
X336000D01*
X332200D02*
X333200D01*
X329400D02*
X330700D01*
X326300D02*
X327500D01*
X320300D02*
X321500D01*
X317800D02*
X318800D01*
X314000D02*
X315400D01*
X312400D02*
X313400D01*
X387000Y298200D02*
X388000D01*
X374900D02*
X386000D01*
X370500D02*
X371700D01*
X359000D02*
X363800D01*
X354800D02*
X357000D01*
X350200D02*
X352300D01*
X344300D02*
X345400D01*
X339700D02*
X340800D01*
X334900D02*
X336000D01*
X332200D02*
X333200D01*
X329400D02*
X330600D01*
X326200D02*
X327400D01*
X320300D02*
X321500D01*
X317800D02*
X318800D01*
X314000D02*
X315300D01*
X312400D02*
X313400D01*
X387000Y298100D02*
X388000D01*
X374900D02*
X386100D01*
X370500D02*
X371600D01*
X359000D02*
X364000D01*
X354900D02*
X357000D01*
X350200D02*
X352300D01*
X350000D02*
X350100D01*
X344300D02*
X345400D01*
X339700D02*
X340800D01*
X334900D02*
X336000D01*
X332200D02*
X333200D01*
X329300D02*
X330600D01*
X326200D02*
X327400D01*
X320400D02*
X321600D01*
X317800D02*
X318800D01*
X313900D02*
X315200D01*
X312400D02*
X313400D01*
X387000Y298000D02*
X387900D01*
X374900D02*
X386200D01*
X370400D02*
X371600D01*
X358900D02*
X363900D01*
X354900D02*
X357000D01*
X350200D02*
X352300D01*
X344300D02*
X345400D01*
X339700D02*
X340800D01*
X334900D02*
X336000D01*
X332200D02*
X333200D01*
X330600D02*
X330700D01*
X329200D02*
X330500D01*
X326100D02*
X327400D01*
X320400D02*
X321600D01*
X317800D02*
X318800D01*
X313800D02*
X315200D01*
X312400D02*
X313400D01*
X387000Y297900D02*
X387900D01*
X374900D02*
X386300D01*
X370300D02*
X371600D01*
X358900D02*
X364000D01*
X355000D02*
X356900D01*
X354800D02*
X354900D01*
X350300D02*
X352300D01*
X350100D02*
X350200D01*
X344300D02*
X345400D01*
X339700D02*
X340800D01*
X334900D02*
X336000D01*
X332200D02*
X333200D01*
X330700D02*
X330800D01*
X329200D02*
X330400D01*
X326100D02*
X327300D01*
X320500D02*
X321700D01*
X317800D02*
X318800D01*
X313700D02*
X315100D01*
X312400D02*
X313400D01*
X387900Y297800D02*
X388000D01*
X387000D02*
X387800D01*
X374900D02*
X386400D01*
X370300D02*
X371500D01*
X362900D02*
X364100D01*
X358800D02*
X359900D01*
X354900D02*
X356900D01*
X350300D02*
X352100D01*
X344300D02*
X345400D01*
X339700D02*
X340800D01*
X334900D02*
X336000D01*
X332200D02*
X333200D01*
X329100D02*
X330300D01*
X326000D02*
X327300D01*
X322000D02*
X322100D01*
X320500D02*
X321800D01*
X317800D02*
X318800D01*
X313600D02*
X315000D01*
X312400D02*
X313400D01*
X387000Y297700D02*
X387800D01*
X374900D02*
X386500D01*
X370200D02*
X371500D01*
X370000D02*
X370100D01*
X365600D02*
X365700D01*
X364100D02*
X364200D01*
X362900D02*
X364000D01*
X358800D02*
X359900D01*
X355100D02*
X356800D01*
X354900D02*
X355000D01*
X350400D02*
X352100D01*
X344300D02*
X345400D01*
X339700D02*
X340800D01*
X334900D02*
X336000D01*
X332200D02*
X333200D01*
X329000D02*
X330300D01*
X325900D02*
X327200D01*
X320600D02*
X321800D01*
X317800D02*
X318800D01*
X313500D02*
X314900D01*
X312400D02*
X313400D01*
X387800Y297600D02*
X387900D01*
X387000D02*
X387700D01*
X374900D02*
X386600D01*
X370100D02*
X371400D01*
X363000D02*
X364200D01*
X358700D02*
X359800D01*
X355100D02*
X356800D01*
X350400D02*
X352100D01*
X344300D02*
X345400D01*
X339700D02*
X340800D01*
X334900D02*
X336000D01*
X332200D02*
X333200D01*
X329000D02*
X330200D01*
X325800D02*
X327100D01*
X320600D02*
X321900D01*
X317800D02*
X318800D01*
X312400D02*
X314800D01*
X387000Y297500D02*
X387700D01*
X374900D02*
X386700D01*
X370000D02*
X371400D01*
X365600D02*
X365800D01*
X363000D02*
X364100D01*
X358700D02*
X359800D01*
X355100D02*
X356800D01*
X350400D02*
X352000D01*
X344300D02*
X345400D01*
X339700D02*
X340800D01*
X334900D02*
X336000D01*
X332200D02*
X333200D01*
X328900D02*
X330100D01*
X325700D02*
X327100D01*
X320700D02*
X322000D01*
X317800D02*
X318800D01*
X312400D02*
X314700D01*
X387000Y297400D02*
X387600D01*
X374900D02*
X386800D01*
X369900D02*
X371300D01*
X369000D02*
X369100D01*
X365600D02*
X365900D01*
X363100D02*
X364200D01*
X358600D02*
X359900D01*
X355200D02*
X356700D01*
X350500D02*
X352000D01*
X344300D02*
X345400D01*
X339700D02*
X340800D01*
X334900D02*
X336000D01*
X332200D02*
X333200D01*
X328800D02*
X330100D01*
X325600D02*
X327000D01*
X320600D02*
X322100D01*
X317800D02*
X318800D01*
X312400D02*
X314600D01*
X387000Y297300D02*
X387500D01*
X374900D02*
X386900D01*
X369700D02*
X371200D01*
X365600D02*
X366100D01*
X363100D02*
X364200D01*
X358600D02*
X359700D01*
X358400D02*
X358500D01*
X355200D02*
X356700D01*
X350500D02*
X352000D01*
X344300D02*
X345400D01*
X339700D02*
X340800D01*
X334900D02*
X336000D01*
X332200D02*
X333200D01*
X328800D02*
X330000D01*
X325500D02*
X327000D01*
X320800D02*
X322300D01*
X320600D02*
X320700D01*
X317800D02*
X318800D01*
X312400D02*
X314500D01*
X387000Y297200D02*
X387500D01*
X374900D02*
X386900D01*
X371300D02*
X371400D01*
X369600D02*
X371200D01*
X369400D02*
X369500D01*
X366400D02*
X366600D01*
X365600D02*
X366300D01*
X363000D02*
X364200D01*
X358600D02*
X359700D01*
X358400D02*
X358500D01*
X355300D02*
X356600D01*
X350600D02*
X351900D01*
X344300D02*
X345400D01*
X339700D02*
X340800D01*
X334900D02*
X336000D01*
X332200D02*
X333200D01*
X328700D02*
X329900D01*
X325400D02*
X326900D01*
X320900D02*
X322400D01*
X317800D02*
X318800D01*
X312400D02*
X314500D01*
X374900Y297100D02*
X387400D01*
X369400D02*
X371100D01*
X365600D02*
X366500D01*
X363200D02*
X364300D01*
X358400D02*
X359600D01*
X355300D02*
X356600D01*
X350600D02*
X352000D01*
X344300D02*
X345400D01*
X339700D02*
X340800D01*
X334900D02*
X336000D01*
X332200D02*
X333200D01*
X328700D02*
X329900D01*
X325200D02*
X326800D01*
X320900D02*
X322600D01*
X317800D02*
X318800D01*
X312400D02*
X314400D01*
X374900Y297000D02*
X387300D01*
X369200D02*
X371000D01*
X365600D02*
X366800D01*
X363100D02*
X364300D01*
X358500D02*
X359600D01*
X355300D02*
X356500D01*
X351900D02*
X352000D01*
X350600D02*
X351800D01*
X344300D02*
X345400D01*
X339700D02*
X340800D01*
X334900D02*
X336000D01*
X332200D02*
X333200D01*
X328600D02*
X329800D01*
X324900D02*
X326700D01*
X323000D02*
X323100D01*
X321000D02*
X322800D01*
X317800D02*
X318800D01*
X312400D02*
X314300D01*
X374900Y296900D02*
X387200D01*
X368900D02*
X370900D01*
X368600D02*
X368700D01*
X365600D02*
X367200D01*
X363300D02*
X364400D01*
X363100D02*
X363200D01*
X358300D02*
X359500D01*
X355400D02*
X356500D01*
X350700D02*
X351800D01*
X344300D02*
X345400D01*
X339700D02*
X340800D01*
X334900D02*
X336000D01*
X332200D02*
X333200D01*
X329800D02*
X329900D01*
X328500D02*
X329700D01*
X324700D02*
X326600D01*
X321100D02*
X323100D01*
X317800D02*
X318800D01*
X312400D02*
X314200D01*
X374900Y296800D02*
X387100D01*
X368200D02*
X370800D01*
X365600D02*
X368000D01*
X363300D02*
X364400D01*
X363100D02*
X363200D01*
X358400D02*
X359500D01*
X355400D02*
X356500D01*
X350700D02*
X351900D01*
X344300D02*
X345400D01*
X339700D02*
X340800D01*
X334900D02*
X336000D01*
X332200D02*
X333200D01*
X328500D02*
X329700D01*
X324000D02*
X326500D01*
X321200D02*
X323800D01*
X317800D02*
X318800D01*
X312400D02*
X314100D01*
X374900Y296700D02*
X387000D01*
X365600D02*
X370700D01*
X363400D02*
X364500D01*
X358300D02*
X359400D01*
X355500D02*
X356400D01*
X351800D02*
X351900D01*
X350800D02*
X351700D01*
X344300D02*
X345400D01*
X339700D02*
X340800D01*
X334900D02*
X336000D01*
X332200D02*
X333200D01*
X328400D02*
X329600D01*
X321300D02*
X326400D01*
X317800D02*
X318800D01*
X312400D02*
X314000D01*
X374900Y296600D02*
X386900D01*
X370700D02*
X370800D01*
X365600D02*
X370600D01*
X363400D02*
X364500D01*
X358300D02*
X359400D01*
X356800D02*
X356900D01*
X355400D02*
X356400D01*
X350800D02*
X351700D01*
X344300D02*
X345400D01*
X339700D02*
X340800D01*
X334900D02*
X336000D01*
X332200D02*
X333200D01*
X328300D02*
X329600D01*
X321400D02*
X326300D01*
X317800D02*
X318800D01*
X314200D02*
X314300D01*
X312400D02*
X313900D01*
X374900Y296500D02*
X386900D01*
X365600D02*
X370400D01*
X363400D02*
X364500D01*
X358200D02*
X359300D01*
X355600D02*
X356300D01*
X350800D02*
X351600D01*
X344300D02*
X345400D01*
X339700D02*
X340800D01*
X334900D02*
X336000D01*
X332200D02*
X333200D01*
X328300D02*
X329500D01*
X321600D02*
X326200D01*
X317800D02*
X318800D01*
X312400D02*
X313800D01*
X374900Y296400D02*
X386700D01*
X365600D02*
X370300D01*
X363500D02*
X364600D01*
X358200D02*
X359300D01*
X355600D02*
X356300D01*
X350900D02*
X351600D01*
X344300D02*
X345400D01*
X339700D02*
X340800D01*
X334900D02*
X336000D01*
X332200D02*
X333200D01*
X328200D02*
X329400D01*
X321700D02*
X326000D01*
X317800D02*
X318800D01*
X312400D02*
X313800D01*
X374900Y296300D02*
X386600D01*
X365800D02*
X370100D01*
X365600D02*
X365700D01*
X363400D02*
X364600D01*
X358200D02*
X359400D01*
X355600D02*
X356300D01*
X350900D02*
X351600D01*
X344300D02*
X345400D01*
X339700D02*
X340800D01*
X334900D02*
X336000D01*
X332200D02*
X333200D01*
X328100D02*
X329400D01*
X321900D02*
X325900D01*
X321600D02*
X321700D01*
X317800D02*
X318800D01*
X312400D02*
X313700D01*
X374900Y296200D02*
X386600D01*
X366100D02*
X369900D01*
X363600D02*
X364700D01*
X358100D02*
X359200D01*
X357900D02*
X358000D01*
X355700D02*
X356200D01*
X351000D02*
X351500D01*
X344300D02*
X345400D01*
X339700D02*
X340800D01*
X334900D02*
X336000D01*
X332200D02*
X333200D01*
X328000D02*
X329300D01*
X322100D02*
X325700D01*
X317800D02*
X318800D01*
X312400D02*
X313600D01*
X374900Y296100D02*
X386400D01*
X366300D02*
X369700D01*
X363600D02*
X364700D01*
X357900D02*
X359200D01*
X355700D02*
X356200D01*
X351000D02*
X351500D01*
X344300D02*
X345400D01*
X339700D02*
X340800D01*
X334900D02*
X336000D01*
X332200D02*
X333200D01*
X328000D02*
X329200D01*
X322300D02*
X325500D01*
X317800D02*
X318900D01*
X312400D02*
X313500D01*
X388100Y296000D02*
X388200D01*
X374900D02*
X386300D01*
X366600D02*
X369500D01*
X363700D02*
X364800D01*
X358000D02*
X359100D01*
X355800D02*
X356100D01*
X351000D02*
X351400D01*
X344300D02*
X345400D01*
X339700D02*
X340800D01*
X334900D02*
X336000D01*
X332200D02*
X333200D01*
X327900D02*
X329200D01*
X322600D02*
X325200D01*
X317800D02*
X318900D01*
X312400D02*
X313400D01*
X388400Y295900D02*
X388500D01*
X388000D02*
X388200D01*
X374900D02*
X386100D01*
X369400D02*
X369500D01*
X367000D02*
X369100D01*
X363700D02*
X364700D01*
X358000D02*
X359000D01*
X355800D02*
X356100D01*
X351100D02*
X351400D01*
X345200D02*
X345300D01*
X344400D02*
X344500D01*
X339700D02*
X340700D01*
X334900D02*
X335900D01*
X332200D02*
X333200D01*
X327900D02*
X329100D01*
X325400D02*
X325500D01*
X322900D02*
X324900D01*
X317900D02*
X318800D01*
X312500D02*
X313300D01*
X388000Y295800D02*
X388200D01*
X374900D02*
X386000D01*
X367700D02*
X368500D01*
X358100D02*
X358200D01*
X339900D02*
X340000D01*
X339700D02*
X339800D01*
X335900D02*
X336000D01*
X335600D02*
X335700D01*
X329100D02*
X329200D01*
X328700D02*
X328800D01*
X323600D02*
X324100D01*
X312600D02*
X312700D01*
X312400D02*
X312500D01*
X388000Y295700D02*
X388200D01*
X374900D02*
X385800D01*
X387900Y295600D02*
X388200D01*
X374900D02*
X385600D01*
X387900Y295500D02*
X388200D01*
X385600D02*
X385700D01*
X374900D02*
X385500D01*
X387900Y295400D02*
X388200D01*
X374900D02*
X385300D01*
X387800Y295300D02*
X388200D01*
X385800D02*
X385900D01*
X374900D02*
X385100D01*
X387800Y295200D02*
X388200D01*
X374900D02*
X384900D01*
X387700Y295100D02*
X388200D01*
X374900D02*
X384700D01*
X387700Y295000D02*
X388200D01*
X384500D02*
X384600D01*
X374900D02*
X384400D01*
X387600Y294900D02*
X388200D01*
X374900D02*
X384200D01*
X387600Y294800D02*
X388200D01*
X387300D02*
X387400D01*
X374900D02*
X383900D01*
X387500Y294700D02*
X388200D01*
X374900D02*
X383600D01*
X387500Y294600D02*
X388200D01*
X374900D02*
X383300D01*
X387400Y294500D02*
X388200D01*
X374900D02*
X383000D01*
X387400Y294400D02*
X388200D01*
X374900D02*
X382500D01*
X387300Y294300D02*
X388200D01*
X375200D02*
X382000D01*
X387300Y294200D02*
X388200D01*
X381900D02*
X382000D01*
X376200D02*
X381200D01*
X387200Y294100D02*
X388200D01*
X377600D02*
X379900D01*
X387100Y294000D02*
X388200D01*
X381200D02*
X381300D01*
X387100Y293900D02*
X388200D01*
X386900D02*
X387000D01*
Y293800D02*
X388200D01*
X386900Y293700D02*
X388200D01*
X386800Y293600D02*
X388200D01*
X386800Y293500D02*
X388200D01*
X386700Y293400D02*
X388200D01*
X386500D02*
X386600D01*
Y293300D02*
X388200D01*
X386500Y293200D02*
X388200D01*
X386500Y293100D02*
X388200D01*
X386300D02*
X386400D01*
Y293000D02*
X388200D01*
X386300Y292900D02*
X388200D01*
X386200Y292800D02*
X388200D01*
X386000D02*
X386100D01*
Y292700D02*
X388200D01*
X386000Y292600D02*
X388200D01*
X371500D02*
X371600D01*
X366800D02*
X366900D01*
X364900D02*
X365200D01*
X354800D02*
X354900D01*
X346300D02*
X346400D01*
X385900Y292500D02*
X388200D01*
X371000D02*
X371600D01*
X369600D02*
X370100D01*
X369400D02*
X369500D01*
X366900D02*
X367400D01*
X364400D02*
X365500D01*
X364200D02*
X364300D01*
X360800D02*
X363700D01*
X359600D02*
X360200D01*
X356000D02*
X359000D01*
X354900D02*
X355500D01*
X352500D02*
X353100D01*
X349100D02*
X352000D01*
X346400D02*
X348400D01*
X385800Y292400D02*
X388200D01*
X371000D02*
X371600D01*
X369500D02*
X370100D01*
X366900D02*
X367400D01*
X364200D02*
X365600D01*
X360800D02*
X363700D01*
X359600D02*
X360200D01*
X356000D02*
X359000D01*
X354900D02*
X355500D01*
X352500D02*
X353100D01*
X349100D02*
X352000D01*
X346400D02*
X348400D01*
X385700Y292300D02*
X388200D01*
X370900D02*
X371600D01*
X369400D02*
X370100D01*
X366900D02*
X367400D01*
X364100D02*
X365800D01*
X360800D02*
X363700D01*
X359600D02*
X360300D01*
X356000D02*
X359000D01*
X354900D02*
X355500D01*
X352500D02*
X353100D01*
X349100D02*
X352000D01*
X346400D02*
X348400D01*
X385600Y292200D02*
X388200D01*
X371000D02*
X371600D01*
X369400D02*
X370100D01*
X369200D02*
X369300D01*
X366900D02*
X367400D01*
X364100D02*
X366000D01*
X360800D02*
X363700D01*
X359600D02*
X360200D01*
X356000D02*
X359100D01*
X354900D02*
X355500D01*
X352500D02*
X353100D01*
X349100D02*
X352000D01*
X346400D02*
X348400D01*
X385500Y292100D02*
X388200D01*
X371000D02*
X371600D01*
X369300D02*
X370100D01*
X369100D02*
X369200D01*
X366900D02*
X367400D01*
X364100D02*
X365900D01*
X360800D02*
X363800D01*
X359600D02*
X360200D01*
X356000D02*
X359000D01*
X354900D02*
X355500D01*
X352500D02*
X353100D01*
X349100D02*
X352000D01*
X346400D02*
X348400D01*
X385400Y292000D02*
X388200D01*
X371000D02*
X371600D01*
X369200D02*
X370100D01*
X366900D02*
X367400D01*
X365300D02*
X366000D01*
X364100D02*
X364700D01*
X363700D02*
X363800D01*
X362000D02*
X362600D01*
X360800D02*
X360900D01*
X359600D02*
X360200D01*
X357200D02*
X357800D01*
X354900D02*
X355500D01*
X352500D02*
X353100D01*
X350200D02*
X350800D01*
X347800D02*
X348400D01*
X385300Y291900D02*
X388200D01*
X371000D02*
X371600D01*
X369100D02*
X370100D01*
X366900D02*
X367400D01*
X365400D02*
X366000D01*
X365200D02*
X365300D01*
X364100D02*
X364400D01*
X362000D02*
X362600D01*
X359600D02*
X360200D01*
X357200D02*
X357800D01*
X354900D02*
X355500D01*
X352500D02*
X353100D01*
X350200D02*
X350800D01*
X347800D02*
X348400D01*
X385200Y291800D02*
X388200D01*
X371000D02*
X371600D01*
X369000D02*
X370100D01*
X368700D02*
X368800D01*
X366900D02*
X367400D01*
X365500D02*
X366000D01*
X364100D02*
X364300D01*
X362000D02*
X362600D01*
X359600D02*
X360200D01*
X357200D02*
X357800D01*
X354900D02*
X355500D01*
X352500D02*
X353100D01*
X350200D02*
X350800D01*
X347800D02*
X348400D01*
X385100Y291700D02*
X388200D01*
X371000D02*
X371600D01*
X368900D02*
X370100D01*
X366900D02*
X367400D01*
X365500D02*
X366000D01*
X362000D02*
X362600D01*
X359600D02*
X360200D01*
X357200D02*
X357800D01*
X354900D02*
X355500D01*
X352500D02*
X353100D01*
X350200D02*
X350800D01*
X347800D02*
X348400D01*
X384900Y291600D02*
X388200D01*
X384700D02*
X384800D01*
X371000D02*
X371600D01*
X369600D02*
X370100D01*
X368800D02*
X369500D01*
X366900D02*
X367400D01*
X365500D02*
X366000D01*
X362000D02*
X362600D01*
X359600D02*
X360200D01*
X357200D02*
X357800D01*
X354900D02*
X355500D01*
X352500D02*
X353100D01*
X350200D02*
X350800D01*
X347800D02*
X348400D01*
X384800Y291500D02*
X388200D01*
X371000D02*
X371600D01*
X369600D02*
X370100D01*
X368700D02*
X369500D01*
X366900D02*
X367400D01*
X365400D02*
X366000D01*
X362000D02*
X362600D01*
X359600D02*
X360200D01*
X357200D02*
X357800D01*
X354900D02*
X355500D01*
X352500D02*
X353100D01*
X350200D02*
X350800D01*
X347800D02*
X348400D01*
X384600Y291400D02*
X388200D01*
X371000D02*
X371600D01*
X369600D02*
X370100D01*
X368600D02*
X369400D01*
X366900D02*
X367400D01*
X365300D02*
X366000D01*
X365100D02*
X365200D01*
X362000D02*
X362600D01*
X359600D02*
X360200D01*
X357200D02*
X357800D01*
X354900D02*
X355500D01*
X352500D02*
X353100D01*
X350200D02*
X350800D01*
X347800D02*
X348400D01*
X384500Y291300D02*
X388200D01*
X371000D02*
X371600D01*
X369600D02*
X370100D01*
X368600D02*
X369300D01*
X366900D02*
X367400D01*
X365200D02*
X366000D01*
X362000D02*
X362600D01*
X359600D02*
X360200D01*
X357200D02*
X357800D01*
X354900D02*
X355500D01*
X352500D02*
X353100D01*
X350200D02*
X350800D01*
X347800D02*
X348400D01*
X384400Y291200D02*
X388200D01*
X383900D02*
X384000D01*
X371000D02*
X371600D01*
X369600D02*
X370100D01*
X368500D02*
X369200D01*
X366900D02*
X367400D01*
X365000D02*
X365900D01*
X364800D02*
X364900D01*
X362000D02*
X362600D01*
X359600D02*
X360200D01*
X357200D02*
X357800D01*
X354900D02*
X355500D01*
X352500D02*
X353100D01*
X350200D02*
X350800D01*
X347800D02*
X348400D01*
X384200Y291100D02*
X388200D01*
X383900D02*
X384000D01*
X371000D02*
X371600D01*
X369600D02*
X370100D01*
X368400D02*
X369100D01*
X366900D02*
X367400D01*
X364900D02*
X365800D01*
X362000D02*
X362600D01*
X359600D02*
X360200D01*
X357200D02*
X357800D01*
X354900D02*
X355500D01*
X352500D02*
X353100D01*
X350200D02*
X350800D01*
X347800D02*
X348400D01*
X384000Y291000D02*
X388200D01*
X371000D02*
X371600D01*
X369600D02*
X370100D01*
X368300D02*
X369000D01*
X366900D02*
X367400D01*
X365800D02*
X365900D01*
X364700D02*
X365700D01*
X362000D02*
X362600D01*
X359600D02*
X360200D01*
X357200D02*
X357800D01*
X354900D02*
X355500D01*
X352500D02*
X353100D01*
X350200D02*
X350800D01*
X346400D02*
X348400D01*
X383900Y290900D02*
X388200D01*
X383700D02*
X383800D01*
X371000D02*
X371600D01*
X369600D02*
X370100D01*
X368200D02*
X368900D01*
X366900D02*
X367400D01*
X364500D02*
X365600D01*
X362000D02*
X362600D01*
X359600D02*
X360200D01*
X357200D02*
X357800D01*
X354900D02*
X355500D01*
X352500D02*
X353100D01*
X350200D02*
X350800D01*
X346400D02*
X348400D01*
X383700Y290800D02*
X388200D01*
X371000D02*
X371600D01*
X369600D02*
X370100D01*
X368100D02*
X368900D01*
X366900D02*
X367400D01*
X364400D02*
X365500D01*
X362000D02*
X362600D01*
X359600D02*
X360200D01*
X357200D02*
X357800D01*
X354900D02*
X355500D01*
X352500D02*
X353100D01*
X350200D02*
X350800D01*
X346400D02*
X348400D01*
X383500Y290700D02*
X388200D01*
X371000D02*
X371600D01*
X369600D02*
X370100D01*
X368000D02*
X368800D01*
X366900D02*
X367400D01*
X364300D02*
X365300D01*
X362000D02*
X362600D01*
X359600D02*
X360200D01*
X357200D02*
X357800D01*
X354900D02*
X355500D01*
X352500D02*
X353100D01*
X350200D02*
X350800D01*
X346400D02*
X348400D01*
X383300Y290600D02*
X388200D01*
X371000D02*
X371600D01*
X369600D02*
X370100D01*
X367900D02*
X368700D01*
X366900D02*
X367400D01*
X364200D02*
X365200D01*
X362000D02*
X362600D01*
X359600D02*
X360200D01*
X357200D02*
X357800D01*
X354900D02*
X355500D01*
X352500D02*
X353100D01*
X350200D02*
X350800D01*
X346500D02*
X348400D01*
X383100Y290500D02*
X388200D01*
X382600D02*
X382700D01*
X371000D02*
X371600D01*
X369600D02*
X370100D01*
X367900D02*
X368600D01*
X366900D02*
X367400D01*
X364100D02*
X365000D01*
X362000D02*
X362600D01*
X359600D02*
X360200D01*
X357200D02*
X357800D01*
X354900D02*
X355500D01*
X352500D02*
X353100D01*
X350200D02*
X350800D01*
X347800D02*
X348400D01*
X382900Y290400D02*
X388200D01*
X371000D02*
X371600D01*
X369600D02*
X370100D01*
X367800D02*
X368500D01*
X367600D02*
X367700D01*
X366900D02*
X367400D01*
X364100D02*
X364900D01*
X362000D02*
X362600D01*
X359600D02*
X360200D01*
X357200D02*
X357800D01*
X354900D02*
X355500D01*
X352500D02*
X353100D01*
X350200D02*
X350800D01*
X347800D02*
X348400D01*
X382700Y290300D02*
X388200D01*
X371000D02*
X371600D01*
X369600D02*
X370100D01*
X367700D02*
X368400D01*
X366900D02*
X367400D01*
X364000D02*
X364700D01*
X362000D02*
X362600D01*
X359600D02*
X360200D01*
X357200D02*
X357800D01*
X354900D02*
X355500D01*
X352500D02*
X353100D01*
X350200D02*
X350800D01*
X347800D02*
X348400D01*
X382400Y290200D02*
X388200D01*
X371000D02*
X371600D01*
X369600D02*
X370100D01*
X367600D02*
X368300D01*
X366900D02*
X367400D01*
X364000D02*
X364700D01*
X362000D02*
X362600D01*
X359600D02*
X360200D01*
X357200D02*
X357800D01*
X354900D02*
X355500D01*
X353200D02*
X353300D01*
X352500D02*
X353100D01*
X350200D02*
X350800D01*
X347800D02*
X348400D01*
X382200Y290100D02*
X388200D01*
X371000D02*
X371600D01*
X369600D02*
X370100D01*
X367500D02*
X368300D01*
X366900D02*
X367400D01*
X364000D02*
X364600D01*
X362000D02*
X362600D01*
X359600D02*
X360200D01*
X357200D02*
X357800D01*
X354900D02*
X355500D01*
X352500D02*
X353100D01*
X350200D02*
X350800D01*
X347800D02*
X348400D01*
X382000Y290000D02*
X388200D01*
X371000D02*
X371600D01*
X369600D02*
X370100D01*
X366900D02*
X368200D01*
X364000D02*
X364600D01*
X362000D02*
X362600D01*
X359600D02*
X360200D01*
X357200D02*
X357800D01*
X354900D02*
X355500D01*
X352500D02*
X353100D01*
X350200D02*
X350800D01*
X347800D02*
X348400D01*
X381700Y289900D02*
X388200D01*
X371000D02*
X371600D01*
X369600D02*
X370100D01*
X366900D02*
X368100D01*
X365800D02*
X366000D01*
X364000D02*
X364600D01*
X362000D02*
X362600D01*
X359600D02*
X360200D01*
X357200D02*
X357800D01*
X354800D02*
X355500D01*
X354500D02*
X354600D01*
X352600D02*
X353200D01*
X350200D02*
X350800D01*
X347800D02*
X348400D01*
X381400Y289800D02*
X388200D01*
X371000D02*
X371600D01*
X369600D02*
X370100D01*
X366900D02*
X368000D01*
X365700D02*
X366000D01*
X364000D02*
X364600D01*
X362000D02*
X362600D01*
X359600D02*
X360200D01*
X357200D02*
X357800D01*
X354700D02*
X355400D01*
X354500D02*
X354600D01*
X352600D02*
X353300D01*
X350200D02*
X350800D01*
X347800D02*
X348400D01*
X381100Y289700D02*
X388200D01*
X371000D02*
X371600D01*
X369600D02*
X370100D01*
X366900D02*
X367900D01*
X365600D02*
X366000D01*
X364000D02*
X364600D01*
X362000D02*
X362600D01*
X359600D02*
X360200D01*
X357200D02*
X357800D01*
X354600D02*
X355400D01*
X352600D02*
X353400D01*
X350200D02*
X350800D01*
X347800D02*
X348400D01*
X380800Y289600D02*
X388200D01*
X371000D02*
X371600D01*
X369600D02*
X370100D01*
X366900D02*
X367800D01*
X365400D02*
X366000D01*
X364100D02*
X364800D01*
X362000D02*
X362600D01*
X359600D02*
X360200D01*
X357200D02*
X357800D01*
X354400D02*
X355300D01*
X352700D02*
X353700D01*
X350200D02*
X350800D01*
X347800D02*
X348400D01*
X380400Y289500D02*
X388200D01*
X371000D02*
X371600D01*
X369600D02*
X370100D01*
X366900D02*
X367700D01*
X364100D02*
X366000D01*
X362000D02*
X362600D01*
X359600D02*
X360200D01*
X357200D02*
X357800D01*
X352800D02*
X355200D01*
X350200D02*
X350800D01*
X346300D02*
X348400D01*
X380000Y289400D02*
X388200D01*
X371000D02*
X371600D01*
X369600D02*
X370100D01*
X366900D02*
X367600D01*
X364200D02*
X366000D01*
X363800D02*
X363900D01*
X362000D02*
X362600D01*
X359600D02*
X360200D01*
X357200D02*
X357800D01*
X352900D02*
X355100D01*
X350200D02*
X350800D01*
X346300D02*
X348400D01*
X379600Y289300D02*
X388200D01*
X371000D02*
X371600D01*
X369600D02*
X370100D01*
X366900D02*
X367600D01*
X364300D02*
X366000D01*
X362000D02*
X362600D01*
X359600D02*
X360200D01*
X357200D02*
X357800D01*
X355100D02*
X355200D01*
X353000D02*
X355000D01*
X350200D02*
X350800D01*
X346300D02*
X348400D01*
X379200Y289200D02*
X388200D01*
X371000D02*
X371600D01*
X369600D02*
X370100D01*
X366900D02*
X367500D01*
X364400D02*
X365800D01*
X362000D02*
X362600D01*
X359600D02*
X360200D01*
X357200D02*
X357800D01*
X353100D02*
X354900D01*
X350200D02*
X350800D01*
X346300D02*
X348400D01*
X378900Y289100D02*
X388200D01*
X371000D02*
X371600D01*
X369600D02*
X370100D01*
X366900D02*
X367400D01*
X365700D02*
X365900D01*
X364500D02*
X365600D01*
X364300D02*
X364400D01*
X362000D02*
X362600D01*
X359600D02*
X360200D01*
X357200D02*
X357800D01*
X353300D02*
X354700D01*
X353100D02*
X353200D01*
X350200D02*
X350800D01*
X346300D02*
X348400D01*
X371500Y289000D02*
X371600D01*
X365000D02*
X365100D01*
X364500D02*
X364600D01*
X359500D02*
X359600D01*
X353900D02*
X354100D01*
X353400D02*
X353500D01*
X350700D02*
X350800D01*
X388000Y288900D02*
X388100D01*
X371100D02*
X371200D01*
X350300D02*
X350400D01*
X346400D02*
X346500D01*
X353300Y288800D02*
X353400D01*
M02*
