G04 Layer_Color=65535*
%FSLAX25Y25*%
%MOIN*%
G70*
G01*
G75*
%ADD14C,0.01000*%
%ADD15C,0.00787*%
%ADD16C,0.00394*%
%ADD25C,0.00600*%
D14*
X263500Y371500D02*
Y379000D01*
Y371500D02*
X271000Y379000D01*
X263500D02*
X271000D01*
X253500Y224500D02*
X255500Y222500D01*
X371000D01*
X373500Y225000D01*
Y379000D01*
X371000Y381500D02*
X373500Y379000D01*
X256500Y381500D02*
X371000D01*
X253500Y378500D02*
X256500Y381500D01*
X253500Y224500D02*
Y378500D01*
Y301500D02*
X265500D01*
X361000D02*
X373500D01*
X225500Y151500D02*
Y197000D01*
Y151500D02*
X400500D01*
Y154500D01*
Y197000D01*
X225500D02*
X400500D01*
X238000Y187000D02*
Y192000D01*
Y187000D02*
X243000Y192000D01*
X238000D02*
X243000D01*
X200002Y254500D02*
X206000D01*
Y258499D01*
X200002Y260498D02*
Y262497D01*
Y261498D01*
X206000D01*
Y260498D01*
Y262497D01*
X201002Y269495D02*
X200002Y268495D01*
Y266496D01*
X201002Y265496D01*
X202001D01*
X203001Y266496D01*
Y268495D01*
X204001Y269495D01*
X205000D01*
X206000Y268495D01*
Y266496D01*
X205000Y265496D01*
X201002Y271495D02*
X200002Y272494D01*
Y274494D01*
X201002Y275493D01*
X202001D01*
X203001Y274494D01*
Y273494D01*
Y274494D01*
X204001Y275493D01*
X205000D01*
X206000Y274494D01*
Y272494D01*
X205000Y271495D01*
X200002Y277493D02*
X206000D01*
Y280492D01*
X205000Y281491D01*
X201002D01*
X200002Y280492D01*
Y277493D01*
Y283491D02*
X206000D01*
X203001D01*
Y287489D01*
X200002D01*
X206000D01*
X298000Y142498D02*
Y136500D01*
X300999D01*
X301999Y137500D01*
Y138499D01*
X300999Y139499D01*
X298000D01*
X300999D01*
X301999Y140499D01*
Y141498D01*
X300999Y142498D01*
X298000D01*
X309996Y136500D02*
Y140499D01*
X311996Y142498D01*
X313995Y140499D01*
Y136500D01*
Y139499D01*
X309996D01*
X320500Y125000D02*
Y130998D01*
X323499D01*
X324499Y129998D01*
Y127999D01*
X323499Y126999D01*
X320500D01*
X326498Y129998D02*
X327498Y130998D01*
X329497D01*
X330497Y129998D01*
Y128999D01*
X329497Y127999D01*
X328497D01*
X329497D01*
X330497Y126999D01*
Y126000D01*
X329497Y125000D01*
X327498D01*
X326498Y126000D01*
X156999Y192000D02*
Y188001D01*
Y180004D02*
Y176005D01*
X158998Y178005D02*
X155000D01*
X410500Y265500D02*
X411500D01*
Y264500D01*
X410500D01*
Y265500D01*
X415998Y310500D02*
X410000D01*
Y307501D01*
X411000Y306501D01*
X414998D01*
X415998Y307501D01*
Y310500D01*
X414998Y300503D02*
X415998Y301503D01*
Y303502D01*
X414998Y304502D01*
X413999D01*
X412999Y303502D01*
Y301503D01*
X411999Y300503D01*
X411000D01*
X410000Y301503D01*
Y303502D01*
X411000Y304502D01*
X414998Y298504D02*
X415998Y297504D01*
Y295505D01*
X414998Y294505D01*
X413999D01*
X412999Y295505D01*
Y296504D01*
Y295505D01*
X411999Y294505D01*
X411000D01*
X410000Y295505D01*
Y297504D01*
X411000Y298504D01*
X410000Y288507D02*
Y292506D01*
X413999Y288507D01*
X414998D01*
X415998Y289507D01*
Y291506D01*
X414998Y292506D01*
Y286508D02*
X415998Y285508D01*
Y283509D01*
X414998Y282509D01*
X413999D01*
X412999Y283509D01*
Y284508D01*
Y283509D01*
X411999Y282509D01*
X411000D01*
X410000Y283509D01*
Y285508D01*
X411000Y286508D01*
X410000Y280510D02*
Y278510D01*
Y279510D01*
X415998D01*
X414998Y280510D01*
X410000Y275511D02*
X415998D01*
X413999Y273512D01*
X415998Y271513D01*
X410000D01*
X415498Y369000D02*
Y365001D01*
Y367001D01*
X409500D01*
Y363002D02*
X415498D01*
X413499Y361003D01*
X415498Y359003D01*
X409500D01*
Y357004D02*
X415498D01*
Y354005D01*
X414498Y353005D01*
X412499D01*
X411499Y354005D01*
Y357004D01*
X414498Y351006D02*
X415498Y350006D01*
Y348007D01*
X414498Y347007D01*
X413499D01*
X412499Y348007D01*
Y349007D01*
Y348007D01*
X411499Y347007D01*
X410500D01*
X409500Y348007D01*
Y350006D01*
X410500Y351006D01*
X415498Y341009D02*
X414498Y343008D01*
X412499Y345008D01*
X410500D01*
X409500Y344008D01*
Y342009D01*
X410500Y341009D01*
X411499D01*
X412499Y342009D01*
Y345008D01*
X410000Y372500D02*
X411000D01*
Y371500D01*
X410000D01*
Y372500D01*
X257949Y385950D02*
Y389948D01*
X256949Y390948D01*
X254950D01*
X253950Y389948D01*
Y385950D01*
X254950Y384950D01*
X256949D01*
X255949Y386949D02*
X257949Y384950D01*
X256949D02*
X257949Y385950D01*
X259948Y384950D02*
X261947D01*
X260948D01*
Y390948D01*
X259948Y389948D01*
X398100Y374853D02*
Y380851D01*
X401099D01*
X402099Y379851D01*
Y377852D01*
X401099Y376852D01*
X398100D01*
X407097Y374853D02*
Y380851D01*
X404098Y377852D01*
X408097D01*
X143400Y318600D02*
Y322599D01*
X145399Y324598D01*
X147399Y322599D01*
Y318600D01*
Y321599D01*
X143400D01*
X153397Y323598D02*
X152397Y324598D01*
X150398D01*
X149398Y323598D01*
Y319600D01*
X150398Y318600D01*
X152397D01*
X153397Y319600D01*
X155396Y318600D02*
X157396D01*
X156396D01*
Y324598D01*
X155396Y323598D01*
X398150Y324350D02*
Y330348D01*
X401149D01*
X402149Y329348D01*
Y327349D01*
X401149Y326349D01*
X398150D01*
X404148Y324350D02*
X406147D01*
X405148D01*
Y330348D01*
X404148Y329348D01*
X143360Y197400D02*
Y203398D01*
X146359D01*
X147359Y202398D01*
Y200399D01*
X146359Y199399D01*
X143360D01*
X153357Y197400D02*
X149358D01*
X153357Y201399D01*
Y202398D01*
X152357Y203398D01*
X150358D01*
X149358Y202398D01*
X189592Y166098D02*
Y160100D01*
X192591D01*
X193591Y161100D01*
Y165098D01*
X192591Y166098D01*
X189592D01*
X195590Y160100D02*
X197590D01*
X196590D01*
Y166098D01*
X195590Y165098D01*
X166299Y222098D02*
X165299Y223098D01*
X163300D01*
X162300Y222098D01*
Y218100D01*
X163300Y217100D01*
X165299D01*
X166299Y218100D01*
X168298Y217100D02*
X170297D01*
X169298D01*
Y223098D01*
X168298Y222098D01*
X205799Y204798D02*
X204799Y205798D01*
X202800D01*
X201800Y204798D01*
Y200800D01*
X202800Y199800D01*
X204799D01*
X205799Y200800D01*
X211797Y199800D02*
X207798D01*
X211797Y203799D01*
Y204798D01*
X210797Y205798D01*
X208798D01*
X207798Y204798D01*
X229999Y201500D02*
Y205498D01*
X228999Y206498D01*
X227000D01*
X226000Y205498D01*
Y201500D01*
X227000Y200500D01*
X228999D01*
X227999Y202499D02*
X229999Y200500D01*
X228999D02*
X229999Y201500D01*
X235997Y200500D02*
X231998D01*
X235997Y204499D01*
Y205498D01*
X234997Y206498D01*
X232998D01*
X231998Y205498D01*
X276500Y177998D02*
X280499D01*
X278499D01*
Y172000D01*
X282498Y177998D02*
X286497D01*
X284497D01*
Y172000D01*
X288496Y177998D02*
Y172000D01*
X292495D01*
X301492Y176998D02*
Y175999D01*
X300492D01*
X302492D01*
X301492D01*
Y173000D01*
X302492Y172000D01*
X306490D02*
X308490D01*
X309489Y173000D01*
Y174999D01*
X308490Y175999D01*
X306490D01*
X305491Y174999D01*
Y173000D01*
X306490Y172000D01*
X317487D02*
Y177998D01*
X320486D01*
X321485Y176998D01*
Y174999D01*
X320486Y173999D01*
X317487D01*
X319486D02*
X321485Y172000D01*
X327484Y176998D02*
X326484Y177998D01*
X324484D01*
X323485Y176998D01*
Y175999D01*
X324484Y174999D01*
X326484D01*
X327484Y173999D01*
Y173000D01*
X326484Y172000D01*
X324484D01*
X323485Y173000D01*
X329483Y174999D02*
X333482D01*
X338480Y172000D02*
Y177998D01*
X335481Y174999D01*
X339480D01*
X341479Y176998D02*
X342479Y177998D01*
X344478D01*
X345478Y176998D01*
Y175999D01*
X344478Y174999D01*
X345478Y173999D01*
Y173000D01*
X344478Y172000D01*
X342479D01*
X341479Y173000D01*
Y173999D01*
X342479Y174999D01*
X341479Y175999D01*
Y176998D01*
X342479Y174999D02*
X344478D01*
X351476Y177998D02*
X347477D01*
Y174999D01*
X349476Y175999D01*
X350476D01*
X351476Y174999D01*
Y173000D01*
X350476Y172000D01*
X348477D01*
X347477Y173000D01*
X143000Y392500D02*
G03*
X138000Y387500I0J-5000D01*
G01*
Y125000D02*
G03*
X143000Y120000I5000J0D01*
G01*
X420500D02*
G03*
X425500Y125000I0J5000D01*
G01*
Y387500D02*
G03*
X420500Y392500I-5000J0D01*
G01*
X143000D02*
X305000D01*
X138000Y125000D02*
Y387500D01*
X143000Y120000D02*
X420500D01*
X425500Y125000D02*
Y387500D01*
X305000Y392500D02*
X420500D01*
D15*
X216894Y229020D02*
G03*
X216106Y229020I-394J0D01*
G01*
D02*
G03*
X216894Y229020I394J0D01*
G01*
X316500Y122500D02*
Y132500D01*
X296500Y122500D02*
X316500D01*
X296500D02*
Y132500D01*
X316500D01*
X397500Y341453D02*
Y371453D01*
Y341453D02*
X407500D01*
Y371453D01*
X397500D02*
X407500D01*
X397500Y321000D02*
X407500D01*
X397500Y261000D02*
X407500D01*
X397500D02*
Y321000D01*
X407500Y261000D02*
Y321000D01*
X142760Y174000D02*
X152760D01*
X142760D02*
Y194000D01*
X152760D01*
Y174000D02*
Y194000D01*
X183905Y178661D02*
X188827D01*
X167173D02*
X172095D01*
X183905Y211339D02*
X194339D01*
X161661D02*
X172095D01*
X161661Y184173D02*
Y211339D01*
Y184173D02*
X167173Y178661D01*
X194339Y184173D02*
Y211339D01*
X188827Y178661D02*
X194339Y184173D01*
X146500Y231500D02*
X226500D01*
Y311500D01*
X146500D02*
X226500D01*
X146500Y231500D02*
Y311500D01*
D16*
Y231500D02*
X226500D01*
Y311500D01*
X146500D02*
X226500D01*
X146500Y231500D02*
Y311500D01*
X192683Y156937D02*
X204494D01*
Y156150D02*
Y156937D01*
X192683Y156150D02*
Y156937D01*
Y149063D02*
Y149850D01*
Y149063D02*
X204494D01*
Y149850D01*
X200557Y149063D02*
Y156937D01*
X200957Y182413D02*
X208043D01*
Y196587D01*
X200957D02*
X208043D01*
X200957Y182413D02*
Y196587D01*
X142563Y227563D02*
X230437D01*
Y315437D01*
X142563D02*
X230437D01*
X142563Y227563D02*
Y315437D01*
D25*
X192567Y177677D02*
Y179646D01*
X178000Y195787D02*
Y196968D01*
Y193032D02*
Y194213D01*
X170126D02*
X185874D01*
X170126Y195787D02*
X185874D01*
X190598Y177677D02*
X194535D01*
X192567Y175709D02*
Y177677D01*
M02*
