M48
;Layer_Color=9474304
;FILE_FORMAT=2:5
INCH,TZ
;TYPE=PLATED
T1F00S00C0.02800
T2F00S00C0.03000
T3F00S00C0.03543
T4F00S00C0.04370
T5F00S00C0.10000
T6F00S00C0.13780
%
T01
X178000Y219000
X213000Y194000
T02
X318500Y226500
X328500
X338500
X348500
X358500
X368500
Y236500
Y246500
Y256500
Y266500
Y276500
Y286500
Y296500
Y306500
X393000Y189500
Y179500
Y169500
Y159500
X308500Y226500
X298500
X288500
X278500
X268500
X258500
Y236500
Y246500
Y256500
Y266500
Y276500
Y286500
Y296500
Y306500
X233000Y189500
Y179500
Y169500
Y159500
X258500Y316500
Y326500
Y336500
Y346500
Y356500
Y366500
Y376500
X368500
Y366500
Y356500
Y346500
Y336500
Y326500
Y316500
T03
X301500Y127500
X311500
X402500Y266000
Y276000
Y286000
Y296000
Y306000
X147760Y189000
Y179000
X402500Y316000
Y346453
Y356453
Y366453
T04
X216500Y236500
Y246500
Y256500
Y266500
Y276500
Y286500
Y296500
Y306500
T05
X156500Y241500
Y301500
T06
X149606Y129921
X415354
X149606Y381890
X415354
M30
