G04 Layer_Physical_Order=2*
G04 Layer_Color=16711680*
%FSLAX25Y25*%
%MOIN*%
G70*
G01*
G75*
%ADD13C,0.01968*%
%ADD14C,0.01000*%
%ADD15C,0.00787*%
%ADD16C,0.00394*%
%ADD17R,0.05905X0.05905*%
%ADD18C,0.05905*%
%ADD19C,0.06000*%
%ADD20R,0.05905X0.05905*%
%ADD21C,0.15000*%
%ADD22C,0.06555*%
%ADD23R,0.06000X0.06000*%
%ADD24C,0.05000*%
G36*
X409420Y388529D02*
X409186Y388337D01*
X409060Y388184D01*
X408908Y388058D01*
X408046Y387009D01*
X407953Y386835D01*
X407828Y386682D01*
X407188Y385485D01*
X407131Y385296D01*
X407038Y385122D01*
X406644Y383823D01*
X406624Y383626D01*
X406567Y383437D01*
X406434Y382086D01*
X406453Y381890D01*
X406434Y381693D01*
X406567Y380342D01*
X406624Y380153D01*
X406644Y379957D01*
X407038Y378658D01*
X407131Y378483D01*
X407188Y378294D01*
X407828Y377097D01*
X407953Y376945D01*
X408046Y376770D01*
X408908Y375721D01*
X409060Y375596D01*
X409186Y375443D01*
X410235Y374582D01*
X410409Y374489D01*
X410562Y374363D01*
X411759Y373724D01*
X411948Y373666D01*
X412122Y373573D01*
X413421Y373179D01*
X413618Y373160D01*
X413807Y373102D01*
X415158Y372969D01*
X415257Y372979D01*
X415354Y372960D01*
X415452Y372979D01*
X415551Y372969D01*
X416902Y373102D01*
X417091Y373160D01*
X417288Y373179D01*
X418586Y373573D01*
X418761Y373666D01*
X418950Y373724D01*
X420147Y374363D01*
X420299Y374489D01*
X420474Y374582D01*
X421523Y375443D01*
X421648Y375596D01*
X421801Y375721D01*
X422029Y375999D01*
X422500Y375831D01*
Y135980D01*
X422029Y135812D01*
X421801Y136090D01*
X421648Y136215D01*
X421523Y136368D01*
X420474Y137229D01*
X420299Y137322D01*
X420147Y137448D01*
X418950Y138087D01*
X418761Y138145D01*
X418586Y138238D01*
X417288Y138632D01*
X417091Y138651D01*
X416902Y138709D01*
X415551Y138842D01*
X415452Y138832D01*
X415354Y138851D01*
X415257Y138832D01*
X415158Y138842D01*
X413807Y138709D01*
X413618Y138651D01*
X413421Y138632D01*
X412122Y138238D01*
X411948Y138145D01*
X411759Y138087D01*
X410562Y137448D01*
X410409Y137322D01*
X410235Y137229D01*
X409186Y136368D01*
X409060Y136215D01*
X408908Y136090D01*
X408046Y135041D01*
X407953Y134866D01*
X407828Y134714D01*
X407188Y133517D01*
X407131Y133328D01*
X407038Y133153D01*
X406644Y131854D01*
X406624Y131658D01*
X406567Y131469D01*
X406434Y130118D01*
X406453Y129921D01*
X406434Y129725D01*
X406567Y128374D01*
X406624Y128185D01*
X406644Y127988D01*
X407038Y126689D01*
X407131Y126515D01*
X407188Y126326D01*
X407828Y125129D01*
X407953Y124976D01*
X408046Y124802D01*
X408908Y123753D01*
X409060Y123627D01*
X409165Y123500D01*
X409141Y123333D01*
X409022Y123000D01*
X314541D01*
X314371Y123500D01*
X315010Y123990D01*
X315799Y125018D01*
X316295Y126215D01*
X316464Y127500D01*
X316295Y128785D01*
X315799Y129982D01*
X315010Y131010D01*
X313982Y131799D01*
X312785Y132295D01*
X311500Y132464D01*
X310215Y132295D01*
X309018Y131799D01*
X307990Y131010D01*
X307201Y129982D01*
X306960Y129399D01*
X306460Y129498D01*
Y130453D01*
X306307Y131221D01*
X305872Y131872D01*
X305221Y132307D01*
X304453Y132460D01*
X298547D01*
X297779Y132307D01*
X297128Y131872D01*
X296693Y131221D01*
X296540Y130453D01*
Y124547D01*
X296693Y123779D01*
X296880Y123500D01*
X296612Y123000D01*
X155939D01*
X155820Y123333D01*
X155796Y123500D01*
X155900Y123627D01*
X156053Y123753D01*
X156914Y124802D01*
X157007Y124976D01*
X157133Y125129D01*
X157773Y126326D01*
X157830Y126515D01*
X157923Y126689D01*
X158317Y127988D01*
X158336Y128185D01*
X158394Y128374D01*
X158527Y129725D01*
X158507Y129921D01*
X158527Y130118D01*
X158394Y131469D01*
X158336Y131658D01*
X158317Y131854D01*
X157923Y133153D01*
X157830Y133328D01*
X157773Y133517D01*
X157133Y134714D01*
X157007Y134866D01*
X156914Y135041D01*
X156053Y136090D01*
X155900Y136215D01*
X155775Y136368D01*
X154726Y137229D01*
X154551Y137322D01*
X154399Y137448D01*
X153202Y138087D01*
X153013Y138145D01*
X152838Y138238D01*
X151540Y138632D01*
X151343Y138651D01*
X151154Y138709D01*
X149803Y138842D01*
X149704Y138832D01*
X149606Y138851D01*
X149509Y138832D01*
X149410Y138842D01*
X148059Y138709D01*
X147870Y138651D01*
X147673Y138632D01*
X146374Y138238D01*
X146200Y138145D01*
X146011Y138087D01*
X144814Y137448D01*
X144661Y137322D01*
X144487Y137229D01*
X143438Y136368D01*
X143312Y136215D01*
X143159Y136090D01*
X142971Y135860D01*
X142500Y136029D01*
Y177597D01*
X142965Y177715D01*
X143461Y176518D01*
X144250Y175490D01*
X145278Y174701D01*
X146475Y174205D01*
X147760Y174036D01*
X149045Y174205D01*
X150242Y174701D01*
X151270Y175490D01*
X152058Y176518D01*
X152554Y177715D01*
X152724Y179000D01*
X152554Y180285D01*
X152058Y181482D01*
X151270Y182510D01*
X150242Y183299D01*
X149659Y183540D01*
X149758Y184040D01*
X150713D01*
X151481Y184193D01*
X152132Y184628D01*
X152567Y185279D01*
X152720Y186047D01*
Y188016D01*
X147760D01*
Y189000D01*
X146776D01*
Y193960D01*
X144807D01*
X144039Y193807D01*
X143388Y193372D01*
X143000Y192791D01*
X142709Y192804D01*
X142500Y192875D01*
Y375783D01*
X142971Y375951D01*
X143159Y375721D01*
X143312Y375596D01*
X143438Y375443D01*
X144487Y374582D01*
X144661Y374489D01*
X144814Y374363D01*
X146011Y373724D01*
X146200Y373666D01*
X146374Y373573D01*
X147673Y373179D01*
X147870Y373160D01*
X148059Y373102D01*
X149410Y372969D01*
X149509Y372979D01*
X149606Y372960D01*
X149704Y372979D01*
X149803Y372969D01*
X151154Y373102D01*
X151343Y373160D01*
X151540Y373179D01*
X152838Y373573D01*
X153013Y373666D01*
X153202Y373724D01*
X154399Y374363D01*
X154551Y374489D01*
X154726Y374582D01*
X155775Y375443D01*
X155900Y375596D01*
X156053Y375721D01*
X156914Y376770D01*
X157007Y376945D01*
X157133Y377097D01*
X157773Y378294D01*
X157830Y378484D01*
X157923Y378658D01*
X158317Y379957D01*
X158336Y380153D01*
X158394Y380342D01*
X158527Y381693D01*
X158507Y381890D01*
X158527Y382086D01*
X158394Y383437D01*
X158336Y383626D01*
X158317Y383823D01*
X157923Y385122D01*
X157830Y385296D01*
X157773Y385485D01*
X157133Y386682D01*
X157007Y386835D01*
X156914Y387009D01*
X156053Y388058D01*
X155900Y388184D01*
X155775Y388337D01*
X155540Y388529D01*
X155709Y389000D01*
X409252D01*
X409420Y388529D01*
D02*
G37*
%LPC*%
G36*
X213984Y198378D02*
Y194984D01*
X217377D01*
X217354Y195167D01*
X216903Y196254D01*
X216187Y197187D01*
X215253Y197903D01*
X214166Y198354D01*
X213984Y198378D01*
D02*
G37*
G36*
X212016D02*
X211834Y198354D01*
X210747Y197903D01*
X209813Y197187D01*
X209097Y196254D01*
X208646Y195167D01*
X208623Y194984D01*
X212016D01*
Y198378D01*
D02*
G37*
G36*
X177016Y218016D02*
X173623D01*
X173646Y217833D01*
X174097Y216746D01*
X174813Y215813D01*
X175747Y215097D01*
X176833Y214647D01*
X177016Y214622D01*
Y218016D01*
D02*
G37*
G36*
Y223377D02*
X176833Y223354D01*
X175747Y222903D01*
X174813Y222187D01*
X174097Y221253D01*
X173646Y220166D01*
X173623Y219984D01*
X177016D01*
Y223377D01*
D02*
G37*
G36*
X182378Y218016D02*
X178984D01*
Y214622D01*
X179166Y214647D01*
X180254Y215097D01*
X181187Y215813D01*
X181903Y216746D01*
X182353Y217833D01*
X182378Y218016D01*
D02*
G37*
G36*
X397882Y158516D02*
X393984D01*
Y154618D01*
X394297Y154659D01*
X395506Y155160D01*
X396544Y155956D01*
X397340Y156994D01*
X397841Y158203D01*
X397882Y158516D01*
D02*
G37*
G36*
X392016D02*
X388118D01*
X388159Y158203D01*
X388660Y156994D01*
X389456Y155956D01*
X390494Y155160D01*
X391703Y154659D01*
X392016Y154618D01*
Y158516D01*
D02*
G37*
G36*
X212016Y193016D02*
X208623D01*
X208646Y192833D01*
X209097Y191746D01*
X209813Y190813D01*
X210747Y190097D01*
X211834Y189646D01*
X212016Y189622D01*
Y193016D01*
D02*
G37*
G36*
X150713Y193960D02*
X148744D01*
Y189984D01*
X152720D01*
Y191953D01*
X152567Y192721D01*
X152132Y193372D01*
X151481Y193807D01*
X150713Y193960D01*
D02*
G37*
G36*
X217377Y193016D02*
X213984D01*
Y189622D01*
X214166Y189646D01*
X215253Y190097D01*
X216187Y190813D01*
X216903Y191746D01*
X217354Y192833D01*
X217377Y193016D01*
D02*
G37*
G36*
X178984Y223377D02*
Y219984D01*
X182378D01*
X182353Y220166D01*
X181903Y221253D01*
X181187Y222187D01*
X180254Y222903D01*
X179166Y223354D01*
X178984Y223377D01*
D02*
G37*
G36*
X407334Y345468D02*
X403484D01*
Y341619D01*
X403785Y341658D01*
X404982Y342154D01*
X406010Y342943D01*
X406799Y343971D01*
X407295Y345168D01*
X407334Y345468D01*
D02*
G37*
G36*
X156500Y311014D02*
X154644Y310831D01*
X152859Y310290D01*
X151214Y309411D01*
X149772Y308228D01*
X148589Y306786D01*
X147710Y305141D01*
X147169Y303356D01*
X146986Y301500D01*
X147169Y299644D01*
X147710Y297859D01*
X148589Y296214D01*
X149772Y294772D01*
X151214Y293589D01*
X152859Y292710D01*
X154644Y292168D01*
X156500Y291986D01*
X158356Y292168D01*
X160141Y292710D01*
X161786Y293589D01*
X163228Y294772D01*
X164411Y296214D01*
X165290Y297859D01*
X165831Y299644D01*
X166014Y301500D01*
X165831Y303356D01*
X165290Y305141D01*
X164411Y306786D01*
X163228Y308228D01*
X161786Y309411D01*
X160141Y310290D01*
X158356Y310831D01*
X156500Y311014D01*
D02*
G37*
G36*
X401516Y345468D02*
X397666D01*
X397705Y345168D01*
X398201Y343971D01*
X398990Y342943D01*
X400018Y342154D01*
X401215Y341658D01*
X401516Y341619D01*
Y345468D01*
D02*
G37*
G36*
X368500Y381511D02*
X367203Y381341D01*
X365994Y380840D01*
X364956Y380044D01*
X364160Y379006D01*
X363659Y377797D01*
X363489Y376500D01*
X363659Y375203D01*
X364160Y373994D01*
X364956Y372956D01*
X365994Y372160D01*
X366934Y371771D01*
Y371229D01*
X365994Y370840D01*
X364956Y370044D01*
X364160Y369006D01*
X363659Y367797D01*
X363489Y366500D01*
X363659Y365203D01*
X364160Y363994D01*
X364956Y362956D01*
X365994Y362160D01*
X366934Y361771D01*
Y361229D01*
X365994Y360840D01*
X364956Y360044D01*
X364160Y359006D01*
X363659Y357797D01*
X363618Y357484D01*
X373382D01*
X373341Y357797D01*
X372840Y359006D01*
X372044Y360044D01*
X371006Y360840D01*
X370065Y361229D01*
Y361771D01*
X371006Y362160D01*
X372044Y362956D01*
X372840Y363994D01*
X373341Y365203D01*
X373511Y366500D01*
X373341Y367797D01*
X372840Y369006D01*
X372044Y370044D01*
X371006Y370840D01*
X370065Y371229D01*
Y371771D01*
X371006Y372160D01*
X372044Y372956D01*
X372840Y373994D01*
X373341Y375203D01*
X373511Y376500D01*
X373341Y377797D01*
X372840Y379006D01*
X372044Y380044D01*
X371006Y380840D01*
X369797Y381341D01*
X368500Y381511D01*
D02*
G37*
G36*
X405453Y371413D02*
X399547D01*
X398779Y371260D01*
X398128Y370825D01*
X397693Y370174D01*
X397540Y369406D01*
Y363500D01*
X397693Y362732D01*
X398128Y362081D01*
X398779Y361646D01*
X399547Y361493D01*
X400502D01*
X400601Y360993D01*
X400018Y360752D01*
X398990Y359963D01*
X398201Y358935D01*
X397705Y357737D01*
X397536Y356453D01*
X397705Y355168D01*
X398201Y353971D01*
X398990Y352943D01*
X400018Y352154D01*
X401092Y351709D01*
X401092Y351709D01*
Y351197D01*
X401092Y351196D01*
X400018Y350751D01*
X398990Y349963D01*
X398201Y348935D01*
X397705Y347738D01*
X397666Y347437D01*
X402500D01*
X407334D01*
X407295Y347738D01*
X406799Y348935D01*
X406010Y349963D01*
X404982Y350751D01*
X403908Y351196D01*
X403908Y351197D01*
Y351709D01*
X403908Y351709D01*
X404982Y352154D01*
X406010Y352943D01*
X406799Y353971D01*
X407295Y355168D01*
X407464Y356453D01*
X407295Y357737D01*
X406799Y358935D01*
X406010Y359963D01*
X404982Y360752D01*
X404399Y360993D01*
X404498Y361493D01*
X405453D01*
X406221Y361646D01*
X406872Y362081D01*
X407307Y362732D01*
X407460Y363500D01*
Y369406D01*
X407307Y370174D01*
X406872Y370825D01*
X406221Y371260D01*
X405453Y371413D01*
D02*
G37*
G36*
X221662Y255516D02*
X216500D01*
X211338D01*
X211389Y255131D01*
X211918Y253854D01*
X212758Y252759D01*
X213854Y251918D01*
X214259Y251750D01*
Y251250D01*
X213854Y251082D01*
X212758Y250241D01*
X211918Y249146D01*
X211389Y247869D01*
X211209Y246500D01*
X211389Y245130D01*
X211918Y243854D01*
X212758Y242758D01*
X213854Y241918D01*
X214259Y241750D01*
Y241250D01*
X213854Y241082D01*
X212758Y240242D01*
X211918Y239146D01*
X211389Y237870D01*
X211209Y236500D01*
X211389Y235131D01*
X211918Y233854D01*
X212758Y232758D01*
X213854Y231918D01*
X215130Y231389D01*
X216500Y231209D01*
X217869Y231389D01*
X219146Y231918D01*
X220241Y232758D01*
X221082Y233854D01*
X221611Y235131D01*
X221791Y236500D01*
X221611Y237870D01*
X221082Y239146D01*
X220241Y240242D01*
X219146Y241082D01*
X218741Y241250D01*
Y241750D01*
X219146Y241918D01*
X220241Y242758D01*
X221082Y243854D01*
X221611Y245130D01*
X221791Y246500D01*
X221611Y247869D01*
X221082Y249146D01*
X220241Y250241D01*
X219146Y251082D01*
X218741Y251250D01*
Y251750D01*
X219146Y251918D01*
X220241Y252759D01*
X221082Y253854D01*
X221611Y255131D01*
X221662Y255516D01*
D02*
G37*
G36*
X373382Y355516D02*
X363618D01*
X363659Y355203D01*
X364160Y353994D01*
X364956Y352956D01*
X365994Y352160D01*
X366934Y351771D01*
Y351229D01*
X365994Y350840D01*
X364956Y350044D01*
X364160Y349006D01*
X363659Y347797D01*
X363489Y346500D01*
X363659Y345203D01*
X364160Y343994D01*
X364956Y342956D01*
X365994Y342160D01*
X366934Y341771D01*
Y341229D01*
X365994Y340840D01*
X364956Y340044D01*
X364160Y339006D01*
X363659Y337797D01*
X363489Y336500D01*
X363659Y335203D01*
X364160Y333994D01*
X364956Y332956D01*
X365994Y332160D01*
X366934Y331771D01*
Y331229D01*
X365994Y330840D01*
X364956Y330044D01*
X364160Y329006D01*
X363659Y327797D01*
X363489Y326500D01*
X363659Y325203D01*
X364160Y323994D01*
X364956Y322956D01*
X365994Y322160D01*
X366934Y321771D01*
Y321229D01*
X365994Y320840D01*
X364956Y320044D01*
X364160Y319006D01*
X363659Y317797D01*
X363489Y316500D01*
X363659Y315203D01*
X364160Y313994D01*
X364956Y312956D01*
X365994Y312160D01*
X366934Y311771D01*
Y311229D01*
X365994Y310840D01*
X364956Y310044D01*
X364160Y309006D01*
X363659Y307797D01*
X363489Y306500D01*
X363659Y305203D01*
X364160Y303994D01*
X364956Y302956D01*
X365994Y302160D01*
X366934Y301771D01*
Y301229D01*
X365994Y300840D01*
X364956Y300044D01*
X364160Y299006D01*
X363659Y297797D01*
X363489Y296500D01*
X363659Y295203D01*
X364160Y293994D01*
X364956Y292956D01*
X365994Y292160D01*
X366934Y291771D01*
Y291229D01*
X365994Y290840D01*
X364956Y290044D01*
X364160Y289006D01*
X363659Y287797D01*
X363489Y286500D01*
X363659Y285203D01*
X364160Y283994D01*
X364956Y282956D01*
X365994Y282160D01*
X366934Y281771D01*
Y281229D01*
X365994Y280840D01*
X364956Y280044D01*
X364160Y279006D01*
X363659Y277797D01*
X363489Y276500D01*
X363659Y275203D01*
X364160Y273994D01*
X364956Y272956D01*
X365994Y272160D01*
X366934Y271771D01*
Y271229D01*
X365994Y270840D01*
X364956Y270044D01*
X364160Y269006D01*
X363659Y267797D01*
X363489Y266500D01*
X363659Y265203D01*
X364160Y263994D01*
X364956Y262956D01*
X365994Y262160D01*
X366934Y261771D01*
Y261229D01*
X365994Y260840D01*
X364956Y260044D01*
X364160Y259006D01*
X363659Y257797D01*
X363489Y256500D01*
X363659Y255203D01*
X364160Y253994D01*
X364956Y252956D01*
X365994Y252160D01*
X366934Y251771D01*
Y251229D01*
X365994Y250840D01*
X364956Y250044D01*
X364160Y249006D01*
X363659Y247797D01*
X363489Y246500D01*
X363659Y245203D01*
X364160Y243994D01*
X364956Y242956D01*
X365994Y242160D01*
X366934Y241771D01*
Y241229D01*
X365994Y240840D01*
X364956Y240044D01*
X364160Y239006D01*
X363659Y237797D01*
X363489Y236500D01*
X363659Y235203D01*
X364160Y233994D01*
X364956Y232956D01*
X365994Y232160D01*
X366934Y231771D01*
Y231229D01*
X365994Y230840D01*
X364956Y230044D01*
X364160Y229006D01*
X363771Y228065D01*
X363229D01*
X362840Y229006D01*
X362044Y230044D01*
X361006Y230840D01*
X359797Y231341D01*
X358500Y231511D01*
X357203Y231341D01*
X355994Y230840D01*
X354956Y230044D01*
X354160Y229006D01*
X353771Y228065D01*
X353229D01*
X352840Y229006D01*
X352044Y230044D01*
X351006Y230840D01*
X349797Y231341D01*
X348500Y231511D01*
X347203Y231341D01*
X345994Y230840D01*
X344956Y230044D01*
X344160Y229006D01*
X343771Y228065D01*
X343229D01*
X342840Y229006D01*
X342044Y230044D01*
X341006Y230840D01*
X339797Y231341D01*
X338500Y231511D01*
X337203Y231341D01*
X335994Y230840D01*
X334956Y230044D01*
X334160Y229006D01*
X333771Y228065D01*
X333229D01*
X332840Y229006D01*
X332044Y230044D01*
X331006Y230840D01*
X329797Y231341D01*
X328500Y231511D01*
X327203Y231341D01*
X325994Y230840D01*
X324956Y230044D01*
X324160Y229006D01*
X323771Y228065D01*
X323229D01*
X322840Y229006D01*
X322044Y230044D01*
X321006Y230840D01*
X319797Y231341D01*
X318500Y231511D01*
X317203Y231341D01*
X315994Y230840D01*
X314956Y230044D01*
X314160Y229006D01*
X313771Y228065D01*
X313229D01*
X312840Y229006D01*
X312044Y230044D01*
X311006Y230840D01*
X309797Y231341D01*
X308500Y231511D01*
X307203Y231341D01*
X305994Y230840D01*
X304956Y230044D01*
X304160Y229006D01*
X303771Y228065D01*
X303229D01*
X302840Y229006D01*
X302044Y230044D01*
X301006Y230840D01*
X299797Y231341D01*
X298500Y231511D01*
X297203Y231341D01*
X295994Y230840D01*
X294956Y230044D01*
X294160Y229006D01*
X293771Y228065D01*
X293229D01*
X292840Y229006D01*
X292044Y230044D01*
X291006Y230840D01*
X289797Y231341D01*
X288500Y231511D01*
X287203Y231341D01*
X285994Y230840D01*
X284956Y230044D01*
X284160Y229006D01*
X283771Y228065D01*
X283229D01*
X282840Y229006D01*
X282044Y230044D01*
X281006Y230840D01*
X279797Y231341D01*
X278500Y231511D01*
X277203Y231341D01*
X275994Y230840D01*
X274956Y230044D01*
X274160Y229006D01*
X273771Y228065D01*
X273229D01*
X272840Y229006D01*
X272044Y230044D01*
X271006Y230840D01*
X269797Y231341D01*
X268500Y231511D01*
X267203Y231341D01*
X265994Y230840D01*
X264956Y230044D01*
X264160Y229006D01*
X263771Y228065D01*
X263229D01*
X262840Y229006D01*
X262044Y230044D01*
X261006Y230840D01*
X260066Y231229D01*
Y231771D01*
X261006Y232160D01*
X262044Y232956D01*
X262840Y233994D01*
X263341Y235203D01*
X263511Y236500D01*
X263341Y237797D01*
X262840Y239006D01*
X262044Y240044D01*
X261006Y240840D01*
X260066Y241229D01*
Y241771D01*
X261006Y242160D01*
X262044Y242956D01*
X262840Y243994D01*
X263341Y245203D01*
X263382Y245516D01*
X253618D01*
X253659Y245203D01*
X254160Y243994D01*
X254956Y242956D01*
X255994Y242160D01*
X256934Y241771D01*
Y241229D01*
X255994Y240840D01*
X254956Y240044D01*
X254160Y239006D01*
X253659Y237797D01*
X253489Y236500D01*
X253659Y235203D01*
X254160Y233994D01*
X254956Y232956D01*
X255994Y232160D01*
X256934Y231771D01*
Y231229D01*
X255994Y230840D01*
X254956Y230044D01*
X254160Y229006D01*
X253659Y227797D01*
X253489Y226500D01*
X253659Y225203D01*
X254160Y223994D01*
X254956Y222956D01*
X255994Y222160D01*
X257203Y221659D01*
X258500Y221489D01*
X259797Y221659D01*
X261006Y222160D01*
X262044Y222956D01*
X262840Y223994D01*
X263229Y224935D01*
X263771D01*
X264160Y223994D01*
X264956Y222956D01*
X265994Y222160D01*
X267203Y221659D01*
X268500Y221489D01*
X269797Y221659D01*
X271006Y222160D01*
X272044Y222956D01*
X272840Y223994D01*
X273229Y224935D01*
X273771D01*
X274160Y223994D01*
X274956Y222956D01*
X275994Y222160D01*
X277203Y221659D01*
X278500Y221489D01*
X279797Y221659D01*
X281006Y222160D01*
X282044Y222956D01*
X282840Y223994D01*
X283229Y224935D01*
X283771D01*
X284160Y223994D01*
X284956Y222956D01*
X285994Y222160D01*
X287203Y221659D01*
X288500Y221489D01*
X289797Y221659D01*
X291006Y222160D01*
X292044Y222956D01*
X292840Y223994D01*
X293229Y224935D01*
X293771D01*
X294160Y223994D01*
X294956Y222956D01*
X295994Y222160D01*
X297203Y221659D01*
X298500Y221489D01*
X299797Y221659D01*
X301006Y222160D01*
X302044Y222956D01*
X302840Y223994D01*
X303229Y224935D01*
X303771D01*
X304160Y223994D01*
X304956Y222956D01*
X305994Y222160D01*
X307203Y221659D01*
X308500Y221489D01*
X309797Y221659D01*
X311006Y222160D01*
X312044Y222956D01*
X312840Y223994D01*
X313229Y224935D01*
X313771D01*
X314160Y223994D01*
X314956Y222956D01*
X315994Y222160D01*
X317203Y221659D01*
X318500Y221489D01*
X319797Y221659D01*
X321006Y222160D01*
X322044Y222956D01*
X322840Y223994D01*
X323229Y224935D01*
X323771D01*
X324160Y223994D01*
X324956Y222956D01*
X325994Y222160D01*
X327203Y221659D01*
X328500Y221489D01*
X329797Y221659D01*
X331006Y222160D01*
X332044Y222956D01*
X332840Y223994D01*
X333229Y224935D01*
X333771D01*
X334160Y223994D01*
X334956Y222956D01*
X335994Y222160D01*
X337203Y221659D01*
X338500Y221489D01*
X339797Y221659D01*
X341006Y222160D01*
X342044Y222956D01*
X342840Y223994D01*
X343229Y224935D01*
X343771D01*
X344160Y223994D01*
X344956Y222956D01*
X345994Y222160D01*
X347203Y221659D01*
X348500Y221489D01*
X349797Y221659D01*
X351006Y222160D01*
X352044Y222956D01*
X352840Y223994D01*
X353229Y224935D01*
X353771D01*
X354160Y223994D01*
X354956Y222956D01*
X355994Y222160D01*
X357203Y221659D01*
X358500Y221489D01*
X359797Y221659D01*
X361006Y222160D01*
X362044Y222956D01*
X362840Y223994D01*
X363229Y224935D01*
X363771D01*
X364160Y223994D01*
X364956Y222956D01*
X365994Y222160D01*
X367203Y221659D01*
X368500Y221489D01*
X369797Y221659D01*
X371006Y222160D01*
X372044Y222956D01*
X372840Y223994D01*
X373341Y225203D01*
X373511Y226500D01*
X373495Y226623D01*
X373944Y226845D01*
X375522Y225266D01*
Y221734D01*
X346266Y192478D01*
X238007D01*
Y192500D01*
X237854Y193268D01*
X237419Y193919D01*
X236768Y194354D01*
X236000Y194507D01*
X230000D01*
X229232Y194354D01*
X228581Y193919D01*
X228146Y193268D01*
X227993Y192500D01*
Y186500D01*
X228146Y185732D01*
X228581Y185081D01*
X229232Y184646D01*
X230000Y184493D01*
X230764D01*
X230864Y183993D01*
X230494Y183840D01*
X229456Y183044D01*
X228660Y182006D01*
X228159Y180797D01*
X227989Y179500D01*
X228159Y178203D01*
X228660Y176994D01*
X229456Y175956D01*
X230494Y175160D01*
X231434Y174771D01*
Y174229D01*
X230494Y173840D01*
X229456Y173044D01*
X228660Y172006D01*
X228159Y170797D01*
X227989Y169500D01*
X228159Y168203D01*
X228660Y166994D01*
X229456Y165956D01*
X230494Y165160D01*
X231434Y164771D01*
Y164229D01*
X230494Y163840D01*
X229456Y163044D01*
X228660Y162006D01*
X228159Y160797D01*
X227989Y159500D01*
X228159Y158203D01*
X228660Y156994D01*
X229456Y155956D01*
X230494Y155160D01*
X231703Y154659D01*
X233000Y154489D01*
X234297Y154659D01*
X235506Y155160D01*
X236544Y155956D01*
X237340Y156994D01*
X237841Y158203D01*
X238011Y159500D01*
X237841Y160797D01*
X237340Y162006D01*
X236544Y163044D01*
X235506Y163840D01*
X234565Y164229D01*
Y164771D01*
X235506Y165160D01*
X236544Y165956D01*
X237340Y166994D01*
X237841Y168203D01*
X238011Y169500D01*
X237841Y170797D01*
X237340Y172006D01*
X236544Y173044D01*
X235506Y173840D01*
X234565Y174229D01*
Y174771D01*
X235506Y175160D01*
X236544Y175956D01*
X237340Y176994D01*
X237841Y178203D01*
X238011Y179500D01*
X237841Y180797D01*
X237340Y182006D01*
X236544Y183044D01*
X235506Y183840D01*
X235136Y183993D01*
X235236Y184493D01*
X236000D01*
X236768Y184646D01*
X237419Y185081D01*
X237854Y185732D01*
X238007Y186500D01*
Y186522D01*
X347500D01*
X348271Y186623D01*
X348989Y186921D01*
X349606Y187394D01*
X380606Y218394D01*
X381079Y219011D01*
X381377Y219729D01*
X381478Y220500D01*
Y226500D01*
X381478Y226500D01*
X381377Y227271D01*
X381079Y227989D01*
X380606Y228606D01*
X380606Y228606D01*
X373418Y235793D01*
X373511Y236500D01*
X373341Y237797D01*
X372840Y239006D01*
X372044Y240044D01*
X371006Y240840D01*
X370065Y241229D01*
Y241771D01*
X371006Y242160D01*
X372044Y242956D01*
X372840Y243994D01*
X373341Y245203D01*
X373511Y246500D01*
X373341Y247797D01*
X372840Y249006D01*
X372044Y250044D01*
X371006Y250840D01*
X370065Y251229D01*
Y251771D01*
X371006Y252160D01*
X372044Y252956D01*
X372840Y253994D01*
X373341Y255203D01*
X373511Y256500D01*
X373341Y257797D01*
X372840Y259006D01*
X372044Y260044D01*
X371006Y260840D01*
X370065Y261229D01*
Y261771D01*
X371006Y262160D01*
X372044Y262956D01*
X372840Y263994D01*
X373341Y265203D01*
X373511Y266500D01*
X373341Y267797D01*
X372840Y269006D01*
X372044Y270044D01*
X371006Y270840D01*
X370065Y271229D01*
Y271771D01*
X371006Y272160D01*
X372044Y272956D01*
X372840Y273994D01*
X373341Y275203D01*
X373511Y276500D01*
X373341Y277797D01*
X372840Y279006D01*
X372044Y280044D01*
X371006Y280840D01*
X370065Y281229D01*
Y281771D01*
X371006Y282160D01*
X372044Y282956D01*
X372840Y283994D01*
X373341Y285203D01*
X373511Y286500D01*
X373341Y287797D01*
X372840Y289006D01*
X372044Y290044D01*
X371006Y290840D01*
X370065Y291229D01*
Y291771D01*
X371006Y292160D01*
X372044Y292956D01*
X372840Y293994D01*
X373341Y295203D01*
X373511Y296500D01*
X373341Y297797D01*
X372840Y299006D01*
X372044Y300044D01*
X371006Y300840D01*
X370065Y301229D01*
Y301771D01*
X371006Y302160D01*
X372044Y302956D01*
X372840Y303994D01*
X373341Y305203D01*
X373511Y306500D01*
X373341Y307797D01*
X372840Y309006D01*
X372044Y310044D01*
X371006Y310840D01*
X370065Y311229D01*
Y311771D01*
X371006Y312160D01*
X372044Y312956D01*
X372840Y313994D01*
X373341Y315203D01*
X373511Y316500D01*
X373341Y317797D01*
X372840Y319006D01*
X372044Y320044D01*
X371006Y320840D01*
X370065Y321229D01*
Y321771D01*
X371006Y322160D01*
X372044Y322956D01*
X372840Y323994D01*
X373341Y325203D01*
X373511Y326500D01*
X373341Y327797D01*
X372840Y329006D01*
X372044Y330044D01*
X371006Y330840D01*
X370065Y331229D01*
Y331771D01*
X371006Y332160D01*
X372044Y332956D01*
X372840Y333994D01*
X373341Y335203D01*
X373511Y336500D01*
X373341Y337797D01*
X372840Y339006D01*
X372044Y340044D01*
X371006Y340840D01*
X370065Y341229D01*
Y341771D01*
X371006Y342160D01*
X372044Y342956D01*
X372840Y343994D01*
X373341Y345203D01*
X373511Y346500D01*
X373341Y347797D01*
X372840Y349006D01*
X372044Y350044D01*
X371006Y350840D01*
X370065Y351229D01*
Y351771D01*
X371006Y352160D01*
X372044Y352956D01*
X372840Y353994D01*
X373341Y355203D01*
X373382Y355516D01*
D02*
G37*
G36*
X156500Y251014D02*
X154644Y250832D01*
X152859Y250290D01*
X151214Y249411D01*
X149772Y248228D01*
X148589Y246786D01*
X147710Y245141D01*
X147169Y243356D01*
X146986Y241500D01*
X147169Y239644D01*
X147710Y237859D01*
X148589Y236214D01*
X149772Y234772D01*
X151214Y233589D01*
X152859Y232710D01*
X154644Y232169D01*
X156500Y231986D01*
X158356Y232169D01*
X160141Y232710D01*
X161786Y233589D01*
X163228Y234772D01*
X164411Y236214D01*
X165290Y237859D01*
X165831Y239644D01*
X166014Y241500D01*
X165831Y243356D01*
X165290Y245141D01*
X164411Y246786D01*
X163228Y248228D01*
X161786Y249411D01*
X160141Y250290D01*
X158356Y250832D01*
X156500Y251014D01*
D02*
G37*
G36*
X258500Y381511D02*
X257203Y381341D01*
X255994Y380840D01*
X254956Y380044D01*
X254160Y379006D01*
X253659Y377797D01*
X253489Y376500D01*
X253659Y375203D01*
X254160Y373994D01*
X254956Y372956D01*
X255994Y372160D01*
X256934Y371771D01*
Y371229D01*
X255994Y370840D01*
X254956Y370044D01*
X254160Y369006D01*
X253659Y367797D01*
X253489Y366500D01*
X253659Y365203D01*
X254160Y363994D01*
X254956Y362956D01*
X255994Y362160D01*
X256934Y361771D01*
Y361229D01*
X255994Y360840D01*
X254956Y360044D01*
X254160Y359006D01*
X253659Y357797D01*
X253489Y356500D01*
X253659Y355203D01*
X254160Y353994D01*
X254956Y352956D01*
X255994Y352160D01*
X256934Y351771D01*
Y351229D01*
X255994Y350840D01*
X254956Y350044D01*
X254160Y349006D01*
X253659Y347797D01*
X253489Y346500D01*
X253659Y345203D01*
X254160Y343994D01*
X254956Y342956D01*
X255994Y342160D01*
X256934Y341771D01*
Y341229D01*
X255994Y340840D01*
X254956Y340044D01*
X254160Y339006D01*
X253659Y337797D01*
X253489Y336500D01*
X253659Y335203D01*
X254160Y333994D01*
X254956Y332956D01*
X255994Y332160D01*
X256934Y331771D01*
Y331229D01*
X255994Y330840D01*
X254956Y330044D01*
X254160Y329006D01*
X253659Y327797D01*
X253489Y326500D01*
X253659Y325203D01*
X254160Y323994D01*
X254956Y322956D01*
X255994Y322160D01*
X256934Y321771D01*
Y321229D01*
X255994Y320840D01*
X254956Y320044D01*
X254160Y319006D01*
X253659Y317797D01*
X253489Y316500D01*
X253659Y315203D01*
X254160Y313994D01*
X254956Y312956D01*
X255994Y312160D01*
X256934Y311771D01*
Y311229D01*
X255994Y310840D01*
X254956Y310044D01*
X254160Y309006D01*
X253659Y307797D01*
X253489Y306500D01*
X253659Y305203D01*
X254160Y303994D01*
X254956Y302956D01*
X255994Y302160D01*
X256934Y301771D01*
Y301229D01*
X255994Y300840D01*
X254956Y300044D01*
X254160Y299006D01*
X253659Y297797D01*
X253489Y296500D01*
X253659Y295203D01*
X254160Y293994D01*
X254956Y292956D01*
X255994Y292160D01*
X256934Y291771D01*
Y291229D01*
X255994Y290840D01*
X254956Y290044D01*
X254160Y289006D01*
X253659Y287797D01*
X253489Y286500D01*
X253582Y285793D01*
X247266Y279478D01*
X220827D01*
X220241Y280241D01*
X219146Y281082D01*
X218741Y281250D01*
Y281750D01*
X219146Y281918D01*
X220241Y282758D01*
X221082Y283854D01*
X221611Y285131D01*
X221791Y286500D01*
X221611Y287870D01*
X221082Y289146D01*
X220241Y290242D01*
X219146Y291082D01*
X218741Y291250D01*
Y291750D01*
X219146Y291918D01*
X220241Y292758D01*
X221082Y293854D01*
X221611Y295130D01*
X221791Y296500D01*
X221611Y297869D01*
X221082Y299146D01*
X220241Y300241D01*
X219146Y301082D01*
X218741Y301250D01*
Y301750D01*
X219146Y301918D01*
X220241Y302759D01*
X221082Y303854D01*
X221611Y305131D01*
X221791Y306500D01*
X221611Y307870D01*
X221082Y309146D01*
X220241Y310242D01*
X219146Y311082D01*
X217869Y311611D01*
X216500Y311791D01*
X215130Y311611D01*
X213854Y311082D01*
X212758Y310242D01*
X211918Y309146D01*
X211389Y307870D01*
X211209Y306500D01*
X211389Y305131D01*
X211918Y303854D01*
X212758Y302759D01*
X213854Y301918D01*
X214259Y301750D01*
Y301250D01*
X213854Y301082D01*
X212758Y300241D01*
X211918Y299146D01*
X211389Y297869D01*
X211209Y296500D01*
X211389Y295130D01*
X211918Y293854D01*
X212758Y292758D01*
X213854Y291918D01*
X214259Y291750D01*
Y291250D01*
X213854Y291082D01*
X212758Y290242D01*
X211918Y289146D01*
X211389Y287870D01*
X211209Y286500D01*
X211389Y285131D01*
X211918Y283854D01*
X212758Y282758D01*
X213854Y281918D01*
X214259Y281750D01*
Y281250D01*
X213854Y281082D01*
X212758Y280241D01*
X211918Y279146D01*
X211389Y277870D01*
X211209Y276500D01*
X211389Y275131D01*
X211918Y273854D01*
X212758Y272759D01*
X213854Y271918D01*
X214259Y271750D01*
Y271250D01*
X213854Y271082D01*
X212758Y270241D01*
X211918Y269146D01*
X211389Y267869D01*
X211209Y266500D01*
X211389Y265130D01*
X211918Y263854D01*
X212758Y262758D01*
X213854Y261918D01*
X214259Y261750D01*
Y261250D01*
X213854Y261082D01*
X212758Y260242D01*
X211918Y259146D01*
X211389Y257870D01*
X211338Y257484D01*
X216500D01*
X221662D01*
X221611Y257870D01*
X221082Y259146D01*
X220241Y260242D01*
X219146Y261082D01*
X218741Y261250D01*
Y261750D01*
X219146Y261918D01*
X220241Y262758D01*
X221082Y263854D01*
X221611Y265130D01*
X221791Y266500D01*
X221611Y267869D01*
X221082Y269146D01*
X220241Y270241D01*
X219146Y271082D01*
X218741Y271250D01*
Y271750D01*
X219146Y271918D01*
X220241Y272759D01*
X220827Y273522D01*
X248500D01*
X249271Y273623D01*
X249989Y273921D01*
X250606Y274394D01*
X253056Y276845D01*
X253505Y276623D01*
X253489Y276500D01*
X253659Y275203D01*
X254160Y273994D01*
X254956Y272956D01*
X255994Y272160D01*
X256934Y271771D01*
Y271229D01*
X255994Y270840D01*
X254956Y270044D01*
X254160Y269006D01*
X253659Y267797D01*
X253489Y266500D01*
X253659Y265203D01*
X254160Y263994D01*
X254956Y262956D01*
X255994Y262160D01*
X256934Y261771D01*
Y261229D01*
X255994Y260840D01*
X254956Y260044D01*
X254160Y259006D01*
X253659Y257797D01*
X253489Y256500D01*
X253659Y255203D01*
X254160Y253994D01*
X254956Y252956D01*
X255994Y252160D01*
X256934Y251771D01*
Y251229D01*
X255994Y250840D01*
X254956Y250044D01*
X254160Y249006D01*
X253659Y247797D01*
X253618Y247484D01*
X263382D01*
X263341Y247797D01*
X262840Y249006D01*
X262044Y250044D01*
X261006Y250840D01*
X260066Y251229D01*
Y251771D01*
X261006Y252160D01*
X262044Y252956D01*
X262840Y253994D01*
X263341Y255203D01*
X263511Y256500D01*
X263341Y257797D01*
X262840Y259006D01*
X262044Y260044D01*
X261006Y260840D01*
X260066Y261229D01*
Y261771D01*
X261006Y262160D01*
X262044Y262956D01*
X262840Y263994D01*
X263341Y265203D01*
X263511Y266500D01*
X263341Y267797D01*
X262840Y269006D01*
X262044Y270044D01*
X261006Y270840D01*
X260066Y271229D01*
Y271771D01*
X261006Y272160D01*
X262044Y272956D01*
X262840Y273994D01*
X263341Y275203D01*
X263511Y276500D01*
X263341Y277797D01*
X262840Y279006D01*
X262044Y280044D01*
X261006Y280840D01*
X260066Y281229D01*
Y281771D01*
X261006Y282160D01*
X262044Y282956D01*
X262840Y283994D01*
X263341Y285203D01*
X263511Y286500D01*
X263341Y287797D01*
X262840Y289006D01*
X262044Y290044D01*
X261006Y290840D01*
X260066Y291229D01*
Y291771D01*
X261006Y292160D01*
X262044Y292956D01*
X262840Y293994D01*
X263341Y295203D01*
X263511Y296500D01*
X263341Y297797D01*
X262840Y299006D01*
X262044Y300044D01*
X261006Y300840D01*
X260066Y301229D01*
Y301771D01*
X261006Y302160D01*
X262044Y302956D01*
X262840Y303994D01*
X263341Y305203D01*
X263511Y306500D01*
X263341Y307797D01*
X262840Y309006D01*
X262044Y310044D01*
X261006Y310840D01*
X260066Y311229D01*
Y311771D01*
X261006Y312160D01*
X262044Y312956D01*
X262840Y313994D01*
X263341Y315203D01*
X263511Y316500D01*
X263341Y317797D01*
X262840Y319006D01*
X262044Y320044D01*
X261006Y320840D01*
X260066Y321229D01*
Y321771D01*
X261006Y322160D01*
X262044Y322956D01*
X262840Y323994D01*
X263341Y325203D01*
X263511Y326500D01*
X263341Y327797D01*
X262840Y329006D01*
X262044Y330044D01*
X261006Y330840D01*
X260066Y331229D01*
Y331771D01*
X261006Y332160D01*
X262044Y332956D01*
X262840Y333994D01*
X263341Y335203D01*
X263511Y336500D01*
X263341Y337797D01*
X262840Y339006D01*
X262044Y340044D01*
X261006Y340840D01*
X260066Y341229D01*
Y341771D01*
X261006Y342160D01*
X262044Y342956D01*
X262840Y343994D01*
X263341Y345203D01*
X263511Y346500D01*
X263341Y347797D01*
X262840Y349006D01*
X262044Y350044D01*
X261006Y350840D01*
X260066Y351229D01*
Y351771D01*
X261006Y352160D01*
X262044Y352956D01*
X262840Y353994D01*
X263341Y355203D01*
X263511Y356500D01*
X263341Y357797D01*
X262840Y359006D01*
X262044Y360044D01*
X261006Y360840D01*
X260066Y361229D01*
Y361771D01*
X261006Y362160D01*
X262044Y362956D01*
X262840Y363994D01*
X263341Y365203D01*
X263511Y366500D01*
X263341Y367797D01*
X262840Y369006D01*
X262044Y370044D01*
X261006Y370840D01*
X260066Y371229D01*
Y371771D01*
X261006Y372160D01*
X262044Y372956D01*
X262840Y373994D01*
X263341Y375203D01*
X263511Y376500D01*
X263341Y377797D01*
X262840Y379006D01*
X262044Y380044D01*
X261006Y380840D01*
X259797Y381341D01*
X258500Y381511D01*
D02*
G37*
G36*
X402500Y320964D02*
X401215Y320795D01*
X400018Y320299D01*
X398990Y319510D01*
X398201Y318482D01*
X397705Y317285D01*
X397536Y316000D01*
X397624Y315336D01*
X390894Y308606D01*
X390421Y307989D01*
X390123Y307271D01*
X390022Y306500D01*
Y193477D01*
X389456Y193044D01*
X388660Y192006D01*
X388159Y190797D01*
X387989Y189500D01*
X388159Y188203D01*
X388660Y186994D01*
X389456Y185956D01*
X390494Y185160D01*
X391435Y184771D01*
Y184229D01*
X390494Y183840D01*
X389456Y183044D01*
X388660Y182006D01*
X388159Y180797D01*
X387989Y179500D01*
X388159Y178203D01*
X388660Y176994D01*
X389456Y175956D01*
X390494Y175160D01*
X391435Y174771D01*
Y174229D01*
X390494Y173840D01*
X389456Y173044D01*
X388660Y172006D01*
X388159Y170797D01*
X387989Y169500D01*
X388159Y168203D01*
X388660Y166994D01*
X389456Y165956D01*
X390494Y165160D01*
X391435Y164771D01*
Y164229D01*
X390494Y163840D01*
X389456Y163044D01*
X388660Y162006D01*
X388159Y160797D01*
X388118Y160484D01*
X397882D01*
X397841Y160797D01*
X397340Y162006D01*
X396544Y163044D01*
X395506Y163840D01*
X394566Y164229D01*
Y164771D01*
X395506Y165160D01*
X396544Y165956D01*
X397340Y166994D01*
X397841Y168203D01*
X398011Y169500D01*
X397841Y170797D01*
X397340Y172006D01*
X396544Y173044D01*
X395506Y173840D01*
X394566Y174229D01*
Y174771D01*
X395506Y175160D01*
X396544Y175956D01*
X397340Y176994D01*
X397841Y178203D01*
X398011Y179500D01*
X397841Y180797D01*
X397340Y182006D01*
X396544Y183044D01*
X395506Y183840D01*
X394566Y184229D01*
Y184771D01*
X395506Y185160D01*
X396544Y185956D01*
X397340Y186994D01*
X397841Y188203D01*
X398011Y189500D01*
X397841Y190797D01*
X397340Y192006D01*
X396544Y193044D01*
X395978Y193477D01*
Y305266D01*
X397111Y306399D01*
X397560Y306178D01*
X397536Y306000D01*
X397705Y304715D01*
X398201Y303518D01*
X398990Y302490D01*
X400018Y301701D01*
X401092Y301257D01*
X401092Y301256D01*
Y300744D01*
X401092Y300743D01*
X400018Y300299D01*
X398990Y299510D01*
X398201Y298482D01*
X397705Y297285D01*
X397536Y296000D01*
X397705Y294715D01*
X398201Y293518D01*
X398990Y292490D01*
X400018Y291701D01*
X401092Y291257D01*
X401092Y291256D01*
Y290744D01*
X401092Y290743D01*
X400018Y290299D01*
X398990Y289510D01*
X398201Y288482D01*
X397705Y287285D01*
X397536Y286000D01*
X397705Y284715D01*
X398201Y283518D01*
X398990Y282490D01*
X400018Y281701D01*
X401092Y281257D01*
X401092Y281256D01*
Y280744D01*
X401092Y280743D01*
X400018Y280299D01*
X398990Y279510D01*
X398201Y278482D01*
X397705Y277285D01*
X397536Y276000D01*
X397705Y274715D01*
X398201Y273518D01*
X398990Y272490D01*
X400018Y271701D01*
X400601Y271460D01*
X400502Y270960D01*
X399547D01*
X398779Y270807D01*
X398128Y270372D01*
X397693Y269721D01*
X397540Y268953D01*
Y263047D01*
X397693Y262279D01*
X398128Y261628D01*
X398779Y261193D01*
X399547Y261040D01*
X405453D01*
X406221Y261193D01*
X406872Y261628D01*
X407307Y262279D01*
X407460Y263047D01*
Y268953D01*
X407307Y269721D01*
X406872Y270372D01*
X406221Y270807D01*
X405453Y270960D01*
X404498D01*
X404399Y271460D01*
X404982Y271701D01*
X406010Y272490D01*
X406799Y273518D01*
X407295Y274715D01*
X407464Y276000D01*
X407295Y277285D01*
X406799Y278482D01*
X406010Y279510D01*
X404982Y280299D01*
X403908Y280743D01*
X403908Y280744D01*
Y281256D01*
X403908Y281257D01*
X404982Y281701D01*
X406010Y282490D01*
X406799Y283518D01*
X407295Y284715D01*
X407464Y286000D01*
X407295Y287285D01*
X406799Y288482D01*
X406010Y289510D01*
X404982Y290299D01*
X403908Y290743D01*
X403908Y290744D01*
Y291256D01*
X403908Y291257D01*
X404982Y291701D01*
X406010Y292490D01*
X406799Y293518D01*
X407295Y294715D01*
X407464Y296000D01*
X407295Y297285D01*
X406799Y298482D01*
X406010Y299510D01*
X404982Y300299D01*
X403908Y300743D01*
X403908Y300744D01*
Y301256D01*
X403908Y301257D01*
X404982Y301701D01*
X406010Y302490D01*
X406799Y303518D01*
X407295Y304715D01*
X407334Y305016D01*
X402500D01*
Y306984D01*
X407334D01*
X407295Y307285D01*
X406799Y308482D01*
X406010Y309510D01*
X404982Y310299D01*
X403908Y310743D01*
X403908Y310744D01*
Y311256D01*
X403908Y311257D01*
X404982Y311701D01*
X406010Y312490D01*
X406799Y313518D01*
X407295Y314715D01*
X407464Y316000D01*
X407295Y317285D01*
X406799Y318482D01*
X406010Y319510D01*
X404982Y320299D01*
X403785Y320795D01*
X402500Y320964D01*
D02*
G37*
%LPD*%
D13*
X368500Y236500D02*
X378500Y226500D01*
Y220500D02*
Y226500D01*
X347500Y189500D02*
X378500Y220500D01*
X233000Y189500D02*
X347500D01*
X393000D02*
Y306500D01*
X402500Y316000D01*
X248500Y276500D02*
X258500Y286500D01*
X216500Y276500D02*
X248500D01*
D14*
X143000Y392500D02*
G03*
X138000Y387500I0J-5000D01*
G01*
Y125000D02*
G03*
X143000Y120000I5000J0D01*
G01*
X420500D02*
G03*
X425500Y125000I0J5000D01*
G01*
Y387500D02*
G03*
X420500Y392500I-5000J0D01*
G01*
X143000D02*
X305000D01*
X138000Y125000D02*
Y387500D01*
X143000Y120000D02*
X420500D01*
X425500Y125000D02*
Y387500D01*
X305000Y392500D02*
X420500D01*
D15*
X146500Y231500D02*
X226500D01*
Y311500D01*
X146500D02*
X226500D01*
X146500Y231500D02*
Y311500D01*
D16*
X142563Y227563D02*
X230437D01*
Y315437D01*
X142563D02*
X230437D01*
X142563Y227563D02*
Y315437D01*
D17*
X301500Y127500D02*
D03*
D18*
X311500D02*
D03*
X402500Y356453D02*
D03*
Y346453D02*
D03*
Y276000D02*
D03*
Y286000D02*
D03*
Y296000D02*
D03*
Y306000D02*
D03*
Y316000D02*
D03*
X147760Y179000D02*
D03*
D19*
X415354Y129921D02*
D03*
X149606D02*
D03*
X415354Y381890D02*
D03*
X149606D02*
D03*
X258500Y226500D02*
D03*
Y236500D02*
D03*
Y246500D02*
D03*
Y256500D02*
D03*
Y266500D02*
D03*
Y276500D02*
D03*
Y286500D02*
D03*
Y296500D02*
D03*
Y306500D02*
D03*
Y316500D02*
D03*
Y326500D02*
D03*
Y336500D02*
D03*
Y346500D02*
D03*
Y356500D02*
D03*
Y366500D02*
D03*
Y376500D02*
D03*
X268500Y226500D02*
D03*
X278500D02*
D03*
X288500D02*
D03*
X298500D02*
D03*
X308500D02*
D03*
X318500D02*
D03*
X328500D02*
D03*
X338500D02*
D03*
X348500D02*
D03*
X358500D02*
D03*
X368500D02*
D03*
Y236500D02*
D03*
Y246500D02*
D03*
Y256500D02*
D03*
Y266500D02*
D03*
Y276500D02*
D03*
Y286500D02*
D03*
Y296500D02*
D03*
Y306500D02*
D03*
Y316500D02*
D03*
Y326500D02*
D03*
Y336500D02*
D03*
Y346500D02*
D03*
Y356500D02*
D03*
Y366500D02*
D03*
Y376500D02*
D03*
X233000Y179500D02*
D03*
Y169500D02*
D03*
Y159500D02*
D03*
X393000D02*
D03*
Y169500D02*
D03*
Y179500D02*
D03*
Y189500D02*
D03*
D20*
X402500Y366453D02*
D03*
Y266000D02*
D03*
X147760Y189000D02*
D03*
D21*
X156500Y301500D02*
D03*
Y241500D02*
D03*
D22*
X216500Y306500D02*
D03*
Y296500D02*
D03*
Y286500D02*
D03*
Y276500D02*
D03*
Y266500D02*
D03*
Y256500D02*
D03*
Y246500D02*
D03*
Y236500D02*
D03*
D23*
X233000Y189500D02*
D03*
D24*
X213000Y194000D02*
D03*
X178000Y219000D02*
D03*
M02*
