M48
;Layer_Color=9474304
;FILE_FORMAT=2:5
INCH,TZ
;TYPE=PLATED
T1F00S00C0.02800
T2F00S00C0.03000
T3F00S00C0.03543
T4F00S00C0.13780
%
T01
X172000Y258500
X150000Y246500
T02
X366000Y160500
Y170500
Y180500
Y190500
X343500Y232000
Y242000
Y252000
Y262000
Y272000
Y282000
Y292000
Y302000
Y312000
X333500Y232000
X323500
X313500
X303500
X293500
X283500
X273500
X263500
X253500
X243500
X233500
Y242000
Y252000
Y262000
Y272000
Y282000
Y292000
Y302000
Y312000
X206000Y190500
Y180500
Y170500
Y160500
X233500Y322000
Y332000
Y342000
Y352000
Y362000
Y372000
Y382000
X343500
Y372000
Y362000
Y352000
Y342000
Y332000
Y322000
T03
X277000Y129500
X287000
X196500Y272047
Y282047
Y292047
Y302047
Y312047
X120000Y245650
Y235650
X196500Y322047
T04
X118110Y129921
X381890
X118110Y385827
X381890
M30
