G04 Layer_Physical_Order=2*
G04 Layer_Color=16711680*
%FSLAX25Y25*%
%MOIN*%
G70*
G01*
G75*
%ADD13C,0.02756*%
%ADD14C,0.01000*%
%ADD15C,0.06000*%
%ADD16R,0.06000X0.06000*%
%ADD17C,0.05905*%
%ADD18R,0.05905X0.05905*%
%ADD19R,0.05905X0.05905*%
%ADD20C,0.05000*%
G36*
X378417Y396616D02*
X380237Y395862D01*
X381222Y395203D01*
X381093Y394688D01*
X380342Y394614D01*
X380153Y394557D01*
X379957Y394537D01*
X378658Y394144D01*
X378483Y394050D01*
X378294Y393993D01*
X377097Y393353D01*
X376945Y393228D01*
X376770Y393135D01*
X375721Y392274D01*
X375596Y392121D01*
X375443Y391995D01*
X374582Y390946D01*
X374489Y390772D01*
X374363Y390619D01*
X373724Y389422D01*
X373666Y389233D01*
X373573Y389059D01*
X373179Y387760D01*
X373160Y387563D01*
X373102Y387374D01*
X372969Y386023D01*
X372989Y385827D01*
X372969Y385630D01*
X373102Y384279D01*
X373160Y384090D01*
X373179Y383893D01*
X373573Y382595D01*
X373666Y382420D01*
X373724Y382231D01*
X374363Y381034D01*
X374489Y380882D01*
X374582Y380707D01*
X375443Y379658D01*
X375596Y379533D01*
X375721Y379380D01*
X376770Y378519D01*
X376945Y378426D01*
X377097Y378300D01*
X378294Y377661D01*
X378484Y377603D01*
X378658Y377510D01*
X379957Y377116D01*
X380153Y377097D01*
X380342Y377039D01*
X381693Y376906D01*
X381792Y376916D01*
X381890Y376897D01*
X381987Y376916D01*
X382086Y376906D01*
X383437Y377039D01*
X383626Y377097D01*
X383823Y377116D01*
X385000Y377473D01*
X385333Y377307D01*
X385498Y377147D01*
X385500Y377143D01*
Y138605D01*
X385498Y138601D01*
X385333Y138441D01*
X385000Y138275D01*
X383823Y138632D01*
X383626Y138651D01*
X383437Y138709D01*
X382086Y138842D01*
X381987Y138832D01*
X381890Y138851D01*
X381792Y138832D01*
X381693Y138842D01*
X380342Y138709D01*
X380153Y138651D01*
X379957Y138632D01*
X378658Y138238D01*
X378483Y138145D01*
X378294Y138087D01*
X377097Y137448D01*
X376945Y137322D01*
X376770Y137229D01*
X375721Y136368D01*
X375596Y136215D01*
X375443Y136090D01*
X374582Y135041D01*
X374489Y134866D01*
X374363Y134714D01*
X373724Y133517D01*
X373666Y133328D01*
X373573Y133153D01*
X373179Y131854D01*
X373160Y131658D01*
X373102Y131469D01*
X372969Y130118D01*
X372989Y129921D01*
X372969Y129725D01*
X373102Y128374D01*
X373160Y128185D01*
X373179Y127988D01*
X373573Y126689D01*
X373666Y126515D01*
X373724Y126326D01*
X374363Y125129D01*
X374489Y124976D01*
X374582Y124802D01*
X375443Y123753D01*
X375596Y123627D01*
X375721Y123474D01*
X376770Y122613D01*
X376945Y122520D01*
X377097Y122395D01*
X378138Y121839D01*
X378062Y121314D01*
X376485Y121000D01*
X121072D01*
X120998Y121500D01*
X121342Y121605D01*
X121517Y121698D01*
X121706Y121755D01*
X122903Y122395D01*
X123055Y122520D01*
X123230Y122613D01*
X124279Y123474D01*
X124404Y123627D01*
X124557Y123753D01*
X125418Y124802D01*
X125511Y124976D01*
X125637Y125129D01*
X126276Y126326D01*
X126334Y126515D01*
X126427Y126689D01*
X126821Y127988D01*
X126840Y128185D01*
X126898Y128374D01*
X127031Y129725D01*
X127011Y129921D01*
X127031Y130118D01*
X126898Y131469D01*
X126840Y131658D01*
X126821Y131854D01*
X126427Y133153D01*
X126334Y133328D01*
X126276Y133517D01*
X125637Y134714D01*
X125511Y134866D01*
X125418Y135041D01*
X124557Y136090D01*
X124404Y136215D01*
X124279Y136368D01*
X123230Y137229D01*
X123055Y137322D01*
X122903Y137448D01*
X121706Y138087D01*
X121517Y138145D01*
X121342Y138238D01*
X120044Y138632D01*
X119847Y138651D01*
X119658Y138709D01*
X118307Y138842D01*
X118208Y138832D01*
X118110Y138851D01*
X118013Y138832D01*
X117913Y138842D01*
X116563Y138709D01*
X116374Y138651D01*
X116177Y138632D01*
X114878Y138238D01*
X114704Y138145D01*
X114515Y138087D01*
X113318Y137448D01*
X113165Y137322D01*
X112991Y137229D01*
X111942Y136368D01*
X111816Y136215D01*
X111663Y136090D01*
X111000Y135282D01*
X110500Y135460D01*
Y380288D01*
X111000Y380466D01*
X111663Y379658D01*
X111816Y379533D01*
X111942Y379380D01*
X112991Y378519D01*
X113165Y378426D01*
X113318Y378300D01*
X114515Y377661D01*
X114704Y377603D01*
X114878Y377510D01*
X116177Y377116D01*
X116374Y377097D01*
X116563Y377039D01*
X117913Y376906D01*
X118013Y376916D01*
X118110Y376897D01*
X118208Y376916D01*
X118307Y376906D01*
X119658Y377039D01*
X119847Y377097D01*
X120044Y377116D01*
X121342Y377510D01*
X121517Y377603D01*
X121706Y377661D01*
X122903Y378300D01*
X123055Y378426D01*
X123230Y378519D01*
X124279Y379380D01*
X124404Y379533D01*
X124557Y379658D01*
X125418Y380707D01*
X125511Y380882D01*
X125637Y381034D01*
X126276Y382231D01*
X126334Y382420D01*
X126427Y382595D01*
X126821Y383893D01*
X126840Y384090D01*
X126898Y384279D01*
X127031Y385630D01*
X127011Y385827D01*
X127031Y386023D01*
X126898Y387374D01*
X126840Y387563D01*
X126821Y387760D01*
X126427Y389059D01*
X126334Y389233D01*
X126276Y389422D01*
X125637Y390619D01*
X125511Y390772D01*
X125418Y390946D01*
X124557Y391995D01*
X124404Y392121D01*
X124279Y392274D01*
X123230Y393135D01*
X123055Y393228D01*
X122903Y393353D01*
X121706Y393993D01*
X121517Y394050D01*
X121342Y394144D01*
X120044Y394537D01*
X119847Y394557D01*
X119658Y394614D01*
X118307Y394747D01*
X118208Y394738D01*
X118110Y394757D01*
X118013Y394738D01*
X117913Y394747D01*
X116563Y394614D01*
X116374Y394557D01*
X116177Y394537D01*
X114878Y394144D01*
X114704Y394050D01*
X114515Y393993D01*
X113318Y393353D01*
X113165Y393228D01*
X112991Y393135D01*
X111942Y392274D01*
X111816Y392121D01*
X111663Y391995D01*
X111543Y391849D01*
X110963Y391931D01*
X110925Y392019D01*
X111354Y393053D01*
X112174Y394281D01*
X113219Y395326D01*
X114447Y396146D01*
X115812Y396712D01*
X117261Y397000D01*
X376485D01*
X378417Y396616D01*
D02*
G37*
%LPC*%
G36*
X149016Y245516D02*
X145623D01*
X145647Y245334D01*
X146097Y244247D01*
X146813Y243313D01*
X147747Y242597D01*
X148834Y242146D01*
X149016Y242123D01*
Y245516D01*
D02*
G37*
G36*
X343500Y387011D02*
X342203Y386841D01*
X340994Y386340D01*
X339956Y385544D01*
X339160Y384506D01*
X338659Y383297D01*
X338489Y382000D01*
X338659Y380703D01*
X339160Y379494D01*
X339956Y378456D01*
X340994Y377660D01*
X341934Y377271D01*
Y376729D01*
X340994Y376340D01*
X339956Y375544D01*
X339160Y374506D01*
X338659Y373297D01*
X338489Y372000D01*
X338659Y370703D01*
X339160Y369494D01*
X339956Y368456D01*
X340994Y367660D01*
X341934Y367271D01*
Y366729D01*
X340994Y366340D01*
X339956Y365544D01*
X339160Y364506D01*
X338659Y363297D01*
X338489Y362000D01*
X338659Y360703D01*
X339160Y359494D01*
X339956Y358456D01*
X340994Y357660D01*
X341934Y357271D01*
Y356729D01*
X340994Y356340D01*
X339956Y355544D01*
X339160Y354506D01*
X338659Y353297D01*
X338489Y352000D01*
X338659Y350703D01*
X339160Y349494D01*
X339956Y348456D01*
X340994Y347660D01*
X341934Y347271D01*
Y346729D01*
X340994Y346340D01*
X339956Y345544D01*
X339160Y344506D01*
X338659Y343297D01*
X338489Y342000D01*
X338659Y340703D01*
X339160Y339494D01*
X339956Y338456D01*
X340994Y337660D01*
X341934Y337271D01*
Y336729D01*
X340994Y336340D01*
X339956Y335544D01*
X339160Y334506D01*
X338659Y333297D01*
X338489Y332000D01*
X338659Y330703D01*
X339160Y329494D01*
X339956Y328456D01*
X340994Y327660D01*
X341934Y327271D01*
Y326729D01*
X340994Y326340D01*
X339956Y325544D01*
X339160Y324506D01*
X338659Y323297D01*
X338489Y322000D01*
X338659Y320703D01*
X339160Y319494D01*
X339956Y318456D01*
X340994Y317660D01*
X341934Y317271D01*
Y316729D01*
X340994Y316340D01*
X339956Y315544D01*
X339160Y314506D01*
X338659Y313297D01*
X338489Y312000D01*
X338659Y310703D01*
X339160Y309494D01*
X339956Y308456D01*
X340994Y307660D01*
X341934Y307271D01*
Y306729D01*
X340994Y306340D01*
X339956Y305544D01*
X339160Y304506D01*
X338659Y303297D01*
X338489Y302000D01*
X338659Y300703D01*
X339160Y299494D01*
X339956Y298456D01*
X340994Y297660D01*
X341934Y297271D01*
Y296729D01*
X340994Y296340D01*
X339956Y295544D01*
X339160Y294506D01*
X338659Y293297D01*
X338489Y292000D01*
X338659Y290703D01*
X339160Y289494D01*
X339956Y288456D01*
X340994Y287660D01*
X341934Y287271D01*
Y286729D01*
X340994Y286340D01*
X339956Y285544D01*
X339160Y284506D01*
X338659Y283297D01*
X338489Y282000D01*
X338659Y280703D01*
X339160Y279494D01*
X339956Y278456D01*
X340994Y277660D01*
X341934Y277271D01*
Y276729D01*
X340994Y276340D01*
X339956Y275544D01*
X339160Y274506D01*
X338659Y273297D01*
X338489Y272000D01*
X338659Y270703D01*
X339160Y269494D01*
X339956Y268456D01*
X340994Y267660D01*
X341934Y267271D01*
Y266729D01*
X340994Y266340D01*
X339956Y265544D01*
X339160Y264506D01*
X338659Y263297D01*
X338489Y262000D01*
X338659Y260703D01*
X339160Y259494D01*
X339956Y258456D01*
X340994Y257660D01*
X341934Y257271D01*
Y256729D01*
X340994Y256340D01*
X339956Y255544D01*
X339160Y254506D01*
X338659Y253297D01*
X338489Y252000D01*
X338659Y250703D01*
X339160Y249494D01*
X339956Y248456D01*
X340994Y247660D01*
X341934Y247271D01*
Y246729D01*
X340994Y246340D01*
X339956Y245544D01*
X339160Y244506D01*
X338659Y243297D01*
X338489Y242000D01*
X338659Y240703D01*
X339160Y239494D01*
X339956Y238456D01*
X340994Y237660D01*
X341934Y237271D01*
Y236729D01*
X340994Y236340D01*
X339956Y235544D01*
X339160Y234506D01*
X338771Y233565D01*
X338229D01*
X337840Y234506D01*
X337044Y235544D01*
X336006Y236340D01*
X334797Y236841D01*
X333500Y237011D01*
X332203Y236841D01*
X330994Y236340D01*
X329956Y235544D01*
X329160Y234506D01*
X328771Y233565D01*
X328229D01*
X327840Y234506D01*
X327044Y235544D01*
X326006Y236340D01*
X324797Y236841D01*
X323500Y237011D01*
X322203Y236841D01*
X320994Y236340D01*
X319956Y235544D01*
X319160Y234506D01*
X318771Y233565D01*
X318229D01*
X317840Y234506D01*
X317044Y235544D01*
X316006Y236340D01*
X314797Y236841D01*
X313500Y237011D01*
X312203Y236841D01*
X310994Y236340D01*
X309956Y235544D01*
X309160Y234506D01*
X308771Y233565D01*
X308229D01*
X307840Y234506D01*
X307044Y235544D01*
X306006Y236340D01*
X304797Y236841D01*
X303500Y237011D01*
X302203Y236841D01*
X300994Y236340D01*
X299956Y235544D01*
X299160Y234506D01*
X298771Y233565D01*
X298229D01*
X297840Y234506D01*
X297044Y235544D01*
X296006Y236340D01*
X294797Y236841D01*
X293500Y237011D01*
X292203Y236841D01*
X290994Y236340D01*
X289956Y235544D01*
X289160Y234506D01*
X288771Y233565D01*
X288229D01*
X287840Y234506D01*
X287044Y235544D01*
X286006Y236340D01*
X284797Y236841D01*
X283500Y237011D01*
X282203Y236841D01*
X280994Y236340D01*
X279956Y235544D01*
X279160Y234506D01*
X278771Y233565D01*
X278229D01*
X277840Y234506D01*
X277044Y235544D01*
X276006Y236340D01*
X274797Y236841D01*
X273500Y237011D01*
X272203Y236841D01*
X270994Y236340D01*
X269956Y235544D01*
X269160Y234506D01*
X268771Y233565D01*
X268229D01*
X267840Y234506D01*
X267044Y235544D01*
X266006Y236340D01*
X264797Y236841D01*
X263500Y237011D01*
X262203Y236841D01*
X260994Y236340D01*
X259956Y235544D01*
X259160Y234506D01*
X258771Y233565D01*
X258229D01*
X257840Y234506D01*
X257044Y235544D01*
X256006Y236340D01*
X254797Y236841D01*
X253500Y237011D01*
X252203Y236841D01*
X250994Y236340D01*
X249956Y235544D01*
X249160Y234506D01*
X248771Y233565D01*
X248229D01*
X247840Y234506D01*
X247044Y235544D01*
X246006Y236340D01*
X244797Y236841D01*
X243500Y237011D01*
X242203Y236841D01*
X240994Y236340D01*
X239956Y235544D01*
X239160Y234506D01*
X238771Y233565D01*
X238229D01*
X237840Y234506D01*
X237044Y235544D01*
X236006Y236340D01*
X235066Y236729D01*
Y237271D01*
X236006Y237660D01*
X237044Y238456D01*
X237840Y239494D01*
X238341Y240703D01*
X238511Y242000D01*
X238341Y243297D01*
X237840Y244506D01*
X237044Y245544D01*
X236006Y246340D01*
X235066Y246729D01*
Y247271D01*
X236006Y247660D01*
X237044Y248456D01*
X237840Y249494D01*
X238341Y250703D01*
X238382Y251016D01*
X228618D01*
X228659Y250703D01*
X229160Y249494D01*
X229956Y248456D01*
X230994Y247660D01*
X231934Y247271D01*
Y246729D01*
X230994Y246340D01*
X229956Y245544D01*
X229160Y244506D01*
X228659Y243297D01*
X228489Y242000D01*
X228659Y240703D01*
X229160Y239494D01*
X229956Y238456D01*
X230994Y237660D01*
X231934Y237271D01*
Y236729D01*
X230994Y236340D01*
X229956Y235544D01*
X229160Y234506D01*
X228659Y233297D01*
X228489Y232000D01*
X228659Y230703D01*
X229160Y229494D01*
X229956Y228456D01*
X230994Y227660D01*
X232203Y227159D01*
X233500Y226989D01*
X234797Y227159D01*
X236006Y227660D01*
X237044Y228456D01*
X237840Y229494D01*
X238229Y230434D01*
X238771D01*
X239160Y229494D01*
X239956Y228456D01*
X240994Y227660D01*
X242203Y227159D01*
X243500Y226989D01*
X244797Y227159D01*
X246006Y227660D01*
X247044Y228456D01*
X247840Y229494D01*
X248229Y230434D01*
X248771D01*
X249160Y229494D01*
X249956Y228456D01*
X250994Y227660D01*
X252203Y227159D01*
X253500Y226989D01*
X254797Y227159D01*
X256006Y227660D01*
X257044Y228456D01*
X257840Y229494D01*
X258229Y230434D01*
X258771D01*
X259160Y229494D01*
X259956Y228456D01*
X260994Y227660D01*
X262203Y227159D01*
X263500Y226989D01*
X264797Y227159D01*
X266006Y227660D01*
X267044Y228456D01*
X267840Y229494D01*
X268229Y230434D01*
X268771D01*
X269160Y229494D01*
X269956Y228456D01*
X270994Y227660D01*
X272203Y227159D01*
X273500Y226989D01*
X274797Y227159D01*
X276006Y227660D01*
X277044Y228456D01*
X277840Y229494D01*
X278229Y230434D01*
X278771D01*
X279160Y229494D01*
X279956Y228456D01*
X280994Y227660D01*
X282203Y227159D01*
X283500Y226989D01*
X284797Y227159D01*
X286006Y227660D01*
X287044Y228456D01*
X287840Y229494D01*
X288229Y230434D01*
X288771D01*
X289160Y229494D01*
X289956Y228456D01*
X290994Y227660D01*
X292203Y227159D01*
X293500Y226989D01*
X294797Y227159D01*
X296006Y227660D01*
X297044Y228456D01*
X297840Y229494D01*
X298229Y230434D01*
X298771D01*
X299160Y229494D01*
X299956Y228456D01*
X300994Y227660D01*
X302203Y227159D01*
X303500Y226989D01*
X304797Y227159D01*
X306006Y227660D01*
X307044Y228456D01*
X307840Y229494D01*
X308229Y230434D01*
X308771D01*
X309160Y229494D01*
X309956Y228456D01*
X310994Y227660D01*
X312203Y227159D01*
X313500Y226989D01*
X314797Y227159D01*
X316006Y227660D01*
X317044Y228456D01*
X317840Y229494D01*
X318229Y230434D01*
X318771D01*
X319160Y229494D01*
X319956Y228456D01*
X320994Y227660D01*
X322203Y227159D01*
X323500Y226989D01*
X324797Y227159D01*
X326006Y227660D01*
X327044Y228456D01*
X327840Y229494D01*
X328229Y230434D01*
X328771D01*
X329160Y229494D01*
X329956Y228456D01*
X330994Y227660D01*
X332203Y227159D01*
X333500Y226989D01*
X334797Y227159D01*
X336006Y227660D01*
X337044Y228456D01*
X337840Y229494D01*
X338229Y230434D01*
X338771D01*
X339160Y229494D01*
X339956Y228456D01*
X340994Y227660D01*
X342203Y227159D01*
X343500Y226989D01*
X344797Y227159D01*
X346006Y227660D01*
X347044Y228456D01*
X347625Y229214D01*
X348125Y229044D01*
Y212898D01*
X329102Y193875D01*
X210932D01*
X210854Y194268D01*
X210419Y194919D01*
X209768Y195354D01*
X209000Y195507D01*
X203000D01*
X202232Y195354D01*
X201581Y194919D01*
X201146Y194268D01*
X200993Y193500D01*
Y187500D01*
X201146Y186732D01*
X201581Y186081D01*
X202232Y185646D01*
X203000Y185493D01*
X203764D01*
X203864Y184993D01*
X203494Y184840D01*
X202456Y184044D01*
X201660Y183006D01*
X201159Y181797D01*
X200989Y180500D01*
X201159Y179203D01*
X201660Y177994D01*
X202456Y176956D01*
X203494Y176160D01*
X204434Y175771D01*
Y175229D01*
X203494Y174840D01*
X202456Y174044D01*
X201660Y173006D01*
X201159Y171797D01*
X200989Y170500D01*
X201159Y169203D01*
X201660Y167994D01*
X202456Y166956D01*
X203494Y166160D01*
X204434Y165771D01*
Y165229D01*
X203494Y164840D01*
X202456Y164044D01*
X201660Y163006D01*
X201159Y161797D01*
X200989Y160500D01*
X201159Y159203D01*
X201660Y157994D01*
X202456Y156956D01*
X203494Y156160D01*
X204703Y155659D01*
X206000Y155489D01*
X207297Y155659D01*
X208506Y156160D01*
X209544Y156956D01*
X210340Y157994D01*
X210841Y159203D01*
X211011Y160500D01*
X210841Y161797D01*
X210340Y163006D01*
X209544Y164044D01*
X208506Y164840D01*
X207565Y165229D01*
Y165771D01*
X208506Y166160D01*
X209544Y166956D01*
X210340Y167994D01*
X210841Y169203D01*
X211011Y170500D01*
X210841Y171797D01*
X210340Y173006D01*
X209544Y174044D01*
X208506Y174840D01*
X207565Y175229D01*
Y175771D01*
X208506Y176160D01*
X209544Y176956D01*
X210340Y177994D01*
X210841Y179203D01*
X211011Y180500D01*
X210841Y181797D01*
X210340Y183006D01*
X209544Y184044D01*
X208506Y184840D01*
X208136Y184993D01*
X208236Y185493D01*
X209000D01*
X209768Y185646D01*
X210419Y186081D01*
X210854Y186732D01*
X210932Y187125D01*
X330500D01*
X331374Y187240D01*
X332188Y187577D01*
X332887Y188113D01*
X353887Y209113D01*
X354423Y209812D01*
X354760Y210626D01*
X354875Y211500D01*
Y234000D01*
X354760Y234874D01*
X354423Y235688D01*
X353887Y236387D01*
X348484Y241790D01*
X348511Y242000D01*
X348341Y243297D01*
X347840Y244506D01*
X347044Y245544D01*
X346006Y246340D01*
X345065Y246729D01*
Y247271D01*
X346006Y247660D01*
X347044Y248456D01*
X347840Y249494D01*
X348341Y250703D01*
X348511Y252000D01*
X348341Y253297D01*
X347840Y254506D01*
X347044Y255544D01*
X346006Y256340D01*
X345065Y256729D01*
Y257271D01*
X346006Y257660D01*
X347044Y258456D01*
X347840Y259494D01*
X348341Y260703D01*
X348511Y262000D01*
X348341Y263297D01*
X347840Y264506D01*
X347044Y265544D01*
X346006Y266340D01*
X345065Y266729D01*
Y267271D01*
X346006Y267660D01*
X347044Y268456D01*
X347840Y269494D01*
X348341Y270703D01*
X348511Y272000D01*
X348341Y273297D01*
X347840Y274506D01*
X347044Y275544D01*
X346006Y276340D01*
X345065Y276729D01*
Y277271D01*
X346006Y277660D01*
X347044Y278456D01*
X347840Y279494D01*
X348341Y280703D01*
X348511Y282000D01*
X348341Y283297D01*
X347840Y284506D01*
X347044Y285544D01*
X346006Y286340D01*
X345065Y286729D01*
Y287271D01*
X346006Y287660D01*
X347044Y288456D01*
X347840Y289494D01*
X348341Y290703D01*
X348511Y292000D01*
X348341Y293297D01*
X347840Y294506D01*
X347044Y295544D01*
X346006Y296340D01*
X345065Y296729D01*
Y297271D01*
X346006Y297660D01*
X347044Y298456D01*
X347840Y299494D01*
X348341Y300703D01*
X348511Y302000D01*
X348341Y303297D01*
X347840Y304506D01*
X347044Y305544D01*
X346006Y306340D01*
X345065Y306729D01*
Y307271D01*
X346006Y307660D01*
X347044Y308456D01*
X347840Y309494D01*
X348341Y310703D01*
X348511Y312000D01*
X348341Y313297D01*
X347840Y314506D01*
X347044Y315544D01*
X346006Y316340D01*
X345065Y316729D01*
Y317271D01*
X346006Y317660D01*
X347044Y318456D01*
X347840Y319494D01*
X348341Y320703D01*
X348511Y322000D01*
X348341Y323297D01*
X347840Y324506D01*
X347044Y325544D01*
X346006Y326340D01*
X345065Y326729D01*
Y327271D01*
X346006Y327660D01*
X347044Y328456D01*
X347840Y329494D01*
X348341Y330703D01*
X348511Y332000D01*
X348341Y333297D01*
X347840Y334506D01*
X347044Y335544D01*
X346006Y336340D01*
X345065Y336729D01*
Y337271D01*
X346006Y337660D01*
X347044Y338456D01*
X347840Y339494D01*
X348341Y340703D01*
X348511Y342000D01*
X348341Y343297D01*
X347840Y344506D01*
X347044Y345544D01*
X346006Y346340D01*
X345065Y346729D01*
Y347271D01*
X346006Y347660D01*
X347044Y348456D01*
X347840Y349494D01*
X348341Y350703D01*
X348511Y352000D01*
X348341Y353297D01*
X347840Y354506D01*
X347044Y355544D01*
X346006Y356340D01*
X345065Y356729D01*
Y357271D01*
X346006Y357660D01*
X347044Y358456D01*
X347840Y359494D01*
X348341Y360703D01*
X348511Y362000D01*
X348341Y363297D01*
X347840Y364506D01*
X347044Y365544D01*
X346006Y366340D01*
X345065Y366729D01*
Y367271D01*
X346006Y367660D01*
X347044Y368456D01*
X347840Y369494D01*
X348341Y370703D01*
X348511Y372000D01*
X348341Y373297D01*
X347840Y374506D01*
X347044Y375544D01*
X346006Y376340D01*
X345065Y376729D01*
Y377271D01*
X346006Y377660D01*
X347044Y378456D01*
X347840Y379494D01*
X348341Y380703D01*
X348511Y382000D01*
X348341Y383297D01*
X347840Y384506D01*
X347044Y385544D01*
X346006Y386340D01*
X344797Y386841D01*
X343500Y387011D01*
D02*
G37*
G36*
X119016Y250609D02*
X117047D01*
X116279Y250457D01*
X115628Y250022D01*
X115193Y249370D01*
X115040Y248602D01*
Y246634D01*
X119016D01*
Y250609D01*
D02*
G37*
G36*
X154377Y245516D02*
X150984D01*
Y242123D01*
X151166Y242146D01*
X152253Y242597D01*
X153187Y243313D01*
X153903Y244247D01*
X154353Y245334D01*
X154377Y245516D01*
D02*
G37*
G36*
X124960Y244665D02*
X120000D01*
X115040D01*
Y242697D01*
X115193Y241929D01*
X115628Y241278D01*
X116279Y240843D01*
X117047Y240690D01*
X118002D01*
X118101Y240190D01*
X117518Y239948D01*
X116490Y239159D01*
X115701Y238131D01*
X115205Y236934D01*
X115036Y235650D01*
X115205Y234365D01*
X115701Y233168D01*
X116490Y232140D01*
X117518Y231351D01*
X118715Y230855D01*
X120000Y230686D01*
X121285Y230855D01*
X122482Y231351D01*
X123510Y232140D01*
X124299Y233168D01*
X124795Y234365D01*
X124964Y235650D01*
X124795Y236934D01*
X124299Y238131D01*
X123510Y239159D01*
X122482Y239948D01*
X121899Y240190D01*
X121998Y240690D01*
X122953D01*
X123721Y240843D01*
X124372Y241278D01*
X124807Y241929D01*
X124960Y242697D01*
Y244665D01*
D02*
G37*
G36*
X365016Y159516D02*
X361118D01*
X361159Y159203D01*
X361660Y157994D01*
X362456Y156956D01*
X363494Y156160D01*
X364703Y155659D01*
X365016Y155618D01*
Y159516D01*
D02*
G37*
G36*
X287000Y134464D02*
X285715Y134295D01*
X284518Y133799D01*
X283490Y133010D01*
X282701Y131982D01*
X282460Y131399D01*
X281960Y131498D01*
Y132453D01*
X281807Y133221D01*
X281372Y133872D01*
X280721Y134307D01*
X279953Y134460D01*
X274047D01*
X273279Y134307D01*
X272628Y133872D01*
X272193Y133221D01*
X272040Y132453D01*
Y126547D01*
X272193Y125779D01*
X272628Y125128D01*
X273279Y124693D01*
X274047Y124540D01*
X279953D01*
X280721Y124693D01*
X281372Y125128D01*
X281807Y125779D01*
X281960Y126547D01*
Y127502D01*
X282460Y127601D01*
X282701Y127018D01*
X283490Y125990D01*
X284518Y125201D01*
X285715Y124705D01*
X287000Y124536D01*
X288285Y124705D01*
X289482Y125201D01*
X290510Y125990D01*
X291299Y127018D01*
X291795Y128215D01*
X291964Y129500D01*
X291795Y130785D01*
X291299Y131982D01*
X290510Y133010D01*
X289482Y133799D01*
X288285Y134295D01*
X287000Y134464D01*
D02*
G37*
G36*
X366000Y195511D02*
X364703Y195341D01*
X363494Y194840D01*
X362456Y194044D01*
X361660Y193006D01*
X361159Y191797D01*
X360989Y190500D01*
X361159Y189203D01*
X361660Y187994D01*
X362456Y186956D01*
X363494Y186160D01*
X364435Y185771D01*
Y185229D01*
X363494Y184840D01*
X362456Y184044D01*
X361660Y183006D01*
X361159Y181797D01*
X360989Y180500D01*
X361159Y179203D01*
X361660Y177994D01*
X362456Y176956D01*
X363494Y176160D01*
X364435Y175771D01*
Y175229D01*
X363494Y174840D01*
X362456Y174044D01*
X361660Y173006D01*
X361159Y171797D01*
X360989Y170500D01*
X361159Y169203D01*
X361660Y167994D01*
X362456Y166956D01*
X363494Y166160D01*
X364435Y165771D01*
Y165229D01*
X363494Y164840D01*
X362456Y164044D01*
X361660Y163006D01*
X361159Y161797D01*
X361118Y161484D01*
X370882D01*
X370841Y161797D01*
X370340Y163006D01*
X369544Y164044D01*
X368506Y164840D01*
X367565Y165229D01*
Y165771D01*
X368506Y166160D01*
X369544Y166956D01*
X370340Y167994D01*
X370841Y169203D01*
X371011Y170500D01*
X370841Y171797D01*
X370340Y173006D01*
X369544Y174044D01*
X368506Y174840D01*
X367565Y175229D01*
Y175771D01*
X368506Y176160D01*
X369544Y176956D01*
X370340Y177994D01*
X370841Y179203D01*
X371011Y180500D01*
X370841Y181797D01*
X370340Y183006D01*
X369544Y184044D01*
X368506Y184840D01*
X367565Y185229D01*
Y185771D01*
X368506Y186160D01*
X369544Y186956D01*
X370340Y187994D01*
X370841Y189203D01*
X371011Y190500D01*
X370841Y191797D01*
X370340Y193006D01*
X369544Y194044D01*
X368506Y194840D01*
X367297Y195341D01*
X366000Y195511D01*
D02*
G37*
G36*
X370882Y159516D02*
X366984D01*
Y155618D01*
X367297Y155659D01*
X368506Y156160D01*
X369544Y156956D01*
X370340Y157994D01*
X370841Y159203D01*
X370882Y159516D01*
D02*
G37*
G36*
X122953Y250609D02*
X120984D01*
Y246634D01*
X124960D01*
Y248602D01*
X124807Y249370D01*
X124372Y250022D01*
X123721Y250457D01*
X122953Y250609D01*
D02*
G37*
G36*
X172984Y262877D02*
Y259484D01*
X176377D01*
X176354Y259666D01*
X175903Y260753D01*
X175187Y261687D01*
X174253Y262403D01*
X173167Y262854D01*
X172984Y262877D01*
D02*
G37*
G36*
X171016D02*
X170834Y262854D01*
X169746Y262403D01*
X168813Y261687D01*
X168097Y260753D01*
X167647Y259666D01*
X167622Y259484D01*
X171016D01*
Y262877D01*
D02*
G37*
G36*
X199453Y327007D02*
X193547D01*
X192779Y326854D01*
X192128Y326419D01*
X191693Y325768D01*
X191540Y325000D01*
Y319094D01*
X191693Y318326D01*
X192128Y317675D01*
X192779Y317240D01*
X193547Y317087D01*
X194502D01*
X194601Y316587D01*
X194018Y316346D01*
X192990Y315557D01*
X192201Y314529D01*
X191705Y313332D01*
X191536Y312047D01*
X191705Y310763D01*
X192201Y309565D01*
X192990Y308537D01*
X194018Y307749D01*
X195092Y307304D01*
X195092Y307303D01*
Y306791D01*
X195092Y306791D01*
X194018Y306346D01*
X192990Y305557D01*
X192201Y304529D01*
X191705Y303332D01*
X191536Y302047D01*
X191705Y300763D01*
X192201Y299565D01*
X192990Y298537D01*
X194018Y297748D01*
X195092Y297304D01*
X195092Y297303D01*
Y296791D01*
X195092Y296791D01*
X194018Y296346D01*
X192990Y295557D01*
X192201Y294529D01*
X191705Y293332D01*
X191536Y292047D01*
X191705Y290762D01*
X192201Y289565D01*
X192990Y288537D01*
X194018Y287749D01*
X195092Y287304D01*
X195092Y287303D01*
Y286791D01*
X195092Y286791D01*
X194018Y286346D01*
X192990Y285557D01*
X192201Y284529D01*
X191705Y283332D01*
X191666Y283032D01*
X196500D01*
X201334D01*
X201295Y283332D01*
X200799Y284529D01*
X200010Y285557D01*
X198982Y286346D01*
X197908Y286791D01*
X197908Y286791D01*
Y287303D01*
X197908Y287304D01*
X198982Y287749D01*
X200010Y288537D01*
X200799Y289565D01*
X201295Y290762D01*
X201464Y292047D01*
X201295Y293332D01*
X200799Y294529D01*
X200010Y295557D01*
X198982Y296346D01*
X197908Y296791D01*
X197908Y296791D01*
Y297303D01*
X197908Y297304D01*
X198982Y297748D01*
X200010Y298537D01*
X200799Y299565D01*
X201295Y300763D01*
X201464Y302047D01*
X201295Y303332D01*
X200799Y304529D01*
X200010Y305557D01*
X198982Y306346D01*
X197908Y306791D01*
X197908Y306791D01*
Y307303D01*
X197908Y307304D01*
X198982Y307749D01*
X200010Y308537D01*
X200799Y309565D01*
X201295Y310763D01*
X201464Y312047D01*
X201295Y313332D01*
X200799Y314529D01*
X200010Y315557D01*
X198982Y316346D01*
X198399Y316587D01*
X198498Y317087D01*
X199453D01*
X200221Y317240D01*
X200872Y317675D01*
X201307Y318326D01*
X201460Y319094D01*
Y325000D01*
X201307Y325768D01*
X200872Y326419D01*
X200221Y326854D01*
X199453Y327007D01*
D02*
G37*
G36*
X201334Y281063D02*
X196500D01*
X191666D01*
X191705Y280763D01*
X192201Y279565D01*
X192990Y278537D01*
X194018Y277748D01*
X195092Y277304D01*
X195092Y277303D01*
Y276791D01*
X195092Y276791D01*
X194018Y276346D01*
X192990Y275557D01*
X192201Y274529D01*
X191705Y273332D01*
X191536Y272047D01*
X191705Y270762D01*
X192201Y269565D01*
X192990Y268537D01*
X194018Y267748D01*
X195215Y267253D01*
X196500Y267084D01*
X197785Y267253D01*
X198982Y267748D01*
X200010Y268537D01*
X200799Y269565D01*
X201295Y270762D01*
X201464Y272047D01*
X201295Y273332D01*
X200799Y274529D01*
X200010Y275557D01*
X198982Y276346D01*
X197908Y276791D01*
X197908Y276791D01*
Y277303D01*
X197908Y277304D01*
X198982Y277748D01*
X200010Y278537D01*
X200799Y279565D01*
X201295Y280763D01*
X201334Y281063D01*
D02*
G37*
G36*
X176377Y257516D02*
X172984D01*
Y254122D01*
X173167Y254147D01*
X174253Y254597D01*
X175187Y255313D01*
X175903Y256246D01*
X176354Y257333D01*
X176377Y257516D01*
D02*
G37*
G36*
X150984Y250877D02*
Y247484D01*
X154377D01*
X154353Y247667D01*
X153903Y248753D01*
X153187Y249687D01*
X152253Y250403D01*
X151166Y250853D01*
X150984Y250877D01*
D02*
G37*
G36*
X149016D02*
X148834Y250853D01*
X147747Y250403D01*
X146813Y249687D01*
X146097Y248753D01*
X145647Y247667D01*
X145623Y247484D01*
X149016D01*
Y250877D01*
D02*
G37*
G36*
X171016Y257516D02*
X167622D01*
X167647Y257333D01*
X168097Y256246D01*
X168813Y255313D01*
X169746Y254597D01*
X170834Y254147D01*
X171016Y254122D01*
Y257516D01*
D02*
G37*
G36*
X233500Y387011D02*
X232203Y386841D01*
X230994Y386340D01*
X229956Y385544D01*
X229160Y384506D01*
X228659Y383297D01*
X228489Y382000D01*
X228659Y380703D01*
X229160Y379494D01*
X229956Y378456D01*
X230994Y377660D01*
X231934Y377271D01*
Y376729D01*
X230994Y376340D01*
X229956Y375544D01*
X229160Y374506D01*
X228659Y373297D01*
X228489Y372000D01*
X228659Y370703D01*
X229160Y369494D01*
X229956Y368456D01*
X230994Y367660D01*
X231934Y367271D01*
Y366729D01*
X230994Y366340D01*
X229956Y365544D01*
X229160Y364506D01*
X228659Y363297D01*
X228489Y362000D01*
X228659Y360703D01*
X229160Y359494D01*
X229956Y358456D01*
X230994Y357660D01*
X231934Y357271D01*
Y356729D01*
X230994Y356340D01*
X229956Y355544D01*
X229160Y354506D01*
X228659Y353297D01*
X228489Y352000D01*
X228659Y350703D01*
X229160Y349494D01*
X229956Y348456D01*
X230994Y347660D01*
X231934Y347271D01*
Y346729D01*
X230994Y346340D01*
X229956Y345544D01*
X229160Y344506D01*
X228659Y343297D01*
X228489Y342000D01*
X228659Y340703D01*
X229160Y339494D01*
X229956Y338456D01*
X230994Y337660D01*
X231934Y337271D01*
Y336729D01*
X230994Y336340D01*
X229956Y335544D01*
X229160Y334506D01*
X228659Y333297D01*
X228489Y332000D01*
X228659Y330703D01*
X229160Y329494D01*
X229956Y328456D01*
X230994Y327660D01*
X231934Y327271D01*
Y326729D01*
X230994Y326340D01*
X229956Y325544D01*
X229160Y324506D01*
X228659Y323297D01*
X228489Y322000D01*
X228659Y320703D01*
X229160Y319494D01*
X229956Y318456D01*
X230994Y317660D01*
X231934Y317271D01*
Y316729D01*
X230994Y316340D01*
X229956Y315544D01*
X229160Y314506D01*
X228659Y313297D01*
X228489Y312000D01*
X228659Y310703D01*
X229160Y309494D01*
X229956Y308456D01*
X230994Y307660D01*
X231934Y307271D01*
Y306729D01*
X230994Y306340D01*
X229956Y305544D01*
X229160Y304506D01*
X228659Y303297D01*
X228489Y302000D01*
X228659Y300703D01*
X229160Y299494D01*
X229956Y298456D01*
X230994Y297660D01*
X231934Y297271D01*
Y296729D01*
X230994Y296340D01*
X229956Y295544D01*
X229160Y294506D01*
X228659Y293297D01*
X228489Y292000D01*
X228659Y290703D01*
X229160Y289494D01*
X229956Y288456D01*
X230994Y287660D01*
X231934Y287271D01*
Y286729D01*
X230994Y286340D01*
X229956Y285544D01*
X229160Y284506D01*
X228659Y283297D01*
X228489Y282000D01*
X228659Y280703D01*
X229160Y279494D01*
X229956Y278456D01*
X230994Y277660D01*
X231934Y277271D01*
Y276729D01*
X230994Y276340D01*
X229956Y275544D01*
X229160Y274506D01*
X228659Y273297D01*
X228489Y272000D01*
X228659Y270703D01*
X229160Y269494D01*
X229956Y268456D01*
X230994Y267660D01*
X231934Y267271D01*
Y266729D01*
X230994Y266340D01*
X229956Y265544D01*
X229160Y264506D01*
X228659Y263297D01*
X228489Y262000D01*
X228659Y260703D01*
X229160Y259494D01*
X229956Y258456D01*
X230994Y257660D01*
X231934Y257271D01*
Y256729D01*
X230994Y256340D01*
X229956Y255544D01*
X229160Y254506D01*
X228659Y253297D01*
X228618Y252984D01*
X238382D01*
X238341Y253297D01*
X237840Y254506D01*
X237044Y255544D01*
X236006Y256340D01*
X235066Y256729D01*
Y257271D01*
X236006Y257660D01*
X237044Y258456D01*
X237840Y259494D01*
X238341Y260703D01*
X238511Y262000D01*
X238341Y263297D01*
X237840Y264506D01*
X237044Y265544D01*
X236006Y266340D01*
X235066Y266729D01*
Y267271D01*
X236006Y267660D01*
X237044Y268456D01*
X237840Y269494D01*
X238341Y270703D01*
X238511Y272000D01*
X238341Y273297D01*
X237840Y274506D01*
X237044Y275544D01*
X236006Y276340D01*
X235066Y276729D01*
Y277271D01*
X236006Y277660D01*
X237044Y278456D01*
X237840Y279494D01*
X238341Y280703D01*
X238511Y282000D01*
X238341Y283297D01*
X237840Y284506D01*
X237044Y285544D01*
X236006Y286340D01*
X235066Y286729D01*
Y287271D01*
X236006Y287660D01*
X237044Y288456D01*
X237840Y289494D01*
X238341Y290703D01*
X238511Y292000D01*
X238341Y293297D01*
X237840Y294506D01*
X237044Y295544D01*
X236006Y296340D01*
X235066Y296729D01*
Y297271D01*
X236006Y297660D01*
X237044Y298456D01*
X237840Y299494D01*
X238341Y300703D01*
X238511Y302000D01*
X238341Y303297D01*
X237840Y304506D01*
X237044Y305544D01*
X236006Y306340D01*
X235066Y306729D01*
Y307271D01*
X236006Y307660D01*
X237044Y308456D01*
X237840Y309494D01*
X238341Y310703D01*
X238511Y312000D01*
X238341Y313297D01*
X237840Y314506D01*
X237044Y315544D01*
X236006Y316340D01*
X235066Y316729D01*
Y317271D01*
X236006Y317660D01*
X237044Y318456D01*
X237840Y319494D01*
X238341Y320703D01*
X238511Y322000D01*
X238341Y323297D01*
X237840Y324506D01*
X237044Y325544D01*
X236006Y326340D01*
X235066Y326729D01*
Y327271D01*
X236006Y327660D01*
X237044Y328456D01*
X237840Y329494D01*
X238341Y330703D01*
X238511Y332000D01*
X238341Y333297D01*
X237840Y334506D01*
X237044Y335544D01*
X236006Y336340D01*
X235066Y336729D01*
Y337271D01*
X236006Y337660D01*
X237044Y338456D01*
X237840Y339494D01*
X238341Y340703D01*
X238511Y342000D01*
X238341Y343297D01*
X237840Y344506D01*
X237044Y345544D01*
X236006Y346340D01*
X235066Y346729D01*
Y347271D01*
X236006Y347660D01*
X237044Y348456D01*
X237840Y349494D01*
X238341Y350703D01*
X238511Y352000D01*
X238341Y353297D01*
X237840Y354506D01*
X237044Y355544D01*
X236006Y356340D01*
X235066Y356729D01*
Y357271D01*
X236006Y357660D01*
X237044Y358456D01*
X237840Y359494D01*
X238341Y360703D01*
X238511Y362000D01*
X238341Y363297D01*
X237840Y364506D01*
X237044Y365544D01*
X236006Y366340D01*
X235066Y366729D01*
Y367271D01*
X236006Y367660D01*
X237044Y368456D01*
X237840Y369494D01*
X238341Y370703D01*
X238511Y372000D01*
X238341Y373297D01*
X237840Y374506D01*
X237044Y375544D01*
X236006Y376340D01*
X235066Y376729D01*
Y377271D01*
X236006Y377660D01*
X237044Y378456D01*
X237840Y379494D01*
X238341Y380703D01*
X238511Y382000D01*
X238341Y383297D01*
X237840Y384506D01*
X237044Y385544D01*
X236006Y386340D01*
X234797Y386841D01*
X233500Y387011D01*
D02*
G37*
%LPD*%
D13*
X206000Y190500D02*
X330500D01*
X351500Y211500D01*
Y234000D01*
X343500Y242000D02*
X351500Y234000D01*
D14*
X392000Y395500D02*
G03*
X387000Y400500I-5000J0D01*
G01*
Y116000D02*
G03*
X392000Y121000I0J5000D01*
G01*
X105500D02*
G03*
X110500Y116000I5000J0D01*
G01*
Y400500D02*
G03*
X105500Y395500I0J-5000D01*
G01*
X280000Y400500D02*
X387000D01*
X392000Y121000D02*
Y395500D01*
X110500Y116000D02*
X387000D01*
X105500Y121000D02*
Y395500D01*
X110500Y400500D02*
X281500D01*
D15*
X366000Y190500D02*
D03*
Y180500D02*
D03*
Y170500D02*
D03*
Y160500D02*
D03*
X206000D02*
D03*
Y170500D02*
D03*
Y180500D02*
D03*
X343500Y382000D02*
D03*
Y372000D02*
D03*
Y362000D02*
D03*
Y352000D02*
D03*
Y342000D02*
D03*
Y332000D02*
D03*
Y322000D02*
D03*
Y312000D02*
D03*
Y302000D02*
D03*
Y292000D02*
D03*
Y282000D02*
D03*
Y272000D02*
D03*
Y262000D02*
D03*
Y252000D02*
D03*
Y242000D02*
D03*
Y232000D02*
D03*
X333500D02*
D03*
X323500D02*
D03*
X313500D02*
D03*
X303500D02*
D03*
X293500D02*
D03*
X283500D02*
D03*
X273500D02*
D03*
X263500D02*
D03*
X253500D02*
D03*
X243500D02*
D03*
X233500Y382000D02*
D03*
Y372000D02*
D03*
Y362000D02*
D03*
Y352000D02*
D03*
Y342000D02*
D03*
Y332000D02*
D03*
Y322000D02*
D03*
Y312000D02*
D03*
Y302000D02*
D03*
Y292000D02*
D03*
Y282000D02*
D03*
Y272000D02*
D03*
Y262000D02*
D03*
Y252000D02*
D03*
Y242000D02*
D03*
Y232000D02*
D03*
X118110Y129921D02*
D03*
X381890D02*
D03*
X118110Y385827D02*
D03*
X381890D02*
D03*
D16*
X206000Y190500D02*
D03*
D17*
X120000Y235650D02*
D03*
X196500Y272047D02*
D03*
Y282047D02*
D03*
Y292047D02*
D03*
Y302047D02*
D03*
Y312047D02*
D03*
X287000Y129500D02*
D03*
D18*
X120000Y245650D02*
D03*
X196500Y322047D02*
D03*
D19*
X277000Y129500D02*
D03*
D20*
X150000Y246500D02*
D03*
X172000Y258500D02*
D03*
M02*
