G04 Layer_Color=8388736*
%FSLAX25Y25*%
%MOIN*%
G70*
G01*
G75*
%ADD14C,0.01000*%
%ADD24R,0.06312X0.05131*%
G04:AMPARAMS|DCode=25|XSize=149.73mil|YSize=70.99mil|CornerRadius=11.87mil|HoleSize=0mil|Usage=FLASHONLY|Rotation=270.000|XOffset=0mil|YOffset=0mil|HoleType=Round|Shape=RoundedRectangle|*
%AMROUNDEDRECTD25*
21,1,0.14973,0.04724,0,0,270.0*
21,1,0.12598,0.07099,0,0,270.0*
1,1,0.02375,-0.02362,-0.06299*
1,1,0.02375,-0.02362,0.06299*
1,1,0.02375,0.02362,0.06299*
1,1,0.02375,0.02362,-0.06299*
%
%ADD25ROUNDEDRECTD25*%
%ADD26R,0.07099X0.05524*%
%ADD27C,0.06800*%
%ADD28R,0.06800X0.06800*%
%ADD29C,0.06706*%
%ADD30R,0.06706X0.06706*%
%ADD31R,0.06706X0.06706*%
%ADD32C,0.05800*%
D14*
X392000Y395500D02*
G03*
X387000Y400500I-5000J0D01*
G01*
Y116000D02*
G03*
X392000Y121000I0J5000D01*
G01*
X105500D02*
G03*
X110500Y116000I5000J0D01*
G01*
Y400500D02*
G03*
X105500Y395500I0J-5000D01*
G01*
X280000Y400500D02*
X387000D01*
X392000Y121000D02*
Y395500D01*
X110500Y116000D02*
X387000D01*
X105500Y121000D02*
Y395500D01*
X110500Y400500D02*
X281500D01*
D24*
X141500Y238563D02*
D03*
Y246437D02*
D03*
D25*
X172000Y221886D02*
D03*
Y245114D02*
D03*
D26*
X128508Y212000D02*
D03*
X141106D02*
D03*
D27*
X366000Y190500D02*
D03*
Y180500D02*
D03*
Y170500D02*
D03*
Y160500D02*
D03*
X206000D02*
D03*
Y170500D02*
D03*
Y180500D02*
D03*
X343500Y382000D02*
D03*
Y372000D02*
D03*
Y362000D02*
D03*
Y352000D02*
D03*
Y342000D02*
D03*
Y332000D02*
D03*
Y322000D02*
D03*
Y312000D02*
D03*
Y302000D02*
D03*
Y292000D02*
D03*
Y282000D02*
D03*
Y272000D02*
D03*
Y262000D02*
D03*
Y252000D02*
D03*
Y242000D02*
D03*
Y232000D02*
D03*
X333500D02*
D03*
X323500D02*
D03*
X313500D02*
D03*
X303500D02*
D03*
X293500D02*
D03*
X283500D02*
D03*
X273500D02*
D03*
X263500D02*
D03*
X253500D02*
D03*
X243500D02*
D03*
X233500Y382000D02*
D03*
Y372000D02*
D03*
Y362000D02*
D03*
Y352000D02*
D03*
Y342000D02*
D03*
Y332000D02*
D03*
Y322000D02*
D03*
Y312000D02*
D03*
Y302000D02*
D03*
Y292000D02*
D03*
Y282000D02*
D03*
Y272000D02*
D03*
Y262000D02*
D03*
Y252000D02*
D03*
Y242000D02*
D03*
Y232000D02*
D03*
X118110Y129921D02*
D03*
X381890D02*
D03*
X118110Y385827D02*
D03*
X381890D02*
D03*
D28*
X206000Y190500D02*
D03*
D29*
X120000Y235650D02*
D03*
X196500Y272047D02*
D03*
Y282047D02*
D03*
Y292047D02*
D03*
Y302047D02*
D03*
Y312047D02*
D03*
X287000Y129500D02*
D03*
D30*
X120000Y245650D02*
D03*
X196500Y322047D02*
D03*
D31*
X277000Y129500D02*
D03*
D32*
X150000Y246500D02*
D03*
X172000Y258500D02*
D03*
M02*
