G04 Layer_Physical_Order=1*
G04 Layer_Color=255*
%FSLAX25Y25*%
%MOIN*%
G70*
G01*
G75*
%ADD10C,0.01968*%
%ADD11C,0.01000*%
%ADD12C,0.06000*%
%ADD13R,0.06000X0.06000*%
%ADD14C,0.05905*%
%ADD15R,0.05905X0.05905*%
%ADD16R,0.05905X0.05905*%
%ADD17C,0.05000*%
D10*
X23500Y156047D02*
X44453D01*
X23500Y146047D02*
X23547Y146000D01*
X23500Y126047D02*
X34500Y115047D01*
X44453Y156047D02*
X44500Y156000D01*
X23547Y146000D02*
X44500D01*
X135500Y55500D02*
X178854D01*
X91500Y11500D02*
X135500Y55500D01*
Y45500D02*
X178854D01*
X101500Y11500D02*
X135500Y45500D01*
X23500Y96047D02*
X33547Y86000D01*
X44500D01*
X34500Y106000D02*
Y115047D01*
Y106000D02*
X44500Y96000D01*
X13500Y45500D02*
Y50500D01*
Y55500D01*
X104000Y35500D02*
X154500Y86000D01*
X13500Y35500D02*
X104000D01*
X13500Y50500D02*
X49000D01*
X84500Y86000D01*
X167000Y81000D02*
Y83500D01*
X154500Y96000D02*
X167000Y83500D01*
X178854Y65500D02*
Y201646D01*
X154500Y226000D02*
X178854Y201646D01*
D11*
X173036Y249964D02*
G03*
X164500Y253500I-8535J-8535D01*
G01*
X195500Y222500D02*
G03*
X191964Y231035I-12071J0D01*
G01*
Y19465D02*
G03*
X195500Y28000I-8535J8535D01*
G01*
X167500Y0D02*
G03*
X176035Y3536I0J12071D01*
G01*
X19465D02*
G03*
X28000Y0I8535J8535D01*
G01*
X0Y28000D02*
G03*
X3536Y19465I12071J0D01*
G01*
Y238035D02*
G03*
X0Y229500I8535J-8535D01*
G01*
X24000Y253500D02*
G03*
X15464Y249964I0J-12071D01*
G01*
X92000Y253500D02*
X164500D01*
X173036Y249964D02*
X191964Y231035D01*
X195500Y28000D02*
Y222500D01*
X176035Y3536D02*
X191964Y19465D01*
X28000Y0D02*
X167500D01*
X3536Y19465D02*
X19465Y3536D01*
X0Y28000D02*
Y229500D01*
X3536Y238035D02*
X15464Y249964D01*
X24000Y253500D02*
X92000D01*
D12*
X13500Y35500D02*
D03*
Y45500D02*
D03*
Y55500D02*
D03*
X178854Y65500D02*
D03*
Y55500D02*
D03*
Y45500D02*
D03*
Y35500D02*
D03*
X154500Y236000D02*
D03*
Y226000D02*
D03*
Y216000D02*
D03*
Y206000D02*
D03*
Y196000D02*
D03*
Y186000D02*
D03*
Y176000D02*
D03*
Y166000D02*
D03*
Y156000D02*
D03*
Y146000D02*
D03*
Y136000D02*
D03*
Y126000D02*
D03*
Y116000D02*
D03*
Y106000D02*
D03*
Y96000D02*
D03*
Y86000D02*
D03*
X144500D02*
D03*
X134500D02*
D03*
X124500D02*
D03*
X114500D02*
D03*
X104500D02*
D03*
X94500D02*
D03*
X84500D02*
D03*
X74500D02*
D03*
X64500D02*
D03*
X54500D02*
D03*
X44500Y236000D02*
D03*
Y226000D02*
D03*
Y216000D02*
D03*
Y206000D02*
D03*
Y196000D02*
D03*
Y186000D02*
D03*
Y176000D02*
D03*
Y166000D02*
D03*
Y156000D02*
D03*
Y146000D02*
D03*
Y136000D02*
D03*
Y126000D02*
D03*
Y116000D02*
D03*
Y106000D02*
D03*
Y96000D02*
D03*
Y86000D02*
D03*
X20980Y20953D02*
D03*
X178461D02*
D03*
Y227646D02*
D03*
X20980D02*
D03*
D13*
X13500Y65500D02*
D03*
D14*
X23500Y126000D02*
D03*
Y136000D02*
D03*
Y146000D02*
D03*
Y156000D02*
D03*
Y166000D02*
D03*
Y96047D02*
D03*
X101500Y11500D02*
D03*
D15*
X23500Y176000D02*
D03*
Y106047D02*
D03*
D16*
X91500Y11500D02*
D03*
D17*
X167000Y81000D02*
D03*
M02*
