M48
;Layer_Color=9474304
;FILE_FORMAT=2:5
INCH,TZ
;TYPE=PLATED
T1F00S00C0.02800
T2F00S00C0.03000
T3F00S00C0.03543
T4F00S00C0.13780
%
T01
X167000Y81000
T02
X13500Y35500
Y45500
X178854
Y35500
Y55500
Y65500
X154500Y86000
Y96000
Y106000
Y116000
Y126000
Y136000
Y146000
Y156000
Y166000
Y176000
Y186000
Y196000
X44500
Y186000
Y176000
Y166000
Y156000
Y146000
Y136000
Y126000
Y116000
Y106000
Y96000
Y86000
X54500
X64500
X74500
X84500
X94500
X104500
X114500
X124500
X134500
X144500
X13500Y65500
Y55500
X44500Y206000
Y216000
Y226000
Y236000
X154500
Y226000
Y216000
Y206000
T03
X91500Y11500
X101500
X23500Y96047
Y106047
Y126000
Y136000
Y146000
Y156000
Y166000
Y176000
T04
X20980Y20953
X178461
X20980Y227646
X178461
M30
