G04 Layer_Color=32896*
%FSLAX25Y25*%
%MOIN*%
G70*
G01*
G75*
%ADD11C,0.01000*%
%ADD19C,0.00100*%
%ADD20C,0.00984*%
D11*
X170500Y35000D02*
Y40998D01*
X168501Y38999D01*
X166501Y40998D01*
Y35000D01*
X163502Y38999D02*
X161503D01*
X160503Y37999D01*
Y35000D01*
X163502D01*
X164502Y36000D01*
X163502Y36999D01*
X160503D01*
X154505Y40998D02*
Y35000D01*
X157504D01*
X158504Y36000D01*
Y37999D01*
X157504Y38999D01*
X154505D01*
X149507Y35000D02*
X151506D01*
X152506Y36000D01*
Y37999D01*
X151506Y38999D01*
X149507D01*
X148507Y37999D01*
Y36999D01*
X152506D01*
X140510Y40998D02*
Y35000D01*
X137511D01*
X136511Y36000D01*
Y36999D01*
Y37999D01*
X137511Y38999D01*
X140510D01*
X134512D02*
Y36000D01*
X133512Y35000D01*
X130513D01*
Y34000D01*
X131513Y33001D01*
X132512D01*
X130513Y35000D02*
Y38999D01*
X128514D02*
X127514D01*
Y37999D01*
X128514D01*
Y38999D01*
Y36000D02*
X127514D01*
Y35000D01*
X128514D01*
Y36000D01*
X117517Y40998D02*
Y35000D01*
Y36999D01*
X113518Y40998D01*
X116517Y37999D01*
X113518Y35000D01*
X108520D02*
X110519D01*
X111519Y36000D01*
Y37999D01*
X110519Y38999D01*
X108520D01*
X107520Y37999D01*
Y36999D01*
X111519D01*
X105521Y38999D02*
X103522Y35000D01*
X101522Y38999D01*
X99523Y35000D02*
X97524D01*
X98523D01*
Y38999D01*
X99523D01*
X94525Y35000D02*
Y38999D01*
X91526D01*
X90526Y37999D01*
Y35000D01*
X82529Y40998D02*
X78530D01*
X80529D01*
Y35000D01*
X75531Y38999D02*
X73531D01*
X72532Y37999D01*
Y35000D01*
X75531D01*
X76530Y36000D01*
X75531Y36999D01*
X72532D01*
X70532Y35000D02*
Y38999D01*
X67533D01*
X66534Y37999D01*
Y35000D01*
X62535Y33001D02*
X61535D01*
X60536Y34000D01*
Y38999D01*
X63535D01*
X64534Y37999D01*
Y36000D01*
X63535Y35000D01*
X60536D01*
X173036Y249964D02*
G03*
X164500Y253500I-8535J-8535D01*
G01*
X195500Y222500D02*
G03*
X191964Y231035I-12071J0D01*
G01*
Y19465D02*
G03*
X195500Y28000I-8535J8535D01*
G01*
X167500Y0D02*
G03*
X176035Y3536I0J12071D01*
G01*
X19465D02*
G03*
X28000Y0I8535J8535D01*
G01*
X0Y28000D02*
G03*
X3536Y19465I12071J0D01*
G01*
Y238035D02*
G03*
X0Y229500I8535J-8535D01*
G01*
X24000Y253500D02*
G03*
X15464Y249964I0J-12071D01*
G01*
X92000Y253500D02*
X164500D01*
X173036Y249964D02*
X191964Y231035D01*
X195500Y28000D02*
Y222500D01*
X176035Y3536D02*
X191964Y19465D01*
X28000Y0D02*
X167500D01*
X3536Y19465D02*
X19465Y3536D01*
X0Y28000D02*
Y229500D01*
X3536Y238035D02*
X15464Y249964D01*
X24000Y253500D02*
X92000D01*
D19*
X125300Y203700D02*
X125400D01*
X125500Y203600D02*
X138700D01*
X125400Y203500D02*
X138700D01*
X125400Y203400D02*
X138700D01*
X125400Y203300D02*
X138700D01*
X125400Y203200D02*
X138700D01*
X125400Y203100D02*
X138700D01*
X125400Y203000D02*
X138700D01*
X125400Y202900D02*
X138700D01*
X125400Y202800D02*
X138700D01*
X125400Y202700D02*
X138700D01*
X125400Y202600D02*
X138700D01*
X125400Y202500D02*
X138700D01*
X125400Y202400D02*
X138700D01*
X125400Y202300D02*
X138700D01*
X125400Y202200D02*
X138700D01*
X125400Y202100D02*
X138700D01*
X125400Y202000D02*
X138700D01*
X125400Y201900D02*
X138700D01*
X125400Y201800D02*
X138700D01*
X125400Y201700D02*
X138700D01*
X125400Y201600D02*
X138700D01*
X125400Y201500D02*
X138700D01*
X125400Y201400D02*
X138700D01*
X125400Y201300D02*
X138700D01*
X125400Y201200D02*
X138700D01*
X125400Y201100D02*
X138700D01*
X125400Y201000D02*
X138700D01*
X125400Y200900D02*
X138700D01*
X125400Y200800D02*
X138700D01*
X125400Y200700D02*
X138700D01*
X125400Y200600D02*
X138700D01*
X125400Y200500D02*
X138700D01*
X125400Y200400D02*
X138700D01*
X125400Y200300D02*
X138700D01*
X125400Y200200D02*
X138700D01*
X125400Y200100D02*
X138700D01*
X125400Y200000D02*
X138700D01*
X125400Y199900D02*
X138700D01*
X125400Y199800D02*
X138700D01*
X125400Y199700D02*
X138700D01*
X125400Y199600D02*
X138700D01*
X125400Y199500D02*
X138700D01*
X125400Y199400D02*
X138700D01*
X125400Y199300D02*
X138700D01*
X125400Y199200D02*
X138700D01*
X125400Y199100D02*
X138700D01*
X125400Y199000D02*
X138700D01*
X125400Y198900D02*
X138700D01*
X125400Y198800D02*
X138700D01*
X125400Y198700D02*
X138700D01*
X125400Y198600D02*
X138700D01*
X125400Y198500D02*
X138700D01*
X125400Y198400D02*
X138700D01*
X125400Y198300D02*
X138700D01*
X125400Y198200D02*
X138700D01*
X125400Y198100D02*
X138700D01*
X125400Y198000D02*
X138700D01*
X125400Y197900D02*
X138700D01*
X125400Y197800D02*
X138700D01*
X125400Y197700D02*
X138700D01*
X129000Y197600D02*
X138700D01*
X125400D02*
X128900D01*
X129900Y197500D02*
X138700D01*
X125400D02*
X129000D01*
X130500Y197400D02*
X138700D01*
X125400D02*
X128900D01*
X130900Y197300D02*
X138700D01*
X125400D02*
X128900D01*
X131300Y197200D02*
X138700D01*
X125400D02*
X128900D01*
X131700Y197100D02*
X138700D01*
X125400D02*
X128900D01*
X132000Y197000D02*
X138700D01*
X125400D02*
X128900D01*
X117200D02*
X117300D01*
X104300D02*
X104400D01*
X103600D02*
X103700D01*
X92600D02*
X92700D01*
X85400D02*
X85600D01*
X83500D02*
X83600D01*
X73100D02*
X73200D01*
X132300Y196900D02*
X138700D01*
X125400D02*
X128900D01*
X119400D02*
X119500D01*
X118200D02*
X118900D01*
X117400D02*
X117500D01*
X104600D02*
X104700D01*
X98200D02*
X98300D01*
X74000D02*
X74700D01*
X73200D02*
X73300D01*
X132600Y196800D02*
X138700D01*
X125400D02*
X128900D01*
X117600D02*
X119600D01*
X112400D02*
X112500D01*
X111500D02*
X112300D01*
X108300D02*
X109300D01*
X103600D02*
X104600D01*
X98800D02*
X99800D01*
X92300D02*
X98200D01*
X90200D02*
X91200D01*
X86500D02*
X86600D01*
X85400D02*
X86400D01*
X81500D02*
X83700D01*
X73400D02*
X75400D01*
X73000D02*
X73100D01*
X68500D02*
X69300D01*
X64000D02*
X64100D01*
X62900D02*
X63900D01*
X132800Y196700D02*
X138700D01*
X132500D02*
X132600D01*
X125400D02*
X128900D01*
X117100D02*
X119900D01*
X111500D02*
X112400D01*
X108300D02*
X109300D01*
X103500D02*
X104600D01*
X98800D02*
X99900D01*
X92400D02*
X98300D01*
X90200D02*
X91300D01*
X85400D02*
X86500D01*
X81100D02*
X83700D01*
X73000D02*
X75700D01*
X68400D02*
X69400D01*
X62900D02*
X63900D01*
X133100Y196600D02*
X138700D01*
X125400D02*
X128900D01*
X120300D02*
X120400D01*
X116900D02*
X120200D01*
X111500D02*
X112400D01*
X108200D02*
X109300D01*
X103500D02*
X104700D01*
X98900D02*
X100100D01*
X92400D02*
X98200D01*
X90200D02*
X91300D01*
X85400D02*
X86500D01*
X80800D02*
X83700D01*
X72800D02*
X76000D01*
X68300D02*
X69400D01*
X62900D02*
X63900D01*
X133300Y196500D02*
X138700D01*
X125400D02*
X128900D01*
X116600D02*
X120400D01*
X111400D02*
X112500D01*
X108200D02*
X109300D01*
X108000D02*
X108100D01*
X103400D02*
X104700D01*
X98900D02*
X100000D01*
X92400D02*
X98200D01*
X90200D02*
X91300D01*
X85400D02*
X86500D01*
X80600D02*
X83700D01*
X72600D02*
X76200D01*
X68200D02*
X69300D01*
X62900D02*
X63900D01*
X133600Y196400D02*
X138700D01*
X133100D02*
X133200D01*
X125400D02*
X128900D01*
X116300D02*
X120600D01*
X111400D02*
X112500D01*
X108100D02*
X109200D01*
X103400D02*
X104700D01*
X99000D02*
X100000D01*
X92400D02*
X98200D01*
X90200D02*
X91300D01*
X85400D02*
X86500D01*
X80400D02*
X83700D01*
X80200D02*
X80300D01*
X72400D02*
X76300D01*
X68100D02*
X69300D01*
X62900D02*
X63900D01*
X133800Y196300D02*
X138700D01*
X125400D02*
X128900D01*
X116200D02*
X120700D01*
X116000D02*
X116100D01*
X111300D02*
X112600D01*
X108100D02*
X109200D01*
X103400D02*
X104800D01*
X99000D02*
X100100D01*
X92400D02*
X98200D01*
X90200D02*
X91300D01*
X85400D02*
X86500D01*
X80300D02*
X83700D01*
X72200D02*
X76500D01*
X68000D02*
X69300D01*
X62900D02*
X63900D01*
X134000Y196200D02*
X138700D01*
X133800D02*
X133900D01*
X133600D02*
X133700D01*
X125400D02*
X128900D01*
X116200D02*
X120900D01*
X111300D02*
X112600D01*
X108100D02*
X109100D01*
X103200D02*
X104800D01*
X99000D02*
X100100D01*
X92400D02*
X98200D01*
X90200D02*
X91300D01*
X85400D02*
X86500D01*
X80200D02*
X83700D01*
X72100D02*
X76700D01*
X71900D02*
X72000D01*
X68000D02*
X69300D01*
X62900D02*
X63900D01*
X134200Y196100D02*
X138700D01*
X125400D02*
X128900D01*
X116200D02*
X121000D01*
X111200D02*
X112600D01*
X107900D02*
X109100D01*
X103300D02*
X104900D01*
X99100D02*
X100200D01*
X92400D02*
X98200D01*
X90200D02*
X91300D01*
X85400D02*
X86500D01*
X80100D02*
X83700D01*
X71900D02*
X76800D01*
X67900D02*
X69300D01*
X62900D02*
X63900D01*
X134400Y196000D02*
X138700D01*
X125400D02*
X128900D01*
X116200D02*
X121200D01*
X111200D02*
X112700D01*
X108000D02*
X109100D01*
X103200D02*
X104900D01*
X99100D02*
X100200D01*
X92400D02*
X98300D01*
X90200D02*
X91300D01*
X85400D02*
X86500D01*
X80000D02*
X83700D01*
X71800D02*
X76900D01*
X67800D02*
X69300D01*
X62900D02*
X63900D01*
X134600Y195900D02*
X138700D01*
X125400D02*
X128900D01*
X118700D02*
X121300D01*
X116200D02*
X118300D01*
X111100D02*
X112700D01*
X107900D02*
X109000D01*
X103200D02*
X104900D01*
X99200D02*
X100200D01*
X92400D02*
X98200D01*
X90200D02*
X91300D01*
X85400D02*
X86500D01*
X80000D02*
X83700D01*
X74500D02*
X77000D01*
X71700D02*
X74200D01*
X67700D02*
X69300D01*
X62900D02*
X63900D01*
X134700Y195800D02*
X138700D01*
X133800D02*
X133900D01*
X125400D02*
X128900D01*
X119400D02*
X121400D01*
X116200D02*
X117700D01*
X111100D02*
X112800D01*
X107900D02*
X109000D01*
X103200D02*
X105000D01*
X99200D02*
X100300D01*
X94800D02*
X95900D01*
X92600D02*
X92700D01*
X92300D02*
X92400D01*
X90200D02*
X91300D01*
X85400D02*
X86500D01*
X82700D02*
X83700D01*
X79900D02*
X81400D01*
X75200D02*
X77100D01*
X71600D02*
X73600D01*
X67600D02*
X69300D01*
X62900D02*
X63900D01*
X134900Y195700D02*
X138700D01*
X125400D02*
X128900D01*
X119700D02*
X121500D01*
X116200D02*
X117300D01*
X111100D02*
X112800D01*
X107800D02*
X108900D01*
X103100D02*
X105000D01*
X99200D02*
X100300D01*
X94800D02*
X95900D01*
X90200D02*
X91300D01*
X85400D02*
X86500D01*
X82700D02*
X83700D01*
X79800D02*
X81200D01*
X75500D02*
X77200D01*
X71500D02*
X73300D01*
X67500D02*
X69300D01*
X62900D02*
X63900D01*
X135100Y195600D02*
X138700D01*
X125400D02*
X128900D01*
X119900D02*
X121500D01*
X116200D02*
X117000D01*
X111000D02*
X112900D01*
X107800D02*
X108900D01*
X103100D02*
X105100D01*
X99300D02*
X100300D01*
X94800D02*
X95900D01*
X90200D02*
X91300D01*
X85400D02*
X86500D01*
X82700D02*
X83700D01*
X79800D02*
X81100D01*
X77400D02*
X77500D01*
X75700D02*
X77300D01*
X71400D02*
X73200D01*
X67400D02*
X69300D01*
X67200D02*
X67300D01*
X62900D02*
X63900D01*
X135200Y195500D02*
X138700D01*
X125400D02*
X128900D01*
X120100D02*
X121600D01*
X116200D02*
X116800D01*
X111000D02*
X112900D01*
X107800D02*
X108900D01*
X103000D02*
X105100D01*
X99300D02*
X100400D01*
X94800D02*
X95900D01*
X90200D02*
X91300D01*
X85400D02*
X86500D01*
X82700D02*
X83700D01*
X79800D02*
X81200D01*
X75900D02*
X77400D01*
X71400D02*
X72900D01*
X71100D02*
X71200D01*
X67300D02*
X69300D01*
X62900D02*
X63900D01*
X135400Y195400D02*
X138700D01*
X125400D02*
X128900D01*
X120200D02*
X121700D01*
X116700D02*
X116800D01*
X116200D02*
X116600D01*
X110800D02*
X112900D01*
X107700D02*
X108800D01*
X103000D02*
X105100D01*
X99300D02*
X100400D01*
X94800D02*
X95900D01*
X90200D02*
X91300D01*
X85400D02*
X86500D01*
X82700D02*
X83700D01*
X79700D02*
X80900D01*
X76000D02*
X77500D01*
X71300D02*
X72800D01*
X71100D02*
X71200D01*
X67300D02*
X69300D01*
X62900D02*
X63900D01*
X135500Y195300D02*
X138700D01*
X125400D02*
X128900D01*
X120400D02*
X121800D01*
X116200D02*
X116400D01*
X110900D02*
X113000D01*
X107700D02*
X108800D01*
X103000D02*
X105200D01*
X99400D02*
X100600D01*
X94800D02*
X95900D01*
X90200D02*
X91300D01*
X85400D02*
X86500D01*
X82700D02*
X83700D01*
X79700D02*
X80800D01*
X76100D02*
X77500D01*
X71100D02*
X72600D01*
X67200D02*
X69300D01*
X62900D02*
X63900D01*
X135600Y195200D02*
X138700D01*
X125400D02*
X128900D01*
X120500D02*
X121800D01*
X110800D02*
X113000D01*
X107700D02*
X108700D01*
X105300D02*
X105400D01*
X104100D02*
X105200D01*
X102900D02*
X104000D01*
X99400D02*
X100500D01*
X94800D02*
X95900D01*
X90200D02*
X91300D01*
X85400D02*
X86500D01*
X82700D02*
X83700D01*
X79700D02*
X80800D01*
X76200D02*
X77600D01*
X71200D02*
X72500D01*
X67100D02*
X69300D01*
X62900D02*
X63900D01*
X135800Y195100D02*
X138700D01*
X135500D02*
X135700D01*
X125400D02*
X128900D01*
X120600D02*
X121900D01*
X112000D02*
X113200D01*
X110800D02*
X111900D01*
X110600D02*
X110700D01*
X107600D02*
X108700D01*
X104200D02*
X105400D01*
X102900D02*
X104000D01*
X99500D02*
X100500D01*
X94800D02*
X95900D01*
X90200D02*
X91300D01*
X85400D02*
X86500D01*
X82700D02*
X83700D01*
X79700D02*
X80800D01*
X76400D02*
X77600D01*
X71100D02*
X72400D01*
X67000D02*
X69300D01*
X62900D02*
X63900D01*
X135900Y195000D02*
X138700D01*
X125400D02*
X128900D01*
X120700D02*
X121900D01*
X112000D02*
X113100D01*
X110700D02*
X111900D01*
X107600D02*
X108700D01*
X104100D02*
X105300D01*
X102800D02*
X103900D01*
X99500D02*
X100600D01*
X94800D02*
X95900D01*
X90200D02*
X91300D01*
X85400D02*
X86500D01*
X82700D02*
X83700D01*
X79700D02*
X80800D01*
X76400D02*
X77700D01*
X71000D02*
X72300D01*
X66900D02*
X69300D01*
X62900D02*
X63900D01*
X136000Y194900D02*
X138700D01*
X125400D02*
X128900D01*
X120800D02*
X122000D01*
X112100D02*
X113200D01*
X110700D02*
X111800D01*
X107400D02*
X108600D01*
X104300D02*
X105300D01*
X102800D02*
X103900D01*
X99600D02*
X100600D01*
X94800D02*
X95900D01*
X90200D02*
X91300D01*
X85400D02*
X86500D01*
X82700D02*
X83700D01*
X79700D02*
X80800D01*
X76500D02*
X77900D01*
X71000D02*
X72300D01*
X68300D02*
X69300D01*
X66800D02*
X68200D01*
X62900D02*
X63900D01*
X136100Y194800D02*
X138700D01*
X125400D02*
X128900D01*
X120800D02*
X122000D01*
X112100D02*
X113200D01*
X110500D02*
X111800D01*
X107500D02*
X108600D01*
X105500D02*
X105600D01*
X104300D02*
X105400D01*
X102800D02*
X103900D01*
X99600D02*
X100700D01*
X94800D02*
X95900D01*
X90200D02*
X91300D01*
X85400D02*
X86500D01*
X82700D02*
X83700D01*
X79700D02*
X80800D01*
X76600D02*
X77800D01*
X71000D02*
X72200D01*
X68300D02*
X69300D01*
X66700D02*
X68100D01*
X62900D02*
X63900D01*
X136200Y194700D02*
X138700D01*
X125400D02*
X128900D01*
X120900D02*
X122100D01*
X112200D02*
X113400D01*
X110500D02*
X111700D01*
X107500D02*
X108500D01*
X104300D02*
X105400D01*
X102700D02*
X103800D01*
X99600D02*
X100700D01*
X94800D02*
X95900D01*
X90200D02*
X91300D01*
X85400D02*
X86500D01*
X82700D02*
X83700D01*
X79700D02*
X80800D01*
X76600D02*
X77900D01*
X70900D02*
X72100D01*
X68300D02*
X69300D01*
X66600D02*
X68000D01*
X66400D02*
X66500D01*
X62900D02*
X63900D01*
X136300Y194600D02*
X138700D01*
X125400D02*
X128900D01*
X120900D02*
X122100D01*
X112200D02*
X113300D01*
X110600D02*
X111700D01*
X107400D02*
X108500D01*
X104400D02*
X105500D01*
X102700D02*
X103800D01*
X99700D02*
X100700D01*
X94800D02*
X95900D01*
X90200D02*
X91300D01*
X85400D02*
X86500D01*
X82700D02*
X83700D01*
X79700D02*
X80800D01*
X76700D02*
X77900D01*
X70900D02*
X72200D01*
X68300D02*
X69300D01*
X68100D02*
X68200D01*
X66600D02*
X67900D01*
X62900D02*
X63900D01*
X136400Y194500D02*
X138700D01*
X125400D02*
X128900D01*
X121000D02*
X122200D01*
X112100D02*
X113300D01*
X110500D02*
X111700D01*
X107400D02*
X108500D01*
X104400D02*
X105500D01*
X102600D02*
X103700D01*
X99700D02*
X100800D01*
X94800D02*
X95900D01*
X90200D02*
X91300D01*
X85400D02*
X86500D01*
X82700D02*
X83700D01*
X79700D02*
X80800D01*
X76700D02*
X77900D01*
X70700D02*
X72000D01*
X68300D02*
X69300D01*
X67900D02*
X68000D01*
X66500D02*
X67800D01*
X62900D02*
X63900D01*
X136500Y194400D02*
X138700D01*
X125400D02*
X128900D01*
X121000D02*
X122200D01*
X112300D02*
X113400D01*
X110500D02*
X111600D01*
X107200D02*
X108500D01*
X104500D02*
X105500D01*
X102600D02*
X103700D01*
X99800D02*
X100800D01*
X94800D02*
X95900D01*
X90200D02*
X91300D01*
X85400D02*
X86500D01*
X82700D02*
X83700D01*
X79700D02*
X80900D01*
X76800D02*
X78000D01*
X70800D02*
X72000D01*
X68300D02*
X69300D01*
X66400D02*
X67700D01*
X62900D02*
X63900D01*
X136600Y194300D02*
X138700D01*
X131200D02*
X131300D01*
X125400D02*
X128900D01*
X121100D02*
X122200D01*
X112300D02*
X113400D01*
X110400D02*
X111600D01*
X107300D02*
X108400D01*
X104500D02*
X105600D01*
X102600D02*
X103700D01*
X99800D02*
X100900D01*
X94800D02*
X95900D01*
X90200D02*
X91300D01*
X85400D02*
X86500D01*
X82700D02*
X83700D01*
X79700D02*
X80900D01*
X76800D02*
X78000D01*
X70800D02*
X71900D01*
X68300D02*
X69300D01*
X66300D02*
X67700D01*
X62900D02*
X63900D01*
X136700Y194200D02*
X138700D01*
X136500D02*
X136600D01*
X129100D02*
X130500D01*
X125400D02*
X128900D01*
X121100D02*
X122300D01*
X112400D02*
X113500D01*
X110400D02*
X111500D01*
X107300D02*
X108300D01*
X104500D02*
X105600D01*
X102500D02*
X103600D01*
X99800D02*
X100900D01*
X94800D02*
X95900D01*
X90200D02*
X91300D01*
X85400D02*
X86500D01*
X82700D02*
X83700D01*
X79800D02*
X81000D01*
X76900D02*
X78000D01*
X70700D02*
X71900D01*
X68300D02*
X69300D01*
X67700D02*
X67800D01*
X66200D02*
X67600D01*
X62900D02*
X63900D01*
X136700Y194100D02*
X138700D01*
X125400D02*
X131800D01*
X121200D02*
X122300D01*
X112400D02*
X113500D01*
X112200D02*
X112300D01*
X110300D02*
X111500D01*
X110100D02*
X110200D01*
X107200D02*
X108300D01*
X104600D02*
X105700D01*
X102500D02*
X103700D01*
X99900D02*
X100900D01*
X94800D02*
X95900D01*
X90200D02*
X91300D01*
X85400D02*
X86500D01*
X82700D02*
X83700D01*
X79800D02*
X81100D01*
X76900D02*
X78000D01*
X70700D02*
X71900D01*
X68300D02*
X69300D01*
X66100D02*
X67500D01*
X62900D02*
X63900D01*
X136800Y194000D02*
X138700D01*
X125400D02*
X132300D01*
X121200D02*
X122300D01*
X112400D02*
X113500D01*
X110300D02*
X111400D01*
X107200D02*
X108200D01*
X104600D02*
X105700D01*
X102400D02*
X103500D01*
X99900D02*
X101000D01*
X99700D02*
X99800D01*
X94800D02*
X95900D01*
X90200D02*
X91300D01*
X85400D02*
X86500D01*
X82700D02*
X83700D01*
X79900D02*
X81300D01*
X76900D02*
X78100D01*
X70700D02*
X71800D01*
X68300D02*
X69300D01*
X66000D02*
X67400D01*
X62900D02*
X63900D01*
X136900Y193900D02*
X138700D01*
X133200D02*
X133400D01*
X125400D02*
X132800D01*
X121200D02*
X122300D01*
X112500D02*
X113600D01*
X110300D02*
X111500D01*
X107100D02*
X108200D01*
X104700D02*
X105700D01*
X102400D02*
X103500D01*
X100000D02*
X101000D01*
X94800D02*
X95900D01*
X90200D02*
X91300D01*
X90000D02*
X90100D01*
X85400D02*
X86600D01*
X82700D02*
X83700D01*
X79900D02*
X81500D01*
X76900D02*
X78100D01*
X70700D02*
X71800D01*
X68300D02*
X69300D01*
X65900D02*
X67300D01*
X62900D02*
X63900D01*
X136900Y193800D02*
X138700D01*
X125400D02*
X133300D01*
X121200D02*
X122300D01*
X112400D02*
X113600D01*
X110200D02*
X111500D01*
X107100D02*
X108200D01*
X104700D02*
X105800D01*
X102400D02*
X103500D01*
X100000D02*
X101100D01*
X94800D02*
X95900D01*
X85400D02*
X91300D01*
X80000D02*
X83700D01*
X77000D02*
X78100D01*
X70700D02*
X71800D01*
X68300D02*
X69300D01*
X65900D02*
X67200D01*
X62900D02*
X63900D01*
X137000Y193700D02*
X138700D01*
X125400D02*
X133600D01*
X121200D02*
X122400D01*
X112600D02*
X113700D01*
X110200D02*
X111300D01*
X107100D02*
X108100D01*
X104800D02*
X105800D01*
X102300D02*
X103400D01*
X100000D02*
X101100D01*
X94800D02*
X95900D01*
X85400D02*
X91300D01*
X80100D02*
X83700D01*
X77000D02*
X78100D01*
X70700D02*
X71800D01*
X68300D02*
X69300D01*
X65800D02*
X67100D01*
X62900D02*
X63900D01*
X137100Y193600D02*
X138700D01*
X125400D02*
X134000D01*
X121300D02*
X122400D01*
X112600D02*
X113700D01*
X110100D02*
X111300D01*
X107000D02*
X108100D01*
X104800D02*
X105900D01*
X102300D02*
X103500D01*
X100100D02*
X101100D01*
X94800D02*
X95900D01*
X85400D02*
X91300D01*
X80100D02*
X83700D01*
X77000D02*
X78100D01*
X70700D02*
X71800D01*
X68300D02*
X69300D01*
X67100D02*
X67200D01*
X65700D02*
X67000D01*
X62900D02*
X63900D01*
X137100Y193500D02*
X138700D01*
X125400D02*
X134200D01*
X121300D02*
X122400D01*
X112700D02*
X113800D01*
X110100D02*
X111200D01*
X107000D02*
X108100D01*
X104800D02*
X105900D01*
X102200D02*
X103400D01*
X100100D02*
X101200D01*
X94800D02*
X95900D01*
X85400D02*
X91300D01*
X80200D02*
X83700D01*
X77000D02*
X78100D01*
X70600D02*
X71800D01*
X68300D02*
X69300D01*
X65600D02*
X67000D01*
X62900D02*
X63900D01*
X137200Y193400D02*
X138700D01*
X134600D02*
X134700D01*
X125400D02*
X134500D01*
X121300D02*
X122400D01*
X112700D02*
X113800D01*
X110000D02*
X111200D01*
X106900D02*
X108000D01*
X104900D02*
X106000D01*
X102200D02*
X103300D01*
X100200D02*
X101200D01*
X94800D02*
X95900D01*
X85400D02*
X91300D01*
X80400D02*
X83700D01*
X77000D02*
X78100D01*
X70600D02*
X71800D01*
X68300D02*
X69300D01*
X65500D02*
X66900D01*
X62900D02*
X63900D01*
X137200Y193300D02*
X138700D01*
X134900D02*
X135000D01*
X125400D02*
X134700D01*
X121300D02*
X122400D01*
X112800D02*
X113900D01*
X110000D02*
X111100D01*
X106900D02*
X108000D01*
X104900D02*
X106000D01*
X102200D02*
X103300D01*
X100200D02*
X101300D01*
X94800D02*
X95900D01*
X85400D02*
X91300D01*
X80500D02*
X83700D01*
X77000D02*
X78100D01*
X70600D02*
X71800D01*
X68300D02*
X69300D01*
X65400D02*
X66800D01*
X62900D02*
X63900D01*
X137200Y193200D02*
X138700D01*
X137000D02*
X137100D01*
X125400D02*
X135000D01*
X121300D02*
X122400D01*
X112800D02*
X113900D01*
X110000D02*
X111100D01*
X106900D02*
X107900D01*
X105000D02*
X106000D01*
X104800D02*
X104900D01*
X103300D02*
X103400D01*
X102100D02*
X103200D01*
X100200D02*
X101300D01*
X94800D02*
X95900D01*
X85400D02*
X91300D01*
X80700D02*
X83700D01*
X77000D02*
X78100D01*
X70600D02*
X71800D01*
X68300D02*
X69300D01*
X65300D02*
X66700D01*
X62900D02*
X63900D01*
X137300Y193100D02*
X138700D01*
X125400D02*
X135200D01*
X121300D02*
X122400D01*
X112700D02*
X113900D01*
X109900D02*
X111000D01*
X108000D02*
X108100D01*
X106800D02*
X107900D01*
X105000D02*
X106100D01*
X102100D02*
X103300D01*
X100300D02*
X101300D01*
X94800D02*
X95900D01*
X85400D02*
X91300D01*
X80700D02*
X83700D01*
X80400D02*
X80500D01*
X77000D02*
X78100D01*
X70700D02*
X71900D01*
X68300D02*
X69300D01*
X65200D02*
X66600D01*
X62900D02*
X63900D01*
X137300Y193000D02*
X138700D01*
X125400D02*
X135300D01*
X121200D02*
X122400D01*
X112900D02*
X114100D01*
X109800D02*
X111000D01*
X106800D02*
X107800D01*
X106200D02*
X106300D01*
X105000D02*
X106100D01*
X103200D02*
X103300D01*
X102000D02*
X103100D01*
X100300D02*
X101400D01*
X94800D02*
X95900D01*
X85400D02*
X91300D01*
X80500D02*
X83700D01*
X77000D02*
X78100D01*
X70700D02*
X71800D01*
X68300D02*
X69300D01*
X65200D02*
X66500D01*
X62900D02*
X63900D01*
X137300Y192900D02*
X138700D01*
X125400D02*
X135500D01*
X121200D02*
X122400D01*
X112900D02*
X114000D01*
X109800D02*
X110900D01*
X106700D02*
X107800D01*
X105100D02*
X106300D01*
X102000D02*
X103100D01*
X100400D02*
X101400D01*
X94800D02*
X95900D01*
X85400D02*
X91300D01*
X80400D02*
X83700D01*
X77000D02*
X78100D01*
X70700D02*
X71800D01*
X68300D02*
X69300D01*
X66500D02*
X66600D01*
X65100D02*
X66400D01*
X62900D02*
X63900D01*
X137400Y192800D02*
X138700D01*
X125400D02*
X135700D01*
X121200D02*
X122300D01*
X109800D02*
X114100D01*
X106700D02*
X107800D01*
X105100D02*
X106200D01*
X101900D02*
X103100D01*
X100400D02*
X101500D01*
X94800D02*
X95900D01*
X90200D02*
X91300D01*
X85400D02*
X86500D01*
X82700D02*
X83700D01*
X80300D02*
X81900D01*
X76900D02*
X78100D01*
X70700D02*
X71800D01*
X68300D02*
X69300D01*
X65000D02*
X66300D01*
X62900D02*
X63900D01*
X137400Y192700D02*
X138700D01*
X125400D02*
X135900D01*
X121200D02*
X122300D01*
X109700D02*
X114100D01*
X106500D02*
X107700D01*
X106300D02*
X106400D01*
X105200D02*
X106200D01*
X101900D02*
X103000D01*
X100500D02*
X101600D01*
X94800D02*
X95900D01*
X90200D02*
X91300D01*
X85400D02*
X86500D01*
X82700D02*
X83700D01*
X80100D02*
X81700D01*
X76900D02*
X78100D01*
X70700D02*
X71800D01*
X68300D02*
X69300D01*
X64900D02*
X66300D01*
X62900D02*
X63900D01*
X137400Y192600D02*
X138700D01*
X136200D02*
X136300D01*
X125400D02*
X136000D01*
X121200D02*
X122300D01*
X109700D02*
X114100D01*
X106600D02*
X107700D01*
X105200D02*
X106400D01*
X101900D02*
X103000D01*
X100500D02*
X101500D01*
X94800D02*
X95900D01*
X90200D02*
X91300D01*
X85400D02*
X86500D01*
X82700D02*
X83700D01*
X80200D02*
X81600D01*
X76900D02*
X78000D01*
X70700D02*
X71900D01*
X68300D02*
X69300D01*
X64800D02*
X66200D01*
X62900D02*
X63900D01*
X137500Y192500D02*
X138700D01*
X125400D02*
X136100D01*
X121100D02*
X122300D01*
X109600D02*
X114200D01*
X106600D02*
X107600D01*
X105200D02*
X106300D01*
X101800D02*
X102900D01*
X100500D02*
X101600D01*
X94800D02*
X95900D01*
X90200D02*
X91300D01*
X85400D02*
X86500D01*
X82700D02*
X83700D01*
X80100D02*
X81400D01*
X76900D02*
X78000D01*
X70800D02*
X71900D01*
X68300D02*
X69300D01*
X64700D02*
X66100D01*
X62900D02*
X63900D01*
X137500Y192400D02*
X138600D01*
X125400D02*
X136300D01*
X121100D02*
X122300D01*
X109600D02*
X114200D01*
X106500D02*
X107600D01*
X105300D02*
X106300D01*
X101800D02*
X102900D01*
X100600D02*
X101600D01*
X94800D02*
X95900D01*
X90200D02*
X91300D01*
X85400D02*
X86500D01*
X82700D02*
X83700D01*
X80000D02*
X81300D01*
X76800D02*
X78000D01*
X70800D02*
X71900D01*
X68300D02*
X69300D01*
X64600D02*
X66000D01*
X62900D02*
X63900D01*
X137500Y192300D02*
X138600D01*
X125400D02*
X136400D01*
X121100D02*
X122200D01*
X109500D02*
X114300D01*
X106500D02*
X107600D01*
X105200D02*
X106400D01*
X101800D02*
X102900D01*
X100500D02*
X101700D01*
X94800D02*
X95900D01*
X90200D02*
X91300D01*
X85400D02*
X86500D01*
X82700D02*
X83700D01*
X79900D02*
X81200D01*
X76800D02*
X78000D01*
X70800D02*
X72000D01*
X68300D02*
X69300D01*
X64500D02*
X65900D01*
X62900D02*
X63900D01*
X137500Y192200D02*
X138500D01*
X125400D02*
X136500D01*
X121000D02*
X122200D01*
X109500D02*
X114300D01*
X105300D02*
X107500D01*
X100700D02*
X102800D01*
X94800D02*
X95900D01*
X90200D02*
X91300D01*
X85400D02*
X86500D01*
X82700D02*
X83700D01*
X79900D02*
X81100D01*
X76700D02*
X77900D01*
X70800D02*
X72000D01*
X68300D02*
X69300D01*
X64500D02*
X65800D01*
X62900D02*
X63900D01*
X137500Y192100D02*
X138500D01*
X125400D02*
X136600D01*
X121000D02*
X122100D01*
X109500D02*
X114500D01*
X105400D02*
X107500D01*
X100700D02*
X102800D01*
X100500D02*
X100600D01*
X94800D02*
X95900D01*
X90200D02*
X91300D01*
X85400D02*
X86500D01*
X82700D02*
X83700D01*
X79800D02*
X81100D01*
X76700D02*
X77900D01*
X70900D02*
X72100D01*
X68300D02*
X69300D01*
X64400D02*
X65700D01*
X62900D02*
X63900D01*
X137500Y192000D02*
X138400D01*
X125400D02*
X136700D01*
X120900D02*
X122100D01*
X109400D02*
X114400D01*
X105400D02*
X107500D01*
X100700D02*
X102800D01*
X94800D02*
X95900D01*
X90200D02*
X91300D01*
X85400D02*
X86500D01*
X82700D02*
X83700D01*
X81100D02*
X81200D01*
X79700D02*
X81000D01*
X76600D02*
X77900D01*
X70900D02*
X72100D01*
X68300D02*
X69300D01*
X64300D02*
X65700D01*
X62900D02*
X63900D01*
X137500Y191900D02*
X138400D01*
X125400D02*
X136800D01*
X120800D02*
X122100D01*
X109400D02*
X114500D01*
X105500D02*
X107400D01*
X105300D02*
X105400D01*
X100800D02*
X102800D01*
X100600D02*
X100700D01*
X94800D02*
X95900D01*
X90200D02*
X91300D01*
X85400D02*
X86500D01*
X82700D02*
X83700D01*
X81200D02*
X81300D01*
X79700D02*
X80900D01*
X76600D02*
X77800D01*
X71000D02*
X72200D01*
X68300D02*
X69300D01*
X64200D02*
X65600D01*
X62900D02*
X63900D01*
X138400Y191800D02*
X138500D01*
X137500D02*
X138300D01*
X125400D02*
X136900D01*
X120800D02*
X122000D01*
X113400D02*
X114600D01*
X109300D02*
X110400D01*
X105400D02*
X107400D01*
X100800D02*
X102600D01*
X94800D02*
X95900D01*
X90200D02*
X91300D01*
X85400D02*
X86500D01*
X82700D02*
X83700D01*
X79600D02*
X80800D01*
X76500D02*
X77800D01*
X72500D02*
X72600D01*
X71000D02*
X72300D01*
X68300D02*
X69300D01*
X64100D02*
X65500D01*
X62900D02*
X63900D01*
X137500Y191700D02*
X138300D01*
X125400D02*
X137000D01*
X120700D02*
X122000D01*
X120500D02*
X120600D01*
X116100D02*
X116200D01*
X114600D02*
X114700D01*
X113400D02*
X114500D01*
X109300D02*
X110400D01*
X105600D02*
X107300D01*
X105400D02*
X105500D01*
X100900D02*
X102600D01*
X94800D02*
X95900D01*
X90200D02*
X91300D01*
X85400D02*
X86500D01*
X82700D02*
X83700D01*
X79500D02*
X80800D01*
X76400D02*
X77700D01*
X71100D02*
X72300D01*
X68300D02*
X69300D01*
X64000D02*
X65400D01*
X62900D02*
X63900D01*
X138300Y191600D02*
X138400D01*
X137500D02*
X138200D01*
X125400D02*
X137100D01*
X120600D02*
X121900D01*
X113500D02*
X114700D01*
X109200D02*
X110300D01*
X105600D02*
X107300D01*
X100900D02*
X102600D01*
X94800D02*
X95900D01*
X90200D02*
X91300D01*
X85400D02*
X86500D01*
X82700D02*
X83700D01*
X79500D02*
X80700D01*
X76300D02*
X77600D01*
X71100D02*
X72400D01*
X68300D02*
X69300D01*
X62900D02*
X65300D01*
X137500Y191500D02*
X138200D01*
X125400D02*
X137200D01*
X120500D02*
X121900D01*
X116100D02*
X116300D01*
X113500D02*
X114600D01*
X109200D02*
X110300D01*
X105600D02*
X107300D01*
X100900D02*
X102500D01*
X94800D02*
X95900D01*
X90200D02*
X91300D01*
X85400D02*
X86500D01*
X82700D02*
X83700D01*
X79400D02*
X80600D01*
X76200D02*
X77600D01*
X71200D02*
X72500D01*
X68300D02*
X69300D01*
X62900D02*
X65200D01*
X137500Y191400D02*
X138100D01*
X125400D02*
X137300D01*
X120400D02*
X121800D01*
X119500D02*
X119600D01*
X116100D02*
X116400D01*
X113600D02*
X114700D01*
X109100D02*
X110400D01*
X105700D02*
X107200D01*
X101000D02*
X102500D01*
X94800D02*
X95900D01*
X90200D02*
X91300D01*
X85400D02*
X86500D01*
X82700D02*
X83700D01*
X79300D02*
X80600D01*
X76100D02*
X77500D01*
X71100D02*
X72600D01*
X68300D02*
X69300D01*
X62900D02*
X65100D01*
X137500Y191300D02*
X138000D01*
X125400D02*
X137400D01*
X120200D02*
X121700D01*
X116100D02*
X116600D01*
X113600D02*
X114700D01*
X109100D02*
X110200D01*
X108900D02*
X109000D01*
X105700D02*
X107200D01*
X101000D02*
X102500D01*
X94800D02*
X95900D01*
X90200D02*
X91300D01*
X85400D02*
X86500D01*
X82700D02*
X83700D01*
X79300D02*
X80500D01*
X76000D02*
X77500D01*
X71300D02*
X72800D01*
X71100D02*
X71200D01*
X68300D02*
X69300D01*
X62900D02*
X65000D01*
X137500Y191200D02*
X138000D01*
X125400D02*
X137400D01*
X121800D02*
X121900D01*
X120100D02*
X121700D01*
X119900D02*
X120000D01*
X116900D02*
X117100D01*
X116100D02*
X116800D01*
X113500D02*
X114700D01*
X109100D02*
X110200D01*
X108900D02*
X109000D01*
X105800D02*
X107100D01*
X101100D02*
X102400D01*
X94800D02*
X95900D01*
X90200D02*
X91300D01*
X85400D02*
X86500D01*
X82700D02*
X83700D01*
X79200D02*
X80400D01*
X75900D02*
X77400D01*
X71400D02*
X72900D01*
X68300D02*
X69300D01*
X62900D02*
X65000D01*
X125400Y191100D02*
X137900D01*
X119900D02*
X121600D01*
X116100D02*
X117000D01*
X113700D02*
X114800D01*
X108900D02*
X110100D01*
X105800D02*
X107100D01*
X101100D02*
X102500D01*
X94800D02*
X95900D01*
X90200D02*
X91300D01*
X85400D02*
X86500D01*
X82700D02*
X83700D01*
X79200D02*
X80400D01*
X75700D02*
X77300D01*
X71400D02*
X73100D01*
X68300D02*
X69300D01*
X62900D02*
X64900D01*
X125400Y191000D02*
X137800D01*
X119700D02*
X121500D01*
X116100D02*
X117300D01*
X113600D02*
X114800D01*
X109000D02*
X110100D01*
X105800D02*
X107000D01*
X102400D02*
X102500D01*
X101100D02*
X102300D01*
X94800D02*
X95900D01*
X90200D02*
X91300D01*
X85400D02*
X86500D01*
X82700D02*
X83700D01*
X79100D02*
X80300D01*
X75400D02*
X77200D01*
X73500D02*
X73600D01*
X71500D02*
X73300D01*
X68300D02*
X69300D01*
X62900D02*
X64800D01*
X125400Y190900D02*
X137700D01*
X119400D02*
X121400D01*
X119100D02*
X119200D01*
X116100D02*
X117700D01*
X113800D02*
X114900D01*
X113600D02*
X113700D01*
X108800D02*
X110000D01*
X105900D02*
X107000D01*
X101200D02*
X102300D01*
X94800D02*
X95900D01*
X90200D02*
X91300D01*
X85400D02*
X86500D01*
X82700D02*
X83700D01*
X80300D02*
X80400D01*
X79000D02*
X80200D01*
X75200D02*
X77100D01*
X71600D02*
X73600D01*
X68300D02*
X69300D01*
X62900D02*
X64700D01*
X125400Y190800D02*
X137600D01*
X118700D02*
X121300D01*
X116100D02*
X118500D01*
X113800D02*
X114900D01*
X113600D02*
X113700D01*
X108900D02*
X110000D01*
X105900D02*
X107000D01*
X101200D02*
X102400D01*
X94800D02*
X95900D01*
X90200D02*
X91300D01*
X85400D02*
X86500D01*
X82700D02*
X83700D01*
X79000D02*
X80200D01*
X74500D02*
X77000D01*
X71700D02*
X74300D01*
X68300D02*
X69300D01*
X62900D02*
X64600D01*
X125400Y190700D02*
X137500D01*
X116100D02*
X121200D01*
X113900D02*
X115000D01*
X108800D02*
X109900D01*
X106000D02*
X106900D01*
X102300D02*
X102400D01*
X101300D02*
X102200D01*
X94800D02*
X95900D01*
X90200D02*
X91300D01*
X85400D02*
X86500D01*
X82700D02*
X83700D01*
X78900D02*
X80100D01*
X71800D02*
X76900D01*
X68300D02*
X69300D01*
X62900D02*
X64500D01*
X125400Y190600D02*
X137400D01*
X121200D02*
X121300D01*
X116100D02*
X121100D01*
X113900D02*
X115000D01*
X108800D02*
X109900D01*
X107300D02*
X107400D01*
X105900D02*
X106900D01*
X101300D02*
X102200D01*
X94800D02*
X95900D01*
X90200D02*
X91300D01*
X85400D02*
X86500D01*
X82700D02*
X83700D01*
X78800D02*
X80100D01*
X71900D02*
X76800D01*
X68300D02*
X69300D01*
X64700D02*
X64800D01*
X62900D02*
X64400D01*
X125400Y190500D02*
X137400D01*
X116100D02*
X120900D01*
X113900D02*
X115000D01*
X108700D02*
X109800D01*
X106100D02*
X106800D01*
X101300D02*
X102100D01*
X94800D02*
X95900D01*
X90200D02*
X91300D01*
X85400D02*
X86500D01*
X82700D02*
X83700D01*
X78800D02*
X80000D01*
X72100D02*
X76700D01*
X68300D02*
X69300D01*
X62900D02*
X64300D01*
X125400Y190400D02*
X137200D01*
X116100D02*
X120800D01*
X114000D02*
X115100D01*
X108700D02*
X109800D01*
X106100D02*
X106800D01*
X101400D02*
X102100D01*
X94800D02*
X95900D01*
X90200D02*
X91300D01*
X85400D02*
X86500D01*
X82700D02*
X83700D01*
X78700D02*
X79900D01*
X72200D02*
X76500D01*
X68300D02*
X69300D01*
X62900D02*
X64300D01*
X125400Y190300D02*
X137100D01*
X116300D02*
X120600D01*
X116100D02*
X116200D01*
X113900D02*
X115100D01*
X108700D02*
X109900D01*
X106100D02*
X106800D01*
X101400D02*
X102100D01*
X94800D02*
X95900D01*
X90200D02*
X91300D01*
X85400D02*
X86500D01*
X82700D02*
X83700D01*
X78600D02*
X79900D01*
X72400D02*
X76400D01*
X72100D02*
X72200D01*
X68300D02*
X69300D01*
X62900D02*
X64200D01*
X125400Y190200D02*
X137100D01*
X116600D02*
X120400D01*
X114100D02*
X115200D01*
X108600D02*
X109700D01*
X108400D02*
X108500D01*
X106200D02*
X106700D01*
X101500D02*
X102000D01*
X94800D02*
X95900D01*
X90200D02*
X91300D01*
X85400D02*
X86500D01*
X82700D02*
X83700D01*
X78500D02*
X79800D01*
X72600D02*
X76200D01*
X68300D02*
X69300D01*
X62900D02*
X64100D01*
X125400Y190100D02*
X136900D01*
X116800D02*
X120200D01*
X114100D02*
X115200D01*
X108400D02*
X109700D01*
X106200D02*
X106700D01*
X101500D02*
X102000D01*
X94800D02*
X95900D01*
X90200D02*
X91300D01*
X85400D02*
X86500D01*
X82700D02*
X83700D01*
X78500D02*
X79700D01*
X72800D02*
X76000D01*
X68300D02*
X69400D01*
X62900D02*
X64000D01*
X138600Y190000D02*
X138700D01*
X125400D02*
X136800D01*
X117100D02*
X120000D01*
X114200D02*
X115300D01*
X108500D02*
X109600D01*
X106300D02*
X106600D01*
X101500D02*
X101900D01*
X94800D02*
X95900D01*
X90200D02*
X91300D01*
X85400D02*
X86500D01*
X82700D02*
X83700D01*
X78400D02*
X79700D01*
X73100D02*
X75700D01*
X68300D02*
X69400D01*
X62900D02*
X63900D01*
X138900Y189900D02*
X139000D01*
X138500D02*
X138700D01*
X125400D02*
X136600D01*
X119900D02*
X120000D01*
X117500D02*
X119600D01*
X114200D02*
X115200D01*
X108500D02*
X109500D01*
X106300D02*
X106600D01*
X101600D02*
X101900D01*
X95700D02*
X95800D01*
X94900D02*
X95000D01*
X90200D02*
X91200D01*
X85400D02*
X86400D01*
X82700D02*
X83700D01*
X78400D02*
X79600D01*
X75900D02*
X76000D01*
X73400D02*
X75400D01*
X68400D02*
X69300D01*
X63000D02*
X63800D01*
X138500Y189800D02*
X138700D01*
X125400D02*
X136500D01*
X118200D02*
X119000D01*
X108600D02*
X108700D01*
X90400D02*
X90500D01*
X90200D02*
X90300D01*
X86400D02*
X86500D01*
X86100D02*
X86200D01*
X79600D02*
X79700D01*
X79200D02*
X79300D01*
X74100D02*
X74600D01*
X63100D02*
X63200D01*
X62900D02*
X63000D01*
X138500Y189700D02*
X138700D01*
X125400D02*
X136300D01*
X138400Y189600D02*
X138700D01*
X125400D02*
X136100D01*
X138400Y189500D02*
X138700D01*
X136100D02*
X136200D01*
X125400D02*
X136000D01*
X138400Y189400D02*
X138700D01*
X125400D02*
X135800D01*
X138300Y189300D02*
X138700D01*
X136300D02*
X136400D01*
X125400D02*
X135600D01*
X138300Y189200D02*
X138700D01*
X125400D02*
X135400D01*
X138200Y189100D02*
X138700D01*
X125400D02*
X135200D01*
X138200Y189000D02*
X138700D01*
X135000D02*
X135100D01*
X125400D02*
X134900D01*
X138100Y188900D02*
X138700D01*
X125400D02*
X134700D01*
X138100Y188800D02*
X138700D01*
X137800D02*
X137900D01*
X125400D02*
X134400D01*
X138000Y188700D02*
X138700D01*
X125400D02*
X134100D01*
X138000Y188600D02*
X138700D01*
X125400D02*
X133800D01*
X137900Y188500D02*
X138700D01*
X125400D02*
X133500D01*
X137900Y188400D02*
X138700D01*
X125400D02*
X133000D01*
X137800Y188300D02*
X138700D01*
X125700D02*
X132500D01*
X137800Y188200D02*
X138700D01*
X132400D02*
X132500D01*
X126700D02*
X131700D01*
X137700Y188100D02*
X138700D01*
X128100D02*
X130400D01*
X137600Y188000D02*
X138700D01*
X131700D02*
X131800D01*
X137600Y187900D02*
X138700D01*
X137400D02*
X137500D01*
Y187800D02*
X138700D01*
X137400Y187700D02*
X138700D01*
X137300Y187600D02*
X138700D01*
X137300Y187500D02*
X138700D01*
X137200Y187400D02*
X138700D01*
X137000D02*
X137100D01*
Y187300D02*
X138700D01*
X137000Y187200D02*
X138700D01*
X137000Y187100D02*
X138700D01*
X136800D02*
X136900D01*
Y187000D02*
X138700D01*
X136800Y186900D02*
X138700D01*
X136700Y186800D02*
X138700D01*
X136500D02*
X136600D01*
Y186700D02*
X138700D01*
X136500Y186600D02*
X138700D01*
X122000D02*
X122100D01*
X117300D02*
X117400D01*
X115400D02*
X115700D01*
X105300D02*
X105400D01*
X96800D02*
X96900D01*
X136400Y186500D02*
X138700D01*
X121500D02*
X122100D01*
X120100D02*
X120600D01*
X119900D02*
X120000D01*
X117400D02*
X117900D01*
X114900D02*
X116000D01*
X114700D02*
X114800D01*
X111300D02*
X114200D01*
X110100D02*
X110700D01*
X106500D02*
X109500D01*
X105400D02*
X106000D01*
X103000D02*
X103600D01*
X99600D02*
X102500D01*
X96900D02*
X98900D01*
X136300Y186400D02*
X138700D01*
X121500D02*
X122100D01*
X120000D02*
X120600D01*
X117400D02*
X117900D01*
X114700D02*
X116100D01*
X111300D02*
X114200D01*
X110100D02*
X110700D01*
X106500D02*
X109500D01*
X105400D02*
X106000D01*
X103000D02*
X103600D01*
X99600D02*
X102500D01*
X96900D02*
X98900D01*
X136200Y186300D02*
X138700D01*
X121400D02*
X122100D01*
X119900D02*
X120600D01*
X117400D02*
X117900D01*
X114600D02*
X116300D01*
X111300D02*
X114200D01*
X110100D02*
X110800D01*
X106500D02*
X109500D01*
X105400D02*
X106000D01*
X103000D02*
X103600D01*
X99600D02*
X102500D01*
X96900D02*
X98900D01*
X136100Y186200D02*
X138700D01*
X121500D02*
X122100D01*
X119900D02*
X120600D01*
X119700D02*
X119800D01*
X117400D02*
X117900D01*
X114600D02*
X116500D01*
X111300D02*
X114200D01*
X110100D02*
X110700D01*
X106500D02*
X109600D01*
X105400D02*
X106000D01*
X103000D02*
X103600D01*
X99600D02*
X102500D01*
X96900D02*
X98900D01*
X136000Y186100D02*
X138700D01*
X121500D02*
X122100D01*
X119800D02*
X120600D01*
X119600D02*
X119700D01*
X117400D02*
X117900D01*
X114600D02*
X116400D01*
X111300D02*
X114300D01*
X110100D02*
X110700D01*
X106500D02*
X109500D01*
X105400D02*
X106000D01*
X103000D02*
X103600D01*
X99600D02*
X102500D01*
X96900D02*
X98900D01*
X135900Y186000D02*
X138700D01*
X121500D02*
X122100D01*
X119700D02*
X120600D01*
X117400D02*
X117900D01*
X115800D02*
X116500D01*
X114600D02*
X115200D01*
X114200D02*
X114300D01*
X112500D02*
X113100D01*
X111300D02*
X111400D01*
X110100D02*
X110700D01*
X107700D02*
X108300D01*
X105400D02*
X106000D01*
X103000D02*
X103600D01*
X100700D02*
X101300D01*
X98300D02*
X98900D01*
X135800Y185900D02*
X138700D01*
X121500D02*
X122100D01*
X119600D02*
X120600D01*
X117400D02*
X117900D01*
X115900D02*
X116500D01*
X115700D02*
X115800D01*
X114600D02*
X114900D01*
X112500D02*
X113100D01*
X110100D02*
X110700D01*
X107700D02*
X108300D01*
X105400D02*
X106000D01*
X103000D02*
X103600D01*
X100700D02*
X101300D01*
X98300D02*
X98900D01*
X135700Y185800D02*
X138700D01*
X121500D02*
X122100D01*
X119500D02*
X120600D01*
X119200D02*
X119300D01*
X117400D02*
X117900D01*
X116000D02*
X116500D01*
X114600D02*
X114800D01*
X112500D02*
X113100D01*
X110100D02*
X110700D01*
X107700D02*
X108300D01*
X105400D02*
X106000D01*
X103000D02*
X103600D01*
X100700D02*
X101300D01*
X98300D02*
X98900D01*
X135600Y185700D02*
X138700D01*
X121500D02*
X122100D01*
X119400D02*
X120600D01*
X117400D02*
X117900D01*
X116000D02*
X116500D01*
X112500D02*
X113100D01*
X110100D02*
X110700D01*
X107700D02*
X108300D01*
X105400D02*
X106000D01*
X103000D02*
X103600D01*
X100700D02*
X101300D01*
X98300D02*
X98900D01*
X135400Y185600D02*
X138700D01*
X135200D02*
X135300D01*
X121500D02*
X122100D01*
X120100D02*
X120600D01*
X119300D02*
X120000D01*
X117400D02*
X117900D01*
X116000D02*
X116500D01*
X112500D02*
X113100D01*
X110100D02*
X110700D01*
X107700D02*
X108300D01*
X105400D02*
X106000D01*
X103000D02*
X103600D01*
X100700D02*
X101300D01*
X98300D02*
X98900D01*
X135300Y185500D02*
X138700D01*
X121500D02*
X122100D01*
X120100D02*
X120600D01*
X119200D02*
X120000D01*
X117400D02*
X117900D01*
X115900D02*
X116500D01*
X112500D02*
X113100D01*
X110100D02*
X110700D01*
X107700D02*
X108300D01*
X105400D02*
X106000D01*
X103000D02*
X103600D01*
X100700D02*
X101300D01*
X98300D02*
X98900D01*
X135100Y185400D02*
X138700D01*
X121500D02*
X122100D01*
X120100D02*
X120600D01*
X119100D02*
X119900D01*
X117400D02*
X117900D01*
X115800D02*
X116500D01*
X115600D02*
X115700D01*
X112500D02*
X113100D01*
X110100D02*
X110700D01*
X107700D02*
X108300D01*
X105400D02*
X106000D01*
X103000D02*
X103600D01*
X100700D02*
X101300D01*
X98300D02*
X98900D01*
X135000Y185300D02*
X138700D01*
X121500D02*
X122100D01*
X120100D02*
X120600D01*
X119100D02*
X119800D01*
X117400D02*
X117900D01*
X115700D02*
X116500D01*
X112500D02*
X113100D01*
X110100D02*
X110700D01*
X107700D02*
X108300D01*
X105400D02*
X106000D01*
X103000D02*
X103600D01*
X100700D02*
X101300D01*
X98300D02*
X98900D01*
X134900Y185200D02*
X138700D01*
X134400D02*
X134500D01*
X121500D02*
X122100D01*
X120100D02*
X120600D01*
X119000D02*
X119700D01*
X117400D02*
X117900D01*
X115500D02*
X116400D01*
X115300D02*
X115400D01*
X112500D02*
X113100D01*
X110100D02*
X110700D01*
X107700D02*
X108300D01*
X105400D02*
X106000D01*
X103000D02*
X103600D01*
X100700D02*
X101300D01*
X98300D02*
X98900D01*
X134700Y185100D02*
X138700D01*
X134400D02*
X134500D01*
X121500D02*
X122100D01*
X120100D02*
X120600D01*
X118900D02*
X119600D01*
X117400D02*
X117900D01*
X115400D02*
X116300D01*
X112500D02*
X113100D01*
X110100D02*
X110700D01*
X107700D02*
X108300D01*
X105400D02*
X106000D01*
X103000D02*
X103600D01*
X100700D02*
X101300D01*
X98300D02*
X98900D01*
X134500Y185000D02*
X138700D01*
X121500D02*
X122100D01*
X120100D02*
X120600D01*
X118800D02*
X119500D01*
X117400D02*
X117900D01*
X116300D02*
X116400D01*
X115200D02*
X116200D01*
X112500D02*
X113100D01*
X110100D02*
X110700D01*
X107700D02*
X108300D01*
X105400D02*
X106000D01*
X103000D02*
X103600D01*
X100700D02*
X101300D01*
X96900D02*
X98900D01*
X134400Y184900D02*
X138700D01*
X134200D02*
X134300D01*
X121500D02*
X122100D01*
X120100D02*
X120600D01*
X118700D02*
X119400D01*
X117400D02*
X117900D01*
X115000D02*
X116100D01*
X112500D02*
X113100D01*
X110100D02*
X110700D01*
X107700D02*
X108300D01*
X105400D02*
X106000D01*
X103000D02*
X103600D01*
X100700D02*
X101300D01*
X96900D02*
X98900D01*
X134200Y184800D02*
X138700D01*
X121500D02*
X122100D01*
X120100D02*
X120600D01*
X118600D02*
X119400D01*
X117400D02*
X117900D01*
X114900D02*
X116000D01*
X112500D02*
X113100D01*
X110100D02*
X110700D01*
X107700D02*
X108300D01*
X105400D02*
X106000D01*
X103000D02*
X103600D01*
X100700D02*
X101300D01*
X96900D02*
X98900D01*
X134000Y184700D02*
X138700D01*
X121500D02*
X122100D01*
X120100D02*
X120600D01*
X118500D02*
X119300D01*
X117400D02*
X117900D01*
X114800D02*
X115800D01*
X112500D02*
X113100D01*
X110100D02*
X110700D01*
X107700D02*
X108300D01*
X105400D02*
X106000D01*
X103000D02*
X103600D01*
X100700D02*
X101300D01*
X96900D02*
X98900D01*
X133800Y184600D02*
X138700D01*
X121500D02*
X122100D01*
X120100D02*
X120600D01*
X118400D02*
X119200D01*
X117400D02*
X117900D01*
X114700D02*
X115700D01*
X112500D02*
X113100D01*
X110100D02*
X110700D01*
X107700D02*
X108300D01*
X105400D02*
X106000D01*
X103000D02*
X103600D01*
X100700D02*
X101300D01*
X97000D02*
X98900D01*
X133600Y184500D02*
X138700D01*
X133100D02*
X133200D01*
X121500D02*
X122100D01*
X120100D02*
X120600D01*
X118400D02*
X119100D01*
X117400D02*
X117900D01*
X114600D02*
X115500D01*
X112500D02*
X113100D01*
X110100D02*
X110700D01*
X107700D02*
X108300D01*
X105400D02*
X106000D01*
X103000D02*
X103600D01*
X100700D02*
X101300D01*
X98300D02*
X98900D01*
X133400Y184400D02*
X138700D01*
X121500D02*
X122100D01*
X120100D02*
X120600D01*
X118300D02*
X119000D01*
X118100D02*
X118200D01*
X117400D02*
X117900D01*
X114600D02*
X115400D01*
X112500D02*
X113100D01*
X110100D02*
X110700D01*
X107700D02*
X108300D01*
X105400D02*
X106000D01*
X103000D02*
X103600D01*
X100700D02*
X101300D01*
X98300D02*
X98900D01*
X133200Y184300D02*
X138700D01*
X121500D02*
X122100D01*
X120100D02*
X120600D01*
X118200D02*
X118900D01*
X117400D02*
X117900D01*
X114500D02*
X115200D01*
X112500D02*
X113100D01*
X110100D02*
X110700D01*
X107700D02*
X108300D01*
X105400D02*
X106000D01*
X103000D02*
X103600D01*
X100700D02*
X101300D01*
X98300D02*
X98900D01*
X132900Y184200D02*
X138700D01*
X121500D02*
X122100D01*
X120100D02*
X120600D01*
X118100D02*
X118800D01*
X117400D02*
X117900D01*
X114500D02*
X115200D01*
X112500D02*
X113100D01*
X110100D02*
X110700D01*
X107700D02*
X108300D01*
X105400D02*
X106000D01*
X103700D02*
X103800D01*
X103000D02*
X103600D01*
X100700D02*
X101300D01*
X98300D02*
X98900D01*
X132700Y184100D02*
X138700D01*
X121500D02*
X122100D01*
X120100D02*
X120600D01*
X118000D02*
X118800D01*
X117400D02*
X117900D01*
X114500D02*
X115100D01*
X112500D02*
X113100D01*
X110100D02*
X110700D01*
X107700D02*
X108300D01*
X105400D02*
X106000D01*
X103000D02*
X103600D01*
X100700D02*
X101300D01*
X98300D02*
X98900D01*
X132500Y184000D02*
X138700D01*
X121500D02*
X122100D01*
X120100D02*
X120600D01*
X117400D02*
X118700D01*
X114500D02*
X115100D01*
X112500D02*
X113100D01*
X110100D02*
X110700D01*
X107700D02*
X108300D01*
X105400D02*
X106000D01*
X103000D02*
X103600D01*
X100700D02*
X101300D01*
X98300D02*
X98900D01*
X132200Y183900D02*
X138700D01*
X121500D02*
X122100D01*
X120100D02*
X120600D01*
X117400D02*
X118600D01*
X116300D02*
X116500D01*
X114500D02*
X115100D01*
X112500D02*
X113100D01*
X110100D02*
X110700D01*
X107700D02*
X108300D01*
X105300D02*
X106000D01*
X105000D02*
X105100D01*
X103100D02*
X103700D01*
X100700D02*
X101300D01*
X98300D02*
X98900D01*
X131900Y183800D02*
X138700D01*
X121500D02*
X122100D01*
X120100D02*
X120600D01*
X117400D02*
X118500D01*
X116200D02*
X116500D01*
X114500D02*
X115100D01*
X112500D02*
X113100D01*
X110100D02*
X110700D01*
X107700D02*
X108300D01*
X105200D02*
X105900D01*
X105000D02*
X105100D01*
X103100D02*
X103800D01*
X100700D02*
X101300D01*
X98300D02*
X98900D01*
X131600Y183700D02*
X138700D01*
X121500D02*
X122100D01*
X120100D02*
X120600D01*
X117400D02*
X118400D01*
X116100D02*
X116500D01*
X114500D02*
X115100D01*
X112500D02*
X113100D01*
X110100D02*
X110700D01*
X107700D02*
X108300D01*
X105100D02*
X105900D01*
X103100D02*
X103900D01*
X100700D02*
X101300D01*
X98300D02*
X98900D01*
X131300Y183600D02*
X138700D01*
X121500D02*
X122100D01*
X120100D02*
X120600D01*
X117400D02*
X118300D01*
X115900D02*
X116500D01*
X114600D02*
X115300D01*
X112500D02*
X113100D01*
X110100D02*
X110700D01*
X107700D02*
X108300D01*
X104900D02*
X105800D01*
X103200D02*
X104200D01*
X100700D02*
X101300D01*
X98300D02*
X98900D01*
X130900Y183500D02*
X138700D01*
X121500D02*
X122100D01*
X120100D02*
X120600D01*
X117400D02*
X118200D01*
X114600D02*
X116500D01*
X112500D02*
X113100D01*
X110100D02*
X110700D01*
X107700D02*
X108300D01*
X103300D02*
X105700D01*
X100700D02*
X101300D01*
X96800D02*
X98900D01*
X130500Y183400D02*
X138700D01*
X121500D02*
X122100D01*
X120100D02*
X120600D01*
X117400D02*
X118100D01*
X114700D02*
X116500D01*
X114300D02*
X114400D01*
X112500D02*
X113100D01*
X110100D02*
X110700D01*
X107700D02*
X108300D01*
X103400D02*
X105600D01*
X100700D02*
X101300D01*
X96800D02*
X98900D01*
X130100Y183300D02*
X138700D01*
X121500D02*
X122100D01*
X120100D02*
X120600D01*
X117400D02*
X118100D01*
X114800D02*
X116500D01*
X112500D02*
X113100D01*
X110100D02*
X110700D01*
X107700D02*
X108300D01*
X105600D02*
X105700D01*
X103500D02*
X105500D01*
X100700D02*
X101300D01*
X96800D02*
X98900D01*
X129700Y183200D02*
X138700D01*
X121500D02*
X122100D01*
X120100D02*
X120600D01*
X117400D02*
X118000D01*
X114900D02*
X116300D01*
X112500D02*
X113100D01*
X110100D02*
X110700D01*
X107700D02*
X108300D01*
X103600D02*
X105400D01*
X100700D02*
X101300D01*
X96800D02*
X98900D01*
X129400Y183100D02*
X138700D01*
X121500D02*
X122100D01*
X120100D02*
X120600D01*
X117400D02*
X117900D01*
X116200D02*
X116400D01*
X115000D02*
X116100D01*
X114800D02*
X114900D01*
X112500D02*
X113100D01*
X110100D02*
X110700D01*
X107700D02*
X108300D01*
X103800D02*
X105200D01*
X103600D02*
X103700D01*
X100700D02*
X101300D01*
X96800D02*
X98900D01*
X122000Y183000D02*
X122100D01*
X115500D02*
X115600D01*
X115000D02*
X115100D01*
X110000D02*
X110100D01*
X104400D02*
X104600D01*
X103900D02*
X104000D01*
X101200D02*
X101300D01*
X138500Y182900D02*
X138600D01*
X121600D02*
X121700D01*
X100800D02*
X100900D01*
X96900D02*
X97000D01*
X103800Y182800D02*
X103900D01*
D20*
X118781Y234602D02*
X119781Y235601D01*
X121780D01*
X122780Y234602D01*
Y230603D01*
X121780Y229603D01*
X119781D01*
X118781Y230603D01*
X115782Y233602D02*
X113783D01*
X112783Y232602D01*
Y229603D01*
X115782D01*
X116782Y230603D01*
X115782Y231603D01*
X112783D01*
X110784Y233602D02*
Y230603D01*
X109784Y229603D01*
X108785Y230603D01*
X107785Y229603D01*
X106785Y230603D01*
Y233602D01*
X103786Y234602D02*
Y233602D01*
X104786D01*
X102787D01*
X103786D01*
Y230603D01*
X102787Y229603D01*
X99788Y235601D02*
Y229603D01*
Y232602D01*
X98788Y233602D01*
X96789D01*
X95789Y232602D01*
Y229603D01*
X93789Y233602D02*
Y229603D01*
Y231603D01*
X92790Y232602D01*
X91790Y233602D01*
X90790D01*
X86792Y229603D02*
X84792D01*
X83793Y230603D01*
Y232602D01*
X84792Y233602D01*
X86792D01*
X87791Y232602D01*
Y230603D01*
X86792Y229603D01*
X81793D02*
Y233602D01*
X78794D01*
X77795Y232602D01*
Y229603D01*
X123780Y226042D02*
X121780D01*
X122780D01*
Y220043D01*
X123780D01*
X121780D01*
X118781D02*
Y224042D01*
X115782D01*
X114783Y223042D01*
Y220043D01*
X112783D02*
X109784D01*
X108785Y221043D01*
X109784Y222043D01*
X111784D01*
X112783Y223042D01*
X111784Y224042D01*
X108785D01*
X105786Y225042D02*
Y224042D01*
X106785D01*
X104786D01*
X105786D01*
Y221043D01*
X104786Y220043D01*
X101787D02*
X99788D01*
X100787D01*
Y224042D01*
X101787D01*
X95789Y225042D02*
Y224042D01*
X96789D01*
X94789D01*
X95789D01*
Y221043D01*
X94789Y220043D01*
X91790Y224042D02*
Y221043D01*
X90790Y220043D01*
X87791D01*
Y224042D01*
X84792Y225042D02*
Y224042D01*
X85792D01*
X83793D01*
X84792D01*
Y221043D01*
X83793Y220043D01*
X77795D02*
X79794D01*
X80794Y221043D01*
Y223042D01*
X79794Y224042D01*
X77795D01*
X76795Y223042D01*
Y222043D01*
X80794D01*
X127778Y216482D02*
Y210484D01*
X124779D01*
X123780Y211483D01*
Y215482D01*
X124779Y216482D01*
X127778D01*
X120781Y214482D02*
X118781D01*
X117782Y213483D01*
Y210484D01*
X120781D01*
X121780Y211483D01*
X120781Y212483D01*
X117782D01*
X114783Y215482D02*
Y214482D01*
X115782D01*
X113783D01*
X114783D01*
Y211483D01*
X113783Y210484D01*
X109784Y214482D02*
X107785D01*
X106785Y213483D01*
Y210484D01*
X109784D01*
X110784Y211483D01*
X109784Y212483D01*
X106785D01*
X104786Y210484D02*
X102787D01*
X103786D01*
Y216482D01*
X104786D01*
X98788Y210484D02*
X96789D01*
X95789Y211483D01*
Y213483D01*
X96789Y214482D01*
X98788D01*
X99788Y213483D01*
Y211483D01*
X98788Y210484D01*
X91790Y208484D02*
X90790D01*
X89791Y209484D01*
Y214482D01*
X92790D01*
X93789Y213483D01*
Y211483D01*
X92790Y210484D01*
X89791D01*
X85792Y208484D02*
X84792D01*
X83793Y209484D01*
Y214482D01*
X86792D01*
X87791Y213483D01*
Y211483D01*
X86792Y210484D01*
X83793D01*
X78794D02*
X80794D01*
X81793Y211483D01*
Y213483D01*
X80794Y214482D01*
X78794D01*
X77795Y213483D01*
Y212483D01*
X81793D01*
X75795Y214482D02*
Y210484D01*
Y212483D01*
X74796Y213483D01*
X73796Y214482D01*
X72796D01*
M02*
