G04 Layer_Color=65535*
%FSLAX25Y25*%
%MOIN*%
G70*
G01*
G75*
%ADD11C,0.01000*%
%ADD18C,0.00787*%
D11*
X18500Y68000D02*
X23500D01*
X18500Y63000D02*
X23500Y68000D01*
X18500Y63000D02*
Y68000D01*
X8500Y70500D02*
X183500D01*
Y30500D02*
Y70500D01*
X8500Y30500D02*
X183500D01*
X8500D02*
Y70500D01*
X147000Y161000D02*
X159500D01*
X39500D02*
X51500D01*
X39500Y84000D02*
Y238000D01*
X42500Y241000D01*
X157000D01*
X159500Y238500D01*
Y84500D02*
Y238500D01*
X157000Y82000D02*
X159500Y84500D01*
X41500Y82000D02*
X157000D01*
X39500Y84000D02*
X41500Y82000D01*
X49500Y238500D02*
X57000D01*
X49500Y231000D02*
X57000Y238500D01*
X49500Y231000D02*
Y238500D01*
X19500Y113000D02*
Y118998D01*
X22499D01*
X23499Y117998D01*
Y115999D01*
X22499Y114999D01*
X19500D01*
X25498Y113000D02*
X27497D01*
X26498D01*
Y118998D01*
X25498Y117998D01*
X19100Y184400D02*
Y190398D01*
X22099D01*
X23099Y189398D01*
Y187399D01*
X22099Y186399D01*
X19100D01*
X29097Y184400D02*
X25098D01*
X29097Y188399D01*
Y189398D01*
X28097Y190398D01*
X26098D01*
X25098Y189398D01*
X111000Y8500D02*
Y14498D01*
X113999D01*
X114999Y13498D01*
Y11499D01*
X113999Y10499D01*
X111000D01*
X116998Y13498D02*
X117998Y14498D01*
X119997D01*
X120997Y13498D01*
Y12499D01*
X119997Y11499D01*
X118997D01*
X119997D01*
X120997Y10499D01*
Y9500D01*
X119997Y8500D01*
X117998D01*
X116998Y9500D01*
X43949Y245450D02*
Y249448D01*
X42949Y250448D01*
X40950D01*
X39950Y249448D01*
Y245450D01*
X40950Y244450D01*
X42949D01*
X41949Y246449D02*
X43949Y244450D01*
X42949D02*
X43949Y245450D01*
X45948Y244450D02*
X47947D01*
X46948D01*
Y250448D01*
X45948Y249448D01*
X12953Y75000D02*
Y78998D01*
X11953Y79998D01*
X9954D01*
X8954Y78998D01*
Y75000D01*
X9954Y74000D01*
X11953D01*
X10954Y75999D02*
X12953Y74000D01*
X11953D02*
X12953Y75000D01*
X18951Y74000D02*
X14952D01*
X18951Y77999D01*
Y78998D01*
X17951Y79998D01*
X15952D01*
X14952Y78998D01*
X13999Y108500D02*
Y104501D01*
Y97500D02*
Y93501D01*
X15998Y95501D02*
X12000D01*
X12000Y176500D02*
Y175188D01*
Y175844D01*
X15936D01*
X15280Y176500D01*
X15936Y163000D02*
X12000D01*
Y161032D01*
X12656Y160376D01*
X15280D01*
X15936Y161032D01*
Y163000D01*
X15280Y156440D02*
X15936Y157096D01*
Y158408D01*
X15280Y159064D01*
X14624D01*
X13968Y158408D01*
Y157096D01*
X13312Y156440D01*
X12656D01*
X12000Y157096D01*
Y158408D01*
X12656Y159064D01*
X15280Y155129D02*
X15936Y154473D01*
Y153161D01*
X15280Y152505D01*
X14624D01*
X13968Y153161D01*
Y153817D01*
Y153161D01*
X13312Y152505D01*
X12656D01*
X12000Y153161D01*
Y154473D01*
X12656Y155129D01*
X12000Y148569D02*
Y151193D01*
X14624Y148569D01*
X15280D01*
X15936Y149225D01*
Y150537D01*
X15280Y151193D01*
Y147257D02*
X15936Y146601D01*
Y145289D01*
X15280Y144633D01*
X14624D01*
X13968Y145289D01*
Y145945D01*
Y145289D01*
X13312Y144633D01*
X12656D01*
X12000Y145289D01*
Y146601D01*
X12656Y147257D01*
X12000Y143321D02*
Y142009D01*
Y142665D01*
X15936D01*
X15280Y143321D01*
X12000Y140041D02*
X15936D01*
X14624Y138730D01*
X15936Y137418D01*
X12000D01*
X89000Y25998D02*
Y20000D01*
X91999D01*
X92999Y21000D01*
Y21999D01*
X91999Y22999D01*
X89000D01*
X91999D01*
X92999Y23999D01*
Y24998D01*
X91999Y25998D01*
X89000D01*
X100996Y20000D02*
Y23999D01*
X102996Y25998D01*
X104995Y23999D01*
Y20000D01*
Y22999D01*
X100996D01*
X173036Y249964D02*
G03*
X164500Y253500I-8535J-8535D01*
G01*
X195500Y222500D02*
G03*
X191964Y231035I-12071J0D01*
G01*
Y19465D02*
G03*
X195500Y28000I-8535J8535D01*
G01*
X167500Y0D02*
G03*
X176035Y3536I0J12071D01*
G01*
X19465D02*
G03*
X28000Y0I8535J8535D01*
G01*
X0Y28000D02*
G03*
X3536Y19465I12071J0D01*
G01*
Y238035D02*
G03*
X0Y229500I8535J-8535D01*
G01*
X24000Y253500D02*
G03*
X15464Y249964I0J-12071D01*
G01*
X92000Y253500D02*
X164500D01*
X173036Y249964D02*
X191964Y231035D01*
X195500Y28000D02*
Y222500D01*
X176035Y3536D02*
X191964Y19465D01*
X28000Y0D02*
X167500D01*
X3536Y19465D02*
X19465Y3536D01*
X0Y28000D02*
Y229500D01*
X3536Y238035D02*
X15464Y249964D01*
X24000Y253500D02*
X92000D01*
D18*
X18500Y121000D02*
Y181000D01*
X28500Y121000D02*
Y181000D01*
X18500D02*
X28500D01*
X18500Y121000D02*
X28500D01*
Y91047D02*
Y111047D01*
X18500D02*
X28500D01*
X18500Y91047D02*
Y111047D01*
Y91047D02*
X28500D01*
X86500Y16500D02*
X106500D01*
X86500Y6500D02*
Y16500D01*
Y6500D02*
X106500D01*
Y16500D01*
M02*
