G04 Layer_Color=255*
%FSLAX25Y25*%
%MOIN*%
G70*
G01*
G75*
%ADD10R,0.06299X0.04724*%
G04:AMPARAMS|DCode=11|XSize=141.73mil|YSize=62.99mil|CornerRadius=7.87mil|HoleSize=0mil|Usage=FLASHONLY|Rotation=270.000|XOffset=0mil|YOffset=0mil|HoleType=Round|Shape=RoundedRectangle|*
%AMROUNDEDRECTD11*
21,1,0.14173,0.04724,0,0,270.0*
21,1,0.12598,0.06299,0,0,270.0*
1,1,0.01575,-0.02362,-0.06299*
1,1,0.01575,-0.02362,0.06299*
1,1,0.01575,0.02362,0.06299*
1,1,0.01575,0.02362,-0.06299*
%
%ADD11ROUNDEDRECTD11*%
%ADD12R,0.05512X0.04331*%
%ADD14C,0.01000*%
%ADD15R,0.05905X0.05905*%
%ADD16C,0.05905*%
%ADD17C,0.06000*%
%ADD18R,0.06000X0.06000*%
%ADD19R,0.05905X0.05905*%
D10*
X165602Y183157D02*
D03*
X153004D02*
D03*
D11*
X190500Y210228D02*
D03*
Y187000D02*
D03*
D12*
X215000Y190243D02*
D03*
Y182369D02*
D03*
D14*
X360035Y343464D02*
G03*
X351500Y347000I-8535J-8535D01*
G01*
X367000Y331500D02*
G03*
X363464Y340036I-12071J0D01*
G01*
Y105965D02*
G03*
X367000Y114500I-8535J8535D01*
G01*
X357515Y103500D02*
G03*
X363464Y105965I0J8414D01*
G01*
X146965Y107036D02*
G03*
X155500Y103500I8535J8535D01*
G01*
X145000Y111778D02*
G03*
X146965Y107036I6707J0D01*
G01*
X148536Y337035D02*
G03*
X145000Y328500I8535J-8535D01*
G01*
X163500Y347000D02*
G03*
X154964Y343464I0J-12071D01*
G01*
X281000Y347000D02*
X351500D01*
X360035Y343464D02*
X363464Y340036D01*
X367000Y114500D02*
Y331500D01*
X155500Y103500D02*
X357515D01*
X145000Y111778D02*
Y319500D01*
Y328500D01*
X148536Y337035D02*
X154964Y343464D01*
X163500Y347000D02*
X281000D01*
D15*
X216653Y270953D02*
D03*
X154848Y215000D02*
D03*
D16*
X216653Y260953D02*
D03*
Y250953D02*
D03*
Y240953D02*
D03*
Y230953D02*
D03*
Y220953D02*
D03*
X154848Y205000D02*
D03*
X257000Y111000D02*
D03*
D17*
X342000Y133000D02*
D03*
Y143000D02*
D03*
Y153000D02*
D03*
Y163000D02*
D03*
X176646Y153000D02*
D03*
Y143000D02*
D03*
Y133000D02*
D03*
X231646Y181000D02*
D03*
Y191000D02*
D03*
Y201000D02*
D03*
Y211000D02*
D03*
Y221000D02*
D03*
Y231000D02*
D03*
Y241000D02*
D03*
Y251000D02*
D03*
Y261000D02*
D03*
Y271000D02*
D03*
Y281000D02*
D03*
Y291000D02*
D03*
Y301000D02*
D03*
Y311000D02*
D03*
Y321000D02*
D03*
Y331000D02*
D03*
X241646Y181000D02*
D03*
X251646D02*
D03*
X261646D02*
D03*
X271646D02*
D03*
X281646D02*
D03*
X291646D02*
D03*
X301646D02*
D03*
X311646D02*
D03*
X321646D02*
D03*
X331646D02*
D03*
X341646D02*
D03*
Y191000D02*
D03*
Y201000D02*
D03*
Y211000D02*
D03*
Y221000D02*
D03*
Y231000D02*
D03*
Y241000D02*
D03*
Y251000D02*
D03*
Y261000D02*
D03*
Y271000D02*
D03*
Y281000D02*
D03*
Y291000D02*
D03*
Y301000D02*
D03*
Y311000D02*
D03*
Y321000D02*
D03*
Y331000D02*
D03*
X157480Y118110D02*
D03*
X358268D02*
D03*
X157480Y322835D02*
D03*
X358268D02*
D03*
D18*
X176646Y163000D02*
D03*
D19*
X247000Y111000D02*
D03*
M02*
