G04 Layer_Color=65535*
%FSLAX25Y25*%
%MOIN*%
G70*
G01*
G75*
%ADD14C,0.01000*%
%ADD21C,0.00787*%
%ADD22C,0.00394*%
%ADD23C,0.00600*%
D14*
X171646Y128000D02*
Y168000D01*
Y128000D02*
X346646D01*
Y168000D01*
X171646D02*
X346646D01*
X181646Y160500D02*
Y165500D01*
Y160500D02*
X186646Y165500D01*
X181646D02*
X186646D01*
X236646Y326000D02*
Y333500D01*
Y326000D02*
X244146Y333500D01*
X236646D02*
X244146D01*
X226646Y179000D02*
X228646Y177000D01*
X344146D01*
X346646Y179500D01*
Y333500D01*
X344146Y336000D02*
X346646Y333500D01*
X229646Y336000D02*
X344146D01*
X226646Y333000D02*
X229646Y336000D01*
X226646Y179000D02*
Y333000D01*
Y256000D02*
X238646D01*
X334146D02*
X346646D01*
X176144Y172500D02*
Y176498D01*
X175145Y177498D01*
X173145D01*
X172146Y176498D01*
Y172500D01*
X173145Y171500D01*
X175145D01*
X174145Y173499D02*
X176144Y171500D01*
X175145D02*
X176144Y172500D01*
X182142Y171500D02*
X178144D01*
X182142Y175499D01*
Y176498D01*
X181143Y177498D01*
X179143D01*
X178144Y176498D01*
X219499Y329000D02*
Y332998D01*
X218499Y333998D01*
X216500D01*
X215500Y332998D01*
Y329000D01*
X216500Y328000D01*
X218499D01*
X217499Y329999D02*
X219499Y328000D01*
X218499D02*
X219499Y329000D01*
X221498Y328000D02*
X223497D01*
X222498D01*
Y333998D01*
X221498Y332998D01*
X268500Y108000D02*
Y113998D01*
X271499D01*
X272499Y112998D01*
Y110999D01*
X271499Y109999D01*
X268500D01*
X274498Y112998D02*
X275498Y113998D01*
X277497D01*
X278497Y112998D01*
Y111999D01*
X277497Y110999D01*
X276497D01*
X277497D01*
X278497Y109999D01*
Y109000D01*
X277497Y108000D01*
X275498D01*
X274498Y109000D01*
X212253Y279353D02*
Y285351D01*
X215253D01*
X216252Y284351D01*
Y282352D01*
X215253Y281352D01*
X212253D01*
X222250Y279353D02*
X218252D01*
X222250Y283351D01*
Y284351D01*
X221251Y285351D01*
X219251D01*
X218252Y284351D01*
X150448Y223400D02*
Y229398D01*
X153447D01*
X154447Y228398D01*
Y226399D01*
X153447Y225399D01*
X150448D01*
X156446Y223400D02*
X158446D01*
X157446D01*
Y229398D01*
X156446Y228398D01*
X150500Y196255D02*
Y190257D01*
X153499D01*
X154499Y191256D01*
Y195255D01*
X153499Y196255D01*
X150500D01*
X156498Y190257D02*
X158497D01*
X157498D01*
Y196255D01*
X156498Y195255D01*
X215499Y176498D02*
X214499Y177498D01*
X212500D01*
X211500Y176498D01*
Y172500D01*
X212500Y171500D01*
X214499D01*
X215499Y172500D01*
X221497Y171500D02*
X217498D01*
X221497Y175499D01*
Y176498D01*
X220497Y177498D01*
X218498D01*
X217498Y176498D01*
X178799Y225698D02*
X177799Y226698D01*
X175800D01*
X174800Y225698D01*
Y221700D01*
X175800Y220700D01*
X177799D01*
X178799Y221700D01*
X180798Y220700D02*
X182797D01*
X181798D01*
Y226698D01*
X180798Y225698D01*
X244000Y124498D02*
Y118500D01*
X246999D01*
X247999Y119500D01*
Y120499D01*
X246999Y121499D01*
X244000D01*
X246999D01*
X247999Y122499D01*
Y123498D01*
X246999Y124498D01*
X244000D01*
X255996Y118500D02*
Y122499D01*
X257996Y124498D01*
X259995Y122499D01*
Y118500D01*
Y121499D01*
X255996D01*
X165999Y218000D02*
Y214001D01*
Y206004D02*
Y202005D01*
X167998Y204005D02*
X164000D01*
X209498Y264000D02*
X203500D01*
Y261001D01*
X204500Y260001D01*
X208498D01*
X209498Y261001D01*
Y264000D01*
X208498Y254003D02*
X209498Y255003D01*
Y257002D01*
X208498Y258002D01*
X207499D01*
X206499Y257002D01*
Y255003D01*
X205499Y254003D01*
X204500D01*
X203500Y255003D01*
Y257002D01*
X204500Y258002D01*
X208498Y252004D02*
X209498Y251004D01*
Y249005D01*
X208498Y248005D01*
X207499D01*
X206499Y249005D01*
Y250005D01*
Y249005D01*
X205499Y248005D01*
X204500D01*
X203500Y249005D01*
Y251004D01*
X204500Y252004D01*
X203500Y242007D02*
Y246006D01*
X207499Y242007D01*
X208498D01*
X209498Y243007D01*
Y245006D01*
X208498Y246006D01*
Y240008D02*
X209498Y239008D01*
Y237009D01*
X208498Y236009D01*
X207499D01*
X206499Y237009D01*
Y238008D01*
Y237009D01*
X205499Y236009D01*
X204500D01*
X203500Y237009D01*
Y239008D01*
X204500Y240008D01*
X203500Y234010D02*
Y232010D01*
Y233010D01*
X209498D01*
X208498Y234010D01*
X203500Y229011D02*
X209498D01*
X207499Y227012D01*
X209498Y225013D01*
X203500D01*
X205000Y272500D02*
Y271188D01*
Y271844D01*
X208936D01*
X208280Y272500D01*
X360035Y343464D02*
G03*
X351500Y347000I-8535J-8535D01*
G01*
X367000Y331500D02*
G03*
X363464Y340036I-12071J0D01*
G01*
Y105965D02*
G03*
X367000Y114500I-8535J8535D01*
G01*
X357515Y103500D02*
G03*
X363464Y105965I0J8414D01*
G01*
X146965Y107036D02*
G03*
X155500Y103500I8535J8535D01*
G01*
X145000Y111778D02*
G03*
X146965Y107036I6707J0D01*
G01*
X148536Y337035D02*
G03*
X145000Y328500I8535J-8535D01*
G01*
X163500Y347000D02*
G03*
X154964Y343464I0J-12071D01*
G01*
X281000Y347000D02*
X351500D01*
X360035Y343464D02*
X363464Y340036D01*
X367000Y114500D02*
Y331500D01*
X155500Y103500D02*
X357515D01*
X145000Y111778D02*
Y319500D01*
Y328500D01*
X148536Y337035D02*
X154964Y343464D01*
X163500Y347000D02*
X281000D01*
D21*
X211653Y215953D02*
X221654D01*
X211653Y275953D02*
X221654D01*
Y215953D02*
Y275953D01*
X211653Y215953D02*
Y275953D01*
X149848Y200000D02*
X159848D01*
X149848D02*
Y220000D01*
X159848D01*
Y200000D02*
Y220000D01*
X196405Y182276D02*
X201327D01*
X179673D02*
X184595D01*
X196405Y214953D02*
X206839D01*
X174161D02*
X184595D01*
X174161Y187787D02*
Y214953D01*
Y187787D02*
X179673Y182276D01*
X206839Y187787D02*
Y214953D01*
X201327Y182276D02*
X206839Y187787D01*
X262000Y106000D02*
Y116000D01*
X242000Y106000D02*
X262000D01*
X242000D02*
Y116000D01*
X262000D01*
D22*
X153595Y187094D02*
X165405D01*
Y186306D02*
Y187094D01*
X153595Y186306D02*
Y187094D01*
Y179220D02*
Y180007D01*
Y179220D02*
X165405D01*
Y180007D01*
X161469Y179220D02*
Y187094D01*
X211457Y179220D02*
X218543D01*
Y193393D01*
X211457D02*
X218543D01*
X211457Y179220D02*
Y193393D01*
D23*
X205067Y181291D02*
Y183260D01*
X190500Y199402D02*
Y200583D01*
Y196646D02*
Y197827D01*
X182626D02*
X198374D01*
X182626Y199402D02*
X198374D01*
X203098Y181291D02*
X207035D01*
X205067Y179323D02*
Y181291D01*
M02*
