G04 Layer_Physical_Order=2*
G04 Layer_Color=16711680*
%FSLAX25Y25*%
%MOIN*%
G70*
G01*
G75*
%ADD13C,0.01968*%
%ADD14C,0.01000*%
%ADD15R,0.05905X0.05905*%
%ADD16C,0.05905*%
%ADD17C,0.06000*%
%ADD18R,0.06000X0.06000*%
%ADD19R,0.05905X0.05905*%
%ADD20C,0.05000*%
G36*
X356396Y339750D02*
X357579Y339260D01*
X358644Y338549D01*
X359549Y337644D01*
X360260Y336579D01*
X360750Y335396D01*
X361000Y334140D01*
Y331723D01*
X360598Y331425D01*
X360201Y331545D01*
X360004Y331565D01*
X359815Y331622D01*
X358464Y331755D01*
X358365Y331745D01*
X358268Y331765D01*
X358170Y331745D01*
X358071Y331755D01*
X356720Y331622D01*
X356531Y331565D01*
X356334Y331545D01*
X355036Y331151D01*
X354861Y331058D01*
X354672Y331001D01*
X353475Y330361D01*
X353323Y330236D01*
X353148Y330142D01*
X352099Y329281D01*
X351974Y329129D01*
X351821Y329003D01*
X350960Y327954D01*
X350867Y327780D01*
X350741Y327627D01*
X350101Y326430D01*
X350044Y326241D01*
X349951Y326067D01*
X349557Y324768D01*
X349538Y324571D01*
X349480Y324382D01*
X349347Y323031D01*
X349367Y322835D01*
X349347Y322638D01*
X349480Y321287D01*
X349538Y321098D01*
X349557Y320901D01*
X349951Y319603D01*
X350044Y319428D01*
X350101Y319239D01*
X350741Y318042D01*
X350867Y317889D01*
X350960Y317715D01*
X351821Y316666D01*
X351974Y316541D01*
X352099Y316388D01*
X353148Y315527D01*
X353323Y315434D01*
X353475Y315308D01*
X354672Y314668D01*
X354861Y314611D01*
X355036Y314518D01*
X356334Y314124D01*
X356531Y314105D01*
X356720Y314047D01*
X358071Y313914D01*
X358170Y313924D01*
X358268Y313905D01*
X358365Y313924D01*
X358464Y313914D01*
X359815Y314047D01*
X360004Y314105D01*
X360201Y314124D01*
X360598Y314245D01*
X361000Y313947D01*
Y126998D01*
X360598Y126700D01*
X360201Y126821D01*
X360004Y126840D01*
X359815Y126898D01*
X358464Y127031D01*
X358365Y127021D01*
X358268Y127040D01*
X358170Y127021D01*
X358071Y127031D01*
X356720Y126898D01*
X356531Y126840D01*
X356334Y126821D01*
X355036Y126427D01*
X354861Y126334D01*
X354672Y126276D01*
X353475Y125637D01*
X353323Y125511D01*
X353148Y125418D01*
X352099Y124557D01*
X351974Y124404D01*
X351821Y124279D01*
X350960Y123230D01*
X350867Y123055D01*
X350741Y122903D01*
X350101Y121706D01*
X350044Y121517D01*
X349951Y121342D01*
X349557Y120044D01*
X349538Y119847D01*
X349480Y119658D01*
X349347Y118307D01*
X349367Y118110D01*
X349347Y117913D01*
X349480Y116563D01*
X349538Y116374D01*
X349557Y116177D01*
X349951Y114878D01*
X350044Y114704D01*
X350101Y114515D01*
X350741Y113318D01*
X350867Y113165D01*
X350960Y112991D01*
X351821Y111942D01*
X351974Y111816D01*
X352099Y111663D01*
X353148Y110802D01*
X353323Y110709D01*
X353475Y110584D01*
X354672Y109944D01*
X354861Y109887D01*
X355036Y109793D01*
X356334Y109399D01*
X356531Y109380D01*
X356720Y109323D01*
X358071Y109190D01*
X358170Y109200D01*
X358268Y109180D01*
X358365Y109200D01*
X358464Y109190D01*
X359023Y109245D01*
X359250Y108765D01*
X358825Y108340D01*
X357842Y107683D01*
X356750Y107231D01*
X355591Y107000D01*
X260649D01*
X260543Y107313D01*
X260518Y107500D01*
X261299Y108518D01*
X261795Y109715D01*
X261964Y111000D01*
X261795Y112285D01*
X261299Y113482D01*
X260510Y114510D01*
X259482Y115299D01*
X258285Y115795D01*
X257000Y115964D01*
X255715Y115795D01*
X254518Y115299D01*
X253490Y114510D01*
X252701Y113482D01*
X252460Y112899D01*
X251960Y112998D01*
Y113953D01*
X251807Y114721D01*
X251372Y115372D01*
X250721Y115807D01*
X249953Y115960D01*
X244047D01*
X243279Y115807D01*
X242628Y115372D01*
X242193Y114721D01*
X242040Y113953D01*
Y108047D01*
X242149Y107500D01*
X241824Y107000D01*
X159015D01*
X157083Y107384D01*
X155263Y108138D01*
X153625Y109232D01*
X153017Y109841D01*
X153318Y110247D01*
X153885Y109944D01*
X154074Y109887D01*
X154248Y109793D01*
X155547Y109399D01*
X155744Y109380D01*
X155933Y109323D01*
X157284Y109190D01*
X157383Y109200D01*
X157480Y109180D01*
X157578Y109200D01*
X157677Y109190D01*
X159028Y109323D01*
X159217Y109380D01*
X159414Y109399D01*
X160712Y109793D01*
X160887Y109887D01*
X161076Y109944D01*
X162273Y110584D01*
X162425Y110709D01*
X162600Y110802D01*
X163649Y111663D01*
X163774Y111816D01*
X163927Y111942D01*
X164788Y112991D01*
X164881Y113165D01*
X165007Y113318D01*
X165647Y114515D01*
X165704Y114704D01*
X165797Y114878D01*
X166191Y116177D01*
X166210Y116374D01*
X166268Y116563D01*
X166401Y117913D01*
X166381Y118110D01*
X166401Y118307D01*
X166268Y119658D01*
X166210Y119847D01*
X166191Y120044D01*
X165797Y121342D01*
X165704Y121517D01*
X165647Y121706D01*
X165007Y122903D01*
X164881Y123055D01*
X164788Y123230D01*
X163927Y124279D01*
X163774Y124404D01*
X163649Y124557D01*
X162600Y125418D01*
X162425Y125511D01*
X162273Y125637D01*
X161076Y126276D01*
X160887Y126334D01*
X160712Y126427D01*
X159414Y126821D01*
X159217Y126840D01*
X159028Y126898D01*
X157677Y127031D01*
X157578Y127021D01*
X157480Y127040D01*
X157383Y127021D01*
X157284Y127031D01*
X155933Y126898D01*
X155744Y126840D01*
X155547Y126821D01*
X154248Y126427D01*
X154074Y126334D01*
X153885Y126276D01*
X152688Y125637D01*
X152535Y125511D01*
X152361Y125418D01*
X151312Y124557D01*
X151186Y124404D01*
X151033Y124279D01*
X150500Y123629D01*
X150000Y123808D01*
Y202538D01*
X150500Y202637D01*
X150549Y202518D01*
X151338Y201490D01*
X152366Y200701D01*
X153563Y200205D01*
X154848Y200036D01*
X156133Y200205D01*
X157330Y200701D01*
X158358Y201490D01*
X159147Y202518D01*
X159643Y203715D01*
X159812Y205000D01*
X159643Y206285D01*
X159147Y207482D01*
X158358Y208510D01*
X157330Y209299D01*
X156747Y209540D01*
X156846Y210040D01*
X157801D01*
X158569Y210193D01*
X159220Y210628D01*
X159655Y211279D01*
X159808Y212047D01*
Y214016D01*
X154848D01*
Y215000D01*
X153864D01*
Y219960D01*
X151895D01*
X151127Y219807D01*
X150500Y219388D01*
X150365Y219416D01*
X150000Y219559D01*
Y317137D01*
X150500Y317316D01*
X151033Y316666D01*
X151186Y316541D01*
X151312Y316388D01*
X152361Y315527D01*
X152535Y315434D01*
X152688Y315308D01*
X153885Y314668D01*
X154074Y314611D01*
X154248Y314518D01*
X155547Y314124D01*
X155744Y314105D01*
X155933Y314047D01*
X157284Y313914D01*
X157383Y313924D01*
X157480Y313905D01*
X157578Y313924D01*
X157677Y313914D01*
X159028Y314047D01*
X159217Y314105D01*
X159414Y314124D01*
X160712Y314518D01*
X160887Y314611D01*
X161076Y314668D01*
X162273Y315308D01*
X162425Y315434D01*
X162600Y315527D01*
X163649Y316388D01*
X163774Y316541D01*
X163927Y316666D01*
X164788Y317715D01*
X164881Y317889D01*
X165007Y318042D01*
X165647Y319239D01*
X165704Y319428D01*
X165797Y319603D01*
X166191Y320901D01*
X166210Y321098D01*
X166268Y321287D01*
X166401Y322638D01*
X166381Y322835D01*
X166401Y323031D01*
X166268Y324382D01*
X166210Y324571D01*
X166191Y324768D01*
X165797Y326067D01*
X165704Y326241D01*
X165647Y326430D01*
X165007Y327627D01*
X164881Y327780D01*
X164788Y327954D01*
X163927Y329003D01*
X163774Y329129D01*
X163649Y329281D01*
X162600Y330142D01*
X162425Y330236D01*
X162273Y330361D01*
X161076Y331001D01*
X160887Y331058D01*
X160712Y331151D01*
X159414Y331545D01*
X159217Y331565D01*
X159028Y331622D01*
X157677Y331755D01*
X157578Y331745D01*
X157480Y331765D01*
X157383Y331745D01*
X157284Y331755D01*
X155933Y331622D01*
X155744Y331565D01*
X155547Y331545D01*
X154248Y331151D01*
X154074Y331058D01*
X153885Y331001D01*
X152688Y330361D01*
X152535Y330236D01*
X152361Y330142D01*
X151312Y329281D01*
X151186Y329129D01*
X151033Y329003D01*
X150500Y328353D01*
X150000Y328532D01*
Y332337D01*
X150327Y333979D01*
X150967Y335526D01*
X151898Y336918D01*
X153082Y338102D01*
X154474Y339033D01*
X156021Y339673D01*
X157663Y340000D01*
X355140D01*
X356396Y339750D01*
D02*
G37*
%LPC*%
G36*
X219377Y197016D02*
X215984D01*
Y193623D01*
X216166Y193647D01*
X217253Y194097D01*
X218187Y194813D01*
X218903Y195747D01*
X219354Y196834D01*
X219377Y197016D01*
D02*
G37*
G36*
X214016Y202378D02*
X213833Y202354D01*
X212747Y201903D01*
X211813Y201187D01*
X211097Y200254D01*
X210647Y199167D01*
X210623Y198984D01*
X214016D01*
Y202378D01*
D02*
G37*
G36*
X215984D02*
Y198984D01*
X219377D01*
X219354Y199167D01*
X218903Y200254D01*
X218187Y201187D01*
X217253Y201903D01*
X216166Y202354D01*
X215984Y202378D01*
D02*
G37*
G36*
X214016Y197016D02*
X210623D01*
X210647Y196834D01*
X211097Y195747D01*
X211813Y194813D01*
X212747Y194097D01*
X213833Y193647D01*
X214016Y193623D01*
Y197016D01*
D02*
G37*
G36*
X341016Y132016D02*
X337118D01*
X337159Y131703D01*
X337660Y130494D01*
X338456Y129456D01*
X339494Y128660D01*
X340703Y128159D01*
X341016Y128118D01*
Y132016D01*
D02*
G37*
G36*
X346882D02*
X342984D01*
Y128118D01*
X343297Y128159D01*
X344506Y128660D01*
X345544Y129456D01*
X346340Y130494D01*
X346841Y131703D01*
X346882Y132016D01*
D02*
G37*
G36*
X341646Y336011D02*
X340349Y335841D01*
X339140Y335340D01*
X338102Y334544D01*
X337306Y333506D01*
X336805Y332297D01*
X336634Y331000D01*
X336805Y329703D01*
X337306Y328494D01*
X338102Y327456D01*
X339140Y326660D01*
X340080Y326271D01*
Y325729D01*
X339140Y325340D01*
X338102Y324544D01*
X337306Y323506D01*
X336805Y322297D01*
X336634Y321000D01*
X336805Y319703D01*
X337306Y318494D01*
X338102Y317456D01*
X339140Y316660D01*
X340080Y316271D01*
Y315729D01*
X339140Y315340D01*
X338102Y314544D01*
X337306Y313506D01*
X336805Y312297D01*
X336634Y311000D01*
X336805Y309703D01*
X337306Y308494D01*
X338102Y307456D01*
X339140Y306660D01*
X340080Y306271D01*
Y305729D01*
X339140Y305340D01*
X338102Y304544D01*
X337306Y303506D01*
X336805Y302297D01*
X336634Y301000D01*
X336805Y299703D01*
X337306Y298494D01*
X338102Y297456D01*
X339140Y296660D01*
X340080Y296271D01*
Y295729D01*
X339140Y295340D01*
X338102Y294544D01*
X337306Y293506D01*
X336805Y292297D01*
X336634Y291000D01*
X336805Y289703D01*
X337306Y288494D01*
X338102Y287456D01*
X339140Y286660D01*
X340080Y286271D01*
Y285729D01*
X339140Y285340D01*
X338102Y284544D01*
X337306Y283506D01*
X336805Y282297D01*
X336634Y281000D01*
X336805Y279703D01*
X337306Y278494D01*
X338102Y277456D01*
X339140Y276660D01*
X340080Y276271D01*
Y275729D01*
X339140Y275340D01*
X338102Y274544D01*
X337306Y273506D01*
X336805Y272297D01*
X336634Y271000D01*
X336805Y269703D01*
X337306Y268494D01*
X338102Y267456D01*
X339140Y266660D01*
X340080Y266271D01*
Y265729D01*
X339140Y265340D01*
X338102Y264544D01*
X337306Y263506D01*
X336805Y262297D01*
X336634Y261000D01*
X336805Y259703D01*
X337306Y258494D01*
X338102Y257456D01*
X339140Y256660D01*
X340080Y256271D01*
Y255729D01*
X339140Y255340D01*
X338102Y254544D01*
X337306Y253506D01*
X336805Y252297D01*
X336634Y251000D01*
X336805Y249703D01*
X337306Y248494D01*
X338102Y247456D01*
X339140Y246660D01*
X340080Y246271D01*
Y245729D01*
X339140Y245340D01*
X338102Y244544D01*
X337306Y243506D01*
X336805Y242297D01*
X336634Y241000D01*
X336805Y239703D01*
X337306Y238494D01*
X338102Y237456D01*
X339140Y236660D01*
X340080Y236271D01*
Y235729D01*
X339140Y235340D01*
X338102Y234544D01*
X337306Y233506D01*
X336805Y232297D01*
X336634Y231000D01*
X336805Y229703D01*
X337306Y228494D01*
X338102Y227456D01*
X339140Y226660D01*
X340080Y226271D01*
Y225729D01*
X339140Y225340D01*
X338102Y224544D01*
X337306Y223506D01*
X336805Y222297D01*
X336634Y221000D01*
X336805Y219703D01*
X337306Y218494D01*
X338102Y217456D01*
X339140Y216660D01*
X340080Y216271D01*
Y215729D01*
X339140Y215340D01*
X338102Y214544D01*
X337306Y213506D01*
X336805Y212297D01*
X336634Y211000D01*
X336805Y209703D01*
X337306Y208494D01*
X338102Y207456D01*
X339140Y206660D01*
X340080Y206271D01*
Y205729D01*
X339140Y205340D01*
X338102Y204544D01*
X337306Y203506D01*
X336805Y202297D01*
X336634Y201000D01*
X336805Y199703D01*
X337306Y198494D01*
X338102Y197456D01*
X339140Y196660D01*
X340080Y196271D01*
Y195729D01*
X339140Y195340D01*
X338102Y194544D01*
X337306Y193506D01*
X336805Y192297D01*
X336634Y191000D01*
X336805Y189703D01*
X337306Y188494D01*
X338102Y187456D01*
X339140Y186660D01*
X340080Y186271D01*
Y185729D01*
X339140Y185340D01*
X338102Y184544D01*
X337306Y183506D01*
X336916Y182565D01*
X336375D01*
X335986Y183506D01*
X335189Y184544D01*
X334151Y185340D01*
X332943Y185841D01*
X331646Y186011D01*
X330349Y185841D01*
X329140Y185340D01*
X328102Y184544D01*
X327306Y183506D01*
X326916Y182565D01*
X326375D01*
X325986Y183506D01*
X325189Y184544D01*
X324151Y185340D01*
X322943Y185841D01*
X321646Y186011D01*
X320349Y185841D01*
X319140Y185340D01*
X318102Y184544D01*
X317306Y183506D01*
X316916Y182565D01*
X316375D01*
X315986Y183506D01*
X315189Y184544D01*
X314151Y185340D01*
X312943Y185841D01*
X311646Y186011D01*
X310349Y185841D01*
X309140Y185340D01*
X308102Y184544D01*
X307306Y183506D01*
X306916Y182565D01*
X306375D01*
X305986Y183506D01*
X305189Y184544D01*
X304151Y185340D01*
X302943Y185841D01*
X301646Y186011D01*
X300349Y185841D01*
X299140Y185340D01*
X298102Y184544D01*
X297306Y183506D01*
X296916Y182565D01*
X296375D01*
X295986Y183506D01*
X295189Y184544D01*
X294151Y185340D01*
X292943Y185841D01*
X291646Y186011D01*
X290349Y185841D01*
X289140Y185340D01*
X288102Y184544D01*
X287306Y183506D01*
X286916Y182565D01*
X286375D01*
X285986Y183506D01*
X285189Y184544D01*
X284151Y185340D01*
X282943Y185841D01*
X281646Y186011D01*
X280349Y185841D01*
X279140Y185340D01*
X278102Y184544D01*
X277306Y183506D01*
X276916Y182565D01*
X276375D01*
X275986Y183506D01*
X275189Y184544D01*
X274151Y185340D01*
X272943Y185841D01*
X271646Y186011D01*
X270349Y185841D01*
X269140Y185340D01*
X268102Y184544D01*
X267306Y183506D01*
X266916Y182565D01*
X266375D01*
X265986Y183506D01*
X265189Y184544D01*
X264151Y185340D01*
X262943Y185841D01*
X261646Y186011D01*
X260349Y185841D01*
X259140Y185340D01*
X258102Y184544D01*
X257306Y183506D01*
X256916Y182565D01*
X256375D01*
X255986Y183506D01*
X255189Y184544D01*
X254151Y185340D01*
X252943Y185841D01*
X251646Y186011D01*
X250349Y185841D01*
X249140Y185340D01*
X248102Y184544D01*
X247306Y183506D01*
X246916Y182565D01*
X246375D01*
X245986Y183506D01*
X245189Y184544D01*
X244151Y185340D01*
X242943Y185841D01*
X241646Y186011D01*
X240349Y185841D01*
X239140Y185340D01*
X238102Y184544D01*
X237306Y183506D01*
X236916Y182565D01*
X236375D01*
X235986Y183506D01*
X235189Y184544D01*
X234151Y185340D01*
X233211Y185729D01*
Y186271D01*
X234151Y186660D01*
X235189Y187456D01*
X235986Y188494D01*
X236486Y189703D01*
X236657Y191000D01*
X236486Y192297D01*
X235986Y193506D01*
X235189Y194544D01*
X234151Y195340D01*
X233211Y195729D01*
Y196271D01*
X234151Y196660D01*
X235189Y197456D01*
X235986Y198494D01*
X236486Y199703D01*
X236527Y200016D01*
X226764D01*
X226805Y199703D01*
X227306Y198494D01*
X228102Y197456D01*
X229140Y196660D01*
X230080Y196271D01*
Y195729D01*
X229140Y195340D01*
X228102Y194544D01*
X227306Y193506D01*
X226805Y192297D01*
X226634Y191000D01*
X226805Y189703D01*
X227306Y188494D01*
X228102Y187456D01*
X229140Y186660D01*
X230080Y186271D01*
Y185729D01*
X229140Y185340D01*
X228102Y184544D01*
X227306Y183506D01*
X226805Y182297D01*
X226634Y181000D01*
X226805Y179703D01*
X227306Y178494D01*
X228102Y177456D01*
X229140Y176660D01*
X230349Y176159D01*
X231646Y175989D01*
X232943Y176159D01*
X234151Y176660D01*
X235189Y177456D01*
X235986Y178494D01*
X236375Y179435D01*
X236916D01*
X237306Y178494D01*
X238102Y177456D01*
X239140Y176660D01*
X240349Y176159D01*
X241646Y175989D01*
X242943Y176159D01*
X244151Y176660D01*
X245189Y177456D01*
X245986Y178494D01*
X246375Y179435D01*
X246916D01*
X247306Y178494D01*
X248102Y177456D01*
X249140Y176660D01*
X250349Y176159D01*
X251646Y175989D01*
X252943Y176159D01*
X254151Y176660D01*
X255189Y177456D01*
X255986Y178494D01*
X256375Y179435D01*
X256916D01*
X257306Y178494D01*
X258102Y177456D01*
X259140Y176660D01*
X260349Y176159D01*
X261646Y175989D01*
X262943Y176159D01*
X264151Y176660D01*
X265189Y177456D01*
X265986Y178494D01*
X266375Y179435D01*
X266916D01*
X267306Y178494D01*
X268102Y177456D01*
X269140Y176660D01*
X270349Y176159D01*
X271646Y175989D01*
X272943Y176159D01*
X274151Y176660D01*
X275189Y177456D01*
X275986Y178494D01*
X276375Y179435D01*
X276916D01*
X277306Y178494D01*
X278102Y177456D01*
X279140Y176660D01*
X280349Y176159D01*
X281646Y175989D01*
X282943Y176159D01*
X284151Y176660D01*
X285189Y177456D01*
X285986Y178494D01*
X286375Y179435D01*
X286916D01*
X287306Y178494D01*
X288102Y177456D01*
X289140Y176660D01*
X290349Y176159D01*
X291646Y175989D01*
X292943Y176159D01*
X294151Y176660D01*
X295189Y177456D01*
X295986Y178494D01*
X296375Y179435D01*
X296916D01*
X297306Y178494D01*
X298102Y177456D01*
X299140Y176660D01*
X300349Y176159D01*
X301646Y175989D01*
X302943Y176159D01*
X304151Y176660D01*
X305189Y177456D01*
X305986Y178494D01*
X306375Y179435D01*
X306916D01*
X307306Y178494D01*
X308102Y177456D01*
X309140Y176660D01*
X310349Y176159D01*
X311646Y175989D01*
X312943Y176159D01*
X314151Y176660D01*
X315189Y177456D01*
X315986Y178494D01*
X316375Y179435D01*
X316916D01*
X317306Y178494D01*
X318102Y177456D01*
X319140Y176660D01*
X320349Y176159D01*
X321646Y175989D01*
X322943Y176159D01*
X324151Y176660D01*
X325189Y177456D01*
X325986Y178494D01*
X326375Y179435D01*
X326916D01*
X327306Y178494D01*
X328102Y177456D01*
X329140Y176660D01*
X330349Y176159D01*
X331646Y175989D01*
X332943Y176159D01*
X334151Y176660D01*
X335189Y177456D01*
X335986Y178494D01*
X336375Y179435D01*
X336916D01*
X337306Y178494D01*
X338102Y177456D01*
X339140Y176660D01*
X340349Y176159D01*
X340374Y176156D01*
X340535Y175683D01*
X330831Y165978D01*
X181653D01*
Y166000D01*
X181500Y166768D01*
X181065Y167419D01*
X180414Y167854D01*
X179646Y168007D01*
X173646D01*
X172878Y167854D01*
X172227Y167419D01*
X171791Y166768D01*
X171639Y166000D01*
Y160000D01*
X171791Y159232D01*
X172227Y158581D01*
X172878Y158146D01*
X173646Y157993D01*
X174410D01*
X174509Y157493D01*
X174140Y157340D01*
X173102Y156544D01*
X172306Y155506D01*
X171805Y154297D01*
X171634Y153000D01*
X171805Y151703D01*
X172306Y150494D01*
X173102Y149456D01*
X174140Y148660D01*
X175080Y148271D01*
Y147729D01*
X174140Y147340D01*
X173102Y146544D01*
X172306Y145506D01*
X171805Y144297D01*
X171634Y143000D01*
X171805Y141703D01*
X172306Y140494D01*
X173102Y139456D01*
X174140Y138660D01*
X175080Y138271D01*
Y137729D01*
X174140Y137340D01*
X173102Y136544D01*
X172306Y135506D01*
X171805Y134297D01*
X171634Y133000D01*
X171805Y131703D01*
X172306Y130494D01*
X173102Y129456D01*
X174140Y128660D01*
X175349Y128159D01*
X176646Y127989D01*
X177943Y128159D01*
X179151Y128660D01*
X180189Y129456D01*
X180986Y130494D01*
X181486Y131703D01*
X181657Y133000D01*
X181486Y134297D01*
X180986Y135506D01*
X180189Y136544D01*
X179151Y137340D01*
X178211Y137729D01*
Y138271D01*
X179151Y138660D01*
X180189Y139456D01*
X180986Y140494D01*
X181486Y141703D01*
X181657Y143000D01*
X181486Y144297D01*
X180986Y145506D01*
X180189Y146544D01*
X179151Y147340D01*
X178211Y147729D01*
Y148271D01*
X179151Y148660D01*
X180189Y149456D01*
X180986Y150494D01*
X181486Y151703D01*
X181657Y153000D01*
X181486Y154297D01*
X180986Y155506D01*
X180189Y156544D01*
X179151Y157340D01*
X178782Y157493D01*
X178882Y157993D01*
X179646D01*
X180414Y158146D01*
X181065Y158581D01*
X181500Y159232D01*
X181653Y160000D01*
Y160022D01*
X332064D01*
X332835Y160123D01*
X333553Y160421D01*
X334170Y160894D01*
X336547Y163271D01*
X336995Y163050D01*
X336989Y163000D01*
X337159Y161703D01*
X337660Y160494D01*
X338456Y159456D01*
X339494Y158660D01*
X340435Y158271D01*
Y157729D01*
X339494Y157340D01*
X338456Y156544D01*
X337660Y155506D01*
X337159Y154297D01*
X336989Y153000D01*
X337159Y151703D01*
X337660Y150494D01*
X338456Y149456D01*
X339494Y148660D01*
X340435Y148271D01*
Y147729D01*
X339494Y147340D01*
X338456Y146544D01*
X337660Y145506D01*
X337159Y144297D01*
X336989Y143000D01*
X337159Y141703D01*
X337660Y140494D01*
X338456Y139456D01*
X339494Y138660D01*
X340435Y138271D01*
Y137729D01*
X339494Y137340D01*
X338456Y136544D01*
X337660Y135506D01*
X337159Y134297D01*
X337118Y133984D01*
X346882D01*
X346841Y134297D01*
X346340Y135506D01*
X345544Y136544D01*
X344506Y137340D01*
X343566Y137729D01*
Y138271D01*
X344506Y138660D01*
X345544Y139456D01*
X346340Y140494D01*
X346841Y141703D01*
X347011Y143000D01*
X346841Y144297D01*
X346340Y145506D01*
X345544Y146544D01*
X344506Y147340D01*
X343566Y147729D01*
Y148271D01*
X344506Y148660D01*
X345544Y149456D01*
X346340Y150494D01*
X346841Y151703D01*
X347011Y153000D01*
X346841Y154297D01*
X346340Y155506D01*
X345544Y156544D01*
X344506Y157340D01*
X343566Y157729D01*
Y158271D01*
X344506Y158660D01*
X345544Y159456D01*
X346340Y160494D01*
X346841Y161703D01*
X347011Y163000D01*
X346841Y164297D01*
X346340Y165506D01*
X345544Y166544D01*
X344506Y167340D01*
X343297Y167841D01*
X342000Y168011D01*
X341950Y168005D01*
X341729Y168453D01*
X350670Y177394D01*
X350670Y177394D01*
X351143Y178011D01*
X351441Y178729D01*
X351542Y179500D01*
Y184081D01*
X351542Y184081D01*
X351441Y184852D01*
X351143Y185571D01*
X350670Y186188D01*
X350670Y186188D01*
X346564Y190294D01*
X346657Y191000D01*
X346486Y192297D01*
X345986Y193506D01*
X345189Y194544D01*
X344151Y195340D01*
X343211Y195729D01*
Y196271D01*
X344151Y196660D01*
X345189Y197456D01*
X345986Y198494D01*
X346486Y199703D01*
X346657Y201000D01*
X346486Y202297D01*
X345986Y203506D01*
X345189Y204544D01*
X344151Y205340D01*
X343211Y205729D01*
Y206271D01*
X344151Y206660D01*
X345189Y207456D01*
X345986Y208494D01*
X346486Y209703D01*
X346657Y211000D01*
X346486Y212297D01*
X345986Y213506D01*
X345189Y214544D01*
X344151Y215340D01*
X343211Y215729D01*
Y216271D01*
X344151Y216660D01*
X345189Y217456D01*
X345986Y218494D01*
X346486Y219703D01*
X346657Y221000D01*
X346486Y222297D01*
X345986Y223506D01*
X345189Y224544D01*
X344151Y225340D01*
X343211Y225729D01*
Y226271D01*
X344151Y226660D01*
X345189Y227456D01*
X345986Y228494D01*
X346486Y229703D01*
X346657Y231000D01*
X346486Y232297D01*
X345986Y233506D01*
X345189Y234544D01*
X344151Y235340D01*
X343211Y235729D01*
Y236271D01*
X344151Y236660D01*
X345189Y237456D01*
X345986Y238494D01*
X346486Y239703D01*
X346657Y241000D01*
X346486Y242297D01*
X345986Y243506D01*
X345189Y244544D01*
X344151Y245340D01*
X343211Y245729D01*
Y246271D01*
X344151Y246660D01*
X345189Y247456D01*
X345986Y248494D01*
X346486Y249703D01*
X346657Y251000D01*
X346486Y252297D01*
X345986Y253506D01*
X345189Y254544D01*
X344151Y255340D01*
X343211Y255729D01*
Y256271D01*
X344151Y256660D01*
X345189Y257456D01*
X345986Y258494D01*
X346486Y259703D01*
X346657Y261000D01*
X346486Y262297D01*
X345986Y263506D01*
X345189Y264544D01*
X344151Y265340D01*
X343211Y265729D01*
Y266271D01*
X344151Y266660D01*
X345189Y267456D01*
X345986Y268494D01*
X346486Y269703D01*
X346657Y271000D01*
X346486Y272297D01*
X345986Y273506D01*
X345189Y274544D01*
X344151Y275340D01*
X343211Y275729D01*
Y276271D01*
X344151Y276660D01*
X345189Y277456D01*
X345986Y278494D01*
X346486Y279703D01*
X346657Y281000D01*
X346486Y282297D01*
X345986Y283506D01*
X345189Y284544D01*
X344151Y285340D01*
X343211Y285729D01*
Y286271D01*
X344151Y286660D01*
X345189Y287456D01*
X345986Y288494D01*
X346486Y289703D01*
X346657Y291000D01*
X346486Y292297D01*
X345986Y293506D01*
X345189Y294544D01*
X344151Y295340D01*
X343211Y295729D01*
Y296271D01*
X344151Y296660D01*
X345189Y297456D01*
X345986Y298494D01*
X346486Y299703D01*
X346657Y301000D01*
X346486Y302297D01*
X345986Y303506D01*
X345189Y304544D01*
X344151Y305340D01*
X343211Y305729D01*
Y306271D01*
X344151Y306660D01*
X345189Y307456D01*
X345986Y308494D01*
X346486Y309703D01*
X346657Y311000D01*
X346486Y312297D01*
X345986Y313506D01*
X345189Y314544D01*
X344151Y315340D01*
X343211Y315729D01*
Y316271D01*
X344151Y316660D01*
X345189Y317456D01*
X345986Y318494D01*
X346486Y319703D01*
X346657Y321000D01*
X346486Y322297D01*
X345986Y323506D01*
X345189Y324544D01*
X344151Y325340D01*
X343211Y325729D01*
Y326271D01*
X344151Y326660D01*
X345189Y327456D01*
X345986Y328494D01*
X346486Y329703D01*
X346657Y331000D01*
X346486Y332297D01*
X345986Y333506D01*
X345189Y334544D01*
X344151Y335340D01*
X342943Y335841D01*
X341646Y336011D01*
D02*
G37*
G36*
X231646D02*
X230349Y335841D01*
X229140Y335340D01*
X228102Y334544D01*
X227306Y333506D01*
X226805Y332297D01*
X226634Y331000D01*
X226805Y329703D01*
X227306Y328494D01*
X228102Y327456D01*
X229140Y326660D01*
X230080Y326271D01*
Y325729D01*
X229140Y325340D01*
X228102Y324544D01*
X227306Y323506D01*
X226805Y322297D01*
X226634Y321000D01*
X226805Y319703D01*
X227306Y318494D01*
X228102Y317456D01*
X229140Y316660D01*
X230080Y316271D01*
Y315729D01*
X229140Y315340D01*
X228102Y314544D01*
X227306Y313506D01*
X226805Y312297D01*
X226634Y311000D01*
X226805Y309703D01*
X227306Y308494D01*
X228102Y307456D01*
X229140Y306660D01*
X230080Y306271D01*
Y305729D01*
X229140Y305340D01*
X228102Y304544D01*
X227306Y303506D01*
X226805Y302297D01*
X226634Y301000D01*
X226805Y299703D01*
X227306Y298494D01*
X228102Y297456D01*
X229140Y296660D01*
X230080Y296271D01*
Y295729D01*
X229140Y295340D01*
X228102Y294544D01*
X227306Y293506D01*
X226805Y292297D01*
X226634Y291000D01*
X226805Y289703D01*
X227306Y288494D01*
X228102Y287456D01*
X229140Y286660D01*
X230080Y286271D01*
Y285729D01*
X229140Y285340D01*
X228102Y284544D01*
X227306Y283506D01*
X226805Y282297D01*
X226634Y281000D01*
X226805Y279703D01*
X227306Y278494D01*
X228102Y277456D01*
X229140Y276660D01*
X230080Y276271D01*
Y275729D01*
X229140Y275340D01*
X228102Y274544D01*
X227306Y273506D01*
X226805Y272297D01*
X226634Y271000D01*
X226805Y269703D01*
X227306Y268494D01*
X228102Y267456D01*
X229140Y266660D01*
X230080Y266271D01*
Y265729D01*
X229140Y265340D01*
X228102Y264544D01*
X227306Y263506D01*
X226805Y262297D01*
X226634Y261000D01*
X226805Y259703D01*
X227306Y258494D01*
X228102Y257456D01*
X229140Y256660D01*
X230080Y256271D01*
Y255729D01*
X229140Y255340D01*
X228102Y254544D01*
X227306Y253506D01*
X226805Y252297D01*
X226634Y251000D01*
X226805Y249703D01*
X227306Y248494D01*
X228102Y247456D01*
X229140Y246660D01*
X230080Y246271D01*
Y245729D01*
X229140Y245340D01*
X228102Y244544D01*
X227306Y243506D01*
X226805Y242297D01*
X226634Y241000D01*
X226805Y239703D01*
X227306Y238494D01*
X228102Y237456D01*
X229140Y236660D01*
X230080Y236271D01*
Y235729D01*
X229140Y235340D01*
X228102Y234544D01*
X227306Y233506D01*
X226805Y232297D01*
X226634Y231000D01*
X226805Y229703D01*
X227306Y228494D01*
X228102Y227456D01*
X229140Y226660D01*
X230080Y226271D01*
Y225729D01*
X229140Y225340D01*
X228102Y224544D01*
X227306Y223506D01*
X226805Y222297D01*
X226634Y221000D01*
X226805Y219703D01*
X227306Y218494D01*
X228102Y217456D01*
X229140Y216660D01*
X230080Y216271D01*
Y215729D01*
X229140Y215340D01*
X228102Y214544D01*
X227306Y213506D01*
X226805Y212297D01*
X226634Y211000D01*
X226805Y209703D01*
X227306Y208494D01*
X228102Y207456D01*
X229140Y206660D01*
X230080Y206271D01*
Y205729D01*
X229140Y205340D01*
X228102Y204544D01*
X227306Y203506D01*
X226805Y202297D01*
X226764Y201984D01*
X236527D01*
X236486Y202297D01*
X235986Y203506D01*
X235189Y204544D01*
X234151Y205340D01*
X233211Y205729D01*
Y206271D01*
X234151Y206660D01*
X235189Y207456D01*
X235986Y208494D01*
X236486Y209703D01*
X236657Y211000D01*
X236486Y212297D01*
X235986Y213506D01*
X235189Y214544D01*
X234151Y215340D01*
X233211Y215729D01*
Y216271D01*
X234151Y216660D01*
X235189Y217456D01*
X235986Y218494D01*
X236486Y219703D01*
X236657Y221000D01*
X236486Y222297D01*
X235986Y223506D01*
X235189Y224544D01*
X234151Y225340D01*
X233211Y225729D01*
Y226271D01*
X234151Y226660D01*
X235189Y227456D01*
X235986Y228494D01*
X236486Y229703D01*
X236657Y231000D01*
X236486Y232297D01*
X235986Y233506D01*
X235189Y234544D01*
X234151Y235340D01*
X233211Y235729D01*
Y236271D01*
X234151Y236660D01*
X235189Y237456D01*
X235986Y238494D01*
X236486Y239703D01*
X236657Y241000D01*
X236486Y242297D01*
X235986Y243506D01*
X235189Y244544D01*
X234151Y245340D01*
X233211Y245729D01*
Y246271D01*
X234151Y246660D01*
X235189Y247456D01*
X235986Y248494D01*
X236486Y249703D01*
X236657Y251000D01*
X236486Y252297D01*
X235986Y253506D01*
X235189Y254544D01*
X234151Y255340D01*
X233211Y255729D01*
Y256271D01*
X234151Y256660D01*
X235189Y257456D01*
X235986Y258494D01*
X236486Y259703D01*
X236657Y261000D01*
X236486Y262297D01*
X235986Y263506D01*
X235189Y264544D01*
X234151Y265340D01*
X233211Y265729D01*
Y266271D01*
X234151Y266660D01*
X235189Y267456D01*
X235986Y268494D01*
X236486Y269703D01*
X236657Y271000D01*
X236486Y272297D01*
X235986Y273506D01*
X235189Y274544D01*
X234151Y275340D01*
X233211Y275729D01*
Y276271D01*
X234151Y276660D01*
X235189Y277456D01*
X235986Y278494D01*
X236486Y279703D01*
X236657Y281000D01*
X236486Y282297D01*
X235986Y283506D01*
X235189Y284544D01*
X234151Y285340D01*
X233211Y285729D01*
Y286271D01*
X234151Y286660D01*
X235189Y287456D01*
X235986Y288494D01*
X236486Y289703D01*
X236657Y291000D01*
X236486Y292297D01*
X235986Y293506D01*
X235189Y294544D01*
X234151Y295340D01*
X233211Y295729D01*
Y296271D01*
X234151Y296660D01*
X235189Y297456D01*
X235986Y298494D01*
X236486Y299703D01*
X236657Y301000D01*
X236486Y302297D01*
X235986Y303506D01*
X235189Y304544D01*
X234151Y305340D01*
X233211Y305729D01*
Y306271D01*
X234151Y306660D01*
X235189Y307456D01*
X235986Y308494D01*
X236486Y309703D01*
X236657Y311000D01*
X236486Y312297D01*
X235986Y313506D01*
X235189Y314544D01*
X234151Y315340D01*
X233211Y315729D01*
Y316271D01*
X234151Y316660D01*
X235189Y317456D01*
X235986Y318494D01*
X236486Y319703D01*
X236657Y321000D01*
X236486Y322297D01*
X235986Y323506D01*
X235189Y324544D01*
X234151Y325340D01*
X233211Y325729D01*
Y326271D01*
X234151Y326660D01*
X235189Y327456D01*
X235986Y328494D01*
X236486Y329703D01*
X236657Y331000D01*
X236486Y332297D01*
X235986Y333506D01*
X235189Y334544D01*
X234151Y335340D01*
X232943Y335841D01*
X231646Y336011D01*
D02*
G37*
G36*
X189516Y226378D02*
X189333Y226354D01*
X188247Y225903D01*
X187313Y225187D01*
X186597Y224254D01*
X186146Y223166D01*
X186123Y222984D01*
X189516D01*
Y226378D01*
D02*
G37*
G36*
X191484D02*
Y222984D01*
X194878D01*
X194853Y223166D01*
X194403Y224254D01*
X193687Y225187D01*
X192754Y225903D01*
X191666Y226354D01*
X191484Y226378D01*
D02*
G37*
G36*
X219606Y275913D02*
X213701D01*
X212933Y275760D01*
X212282Y275325D01*
X211846Y274674D01*
X211694Y273905D01*
Y268000D01*
X211846Y267232D01*
X212282Y266581D01*
X212933Y266146D01*
X213701Y265993D01*
X214655D01*
X214755Y265493D01*
X214172Y265251D01*
X213144Y264463D01*
X212355Y263435D01*
X211859Y262238D01*
X211690Y260953D01*
X211859Y259668D01*
X212355Y258471D01*
X213144Y257443D01*
X214172Y256654D01*
X215245Y256209D01*
X215245Y256209D01*
Y255697D01*
X215245Y255696D01*
X214172Y255252D01*
X213144Y254463D01*
X212355Y253435D01*
X211859Y252238D01*
X211690Y250953D01*
X211859Y249668D01*
X212355Y248471D01*
X213144Y247443D01*
X214172Y246654D01*
X215245Y246209D01*
X215245Y246209D01*
Y245697D01*
X215245Y245696D01*
X214172Y245251D01*
X213144Y244463D01*
X212355Y243435D01*
X211859Y242237D01*
X211690Y240953D01*
X211859Y239668D01*
X212355Y238471D01*
X213144Y237443D01*
X214172Y236654D01*
X215245Y236209D01*
X215245Y236209D01*
Y235697D01*
X215245Y235696D01*
X214172Y235251D01*
X213144Y234463D01*
X212355Y233435D01*
X211859Y232238D01*
X211819Y231937D01*
X216653D01*
X221488D01*
X221448Y232238D01*
X220952Y233435D01*
X220163Y234463D01*
X219135Y235251D01*
X218062Y235696D01*
X218062Y235697D01*
Y236209D01*
X218062Y236209D01*
X219135Y236654D01*
X220163Y237443D01*
X220952Y238471D01*
X221448Y239668D01*
X221617Y240953D01*
X221448Y242237D01*
X220952Y243435D01*
X220163Y244463D01*
X219135Y245251D01*
X218062Y245696D01*
X218062Y245697D01*
Y246209D01*
X218062Y246209D01*
X219135Y246654D01*
X220163Y247443D01*
X220952Y248471D01*
X221448Y249668D01*
X221617Y250953D01*
X221448Y252238D01*
X220952Y253435D01*
X220163Y254463D01*
X219135Y255252D01*
X218062Y255696D01*
X218062Y255697D01*
Y256209D01*
X218062Y256209D01*
X219135Y256654D01*
X220163Y257443D01*
X220952Y258471D01*
X221448Y259668D01*
X221617Y260953D01*
X221448Y262238D01*
X220952Y263435D01*
X220163Y264463D01*
X219135Y265251D01*
X218552Y265493D01*
X218652Y265993D01*
X219606D01*
X220374Y266146D01*
X221025Y266581D01*
X221461Y267232D01*
X221613Y268000D01*
Y273905D01*
X221461Y274674D01*
X221025Y275325D01*
X220374Y275760D01*
X219606Y275913D01*
D02*
G37*
G36*
X194878Y221016D02*
X191484D01*
Y217622D01*
X191666Y217647D01*
X192754Y218097D01*
X193687Y218813D01*
X194403Y219746D01*
X194853Y220833D01*
X194878Y221016D01*
D02*
G37*
G36*
X157801Y219960D02*
X155832D01*
Y215984D01*
X159808D01*
Y217953D01*
X159655Y218721D01*
X159220Y219372D01*
X158569Y219807D01*
X157801Y219960D01*
D02*
G37*
G36*
X221488Y229969D02*
X216653D01*
X211819D01*
X211859Y229668D01*
X212355Y228471D01*
X213144Y227443D01*
X214172Y226654D01*
X215245Y226209D01*
X215245Y226209D01*
Y225697D01*
X215245Y225696D01*
X214172Y225252D01*
X213144Y224463D01*
X212355Y223435D01*
X211859Y222237D01*
X211690Y220953D01*
X211859Y219668D01*
X212355Y218471D01*
X213144Y217443D01*
X214172Y216654D01*
X215369Y216158D01*
X216653Y215989D01*
X217938Y216158D01*
X219135Y216654D01*
X220163Y217443D01*
X220952Y218471D01*
X221448Y219668D01*
X221617Y220953D01*
X221448Y222237D01*
X220952Y223435D01*
X220163Y224463D01*
X219135Y225252D01*
X218062Y225696D01*
X218062Y225697D01*
Y226209D01*
X218062Y226209D01*
X219135Y226654D01*
X220163Y227443D01*
X220952Y228471D01*
X221448Y229668D01*
X221488Y229969D01*
D02*
G37*
G36*
X189516Y221016D02*
X186123D01*
X186146Y220833D01*
X186597Y219746D01*
X187313Y218813D01*
X188247Y218097D01*
X189333Y217647D01*
X189516Y217622D01*
Y221016D01*
D02*
G37*
%LPD*%
D13*
X176646Y163000D02*
X332064D01*
X348564Y179500D01*
Y184081D01*
X341646Y191000D02*
X348564Y184081D01*
D14*
X360035Y343464D02*
G03*
X351500Y347000I-8535J-8535D01*
G01*
X367000Y331500D02*
G03*
X363464Y340036I-12071J0D01*
G01*
Y105965D02*
G03*
X367000Y114500I-8535J8535D01*
G01*
X357515Y103500D02*
G03*
X363464Y105965I0J8414D01*
G01*
X146965Y107036D02*
G03*
X155500Y103500I8535J8535D01*
G01*
X145000Y111778D02*
G03*
X146965Y107036I6707J0D01*
G01*
X148536Y337035D02*
G03*
X145000Y328500I8535J-8535D01*
G01*
X163500Y347000D02*
G03*
X154964Y343464I0J-12071D01*
G01*
X281000Y347000D02*
X351500D01*
X360035Y343464D02*
X363464Y340036D01*
X367000Y114500D02*
Y331500D01*
X155500Y103500D02*
X357515D01*
X145000Y111778D02*
Y319500D01*
Y328500D01*
X148536Y337035D02*
X154964Y343464D01*
X163500Y347000D02*
X281000D01*
D15*
X216653Y270953D02*
D03*
X154848Y215000D02*
D03*
D16*
X216653Y260953D02*
D03*
Y250953D02*
D03*
Y240953D02*
D03*
Y230953D02*
D03*
Y220953D02*
D03*
X154848Y205000D02*
D03*
X257000Y111000D02*
D03*
D17*
X342000Y133000D02*
D03*
Y143000D02*
D03*
Y153000D02*
D03*
Y163000D02*
D03*
X176646Y153000D02*
D03*
Y143000D02*
D03*
Y133000D02*
D03*
X231646Y181000D02*
D03*
Y191000D02*
D03*
Y201000D02*
D03*
Y211000D02*
D03*
Y221000D02*
D03*
Y231000D02*
D03*
Y241000D02*
D03*
Y251000D02*
D03*
Y261000D02*
D03*
Y271000D02*
D03*
Y281000D02*
D03*
Y291000D02*
D03*
Y301000D02*
D03*
Y311000D02*
D03*
Y321000D02*
D03*
Y331000D02*
D03*
X241646Y181000D02*
D03*
X251646D02*
D03*
X261646D02*
D03*
X271646D02*
D03*
X281646D02*
D03*
X291646D02*
D03*
X301646D02*
D03*
X311646D02*
D03*
X321646D02*
D03*
X331646D02*
D03*
X341646D02*
D03*
Y191000D02*
D03*
Y201000D02*
D03*
Y211000D02*
D03*
Y221000D02*
D03*
Y231000D02*
D03*
Y241000D02*
D03*
Y251000D02*
D03*
Y261000D02*
D03*
Y271000D02*
D03*
Y281000D02*
D03*
Y291000D02*
D03*
Y301000D02*
D03*
Y311000D02*
D03*
Y321000D02*
D03*
Y331000D02*
D03*
X157480Y118110D02*
D03*
X358268D02*
D03*
X157480Y322835D02*
D03*
X358268D02*
D03*
D18*
X176646Y163000D02*
D03*
D19*
X247000Y111000D02*
D03*
D20*
X215000Y198000D02*
D03*
X190500Y222000D02*
D03*
M02*
