M48
;Layer_Color=9474304
;FILE_FORMAT=2:5
INCH,TZ
;TYPE=PLATED
T1F00S00C0.02800
T2F00S00C0.03000
T3F00S00C0.03543
T4F00S00C0.13780
%
T01
X190500Y222000
X215000Y198000
T02
X176646Y133000
Y143000
Y153000
X342000
Y143000
Y133000
Y163000
X341646Y181000
X331646
X321646
X341646Y191000
Y201000
Y211000
Y221000
Y231000
Y241000
Y251000
Y261000
Y271000
Y281000
Y291000
Y301000
Y311000
X231646
Y301000
Y291000
Y281000
Y271000
Y261000
Y251000
Y241000
Y231000
Y221000
Y211000
Y201000
Y191000
Y181000
X241646
X251646
X261646
X271646
X281646
X291646
X301646
X311646
X176646Y163000
X231646Y321000
Y331000
X341646
Y321000
T03
X247000Y111000
X257000
X216653Y220953
Y230953
Y240953
Y250953
Y260953
Y270953
X154848Y215000
Y205000
T04
X157480Y118110
X358268
X157480Y322835
X358268
M30
